<?xml version="1.0" encoding="utf-8"?>
<!-- Generator: Adobe Illustrator 16.0.3, SVG Export Plug-In . SVG Version: 6.00 Build 0)  -->
<!DOCTYPE svg PUBLIC "-//W3C//DTD SVG 1.1//EN" "http://www.w3.org/Graphics/SVG/1.1/DTD/svg11.dtd">
<svg version="1.1" id="Layer_1" xmlns="http://www.w3.org/2000/svg" xmlns:xlink="http://www.w3.org/1999/xlink" x="0px" y="0px"
	 width="55px" height="55px" viewBox="0 0 55 55" enable-background="new 0 0 55 55" xml:space="preserve">
<g>
	<g>
		<path fill-rule="evenodd" clip-rule="evenodd" fill="#A4C639" d="M27.551,2.016c7.337,0,14.675,0.011,22.013-0.017
			c0.764-0.003,0.998,0.21,0.922,0.958c-0.27,2.633-0.501,5.27-0.739,7.906c-0.177,1.946-0.339,3.894-0.514,5.84
			c-0.239,2.662-0.489,5.323-0.728,7.985c-0.178,1.971-0.341,3.944-0.519,5.916c-0.239,2.662-0.49,5.323-0.729,7.985
			c-0.179,1.997-0.347,3.995-0.518,5.994c-0.109,1.28-0.173,2.566-0.354,3.837c-0.037,0.257-0.474,0.571-0.783,0.658
			c-4.501,1.266-9.012,2.498-13.521,3.738c-1.37,0.377-2.737,0.768-4.114,1.118c-0.309,0.079-0.674,0.093-0.978,0.009
			c-5.908-1.609-11.811-3.241-17.717-4.857c-0.496-0.136-0.678-0.378-0.719-0.914c-0.212-2.716-0.491-5.426-0.732-8.14
			c-0.226-2.534-0.428-5.072-0.655-7.606c-0.237-2.663-0.496-5.323-0.736-7.984c-0.176-1.946-0.332-3.894-0.506-5.84
			c-0.242-2.687-0.498-5.374-0.741-8.061C5.012,8.62,4.849,6.699,4.684,4.778C4.626,4.112,4.602,3.442,4.515,2.781
			C4.43,2.138,4.706,1.992,5.304,2.004c1.633,0.034,3.267,0.012,4.901,0.012C15.987,2.016,21.769,2.016,27.551,2.016z"/>
		<path opacity="0.2" fill-rule="evenodd" clip-rule="evenodd" fill="#FFFFFF" d="M45.155,12.383
			c0.175-2.15,0.348-4.301,0.547-6.448c0.061-0.654-0.125-0.84-0.729-0.838c-5.811,0.024-11.622,0.015-17.432,0.015
			c-0.014,0-0.027,0-0.041,0v7.271H45.155z"/>
		<path opacity="0.2" fill-rule="evenodd" clip-rule="evenodd" fill="#FFFFFF" d="M27.418,13.251l0.164,38.002
			c0.127-0.005,0.255-0.024,0.372-0.059c1.089-0.312,2.17-0.658,3.254-0.992c3.565-1.101,7.132-2.194,10.691-3.317
			c0.245-0.077,0.59-0.354,0.617-0.579c0.139-1.111,0.186-2.237,0.267-3.358c0.127-1.749,0.253-3.498,0.387-5.247
			c0.179-2.33,0.367-4.66,0.547-6.99c0.133-1.726,0.255-3.452,0.388-5.178c0.18-2.33,0.367-4.66,0.547-6.99
			c0.131-1.704,0.252-3.408,0.384-5.112c0.007-0.085,0.014-0.17,0.02-0.255L27.418,13.251z"/>
		<path fill-rule="evenodd" clip-rule="evenodd" fill="#FFFFFF" d="M48.781,2.923C41.704,2.95,34.627,2.939,27.549,2.939
			c-5.577,0-11.153,0-16.73,0c-1.576,0-3.152,0.022-4.727-0.012C5.516,2.916,5.25,3.057,5.332,3.676
			c0.083,0.639,0.107,1.285,0.163,1.927c0.159,1.853,0.316,3.706,0.484,5.558c0.234,2.592,0.48,5.183,0.714,7.775
			c0.169,1.876,0.319,3.755,0.488,5.631c0.232,2.568,0.481,5.133,0.71,7.701c0.218,2.444,0.414,4.892,0.631,7.336
			c0.234,2.617,0.502,5.231,0.707,7.851c0.04,0.517,0.216,0.751,0.693,0.882c5.697,1.56,11.39,3.133,17.088,4.686
			c0.293,0.08,0.646,0.066,0.943-0.009c1.328-0.339,2.646-0.716,3.968-1.079c4.349-1.196,8.699-2.385,13.041-3.605
			c0.298-0.084,0.719-0.388,0.754-0.635c0.175-1.225,0.236-2.466,0.342-3.7c0.165-1.928,0.327-3.855,0.499-5.782
			c0.23-2.567,0.472-5.134,0.703-7.701c0.171-1.901,0.328-3.804,0.499-5.705c0.231-2.567,0.472-5.134,0.703-7.701
			c0.169-1.877,0.324-3.755,0.494-5.633c0.23-2.542,0.454-5.085,0.714-7.625C49.743,3.126,49.518,2.92,48.781,2.923z M48.884,4.703
			c-0.251,2.45-0.466,4.903-0.688,7.355c-0.164,1.811-0.314,3.623-0.478,5.433c-0.224,2.476-0.455,4.952-0.678,7.428
			c-0.165,1.834-0.317,3.669-0.482,5.503c-0.222,2.477-0.455,4.952-0.677,7.429c-0.167,1.858-0.323,3.717-0.481,5.576
			c-0.102,1.191-0.161,2.388-0.33,3.569c-0.034,0.238-0.44,0.531-0.728,0.612c-4.188,1.178-8.384,2.324-12.578,3.478
			c-1.275,0.351-2.547,0.714-3.828,1.041c-0.288,0.073-0.626,0.085-0.91,0.009c-5.496-1.498-10.987-3.016-16.481-4.52
			c-0.461-0.126-0.63-0.352-0.669-0.851c-0.197-2.526-0.456-5.048-0.681-7.572c-0.21-2.357-0.398-4.718-0.609-7.076
			C8.365,29.64,8.125,27.166,7.9,24.689c-0.164-1.811-0.308-3.622-0.471-5.432c-0.226-2.5-0.463-5-0.689-7.5
			C6.58,9.971,6.428,8.184,6.274,6.397c-0.053-0.62-0.076-1.243-0.157-1.858C6.038,3.941,6.295,3.805,6.852,3.816
			c1.519,0.032,3.039,0.011,4.559,0.011c5.379,0,10.758,0,16.137,0c6.827,0,13.653,0.01,20.479-0.016
			C48.737,3.809,48.954,4.008,48.884,4.703z"/>
		<g>
			<path fill="#FFFFFF" d="M13.864,6.52h3.195c0.13,0,0.242,0.045,0.336,0.137c0.094,0.091,0.141,0.199,0.141,0.324v3.422H16.59
				v-1.18h-2.256v1.18h-0.946V6.981c0-0.125,0.046-0.233,0.14-0.324C13.621,6.565,13.733,6.52,13.864,6.52z M16.59,8.461V7.284
				h-2.256v1.177H16.59z"/>
			<path fill="#FFFFFF" d="M18.843,8.178v2.225h-0.944V6.33l3.203,2.415V6.52h0.944v4.071L18.843,8.178z"/>
			<path fill="#FFFFFF" d="M26.416,6.657c0.095,0.091,0.143,0.199,0.143,0.324v2.961c0,0.127-0.047,0.235-0.143,0.326
				s-0.208,0.135-0.337,0.135h-3.669V6.52h3.669C26.208,6.52,26.32,6.565,26.416,6.657z M23.353,7.284v2.354h2.259V7.284H23.353z"/>
			<path fill="#FFFFFF" d="M30.591,6.52c0.13,0,0.242,0.045,0.337,0.137c0.095,0.091,0.143,0.199,0.143,0.324v1.781
				c0,0.128-0.048,0.237-0.143,0.327s-0.207,0.134-0.337,0.134h-0.083l0.741,1.18h-1.104l-0.741-1.18h-1.538v1.18h-0.944V6.52
				H30.591z M30.124,8.461V7.284h-2.259v1.177H30.124z"/>
			<path fill="#FFFFFF" d="M35.284,6.52c0.13,0,0.242,0.045,0.336,0.137c0.094,0.091,0.142,0.199,0.142,0.324v2.961
				c0,0.127-0.048,0.235-0.142,0.326s-0.206,0.135-0.336,0.135h-3.192c-0.131,0-0.244-0.045-0.338-0.135
				c-0.095-0.09-0.142-0.199-0.142-0.326V6.981c0-0.125,0.047-0.233,0.142-0.324c0.094-0.091,0.207-0.137,0.338-0.137H35.284z
				 M34.817,7.284h-2.259v2.354h2.259V7.284z"/>
			<path fill="#FFFFFF" d="M36.125,10.403V6.52h0.943v3.883H36.125z"/>
			<path fill="#FFFFFF" d="M41.438,6.657c0.095,0.091,0.143,0.199,0.143,0.324v2.961c0,0.127-0.048,0.235-0.143,0.326
				c-0.096,0.09-0.208,0.135-0.338,0.135h-3.669V6.52h3.669C41.23,6.52,41.343,6.565,41.438,6.657z M38.375,7.284v2.354h2.26V7.284
				H38.375z"/>
		</g>
	</g>
	<g>
		<path fill-rule="evenodd" clip-rule="evenodd" fill="#FFFFFF" d="M19.984,31.692c-0.001,0-0.001,0-0.002,0
			c0-0.974,0-1.947,0-2.921c0-0.349-0.087-0.671-0.273-0.971c-0.403-0.649-1.304-0.829-1.92-0.377
			c-0.483,0.354-0.648,0.847-0.648,1.417c0,1.915,0,3.83,0,5.744c0,0.442,0.138,0.831,0.43,1.17
			c0.437,0.507,1.243,0.592,1.774,0.185c0.465-0.356,0.638-0.841,0.638-1.404C19.984,33.588,19.984,32.64,19.984,31.692z
			 M34.853,31.652c0,0.973,0.001,1.946-0.001,2.92c0,0.44,0.127,0.831,0.419,1.172c0.438,0.513,1.265,0.601,1.79,0.19
			c0.462-0.362,0.634-0.844,0.634-1.406c-0.001-1.914,0.005-3.829-0.008-5.743c-0.001-0.251-0.057-0.516-0.149-0.749
			c-0.387-0.977-1.641-1.164-2.313-0.358c-0.283,0.34-0.375,0.738-0.373,1.169C34.854,29.782,34.852,30.717,34.853,31.652z"/>
		<path fill-rule="evenodd" clip-rule="evenodd" fill="#FFFFFF" d="M24.615,43.45c-0.164-0.075-0.34-0.132-0.489-0.229
			c-0.432-0.281-0.662-0.697-0.672-1.202c-0.022-1.038-0.015-2.076-0.02-3.114c-0.002-0.478,0.032-0.413-0.416-0.417
			c-0.324-0.003-0.649,0.002-0.973,0.001c-0.696-0.002-1.257-0.542-1.282-1.236c-0.003-0.091-0.001-0.181-0.001-0.271
			c0-3.104,0-6.206,0-9.308c0-0.293,0-0.295,0.294-0.295c4.178,0,8.355,0,12.533,0c0.486,0,0.486,0,0.486,0.492
			c0.002,3.063-0.001,6.128,0.01,9.191c0.002,0.522-0.182,0.922-0.603,1.228c-0.198,0.145-0.419,0.195-0.656,0.196
			c-0.396,0.002-0.792,0.009-1.188-0.004c-0.175-0.005-0.221,0.056-0.22,0.222c0.006,1.007,0.005,2.013,0.001,3.019
			c-0.001,0.413-0.068,0.805-0.332,1.148c-0.197,0.257-0.444,0.425-0.746,0.526c-0.041,0.014-0.08,0.035-0.12,0.053
			c-0.156,0-0.312,0-0.467,0c-0.022-0.014-0.042-0.031-0.065-0.039c-0.703-0.238-1.055-0.689-1.104-1.423
			c-0.008-0.109-0.011-0.22-0.011-0.329c-0.001-0.948,0-1.896-0.003-2.844c0-0.319-0.003-0.319-0.314-0.319
			c-0.512,0-1.024,0-1.537,0c-0.452,0-0.453,0-0.453,0.46c-0.001,0.961-0.004,1.921,0,2.882c0.002,0.512-0.15,0.96-0.557,1.282
			c-0.182,0.145-0.417,0.222-0.627,0.33C24.926,43.45,24.771,43.45,24.615,43.45z"/>
		<path fill-rule="evenodd" clip-rule="evenodd" fill="#FFFFFF" d="M31.661,19.219c-0.009,0.095,0.011,0.206-0.031,0.283
			c-0.314,0.563-0.64,1.12-0.966,1.676c-0.079,0.133-0.067,0.208,0.081,0.285c0.854,0.448,1.583,1.05,2.16,1.82
			c0.617,0.823,0.977,1.752,1.09,2.775c0.004,0.038,0.005,0.077,0.009,0.116c0.054,0.476,0.069,0.433-0.387,0.433
			c-4.183,0.001-8.366,0-12.549,0c-0.261,0-0.265-0.013-0.248-0.28c0.068-1.082,0.417-2.065,1.046-2.949
			c0.536-0.753,1.22-1.346,2.023-1.803c0.391-0.222,0.389-0.217,0.166-0.597c-0.291-0.495-0.579-0.991-0.858-1.492
			c-0.04-0.072-0.017-0.178-0.023-0.268c0.052,0,0.104,0,0.156,0c0.371,0.641,0.744,1.279,1.112,1.922
			c0.064,0.113,0.134,0.084,0.226,0.048c0.624-0.243,1.264-0.429,1.933-0.493c1.233-0.117,2.431,0.03,3.583,0.501
			c0.107,0.044,0.165,0.024,0.22-0.072c0.143-0.252,0.288-0.503,0.438-0.752c0.232-0.386,0.469-0.77,0.703-1.154
			C31.583,19.219,31.622,19.219,31.661,19.219z M31.191,23.835c0-0.345-0.277-0.624-0.624-0.629
			c-0.357-0.005-0.634,0.278-0.628,0.642c0.005,0.318,0.311,0.602,0.642,0.596C30.893,24.439,31.192,24.14,31.191,23.835z
			 M24.901,23.836c0.004-0.338-0.266-0.621-0.602-0.63c-0.355-0.01-0.658,0.289-0.655,0.644c0.003,0.292,0.321,0.594,0.628,0.595
			C24.603,24.446,24.897,24.161,24.901,23.836z"/>
		<path fill-rule="evenodd" clip-rule="evenodd" fill="#FFFFFF" d="M19.984,31.692c0,0.947,0,1.896,0,2.843
			c0,0.563-0.172,1.048-0.638,1.404c-0.531,0.407-1.337,0.322-1.774-0.185c-0.292-0.339-0.43-0.728-0.43-1.17
			c0-1.914,0-3.829,0-5.744c0-0.57,0.165-1.064,0.648-1.417c0.616-0.451,1.517-0.272,1.92,0.377c0.187,0.3,0.273,0.622,0.273,0.971
			c0,0.974,0,1.947,0,2.921C19.982,31.692,19.983,31.692,19.984,31.692z"/>
		<path fill-rule="evenodd" clip-rule="evenodd" fill="#FFFFFF" d="M34.853,31.652c-0.001-0.936,0.002-1.87-0.002-2.805
			c-0.002-0.432,0.09-0.829,0.373-1.169c0.673-0.806,1.927-0.619,2.313,0.358c0.093,0.233,0.148,0.498,0.149,0.749
			c0.013,1.914,0.007,3.829,0.008,5.743c0,0.563-0.172,1.044-0.634,1.406c-0.525,0.41-1.352,0.322-1.79-0.19
			c-0.292-0.341-0.419-0.731-0.419-1.172C34.854,33.599,34.853,32.625,34.853,31.652z"/>
	</g>
</g>
</svg>
