<?xml version="1.0" encoding="utf-8"?>
<!-- Generator: Adobe Illustrator 16.0.3, SVG Export Plug-In . SVG Version: 6.00 Build 0)  -->
<!DOCTYPE svg PUBLIC "-//W3C//DTD SVG 1.1//EN" "http://www.w3.org/Graphics/SVG/1.1/DTD/svg11.dtd">
<svg version="1.1" id="Layer_1" xmlns="http://www.w3.org/2000/svg" xmlns:xlink="http://www.w3.org/1999/xlink" x="0px" y="0px"
	 width="55px" height="55px" viewBox="0 0 55 55" enable-background="new 0 0 55 55" xml:space="preserve">
<g>
	<g>
		<path fill-rule="evenodd" clip-rule="evenodd" fill="#F41414" d="M27.551,2.016c7.337,0,14.676,0.011,22.013-0.017
			c0.764-0.003,0.998,0.21,0.922,0.958c-0.269,2.633-0.5,5.27-0.739,7.906c-0.177,1.946-0.338,3.894-0.514,5.84
			c-0.239,2.662-0.489,5.323-0.728,7.985c-0.178,1.971-0.341,3.944-0.519,5.916c-0.239,2.662-0.489,5.323-0.729,7.985
			c-0.179,1.997-0.347,3.996-0.517,5.994c-0.109,1.28-0.174,2.567-0.354,3.837c-0.037,0.257-0.474,0.571-0.782,0.658
			c-4.501,1.266-9.013,2.498-13.521,3.738c-1.37,0.377-2.737,0.768-4.114,1.119c-0.309,0.078-0.674,0.092-0.978,0.009
			c-5.908-1.61-11.81-3.242-17.717-4.858c-0.495-0.136-0.677-0.378-0.719-0.914c-0.211-2.716-0.491-5.426-0.732-8.14
			c-0.227-2.534-0.429-5.071-0.655-7.606c-0.238-2.662-0.496-5.323-0.737-7.984c-0.176-1.946-0.331-3.894-0.506-5.839
			c-0.242-2.688-0.498-5.374-0.74-8.062C5.012,8.62,4.849,6.699,4.684,4.778C4.626,4.112,4.602,3.442,4.515,2.78
			c-0.084-0.642,0.191-0.789,0.79-0.776c1.633,0.035,3.267,0.012,4.9,0.012C15.987,2.016,21.769,2.016,27.551,2.016z"/>
		<path opacity="0.2" fill-rule="evenodd" clip-rule="evenodd" fill="#FFFFFF" d="M45.155,12.382c0.176-2.15,0.348-4.3,0.547-6.448
			c0.061-0.653-0.125-0.84-0.729-0.837c-5.811,0.024-11.621,0.015-17.432,0.015c-0.014,0-0.027,0-0.041,0v7.271H45.155z"/>
		<path opacity="0.2" fill-rule="evenodd" clip-rule="evenodd" fill="#FFFFFF" d="M27.418,13.251l0.164,38.002
			c0.127-0.005,0.255-0.024,0.372-0.058c1.089-0.313,2.17-0.659,3.254-0.993c3.565-1.101,7.132-2.194,10.692-3.317
			c0.244-0.077,0.589-0.354,0.617-0.578c0.138-1.112,0.185-2.238,0.266-3.358c0.128-1.75,0.254-3.499,0.387-5.248
			c0.18-2.33,0.367-4.659,0.547-6.989c0.133-1.727,0.255-3.453,0.388-5.179c0.18-2.33,0.367-4.66,0.547-6.99
			c0.131-1.704,0.252-3.408,0.384-5.112c0.007-0.085,0.014-0.17,0.021-0.256L27.418,13.251z"/>
		<g>
			<path fill="#FFFFFF" d="M11.899,7.116h3.253c0.132,0,0.246,0.038,0.342,0.112s0.144,0.164,0.144,0.267v2.816h-0.964V9.34h-2.297
				v0.971h-0.964V7.495c0-0.104,0.047-0.192,0.143-0.267C11.65,7.153,11.765,7.116,11.899,7.116z M14.674,8.713V7.744h-2.297v0.969
				H14.674z"/>
			<path fill="#FFFFFF" d="M16.969,8.48v1.831h-0.961V6.959l3.261,1.987V7.116h0.961v3.35L16.969,8.48z"/>
			<path fill="#FFFFFF" d="M21.085,7.116h3.497v0.628h-3.021v1.938h2.3V9.026h-0.964V8.398h1.925v1.534
				c0,0.104-0.048,0.194-0.144,0.268s-0.21,0.111-0.342,0.111h-3.25c-0.134,0-0.248-0.037-0.343-0.111
				c-0.095-0.074-0.142-0.164-0.142-0.268V7.495c0-0.104,0.047-0.192,0.142-0.267C20.837,7.153,20.952,7.116,21.085,7.116z"/>
			<path fill="#FFFFFF" d="M28.453,7.116h0.962v2.816c0,0.104-0.048,0.194-0.143,0.268c-0.096,0.074-0.21,0.111-0.344,0.111h-3.251
				c-0.134,0-0.248-0.037-0.343-0.111c-0.095-0.074-0.143-0.164-0.143-0.268V7.116h0.961v2.566h2.3V7.116z"/>
			<path fill="#FFFFFF" d="M30.745,7.116v2.566h3.262v0.629h-4.223V7.116H30.745z"/>
			<path fill="#FFFFFF" d="M34.862,7.116h3.253c0.133,0,0.246,0.038,0.342,0.112c0.097,0.075,0.145,0.164,0.145,0.267v2.816h-0.964
				V9.34H35.34v0.971h-0.963V7.495c0-0.104,0.047-0.192,0.142-0.267C34.614,7.153,34.729,7.116,34.862,7.116z M37.638,8.713V7.744
				H35.34v0.969H37.638z"/>
			<path fill="#FFFFFF" d="M42.707,7.116c0.133,0,0.247,0.038,0.344,0.112s0.146,0.164,0.146,0.267V8.96
				c0,0.106-0.049,0.196-0.146,0.269c-0.097,0.074-0.211,0.11-0.344,0.11h-0.084l0.755,0.971h-1.125L41.498,9.34h-1.565v0.971
				h-0.962V7.116H42.707z M42.232,8.713V7.744h-2.3v0.969H42.232z"/>
		</g>
		<path fill-rule="evenodd" clip-rule="evenodd" fill="#FFFFFF" d="M48.781,2.923C41.704,2.95,34.627,2.939,27.549,2.939
			c-5.577,0-11.153,0-16.73,0c-1.575,0-3.151,0.022-4.726-0.012C5.516,2.916,5.25,3.057,5.332,3.676
			c0.083,0.639,0.107,1.285,0.163,1.927c0.159,1.853,0.316,3.706,0.483,5.558c0.234,2.592,0.48,5.183,0.714,7.775
			c0.168,1.876,0.318,3.755,0.488,5.632c0.232,2.567,0.481,5.133,0.71,7.701c0.218,2.444,0.414,4.892,0.631,7.337
			c0.233,2.616,0.502,5.23,0.707,7.851c0.04,0.517,0.216,0.75,0.693,0.881c5.696,1.56,11.389,3.133,17.087,4.686
			c0.293,0.08,0.646,0.067,0.943-0.009c1.328-0.339,2.646-0.715,3.968-1.078c4.349-1.197,8.699-2.385,13.041-3.606
			c0.298-0.084,0.719-0.387,0.754-0.635c0.175-1.225,0.237-2.466,0.343-3.7c0.164-1.928,0.326-3.854,0.499-5.781
			c0.229-2.567,0.472-5.134,0.702-7.702c0.171-1.901,0.328-3.804,0.499-5.705c0.231-2.567,0.472-5.134,0.703-7.701
			c0.169-1.877,0.325-3.755,0.494-5.633c0.23-2.542,0.454-5.085,0.714-7.625C49.743,3.126,49.518,2.92,48.781,2.923z M48.884,4.703
			c-0.25,2.45-0.466,4.903-0.688,7.355c-0.164,1.811-0.314,3.623-0.478,5.433c-0.223,2.476-0.455,4.952-0.678,7.428
			c-0.165,1.834-0.316,3.669-0.482,5.503c-0.222,2.477-0.455,4.952-0.677,7.429c-0.166,1.858-0.323,3.718-0.481,5.576
			c-0.102,1.191-0.161,2.388-0.33,3.569c-0.033,0.239-0.439,0.531-0.728,0.612c-4.188,1.179-8.384,2.324-12.578,3.478
			c-1.275,0.352-2.547,0.715-3.827,1.041c-0.288,0.073-0.627,0.086-0.911,0.009c-5.496-1.498-10.987-3.016-16.481-4.52
			c-0.461-0.126-0.63-0.352-0.669-0.851c-0.197-2.525-0.457-5.048-0.682-7.571c-0.21-2.358-0.398-4.719-0.608-7.077
			c-0.221-2.477-0.462-4.952-0.686-7.428c-0.164-1.811-0.308-3.622-0.471-5.433c-0.226-2.5-0.463-4.999-0.688-7.499
			C6.58,9.971,6.428,8.184,6.274,6.397c-0.053-0.62-0.077-1.243-0.157-1.858C6.039,3.941,6.295,3.805,6.852,3.816
			c1.519,0.032,3.039,0.011,4.559,0.011c5.379,0,10.758,0,16.137,0c6.827,0,13.654,0.01,20.479-0.016
			C48.737,3.809,48.955,4.008,48.884,4.703z"/>
		<g>
			<path fill="#FFFFFF" d="M22.889,34.324l-2.731,8.223h-3.511l8.933-26.144h4.096l8.973,26.144h-3.628l-2.809-8.223H22.889z
				 M31.511,31.687l-2.575-7.525c-0.585-1.707-0.975-3.258-1.365-4.771h-0.078c-0.39,1.552-0.819,3.142-1.327,4.732l-2.575,7.564
				H31.511z"/>
		</g>
	</g>
</g>
</svg>
