<?xml version="1.0" encoding="utf-8"?>
<!-- Generator: Adobe Illustrator 16.0.3, SVG Export Plug-In . SVG Version: 6.00 Build 0)  -->
<!DOCTYPE svg PUBLIC "-//W3C//DTD SVG 1.1//EN" "http://www.w3.org/Graphics/SVG/1.1/DTD/svg11.dtd">
<svg version="1.1" id="Layer_1" xmlns="http://www.w3.org/2000/svg" xmlns:xlink="http://www.w3.org/1999/xlink" x="0px" y="0px"
	 width="55px" height="55px" viewBox="0 0 55 55" enable-background="new 0 0 55 55" xml:space="preserve">
<g>
	<g>
		<path fill-rule="evenodd" clip-rule="evenodd" fill="#668907" d="M27.551,2.016c7.337,0,14.675,0.011,22.013-0.017
			c0.764-0.003,0.998,0.21,0.922,0.958c-0.27,2.633-0.501,5.27-0.739,7.906c-0.177,1.946-0.339,3.894-0.514,5.84
			c-0.239,2.662-0.489,5.323-0.728,7.985c-0.178,1.971-0.341,3.944-0.519,5.916c-0.239,2.662-0.49,5.323-0.729,7.985
			c-0.179,1.997-0.347,3.995-0.518,5.994c-0.109,1.28-0.173,2.566-0.354,3.837c-0.037,0.257-0.474,0.571-0.783,0.658
			c-4.501,1.266-9.012,2.498-13.521,3.738c-1.37,0.377-2.737,0.768-4.114,1.118c-0.309,0.079-0.674,0.093-0.978,0.009
			c-5.908-1.609-11.811-3.241-17.717-4.857c-0.496-0.136-0.678-0.378-0.719-0.914c-0.212-2.716-0.491-5.426-0.732-8.14
			c-0.226-2.534-0.428-5.072-0.655-7.606c-0.237-2.663-0.496-5.323-0.736-7.984c-0.176-1.946-0.332-3.894-0.506-5.84
			c-0.242-2.687-0.498-5.374-0.741-8.061C5.012,8.62,4.849,6.699,4.684,4.778C4.626,4.112,4.602,3.442,4.515,2.781
			C4.43,2.138,4.706,1.992,5.304,2.004c1.633,0.034,3.267,0.012,4.901,0.012C15.987,2.016,21.769,2.016,27.551,2.016z"/>
		<path opacity="0.2" fill-rule="evenodd" clip-rule="evenodd" fill="#FFFFFF" d="M45.155,12.383
			c0.175-2.15,0.348-4.301,0.547-6.448c0.061-0.654-0.125-0.84-0.729-0.838c-5.811,0.024-11.622,0.015-17.432,0.015
			c-0.014,0-0.027,0-0.041,0v7.271H45.155z"/>
		<path opacity="0.2" fill-rule="evenodd" clip-rule="evenodd" fill="#FFFFFF" d="M27.418,13.251l0.164,38.002
			c0.127-0.005,0.255-0.024,0.372-0.059c1.089-0.312,2.17-0.658,3.254-0.992c3.565-1.101,7.132-2.194,10.691-3.317
			c0.245-0.077,0.59-0.354,0.617-0.579c0.139-1.111,0.186-2.237,0.267-3.358c0.127-1.749,0.253-3.498,0.387-5.247
			c0.179-2.33,0.367-4.66,0.547-6.99c0.133-1.726,0.255-3.452,0.388-5.178c0.18-2.33,0.367-4.66,0.547-6.99
			c0.131-1.704,0.252-3.408,0.384-5.112c0.007-0.085,0.014-0.17,0.02-0.255L27.418,13.251z"/>
		<path fill-rule="evenodd" clip-rule="evenodd" fill="#FFFFFF" d="M48.781,2.923C41.704,2.95,34.627,2.939,27.549,2.939
			c-5.577,0-11.153,0-16.73,0c-1.576,0-3.152,0.022-4.727-0.012C5.516,2.916,5.25,3.057,5.332,3.676
			c0.083,0.639,0.107,1.285,0.163,1.927c0.159,1.853,0.316,3.706,0.484,5.558c0.234,2.592,0.48,5.183,0.714,7.775
			c0.169,1.876,0.319,3.755,0.488,5.631c0.232,2.568,0.481,5.133,0.71,7.701c0.218,2.444,0.414,4.892,0.631,7.336
			c0.234,2.617,0.502,5.231,0.707,7.851c0.04,0.517,0.216,0.751,0.693,0.882c5.697,1.56,11.39,3.133,17.088,4.686
			c0.293,0.08,0.646,0.066,0.943-0.009c1.328-0.339,2.646-0.716,3.968-1.079c4.349-1.196,8.699-2.385,13.041-3.605
			c0.298-0.084,0.719-0.388,0.754-0.635c0.175-1.225,0.236-2.466,0.342-3.7c0.165-1.928,0.327-3.855,0.499-5.782
			c0.23-2.567,0.472-5.134,0.703-7.701c0.171-1.901,0.328-3.804,0.499-5.705c0.231-2.567,0.472-5.134,0.703-7.701
			c0.169-1.877,0.324-3.755,0.494-5.633c0.23-2.542,0.454-5.085,0.714-7.625C49.743,3.126,49.518,2.92,48.781,2.923z M48.884,4.703
			c-0.251,2.45-0.466,4.903-0.688,7.355c-0.164,1.811-0.314,3.623-0.478,5.433c-0.224,2.476-0.455,4.952-0.678,7.428
			c-0.165,1.834-0.317,3.669-0.482,5.503c-0.222,2.477-0.455,4.952-0.677,7.429c-0.167,1.858-0.323,3.717-0.481,5.576
			c-0.102,1.191-0.161,2.388-0.33,3.569c-0.034,0.238-0.44,0.531-0.728,0.612c-4.188,1.178-8.384,2.324-12.578,3.478
			c-1.275,0.351-2.547,0.714-3.828,1.041c-0.288,0.073-0.626,0.085-0.91,0.009c-5.496-1.498-10.987-3.016-16.481-4.52
			c-0.461-0.126-0.63-0.352-0.669-0.851c-0.197-2.526-0.456-5.048-0.681-7.572c-0.21-2.357-0.398-4.718-0.609-7.076
			C8.365,29.64,8.125,27.166,7.9,24.689c-0.164-1.811-0.308-3.622-0.471-5.432c-0.226-2.5-0.463-5-0.689-7.5
			C6.58,9.971,6.428,8.184,6.274,6.397c-0.053-0.62-0.076-1.243-0.157-1.858C6.038,3.941,6.295,3.805,6.852,3.816
			c1.519,0.032,3.039,0.011,4.559,0.011c5.379,0,10.758,0,16.137,0c6.827,0,13.653,0.01,20.479-0.016
			C48.737,3.809,48.954,4.008,48.884,4.703z"/>
		<g>
			<path fill="#FFFFFF" d="M22.471,6.783h3.595c0.146,0,0.272,0.052,0.378,0.154c0.106,0.102,0.159,0.224,0.159,0.365v3.851h-1.065
				V9.825H23v1.328h-1.065V7.302c0-0.141,0.052-0.263,0.157-0.365C22.197,6.834,22.323,6.783,22.471,6.783z M25.539,8.968V7.643H23
				v1.325H25.539z"/>
			<path fill="#FFFFFF" d="M31.142,6.783c0.147,0,0.274,0.052,0.381,0.154c0.105,0.102,0.158,0.224,0.158,0.365v2.004
				c0,0.145-0.053,0.267-0.158,0.368c-0.106,0.101-0.233,0.151-0.381,0.151h-3.064v1.328h-1.065v-4.37H31.142z M28.077,7.643v1.325
				h2.539V7.643H28.077z"/>
			<path fill="#FFFFFF" d="M32.09,11.152v-4.37h1.062v4.37H32.09z"/>
		</g>
	</g>
	<g>
		<g>
			<g>
				<path fill="#FFFFFF" d="M21.94,29.794l-2.38-0.427c-0.033-0.42-0.158-0.841-0.406-1.219c-0.787-1.199-2.404-1.537-3.61-0.754
					c-1.206,0.783-1.549,2.39-0.76,3.591c0.789,1.201,2.404,1.536,3.612,0.752c0.425-0.275,0.738-0.658,0.937-1.084l2.378,0.428
					C21.741,30.643,21.814,30.213,21.94,29.794z"/>
				<path fill="#FFFFFF" d="M28.056,25.578l-0.191-4.546c0.228-0.071,0.453-0.162,0.664-0.298c1.208-0.784,1.547-2.392,0.76-3.59
					c-0.79-1.197-2.404-1.536-3.614-0.75c-1.206,0.783-1.546,2.388-0.758,3.589c0.392,0.596,0.987,0.978,1.636,1.117l0.192,4.531
					C27.179,25.563,27.619,25.546,28.056,25.578z"/>
				<path fill="#FFFFFF" d="M36.604,23.938c-0.938,0.609-1.347,1.721-1.109,2.748L32.6,28.184c0.014,0.021,0.028,0.038,0.042,0.059
					c0.23,0.351,0.417,0.721,0.567,1.1l2.893-1.497c0.846,0.928,2.266,1.142,3.354,0.435c1.205-0.783,1.547-2.389,0.758-3.589
					C39.426,23.49,37.813,23.153,36.604,23.938z"/>
				<path fill="#FFFFFF" d="M34.71,37.347l-2.343-2.246c-0.265,0.341-0.564,0.658-0.91,0.941l2.342,2.246
					c-0.46,0.817-0.471,1.848,0.079,2.686c0.787,1.198,2.4,1.535,3.61,0.749c1.205-0.783,1.546-2.389,0.759-3.587
					C37.478,36.958,35.907,36.617,34.71,37.347z"/>
				<path fill="#FFFFFF" d="M23.461,35.698l-2.644,3.325c-0.781-0.342-1.71-0.298-2.477,0.199c-1.205,0.783-1.546,2.388-0.758,3.589
					c0.789,1.201,2.404,1.54,3.611,0.756c1.206-0.783,1.549-2.39,0.759-3.593c-0.032-0.049-0.073-0.09-0.11-0.136l2.652-3.334
					C24.125,36.275,23.775,36.01,23.461,35.698z"/>
				<path fill="#FFFFFF" d="M25.206,27.758c2.067-1.342,4.84-0.763,6.189,1.292c1.351,2.057,0.769,4.813-1.299,6.155
					c-2.067,1.343-4.84,0.765-6.19-1.292C22.556,31.857,23.138,29.101,25.206,27.758z"/>
			</g>
		</g>
	</g>
</g>
</svg>
