<?xml version="1.0" encoding="utf-8"?>
<!-- Generator: Adobe Illustrator 16.0.3, SVG Export Plug-In . SVG Version: 6.00 Build 0)  -->
<!DOCTYPE svg PUBLIC "-//W3C//DTD SVG 1.1//EN" "http://www.w3.org/Graphics/SVG/1.1/DTD/svg11.dtd">
<svg version="1.1" id="Layer_1" xmlns="http://www.w3.org/2000/svg" xmlns:xlink="http://www.w3.org/1999/xlink" x="0px" y="0px"
	 width="55px" height="55px" viewBox="0 0 55 55" enable-background="new 0 0 55 55" xml:space="preserve">
<g>
	<g>
		<g>
			<path fill-rule="evenodd" clip-rule="evenodd" fill="#755996" d="M27.551,2.016c7.337,0,14.676,0.011,22.014-0.017
				c0.763-0.003,0.997,0.21,0.921,0.957c-0.27,2.633-0.5,5.27-0.739,7.906c-0.176,1.946-0.338,3.894-0.514,5.84
				c-0.239,2.662-0.488,5.322-0.728,7.984c-0.178,1.972-0.341,3.944-0.519,5.916c-0.239,2.662-0.489,5.323-0.728,7.985
				c-0.179,1.997-0.348,3.995-0.518,5.994c-0.109,1.28-0.174,2.566-0.354,3.837c-0.037,0.257-0.474,0.571-0.782,0.658
				c-4.502,1.266-9.013,2.498-13.521,3.738c-1.37,0.377-2.737,0.768-4.114,1.118c-0.309,0.079-0.673,0.093-0.978,0.009
				c-5.909-1.609-11.811-3.241-17.717-4.857c-0.495-0.136-0.677-0.378-0.719-0.914c-0.212-2.716-0.49-5.426-0.732-8.14
				c-0.226-2.534-0.428-5.072-0.654-7.606c-0.238-2.663-0.496-5.323-0.737-7.985c-0.176-1.946-0.331-3.893-0.506-5.839
				c-0.242-2.688-0.498-5.374-0.74-8.061C5.012,8.62,4.849,6.699,4.684,4.778C4.626,4.112,4.602,3.442,4.515,2.78
				C4.431,2.138,4.706,1.992,5.304,2.004c1.633,0.035,3.267,0.012,4.9,0.012C15.987,2.016,21.769,2.016,27.551,2.016z"/>
			<path opacity="0.2" fill-rule="evenodd" clip-rule="evenodd" fill="#FFFFFF" d="M45.155,12.382
				c0.176-2.15,0.348-4.301,0.547-6.448c0.061-0.653-0.125-0.84-0.729-0.837c-5.811,0.024-11.621,0.014-17.432,0.014
				c-0.013,0-0.027,0-0.041,0v7.271H45.155z"/>
			<path opacity="0.2" fill-rule="evenodd" clip-rule="evenodd" fill="#FFFFFF" d="M27.418,13.251l0.164,38.002
				c0.127-0.005,0.255-0.024,0.372-0.059c1.089-0.312,2.17-0.658,3.254-0.992c3.565-1.101,7.133-2.194,10.692-3.317
				c0.244-0.077,0.589-0.354,0.617-0.579c0.138-1.111,0.185-2.237,0.266-3.358c0.128-1.749,0.253-3.498,0.387-5.247
				c0.18-2.33,0.367-4.66,0.547-6.99c0.133-1.726,0.255-3.452,0.388-5.178c0.18-2.33,0.367-4.659,0.547-6.989
				c0.131-1.704,0.252-3.409,0.384-5.112c0.007-0.085,0.014-0.17,0.021-0.255L27.418,13.251z"/>
			<path fill-rule="evenodd" clip-rule="evenodd" fill="#FFFFFF" d="M48.781,2.923C41.704,2.95,34.627,2.939,27.55,2.939
				c-5.577,0-11.154,0-16.731,0c-1.575,0-3.151,0.022-4.726-0.011C5.516,2.916,5.25,3.057,5.332,3.676
				C5.415,4.314,5.439,4.96,5.495,5.603c0.159,1.853,0.316,3.706,0.483,5.558c0.234,2.592,0.481,5.183,0.714,7.775
				c0.169,1.876,0.318,3.755,0.488,5.632c0.232,2.568,0.481,5.133,0.71,7.701c0.218,2.444,0.413,4.892,0.631,7.336
				c0.233,2.617,0.502,5.231,0.707,7.851c0.04,0.517,0.216,0.751,0.693,0.882c5.697,1.56,11.389,3.133,17.087,4.686
				c0.294,0.08,0.646,0.066,0.943-0.009c1.328-0.339,2.646-0.716,3.968-1.079c4.35-1.196,8.699-2.385,13.041-3.605
				c0.298-0.084,0.719-0.388,0.755-0.635c0.174-1.226,0.236-2.466,0.342-3.7c0.164-1.928,0.326-3.855,0.499-5.782
				c0.229-2.567,0.472-5.134,0.702-7.701c0.171-1.901,0.328-3.804,0.499-5.706c0.231-2.567,0.472-5.134,0.703-7.701
				c0.169-1.877,0.325-3.756,0.495-5.633c0.23-2.542,0.453-5.085,0.713-7.625C49.743,3.126,49.518,2.92,48.781,2.923z M48.884,4.703
				c-0.25,2.449-0.465,4.903-0.688,7.355c-0.164,1.811-0.314,3.622-0.478,5.433c-0.223,2.476-0.455,4.951-0.678,7.428
				c-0.165,1.834-0.316,3.669-0.481,5.503c-0.223,2.477-0.456,4.952-0.678,7.429c-0.166,1.858-0.323,3.717-0.481,5.576
				c-0.102,1.191-0.161,2.388-0.33,3.569c-0.033,0.238-0.439,0.531-0.728,0.612c-4.188,1.178-8.384,2.324-12.578,3.478
				c-1.275,0.351-2.547,0.714-3.828,1.041c-0.287,0.073-0.626,0.085-0.91,0.009c-5.497-1.498-10.987-3.016-16.482-4.52
				c-0.46-0.126-0.63-0.352-0.669-0.851c-0.197-2.526-0.457-5.048-0.681-7.572c-0.21-2.357-0.398-4.718-0.609-7.076
				c-0.221-2.478-0.462-4.952-0.686-7.428c-0.164-1.81-0.308-3.622-0.471-5.432c-0.225-2.5-0.463-5-0.688-7.5
				C6.58,9.971,6.428,8.184,6.274,6.397c-0.053-0.62-0.077-1.243-0.157-1.859C6.039,3.941,6.295,3.805,6.852,3.816
				c1.519,0.032,3.039,0.011,4.559,0.011c5.379,0,10.759,0,16.137,0c6.827,0,13.654,0.01,20.48-0.015
				C48.737,3.809,48.955,4.008,48.884,4.703z"/>
			<g>
				<path fill="#FFFFFF" d="M13.077,9.651c0,0.111-0.042,0.206-0.124,0.285c-0.083,0.079-0.181,0.119-0.294,0.119H9.448V6.659h3.005
					c0.113,0,0.211,0.04,0.293,0.12c0.082,0.08,0.124,0.174,0.124,0.284v0.749c0,0.131-0.07,0.224-0.211,0.276
					c0.113,0,0.211,0.04,0.294,0.12c0.082,0.08,0.124,0.174,0.124,0.284V9.651z M12.043,7.327h-1.767v0.694h1.767V7.327z
					 M12.25,8.689h-1.974v0.697h1.974V8.689z"/>
				<path fill="#FFFFFF" d="M16.606,6.659c0.113,0,0.211,0.04,0.293,0.12s0.124,0.174,0.124,0.284v2.589
					c0,0.111-0.041,0.206-0.124,0.285c-0.083,0.079-0.18,0.119-0.293,0.119h-2.792c-0.115,0-0.214-0.04-0.296-0.119
					c-0.082-0.079-0.124-0.173-0.124-0.285V7.062c0-0.11,0.042-0.204,0.124-0.284c0.083-0.08,0.181-0.12,0.296-0.12H16.606z
					 M16.198,7.327h-1.975v2.059h1.975V7.327z"/>
				<path fill="#FFFFFF" d="M20.553,6.659c0.113,0,0.211,0.04,0.294,0.12c0.082,0.08,0.124,0.174,0.124,0.284v2.589
					c0,0.111-0.042,0.206-0.124,0.285c-0.083,0.079-0.181,0.119-0.294,0.119h-2.792c-0.115,0-0.213-0.04-0.296-0.119
					c-0.083-0.079-0.124-0.173-0.124-0.285V7.062c0-0.11,0.041-0.204,0.124-0.284s0.181-0.12,0.296-0.12H20.553z M20.145,7.327
					h-1.976v2.059h1.976V7.327z"/>
				<path fill="#FFFFFF" d="M24.915,6.659v0.668h-1.399v2.728h-0.828V7.327h-1.399V6.659H24.915z"/>
				<path fill="#FFFFFF" d="M25.651,6.659h3.003v0.668H26.06v0.694h2.384c0.113,0,0.211,0.04,0.294,0.121
					c0.082,0.08,0.123,0.175,0.123,0.285v1.225c0,0.111-0.041,0.206-0.123,0.285c-0.083,0.079-0.181,0.119-0.294,0.119h-3.211V9.386
					h2.801V8.689h-2.382c-0.115,0-0.213-0.039-0.296-0.118c-0.083-0.079-0.124-0.174-0.124-0.285V7.062
					c0-0.11,0.041-0.204,0.124-0.284S25.537,6.659,25.651,6.659z"/>
				<path fill="#FFFFFF" d="M32.805,6.659v0.668h-1.399v2.728h-0.828V7.327h-1.399V6.659H32.805z"/>
				<path fill="#FFFFFF" d="M36.332,6.659c0.113,0,0.211,0.04,0.295,0.12c0.083,0.08,0.124,0.174,0.124,0.284V8.62
					c0,0.112-0.041,0.208-0.124,0.286c-0.084,0.078-0.182,0.117-0.295,0.117h-0.073l0.649,1.032h-0.967l-0.648-1.032h-1.345v1.032
					h-0.826V6.659H36.332z M35.924,8.356V7.327h-1.976v1.029H35.924z"/>
				<path fill="#FFFFFF" d="M37.643,6.659h2.795c0.113,0,0.211,0.04,0.293,0.12c0.083,0.08,0.124,0.174,0.124,0.284v2.993h-0.828
					V9.022h-1.973v1.032h-0.828V7.062c0-0.11,0.041-0.204,0.122-0.284C37.43,6.699,37.528,6.659,37.643,6.659z M40.026,8.356V7.327
					h-1.973v1.029H40.026z"/>
				<path fill="#FFFFFF" d="M44.381,6.659c0.115,0,0.214,0.04,0.296,0.12c0.083,0.08,0.124,0.174,0.124,0.284V8.62
					c0,0.112-0.041,0.208-0.124,0.286c-0.082,0.078-0.181,0.117-0.296,0.117H42v1.032h-0.828V6.659H44.381z M42,7.327v1.029h1.973
					V7.327H42z"/>
			</g>
		</g>
	</g>
	<g>
		<path fill-rule="evenodd" clip-rule="evenodd" fill="#FFFFFF" d="M40.353,29.814c0-3.091,0.003-6.183-0.005-9.273
			c-0.001-0.229-0.063-0.46-0.115-0.685c-0.186-0.791-0.641-1.406-1.255-1.927c-0.671-0.569-1.436-0.889-2.313-0.889
			c-5.968-0.006-11.936-0.006-17.903,0.002c-0.386,0-0.778,0.05-1.157,0.125c-1.762,0.35-2.954,2.001-2.956,3.705
			c-0.005,5.985-0.004,11.971,0.001,17.956c0,0.69,0.193,1.348,0.569,1.926c0.798,1.227,1.927,1.85,3.422,1.847
			c6.009-0.013,12.019-0.004,18.027-0.009c0.253,0,0.509-0.046,0.759-0.096c0.926-0.188,1.637-0.718,2.194-1.448
			c0.473-0.62,0.733-1.323,0.732-2.117C40.35,35.893,40.353,32.854,40.353,29.814z"/>
		<path fill-rule="evenodd" clip-rule="evenodd" fill="#FFFFFF" d="M40.353,29.814c0,3.039-0.003,6.078,0.002,9.117
			c0.001,0.794-0.26,1.497-0.732,2.117c-0.558,0.73-1.269,1.261-2.194,1.448c-0.25,0.05-0.506,0.096-0.759,0.096
			c-6.009,0.005-12.019-0.004-18.027,0.009c-1.495,0.003-2.624-0.62-3.422-1.847c-0.376-0.578-0.569-1.235-0.569-1.926
			c-0.006-5.985-0.006-11.971-0.001-17.956c0.001-1.704,1.194-3.355,2.956-3.705c0.379-0.076,0.771-0.125,1.157-0.125
			c5.967-0.008,11.935-0.009,17.903-0.002c0.878,0,1.643,0.32,2.313,0.889c0.614,0.521,1.069,1.137,1.255,1.927
			c0.053,0.225,0.114,0.456,0.115,0.685C40.355,23.632,40.353,26.723,40.353,29.814z M31.147,29.479
			c0.566-0.283,1.038-0.631,1.385-1.132c0.6-0.866,0.638-1.819,0.41-2.799c-0.22-0.944-0.819-1.585-1.688-2.002
			c-0.792-0.381-1.641-0.472-2.494-0.481c-2.089-0.022-4.179-0.008-6.268-0.009c-0.11,0-0.221,0-0.337,0c0,4.65,0,9.263,0,13.895
			c0.134,0,0.247,0,0.359,0c2.183,0,4.366-0.002,6.548,0.001c1.019,0.001,1.976-0.235,2.854-0.747c0.82-0.479,1.4-1.148,1.641-2.09
			c0.173-0.672,0.168-1.347,0.044-2.014c-0.127-0.685-0.431-1.286-0.943-1.792C32.23,29.889,31.706,29.684,31.147,29.479z"/>
		<path fill-rule="evenodd" clip-rule="evenodd" fill="#755996" d="M33.601,32.102c-0.127-0.685-0.431-1.286-0.943-1.792
			c-0.427-0.421-0.951-0.626-1.51-0.83c0.566-0.283,1.038-0.631,1.385-1.132c0.6-0.866,0.638-1.819,0.41-2.799
			c-0.22-0.944-0.819-1.585-1.688-2.002c-0.792-0.381-1.641-0.472-2.494-0.481c-2.089-0.022-4.179-0.008-6.268-0.009
			c-0.11,0-0.221,0-0.337,0c0,4.65,0,9.263,0,13.895c0.134,0,0.247,0,0.359,0c2.183,0,4.366-0.002,6.548,0.001
			c1.019,0.001,1.976-0.235,2.854-0.747c0.82-0.479,1.4-1.148,1.641-2.09C33.729,33.443,33.725,32.769,33.601,32.102z
			 M24.644,25.164c1.476,0,2.938-0.006,4.399,0.002c0.676,0.004,1.233,0.454,1.422,1.147c0.188,0.685,0.128,1.335-0.328,1.921
			c-0.286,0.368-0.678,0.563-1.112,0.578c-1.421,0.048-2.844,0.051-4.266,0.07c-0.03,0.001-0.059-0.009-0.115-0.019
			C24.644,27.619,24.644,26.394,24.644,25.164z M31.158,33.097c-0.053,0.468-0.196,0.913-0.573,1.25
			c-0.375,0.337-0.818,0.541-1.309,0.549c-1.507,0.022-3.014,0.009-4.521,0.008c-0.03,0-0.06-0.009-0.112-0.019
			c0-1.404,0-2.786,0-4.199c0.259,0,0.506,0,0.752,0c1.185,0,2.37-0.007,3.555,0.002c0.62,0.006,1.211,0.134,1.669,0.592
			C31.125,31.784,31.234,32.425,31.158,33.097z"/>
		<path fill-rule="evenodd" clip-rule="evenodd" fill="#FFFFFF" d="M24.644,34.885c0-1.404,0-2.786,0-4.199c0.259,0,0.506,0,0.752,0
			c1.185,0,2.37-0.007,3.555,0.002c0.62,0.006,1.211,0.134,1.669,0.592c0.505,0.505,0.614,1.146,0.538,1.817
			c-0.053,0.468-0.196,0.913-0.573,1.25c-0.375,0.337-0.818,0.541-1.309,0.549c-1.507,0.022-3.014,0.009-4.521,0.008
			C24.726,34.903,24.696,34.895,24.644,34.885z"/>
		<path fill-rule="evenodd" clip-rule="evenodd" fill="#FFFFFF" d="M24.644,28.865c0-1.247,0-2.472,0-3.701
			c1.476,0,2.938-0.006,4.399,0.002c0.676,0.004,1.233,0.454,1.422,1.147c0.188,0.685,0.128,1.335-0.328,1.921
			c-0.286,0.368-0.678,0.563-1.112,0.578c-1.421,0.048-2.844,0.051-4.266,0.07C24.729,28.885,24.699,28.875,24.644,28.865z"/>
	</g>
</g>
</svg>
