<?xml version="1.0" encoding="utf-8"?>
<!-- Generator: Adobe Illustrator 16.0.3, SVG Export Plug-In . SVG Version: 6.00 Build 0)  -->
<!DOCTYPE svg PUBLIC "-//W3C//DTD SVG 1.1//EN" "http://www.w3.org/Graphics/SVG/1.1/DTD/svg11.dtd">
<svg version="1.1" id="Layer_1" xmlns="http://www.w3.org/2000/svg" xmlns:xlink="http://www.w3.org/1999/xlink" x="0px" y="0px"
	 width="55px" height="55px" viewBox="0 0 55 55" enable-background="new 0 0 55 55" xml:space="preserve">
<g>
	<g>
		<g>
			<path fill-rule="evenodd" clip-rule="evenodd" fill="#911CA5" d="M27.551,2.016c7.337,0,14.676,0.011,22.013-0.017
				c0.764-0.002,0.998,0.211,0.922,0.958c-0.269,2.633-0.5,5.27-0.739,7.906c-0.177,1.946-0.338,3.894-0.514,5.84
				c-0.239,2.662-0.489,5.322-0.728,7.984c-0.178,1.971-0.341,3.945-0.519,5.916c-0.239,2.662-0.489,5.323-0.729,7.985
				c-0.179,1.998-0.347,3.996-0.517,5.994c-0.109,1.28-0.174,2.567-0.354,3.837c-0.037,0.257-0.474,0.571-0.782,0.658
				c-4.501,1.266-9.013,2.498-13.521,3.738c-1.37,0.377-2.737,0.768-4.114,1.119c-0.309,0.078-0.674,0.092-0.978,0.009
				c-5.908-1.61-11.81-3.242-17.717-4.858c-0.495-0.136-0.677-0.378-0.719-0.913c-0.211-2.716-0.491-5.427-0.732-8.141
				c-0.227-2.534-0.429-5.071-0.655-7.606c-0.238-2.662-0.496-5.323-0.737-7.984c-0.176-1.946-0.331-3.893-0.506-5.839
				c-0.242-2.688-0.498-5.374-0.74-8.061c-0.173-1.92-0.336-3.842-0.501-5.762C4.626,4.112,4.602,3.443,4.515,2.781
				c-0.084-0.642,0.191-0.789,0.79-0.776c1.633,0.034,3.267,0.011,4.9,0.011C15.987,2.016,21.769,2.016,27.551,2.016z"/>
			<path opacity="0.2" fill-rule="evenodd" clip-rule="evenodd" fill="#FFFFFF" d="M45.155,12.383c0.176-2.15,0.348-4.3,0.547-6.448
				c0.061-0.653-0.125-0.84-0.729-0.837c-5.811,0.024-11.621,0.014-17.432,0.014c-0.014,0-0.027,0-0.041,0v7.271H45.155z"/>
			<path opacity="0.2" fill-rule="evenodd" clip-rule="evenodd" fill="#FFFFFF" d="M27.418,13.252l0.164,38.002
				c0.127-0.005,0.255-0.024,0.372-0.058c1.089-0.313,2.17-0.659,3.254-0.993c3.565-1.101,7.132-2.194,10.692-3.317
				c0.244-0.077,0.589-0.354,0.617-0.578c0.138-1.112,0.185-2.238,0.266-3.358c0.128-1.75,0.254-3.499,0.387-5.248
				c0.18-2.33,0.367-4.659,0.547-6.989c0.133-1.726,0.255-3.453,0.388-5.179c0.18-2.33,0.367-4.659,0.547-6.989
				c0.131-1.704,0.252-3.409,0.384-5.112c0.007-0.085,0.014-0.17,0.021-0.255L27.418,13.252z"/>
			<path fill-rule="evenodd" clip-rule="evenodd" fill="#FFFFFF" d="M48.781,2.924C41.704,2.951,34.627,2.94,27.549,2.94
				c-5.577,0-11.153,0-16.73,0c-1.575,0-3.151,0.022-4.726-0.012C5.516,2.916,5.25,3.058,5.332,3.677
				c0.083,0.638,0.107,1.284,0.163,1.926c0.159,1.853,0.316,3.706,0.483,5.558c0.234,2.592,0.48,5.183,0.714,7.775
				c0.168,1.876,0.318,3.755,0.488,5.632c0.232,2.567,0.481,5.133,0.71,7.701c0.218,2.444,0.414,4.893,0.631,7.337
				c0.233,2.617,0.502,5.231,0.707,7.851c0.04,0.517,0.216,0.75,0.693,0.881c5.696,1.56,11.389,3.133,17.087,4.686
				c0.293,0.08,0.646,0.067,0.943-0.009c1.328-0.339,2.646-0.715,3.968-1.078c4.349-1.196,8.699-2.385,13.041-3.606
				c0.298-0.084,0.719-0.387,0.754-0.635c0.175-1.225,0.237-2.466,0.343-3.7c0.164-1.928,0.326-3.855,0.499-5.781
				c0.229-2.567,0.472-5.134,0.702-7.701c0.171-1.902,0.328-3.805,0.499-5.706c0.231-2.567,0.472-5.134,0.703-7.701
				c0.169-1.877,0.325-3.756,0.494-5.633c0.23-2.542,0.454-5.085,0.714-7.625C49.743,3.127,49.518,2.921,48.781,2.924z
				 M48.884,4.703c-0.25,2.45-0.466,4.903-0.688,7.355c-0.164,1.811-0.314,3.622-0.478,5.433c-0.223,2.476-0.455,4.951-0.678,7.428
				c-0.165,1.834-0.316,3.669-0.482,5.503c-0.222,2.477-0.455,4.952-0.677,7.429c-0.166,1.858-0.323,3.718-0.481,5.576
				c-0.102,1.191-0.161,2.389-0.33,3.57c-0.033,0.238-0.439,0.53-0.728,0.611c-4.188,1.179-8.384,2.324-12.578,3.479
				c-1.275,0.351-2.547,0.714-3.827,1.04c-0.288,0.073-0.627,0.086-0.911,0.009c-5.496-1.498-10.987-3.016-16.481-4.52
				c-0.461-0.126-0.63-0.352-0.669-0.85c-0.197-2.527-0.457-5.049-0.682-7.572c-0.21-2.358-0.398-4.719-0.608-7.077
				c-0.221-2.477-0.462-4.951-0.686-7.428c-0.164-1.81-0.308-3.622-0.471-5.432c-0.226-2.5-0.463-5-0.688-7.5
				C6.58,9.971,6.428,8.185,6.274,6.397c-0.053-0.62-0.077-1.243-0.157-1.859C6.039,3.941,6.295,3.805,6.852,3.817
				c1.519,0.032,3.039,0.011,4.559,0.011c5.379,0,10.758,0,16.137,0c6.827,0,13.654,0.011,20.479-0.016
				C48.737,3.81,48.955,4.008,48.884,4.703z"/>
			<g>
				<path fill="#FFFFFF" d="M12.157,6.803h4.215v0.709h-3.676v2.186h3.676v0.709h-4.215c-0.151,0-0.28-0.042-0.388-0.126
					c-0.107-0.083-0.161-0.184-0.161-0.302V7.23c0-0.116,0.054-0.217,0.161-0.301C11.877,6.845,12.006,6.803,12.157,6.803z"/>
				<path fill="#FFFFFF" d="M16.837,9.098V8.512h1.208v0.586H16.837z M17.99,9.06V8.545h-1.104V9.06H17.99z M16.934,9.021V8.583
					h1.007v0.438H16.934z"/>
				<path fill="#FFFFFF" d="M18.853,6.803h3.944v0.709h-3.408v0.737h3.131c0.149,0,0.278,0.042,0.386,0.128
					c0.108,0.085,0.163,0.186,0.163,0.302v1.3c0,0.118-0.054,0.218-0.163,0.302c-0.108,0.084-0.237,0.126-0.386,0.126h-4.218V9.698
					h3.679V8.958h-3.128c-0.151,0-0.28-0.042-0.389-0.125c-0.108-0.084-0.162-0.185-0.162-0.302v-1.3
					c0-0.116,0.054-0.217,0.162-0.301C18.572,6.845,18.702,6.803,18.853,6.803z"/>
				<path fill="#FFFFFF" d="M27.161,8.958h-2.592v1.449h-1.084V6.803h1.084v1.446h2.592V6.803h1.087v3.604h-1.087V8.958z"/>
				<path fill="#FFFFFF" d="M29.213,6.803h3.67c0.149,0,0.277,0.042,0.386,0.127c0.107,0.084,0.162,0.185,0.162,0.301v3.177h-1.087
					V9.312h-2.592v1.095h-1.087V7.23c0-0.116,0.054-0.217,0.16-0.301C28.933,6.845,29.062,6.803,29.213,6.803z M32.344,8.605V7.512
					h-2.592v1.093H32.344z"/>
				<path fill="#FFFFFF" d="M38.063,6.803c0.149,0,0.278,0.042,0.388,0.127c0.108,0.084,0.163,0.185,0.163,0.301v1.654
					c0,0.119-0.055,0.22-0.163,0.303c-0.109,0.083-0.238,0.125-0.388,0.125h-0.096l0.853,1.095h-1.269l-0.853-1.095h-1.767v1.095
					h-1.084V6.803H38.063z M37.526,8.605V7.512h-2.595v1.093H37.526z"/>
				<path fill="#FFFFFF" d="M43.451,6.803c0.15,0,0.28,0.042,0.389,0.127c0.108,0.084,0.162,0.185,0.162,0.301v1.654
					c0,0.119-0.054,0.22-0.162,0.303s-0.238,0.125-0.389,0.125h-3.128v1.095h-1.087V6.803H43.451z M40.323,7.512v1.093h2.592V7.512
					H40.323z"/>
			</g>
		</g>
	</g>
	<path fill-rule="evenodd" clip-rule="evenodd" fill="#FFFFFF" d="M40.055,25.558c0,3.828,0,7.656,0,11.484
		c-0.01,0.026-0.025,0.053-0.028,0.08c-0.097,0.987-0.658,1.621-1.508,2.091c-3.235,1.789-6.461,3.595-9.683,5.407
		c-0.958,0.539-1.882,0.545-2.836,0c-1.348-0.771-2.708-1.518-4.063-2.275c-1.948-1.088-3.895-2.177-5.842-3.266
		c-0.668-0.374-1.088-0.932-1.247-1.68c-0.028-0.132-0.044-0.267-0.065-0.4c0-3.8,0-7.6,0-11.398
		c0.011-0.048,0.027-0.096,0.032-0.144c0.092-0.903,0.565-1.542,1.352-1.981c3.283-1.831,6.566-3.662,9.844-5.503
		c0.948-0.533,1.869-0.537,2.815,0c1.67,0.946,3.35,1.875,5.025,2.811c1.612,0.901,3.223,1.806,4.838,2.703
		c0.689,0.383,1.136,0.941,1.3,1.714C40.014,25.318,40.032,25.438,40.055,25.558z M30.534,28.477
		c0.869-0.501,1.741-1.003,2.615-1.507c-1.674-2.284-4.863-3.487-7.943-2.5c-3.171,1.018-5.208,4.023-4.989,7.348
		c0.214,3.246,2.672,5.963,5.958,6.55c3.031,0.54,5.736-0.957,6.961-2.748c-0.869-0.5-1.736-0.999-2.602-1.497
		c-1.84,1.927-4.667,1.669-6.2,0.012c-1.482-1.604-1.482-4.071,0-5.67C25.891,26.785,28.727,26.571,30.534,28.477z M32.233,30.706
		c0.4,0,0.78,0,1.169,0c0,0.404,0,0.788,0,1.192c-0.396,0-0.775,0-1.167,0c0,0.406,0,0.791,0,1.205c0.397,0,0.783,0,1.189,0
		c0,0.407,0,0.785,0,1.167c0.413,0,0.806,0,1.217,0c0-0.396,0-0.774,0-1.158c0.4,0,0.782,0,1.191,0c0,0.394,0,0.777,0,1.161
		c0.416,0,0.802,0,1.211,0c0-0.395,0-0.771,0-1.178c0.408,0,0.794,0,1.18,0c0-0.414,0-0.799,0-1.204c-0.395,0-0.775,0-1.166,0
		c0-0.403,0-0.786,0-1.189c0.397,0,0.777,0,1.169,0c0-0.406,0-0.791,0-1.205c-0.395,0-0.781,0-1.188,0c0-0.406,0-0.784,0-1.168
		c-0.414,0-0.806,0-1.219,0c0,0.396,0,0.774,0,1.157c-0.401,0-0.782,0-1.19,0c0-0.395,0-0.778,0-1.161c-0.415,0-0.802,0-1.218,0
		c0,0.396,0,0.78,0,1.185c-0.409,0-0.789,0-1.178,0C32.233,29.911,32.233,30.291,32.233,30.706z"/>
</g>
</svg>
