<?xml version="1.0" encoding="utf-8"?>
<!-- Generator: Adobe Illustrator 16.0.3, SVG Export Plug-In . SVG Version: 6.00 Build 0)  -->
<!DOCTYPE svg PUBLIC "-//W3C//DTD SVG 1.1//EN" "http://www.w3.org/Graphics/SVG/1.1/DTD/svg11.dtd">
<svg version="1.1" id="Layer_1" xmlns="http://www.w3.org/2000/svg" xmlns:xlink="http://www.w3.org/1999/xlink" x="0px" y="0px"
	 width="55px" height="55px" viewBox="0 0 55 55" enable-background="new 0 0 55 55" xml:space="preserve">
<g>
	<path fill-rule="evenodd" clip-rule="evenodd" fill="#0D74B8" d="M27.551,2.016c7.337,0,14.678,0.012,22.016-0.017
		c0.761-0.003,0.997,0.211,0.92,0.958c-0.271,2.633-0.5,5.27-0.739,7.906c-0.176,1.946-0.339,3.894-0.516,5.84
		c-0.237,2.662-0.488,5.323-0.728,7.985c-0.177,1.971-0.34,3.945-0.517,5.916c-0.241,2.662-0.488,5.322-0.729,7.984
		c-0.179,1.996-0.348,3.996-0.516,5.992c-0.112,1.283-0.175,2.57-0.356,3.84c-0.036,0.254-0.472,0.568-0.782,0.656
		c-4.501,1.266-9.013,2.5-13.521,3.736c-1.371,0.381-2.737,0.768-4.114,1.121c-0.309,0.08-0.674,0.094-0.979,0.01
		c-5.908-1.611-11.812-3.242-17.718-4.857c-0.495-0.137-0.677-0.379-0.719-0.914c-0.211-2.717-0.49-5.428-0.731-8.139
		c-0.228-2.539-0.428-5.072-0.655-7.609c-0.237-2.66-0.496-5.321-0.736-7.983c-0.176-1.946-0.331-3.893-0.507-5.84
		c-0.241-2.686-0.498-5.373-0.739-8.061C5.011,8.62,4.849,6.699,4.683,4.778C4.626,4.112,4.602,3.444,4.515,2.78
		C4.43,2.139,4.707,1.991,5.305,2.004c1.632,0.035,3.266,0.012,4.899,0.012C15.986,2.016,21.77,2.016,27.551,2.016z"/>
	<path opacity="0.5" fill-rule="evenodd" clip-rule="evenodd" fill="#67A2D7" d="M45.157,12.382c0.174-2.15,0.346-4.301,0.545-6.448
		c0.062-0.653-0.124-0.839-0.729-0.837c-5.813,0.025-11.623,0.015-17.433,0.015c-0.015,0-0.027,0-0.041,0v7.271H45.157z"/>
	<path opacity="0.5" fill-rule="evenodd" clip-rule="evenodd" fill="#67A2D7" d="M27.418,13.251l0.162,38.003
		c0.129-0.008,0.258-0.027,0.374-0.061c1.088-0.313,2.169-0.658,3.254-0.992c3.563-1.098,7.133-2.193,10.691-3.316
		c0.245-0.076,0.589-0.354,0.619-0.58c0.137-1.109,0.183-2.238,0.266-3.359c0.127-1.748,0.253-3.498,0.386-5.246
		c0.18-2.33,0.366-4.658,0.548-6.988c0.131-1.727,0.254-3.453,0.387-5.178c0.18-2.332,0.367-4.66,0.546-6.99
		c0.133-1.705,0.252-3.408,0.384-5.113c0.007-0.085,0.013-0.169,0.02-0.255L27.418,13.251z"/>
	<g>
		<g>
			<path fill="#FFFFFF" d="M39.015,41.008c-0.131,0.895-0.501,1.659-1.104,2.295c-0.595,0.636-1.237,0.953-1.934,0.953H16.248
				L15.5,38.872h18.391l0.455-5.613H20.521l-0.398-5.383h13.126l0.363-5.595H13.195l-0.748-5.383h24.899
				c0.939,0,1.72,0.32,2.329,0.962c0.603,0.642,0.844,1.403,0.729,2.286l-0.784,6.037c-0.137,1.059-0.756,1.8-1.847,2.224
				c0.837,0,1.519,0.321,2.038,0.962c0.511,0.642,0.699,1.403,0.57,2.286L39.015,41.008z"/>
		</g>
	</g>
	<g>
		<path fill="#FFFFFF" d="M15.973,6.567h5.031v0.847h-4.388v2.609h4.388v0.847h-5.031c-0.181,0-0.334-0.05-0.462-0.15
			c-0.129-0.1-0.192-0.22-0.192-0.361V7.078c0-0.139,0.063-0.259,0.192-0.36C15.639,6.617,15.792,6.567,15.973,6.567z"/>
		<path fill="#FFFFFF" d="M22.16,6.567h4.707v0.847H22.8v0.88h3.737c0.178,0,0.331,0.051,0.46,0.152
			c0.13,0.102,0.194,0.222,0.194,0.361v1.552c0,0.141-0.064,0.261-0.194,0.361c-0.129,0.1-0.282,0.15-0.46,0.15h-5.035v-0.847h4.392
			V9.14H22.16c-0.181,0-0.335-0.05-0.465-0.15c-0.129-0.1-0.193-0.22-0.193-0.361V7.078c0-0.139,0.064-0.259,0.193-0.36
			C21.825,6.617,21.979,6.567,22.16,6.567z"/>
		<path fill="#FFFFFF" d="M28.348,6.567h4.707v0.847h-4.067v0.88h3.737c0.178,0,0.331,0.051,0.46,0.152
			c0.13,0.102,0.194,0.222,0.194,0.361v1.552c0,0.141-0.064,0.261-0.194,0.361c-0.129,0.1-0.282,0.15-0.46,0.15h-5.035v-0.847h4.392
			V9.14h-3.733c-0.181,0-0.335-0.05-0.465-0.15c-0.129-0.1-0.193-0.22-0.193-0.361V7.078c0-0.139,0.064-0.259,0.193-0.36
			C28.013,6.617,28.167,6.567,28.348,6.567z"/>
		<path fill="#FFFFFF" d="M39.565,10.358c0,0.141-0.064,0.261-0.194,0.361c-0.129,0.1-0.282,0.15-0.46,0.15h-5.035v-0.847h4.392
			V9.14h-3.094V8.293h2.77v-0.88h-4.067V6.567h4.708c0.178,0,0.332,0.05,0.462,0.151c0.131,0.101,0.195,0.221,0.195,0.36v0.949
			c0,0.167-0.109,0.283-0.33,0.35c0.178,0,0.331,0.05,0.46,0.151c0.13,0.101,0.194,0.221,0.194,0.359V10.358z"/>
	</g>
	<path fill-rule="evenodd" clip-rule="evenodd" fill="#FFFFFF" d="M48.781,2.924c-7.077,0.027-14.156,0.016-21.232,0.016
		c-5.577,0-11.153,0-16.73,0c-1.575,0-3.152,0.021-4.727-0.013c-0.577-0.011-0.842,0.13-0.761,0.75
		c0.084,0.637,0.107,1.285,0.163,1.928c0.158,1.852,0.315,3.705,0.483,5.557c0.233,2.59,0.48,5.182,0.715,7.774
		c0.168,1.876,0.316,3.755,0.488,5.632c0.23,2.566,0.48,5.132,0.709,7.7c0.219,2.445,0.414,4.891,0.633,7.334
		c0.233,2.621,0.502,5.232,0.706,7.854c0.04,0.514,0.217,0.748,0.693,0.881c5.697,1.559,11.39,3.133,17.088,4.686
		c0.295,0.082,0.647,0.068,0.942-0.01c1.329-0.338,2.646-0.713,3.969-1.078c4.35-1.195,8.7-2.385,13.039-3.604
		c0.301-0.084,0.721-0.391,0.756-0.639c0.175-1.225,0.237-2.463,0.344-3.699c0.162-1.928,0.325-3.854,0.499-5.779
		c0.229-2.57,0.471-5.135,0.702-7.701c0.169-1.904,0.328-3.806,0.5-5.707c0.228-2.568,0.468-5.134,0.7-7.702
		c0.169-1.875,0.327-3.755,0.495-5.632c0.231-2.542,0.455-5.084,0.715-7.624C49.744,3.126,49.517,2.92,48.781,2.924z M48.884,4.703
		c-0.251,2.45-0.467,4.902-0.688,7.354c-0.162,1.811-0.313,3.623-0.477,5.434c-0.223,2.476-0.455,4.951-0.678,7.428
		c-0.165,1.834-0.316,3.67-0.481,5.502c-0.223,2.477-0.456,4.953-0.68,7.432c-0.164,1.854-0.322,3.715-0.479,5.572
		c-0.103,1.193-0.16,2.391-0.33,3.57c-0.034,0.238-0.439,0.531-0.727,0.611c-4.188,1.178-8.386,2.324-12.58,3.48
		c-1.272,0.348-2.546,0.713-3.825,1.037c-0.289,0.074-0.628,0.088-0.911,0.01c-5.497-1.496-10.987-3.014-16.482-4.518
		c-0.461-0.127-0.63-0.352-0.669-0.85c-0.198-2.527-0.456-5.049-0.682-7.576c-0.21-2.354-0.398-4.715-0.609-7.072
		c-0.22-2.477-0.461-4.952-0.686-7.429c-0.163-1.81-0.309-3.623-0.471-5.433c-0.225-2.499-0.462-4.998-0.688-7.499
		C6.58,9.97,6.427,8.184,6.273,6.396C6.22,5.777,6.197,5.154,6.116,4.539C6.038,3.94,6.295,3.805,6.852,3.817
		c1.52,0.031,3.039,0.01,4.559,0.01c5.379,0,10.758,0,16.137,0c6.829,0,13.653,0.012,20.479-0.015
		C48.737,3.81,48.954,4.007,48.884,4.703z"/>
</g>
</svg>
