<?xml version="1.0" encoding="utf-8"?>
<!-- Generator: Adobe Illustrator 16.0.3, SVG Export Plug-In . SVG Version: 6.00 Build 0)  -->
<!DOCTYPE svg PUBLIC "-//W3C//DTD SVG 1.1//EN" "http://www.w3.org/Graphics/SVG/1.1/DTD/svg11.dtd">
<svg version="1.1" id="Layer_1" xmlns="http://www.w3.org/2000/svg" xmlns:xlink="http://www.w3.org/1999/xlink" x="0px" y="0px"
	 width="55px" height="55px" viewBox="0 0 55 55" enable-background="new 0 0 55 55" xml:space="preserve">
<g>
	<g>
		<path fill-rule="evenodd" clip-rule="evenodd" fill="#2E167E" d="M27.551,2.016c7.337,0,14.676,0.011,22.014-0.017
			c0.763-0.003,0.997,0.21,0.921,0.958c-0.27,2.633-0.5,5.27-0.739,7.906c-0.176,1.946-0.338,3.894-0.514,5.84
			c-0.239,2.662-0.488,5.323-0.728,7.985c-0.178,1.971-0.341,3.944-0.519,5.916c-0.239,2.662-0.489,5.323-0.728,7.985
			c-0.179,1.997-0.348,3.995-0.518,5.994c-0.109,1.28-0.174,2.566-0.354,3.837c-0.037,0.257-0.474,0.571-0.782,0.658
			c-4.502,1.266-9.013,2.498-13.521,3.738c-1.37,0.377-2.737,0.768-4.114,1.118c-0.309,0.079-0.673,0.093-0.978,0.009
			c-5.909-1.609-11.811-3.241-17.717-4.857c-0.495-0.136-0.677-0.378-0.719-0.914c-0.212-2.716-0.49-5.426-0.732-8.14
			c-0.226-2.534-0.428-5.072-0.654-7.606c-0.238-2.663-0.496-5.323-0.737-7.984c-0.176-1.946-0.331-3.894-0.506-5.84
			c-0.242-2.687-0.498-5.374-0.74-8.061C5.012,8.62,4.849,6.699,4.684,4.778C4.626,4.112,4.602,3.442,4.515,2.781
			C4.431,2.138,4.706,1.992,5.304,2.004c1.633,0.034,3.267,0.012,4.9,0.012C15.987,2.016,21.769,2.016,27.551,2.016z"/>
		<path opacity="0.2" fill-rule="evenodd" clip-rule="evenodd" fill="#FFFFFF" d="M45.155,12.383
			c0.176-2.15,0.348-4.301,0.547-6.448c0.061-0.654-0.125-0.84-0.729-0.838c-5.811,0.024-11.621,0.015-17.432,0.015
			c-0.013,0-0.027,0-0.041,0v7.271H45.155z"/>
		<path opacity="0.2" fill-rule="evenodd" clip-rule="evenodd" fill="#FFFFFF" d="M27.418,13.251l0.164,38.002
			c0.127-0.005,0.255-0.024,0.372-0.059c1.089-0.312,2.17-0.658,3.254-0.992c3.565-1.101,7.133-2.194,10.692-3.317
			c0.244-0.077,0.589-0.354,0.617-0.579c0.138-1.111,0.185-2.237,0.266-3.358c0.128-1.749,0.253-3.498,0.387-5.247
			c0.18-2.33,0.367-4.66,0.547-6.99c0.133-1.726,0.255-3.452,0.388-5.178c0.18-2.33,0.367-4.66,0.547-6.99
			c0.131-1.704,0.252-3.408,0.384-5.112c0.007-0.085,0.014-0.17,0.021-0.255L27.418,13.251z"/>
		<path fill-rule="evenodd" clip-rule="evenodd" fill="#FFFFFF" d="M48.781,2.923C41.704,2.95,34.627,2.939,27.55,2.939
			c-5.577,0-11.154,0-16.731,0c-1.575,0-3.151,0.022-4.726-0.012C5.516,2.916,5.25,3.057,5.332,3.676
			c0.083,0.639,0.107,1.285,0.163,1.927c0.159,1.853,0.316,3.706,0.483,5.558c0.234,2.592,0.481,5.183,0.714,7.775
			c0.169,1.876,0.318,3.755,0.488,5.631c0.232,2.568,0.481,5.133,0.71,7.701c0.218,2.444,0.413,4.892,0.631,7.336
			c0.233,2.617,0.502,5.231,0.707,7.851c0.04,0.517,0.216,0.751,0.693,0.882c5.697,1.56,11.389,3.133,17.087,4.686
			c0.294,0.08,0.646,0.066,0.943-0.009c1.328-0.339,2.646-0.716,3.968-1.079c4.35-1.196,8.699-2.385,13.041-3.605
			c0.298-0.084,0.719-0.388,0.755-0.635c0.174-1.225,0.236-2.466,0.342-3.7c0.164-1.928,0.326-3.855,0.499-5.782
			c0.229-2.567,0.472-5.134,0.702-7.701c0.171-1.901,0.328-3.804,0.499-5.705c0.231-2.567,0.472-5.134,0.703-7.701
			c0.169-1.877,0.325-3.755,0.495-5.633c0.23-2.542,0.453-5.085,0.713-7.625C49.743,3.126,49.518,2.92,48.781,2.923z M48.884,4.703
			c-0.25,2.45-0.465,4.903-0.688,7.355c-0.164,1.811-0.314,3.623-0.478,5.433c-0.223,2.476-0.455,4.952-0.678,7.428
			c-0.165,1.834-0.316,3.669-0.481,5.503c-0.223,2.477-0.456,4.952-0.678,7.429c-0.166,1.858-0.323,3.717-0.481,5.576
			c-0.102,1.191-0.161,2.388-0.33,3.569c-0.033,0.238-0.439,0.531-0.728,0.612c-4.188,1.178-8.384,2.324-12.578,3.478
			c-1.275,0.351-2.547,0.714-3.828,1.041c-0.287,0.073-0.626,0.085-0.91,0.009c-5.497-1.498-10.987-3.016-16.482-4.52
			c-0.46-0.126-0.63-0.352-0.669-0.851c-0.197-2.526-0.457-5.048-0.681-7.572c-0.21-2.357-0.398-4.718-0.609-7.076
			c-0.221-2.478-0.462-4.952-0.686-7.428c-0.164-1.811-0.308-3.622-0.471-5.432c-0.225-2.5-0.463-5-0.688-7.5
			C6.58,9.971,6.428,8.184,6.274,6.397c-0.053-0.62-0.077-1.243-0.157-1.858C6.039,3.941,6.295,3.805,6.852,3.816
			c1.519,0.032,3.039,0.011,4.559,0.011c5.379,0,10.759,0,16.137,0c6.827,0,13.654,0.01,20.48-0.016
			C48.737,3.809,48.955,4.008,48.884,4.703z"/>
		<g>
			<path fill="#FFFFFF" d="M16.742,8.69h-1.973v0.696h2.801v0.668h-3.629V6.659h3.629v0.668h-2.801v0.694h1.973V8.69z"/>
			<path fill="#FFFFFF" d="M17.91,6.659h0.927l0.878,1.104l0.892-1.104h0.93l-1.347,1.698l1.347,1.698h-0.93L19.715,8.95
				l-0.878,1.104h-0.95l1.361-1.698L17.91,6.659z"/>
			<path fill="#FFFFFF" d="M25.063,6.659c0.115,0,0.213,0.04,0.296,0.119s0.124,0.174,0.124,0.284V8.62
				c0,0.112-0.041,0.208-0.124,0.286c-0.083,0.079-0.181,0.117-0.296,0.117h-2.381v1.032h-0.828V6.659H25.063z M22.682,7.327v1.03
				h1.973v-1.03H22.682z"/>
			<path fill="#FFFFFF" d="M29.01,6.659c0.113,0,0.212,0.04,0.295,0.119s0.125,0.174,0.125,0.284V8.62
				c0,0.112-0.042,0.208-0.125,0.286c-0.083,0.079-0.182,0.117-0.295,0.117h-0.072l0.648,1.032H28.62l-0.649-1.032h-1.345v1.032
				h-0.825V6.659H29.01z M28.602,8.357v-1.03h-1.976v1.03H28.602z"/>
			<path fill="#FFFFFF" d="M32.704,8.69h-1.973v0.696h2.801v0.668h-3.629V6.659h3.629v0.668h-2.801v0.694h1.973V8.69z"/>
			<path fill="#FFFFFF" d="M34.27,6.659h3.003v0.668h-2.595v0.694h2.384c0.113,0,0.211,0.04,0.294,0.121
				c0.082,0.08,0.123,0.175,0.123,0.285v1.225c0,0.111-0.041,0.206-0.123,0.285c-0.083,0.079-0.181,0.118-0.294,0.118H33.85V9.386
				h2.802V8.69H34.27c-0.115,0-0.214-0.04-0.296-0.119c-0.083-0.079-0.124-0.174-0.124-0.285V7.062c0-0.109,0.041-0.204,0.124-0.284
				C34.056,6.699,34.154,6.659,34.27,6.659z"/>
			<path fill="#FFFFFF" d="M38.216,6.659h3.003v0.668h-2.595v0.694h2.384c0.113,0,0.211,0.04,0.294,0.121
				c0.082,0.08,0.123,0.175,0.123,0.285v1.225c0,0.111-0.041,0.206-0.123,0.285c-0.083,0.079-0.181,0.118-0.294,0.118h-3.212V9.386
				h2.802V8.69h-2.382c-0.114,0-0.214-0.04-0.296-0.119c-0.082-0.079-0.124-0.174-0.124-0.285V7.062
				c0-0.109,0.042-0.204,0.124-0.284S38.102,6.659,38.216,6.659z"/>
		</g>
	</g>
	<g>
		<g>
			<path fill-rule="evenodd" clip-rule="evenodd" fill="#FFFFFF" d="M27.418,46.11c-1.563-0.858-3.125-1.717-4.823-2.649
				c0.711-0.348,1.239-0.633,1.792-0.858c0.138-0.057,0.375,0.041,0.53,0.13c0.722,0.414,1.438,0.839,2.142,1.283
				c0.378,0.238,0.71,0.235,1.098,0.01c3.313-1.927,6.627-3.852,9.956-5.749c0.524-0.299,0.715-0.641,0.71-1.244
				c-0.028-3.8-0.024-7.601-0.002-11.4c0.003-0.547-0.161-0.877-0.643-1.152c-3.346-1.912-6.681-3.843-10.013-5.78
				c-0.382-0.222-0.692-0.242-1.087-0.011c-3.347,1.954-6.701,3.896-10.063,5.823c-0.43,0.247-0.609,0.528-0.606,1.036
				c0.021,3.887,0.018,7.775,0.002,11.663c-0.001,0.446,0.126,0.734,0.526,0.951c0.924,0.501,1.811,1.072,2.748,1.544
				c1.5,0.755,2.636,0.039,2.637-1.627c0.003-3.778,0.018-7.557-0.014-11.334c-0.006-0.674,0.246-0.81,0.844-0.777
				c0.526,0.028,0.954-0.053,0.946,0.746c-0.04,3.953-0.039,7.906-0.012,11.859c0.017,2.517-1.815,3.761-4.227,2.997
				c-1.556-0.492-2.99-1.435-4.385-2.321c-0.425-0.271-0.75-1.025-0.758-1.563c-0.061-4.214-0.037-8.43-0.032-12.645
				c0.001-0.873,0.471-1.473,1.201-1.895c2.768-1.601,5.533-3.208,8.31-4.793c1.059-0.604,2.147-1.156,3.222-1.731
				c0.132,0,0.263,0,0.395,0c0.335,0.148,0.688,0.267,1.003,0.449c3.514,2.019,7.021,4.048,10.529,6.076
				c0.807,0.466,1.212,1.144,1.209,2.092c-0.014,4.084-0.014,8.168,0,12.252c0.003,0.949-0.401,1.634-1.21,2.092
				c-3.842,2.18-7.688,4.353-11.532,6.528C27.681,46.11,27.55,46.11,27.418,46.11z"/>
			<path fill-rule="evenodd" clip-rule="evenodd" fill="#FFFFFF" d="M30.877,37.413c-1.506-0.016-2.986-0.153-4.252-1.082
				c-0.851-0.623-1.253-1.501-1.245-2.54c0.001-0.159,0.258-0.398,0.441-0.452c0.262-0.079,0.576-0.067,0.847-0.005
				c0.195,0.045,0.486,0.214,0.511,0.363c0.238,1.436,1.29,1.865,2.513,1.948c0.998,0.067,2.01-0.047,3.013-0.107
				c0.232-0.015,0.464-0.124,0.684-0.218c0.647-0.276,0.895-0.825,0.887-1.474c-0.008-0.647-0.482-0.992-1.04-1.106
				c-1.133-0.234-2.283-0.379-3.425-0.575c-0.646-0.111-1.303-0.197-1.924-0.39c-1.501-0.467-2.114-1.225-2.147-2.529
				c-0.04-1.572,0.624-2.63,2.061-3.143c1.926-0.686,3.883-0.642,5.792,0.032c1.348,0.476,1.986,1.578,2.194,2.943
				c0.016,0.101,0.002,0.229-0.049,0.313c-0.184,0.301-1.698,0.215-1.782-0.12c-0.338-1.36-1.334-1.835-2.587-1.896
				c-0.781-0.038-1.571,0.052-2.354,0.123c-0.229,0.021-0.459,0.149-0.665,0.268c-0.5,0.287-0.745,0.735-0.703,1.307
				c0.042,0.577,0.48,0.823,0.961,0.937c0.743,0.176,1.502,0.283,2.254,0.427c1.072,0.203,2.155,0.363,3.211,0.631
				c1.171,0.297,2.005,0.986,2.12,2.279c0.133,1.482-0.363,2.663-1.742,3.372C33.331,37.294,32.119,37.438,30.877,37.413z"/>
		</g>
	</g>
</g>
</svg>
