<?xml version="1.0" encoding="utf-8"?>
<!-- Generator: Adobe Illustrator 16.0.3, SVG Export Plug-In . SVG Version: 6.00 Build 0)  -->
<!DOCTYPE svg PUBLIC "-//W3C//DTD SVG 1.1//EN" "http://www.w3.org/Graphics/SVG/1.1/DTD/svg11.dtd">
<svg version="1.1" id="Layer_1" xmlns="http://www.w3.org/2000/svg" xmlns:xlink="http://www.w3.org/1999/xlink" x="0px" y="0px"
	 width="55px" height="55px" viewBox="0 0 55 55" enable-background="new 0 0 55 55" xml:space="preserve">
<g>
	<g>
		<path fill-rule="evenodd" clip-rule="evenodd" fill="#FCA511" d="M27.551,2.016c7.337,0,14.676,0.011,22.014-0.017
			c0.763-0.003,0.997,0.21,0.921,0.958c-0.27,2.633-0.5,5.27-0.739,7.906c-0.176,1.946-0.338,3.894-0.514,5.84
			c-0.239,2.662-0.488,5.323-0.728,7.985c-0.178,1.971-0.341,3.944-0.519,5.916c-0.239,2.662-0.489,5.323-0.728,7.985
			c-0.179,1.997-0.348,3.995-0.518,5.994c-0.109,1.28-0.174,2.566-0.354,3.837c-0.037,0.257-0.474,0.571-0.782,0.658
			c-4.502,1.266-9.013,2.498-13.521,3.738c-1.37,0.377-2.737,0.768-4.114,1.118c-0.309,0.079-0.673,0.093-0.978,0.009
			c-5.909-1.609-11.811-3.241-17.717-4.857c-0.495-0.136-0.677-0.378-0.719-0.914c-0.212-2.716-0.49-5.426-0.732-8.14
			c-0.226-2.534-0.428-5.072-0.654-7.606c-0.238-2.663-0.496-5.323-0.737-7.984c-0.176-1.946-0.331-3.894-0.506-5.84
			c-0.242-2.687-0.498-5.374-0.74-8.061C5.012,8.62,4.849,6.699,4.684,4.778C4.626,4.112,4.602,3.442,4.515,2.781
			C4.431,2.138,4.706,1.992,5.304,2.004c1.633,0.034,3.267,0.012,4.9,0.012C15.987,2.016,21.769,2.016,27.551,2.016z"/>
		<path opacity="0.2" fill-rule="evenodd" clip-rule="evenodd" fill="#FFFFFF" d="M45.155,12.383
			c0.176-2.15,0.348-4.301,0.547-6.448c0.061-0.654-0.125-0.84-0.729-0.838c-5.811,0.024-11.621,0.015-17.432,0.015
			c-0.013,0-0.027,0-0.041,0v7.271H45.155z"/>
		<path opacity="0.2" fill-rule="evenodd" clip-rule="evenodd" fill="#FFFFFF" d="M27.418,13.251l0.164,38.002
			c0.127-0.005,0.255-0.024,0.372-0.059c1.089-0.312,2.17-0.658,3.254-0.992c3.565-1.101,7.133-2.194,10.692-3.317
			c0.244-0.077,0.589-0.354,0.617-0.579c0.138-1.111,0.185-2.237,0.266-3.358c0.128-1.749,0.253-3.498,0.387-5.247
			c0.18-2.33,0.367-4.66,0.547-6.99c0.133-1.726,0.255-3.452,0.388-5.178c0.18-2.33,0.367-4.66,0.547-6.99
			c0.131-1.704,0.252-3.408,0.384-5.112c0.007-0.085,0.014-0.17,0.021-0.255L27.418,13.251z"/>
		<path fill-rule="evenodd" clip-rule="evenodd" fill="#FFFFFF" d="M48.781,2.923C41.704,2.95,34.627,2.939,27.55,2.939
			c-5.577,0-11.154,0-16.731,0c-1.575,0-3.151,0.022-4.726-0.012C5.516,2.916,5.25,3.057,5.332,3.676
			c0.083,0.639,0.107,1.285,0.163,1.927c0.159,1.853,0.316,3.706,0.483,5.558c0.234,2.592,0.481,5.183,0.714,7.775
			c0.169,1.876,0.318,3.755,0.488,5.631c0.232,2.568,0.481,5.133,0.71,7.701c0.218,2.444,0.413,4.892,0.631,7.336
			c0.233,2.617,0.502,5.231,0.707,7.851c0.04,0.517,0.216,0.751,0.693,0.882c5.697,1.56,11.389,3.133,17.087,4.686
			c0.294,0.08,0.646,0.066,0.943-0.009c1.328-0.339,2.646-0.716,3.968-1.079c4.35-1.196,8.699-2.385,13.041-3.605
			c0.298-0.084,0.719-0.388,0.755-0.635c0.174-1.225,0.236-2.466,0.342-3.7c0.164-1.928,0.326-3.855,0.499-5.782
			c0.229-2.567,0.472-5.134,0.702-7.701c0.171-1.901,0.328-3.804,0.499-5.705c0.231-2.567,0.472-5.134,0.703-7.701
			c0.169-1.877,0.325-3.755,0.495-5.633c0.23-2.542,0.453-5.085,0.713-7.625C49.743,3.126,49.518,2.92,48.781,2.923z M48.884,4.703
			c-0.25,2.45-0.465,4.903-0.688,7.355c-0.164,1.811-0.314,3.623-0.478,5.433c-0.223,2.476-0.455,4.952-0.678,7.428
			c-0.165,1.834-0.316,3.669-0.481,5.503c-0.223,2.477-0.456,4.952-0.678,7.429c-0.166,1.858-0.323,3.717-0.481,5.576
			c-0.102,1.191-0.161,2.388-0.33,3.569c-0.033,0.238-0.439,0.531-0.728,0.612c-4.188,1.178-8.384,2.324-12.578,3.478
			c-1.275,0.351-2.547,0.714-3.828,1.041c-0.287,0.073-0.626,0.085-0.91,0.009c-5.497-1.498-10.987-3.016-16.482-4.52
			c-0.46-0.126-0.63-0.352-0.669-0.851c-0.197-2.526-0.457-5.048-0.681-7.572c-0.21-2.357-0.398-4.718-0.609-7.076
			c-0.221-2.478-0.462-4.952-0.686-7.428c-0.164-1.811-0.308-3.622-0.471-5.432c-0.225-2.5-0.463-5-0.688-7.5
			C6.58,9.971,6.428,8.184,6.274,6.397c-0.053-0.62-0.077-1.243-0.157-1.858C6.039,3.941,6.295,3.805,6.852,3.816
			c1.519,0.032,3.039,0.011,4.559,0.011c5.379,0,10.759,0,16.137,0c6.827,0,13.654,0.01,20.48-0.016
			C48.737,3.809,48.955,4.008,48.884,4.703z"/>
		<g>
			<path fill="#FFFFFF" d="M15.708,9.148h-1.976v1.365h-0.828V7.117h3.629v0.668h-2.801V8.48h1.976V9.148z"/>
			<path fill="#FFFFFF" d="M16.85,10.513V7.117h0.826v3.396H16.85z"/>
			<path fill="#FFFFFF" d="M21.203,7.117c0.113,0,0.211,0.04,0.294,0.119c0.083,0.08,0.125,0.174,0.125,0.284v1.557
				c0,0.113-0.041,0.208-0.125,0.286c-0.083,0.078-0.181,0.117-0.294,0.117H21.13l0.648,1.032h-0.966l-0.649-1.032h-1.345v1.032
				h-0.825V7.117H21.203z M20.794,8.815v-1.03h-1.976v1.03H20.794z"/>
			<path fill="#FFFFFF" d="M24.897,9.148h-1.973v0.697h2.801v0.668h-3.629V7.117h3.629v0.668h-2.801V8.48h1.973V9.148z"/>
			<path fill="#FFFFFF" d="M29.672,10.11c0,0.111-0.041,0.206-0.124,0.285c-0.082,0.079-0.18,0.118-0.293,0.118h-3.212V7.117h3.005
				c0.113,0,0.212,0.04,0.294,0.119c0.083,0.08,0.124,0.174,0.124,0.284v0.749c0,0.132-0.07,0.224-0.211,0.276
				c0.113,0,0.211,0.04,0.293,0.119c0.083,0.08,0.124,0.174,0.124,0.284V10.11z M28.638,7.785h-1.767V8.48h1.767V7.785z
				 M28.844,9.148h-1.973v0.697h1.973V9.148z"/>
			<path fill="#FFFFFF" d="M30.406,7.117h2.795c0.113,0,0.211,0.04,0.294,0.119c0.082,0.08,0.123,0.174,0.123,0.284v2.992h-0.827
				V9.481h-1.974v1.032h-0.828V7.521c0-0.11,0.041-0.205,0.123-0.284C30.193,7.157,30.292,7.117,30.406,7.117z M32.791,8.815v-1.03
				h-1.974v1.03H32.791z"/>
			<path fill="#FFFFFF" d="M34.355,7.117h3.003v0.668h-2.595V8.48h2.384c0.113,0,0.211,0.04,0.294,0.12
				c0.082,0.081,0.123,0.175,0.123,0.285v1.225c0,0.111-0.041,0.206-0.123,0.285c-0.083,0.079-0.181,0.118-0.294,0.118h-3.212V9.845
				h2.802V9.148h-2.382c-0.115,0-0.214-0.04-0.296-0.118c-0.082-0.079-0.124-0.174-0.124-0.285V7.521
				c0-0.11,0.042-0.205,0.124-0.284S34.24,7.117,34.355,7.117z"/>
			<path fill="#FFFFFF" d="M40.684,9.148H38.71v0.697h2.802v0.668h-3.629V7.117h3.629v0.668H38.71V8.48h1.974V9.148z"/>
		</g>
	</g>
	<g>
		<path fill="#FFFFFF" d="M16.85,39.435l0.176-0.244l8.309-15.677l0.018-0.166l-3.663-6.841c-0.307-0.573-1.171-0.428-1.271,0.213
			L16.85,39.435z"/>
		<path fill="#FFFFFF" d="M28.022,28.521l2.728-2.777l-2.729-5.178c-0.258-0.49-0.981-0.492-1.238,0l-1.458,2.764v0.235
			L28.022,28.521z"/>
		<path fill="#FFFFFF" d="M28.363,44.746l9.623-5.336l-2.748-16.827c-0.086-0.526-0.736-0.735-1.115-0.357L16.85,39.435l9.567,5.312
			C27.022,45.082,27.758,45.082,28.363,44.746"/>
	</g>
</g>
</svg>
