<?xml version="1.0" encoding="utf-8"?>
<!-- Generator: Adobe Illustrator 16.0.3, SVG Export Plug-In . SVG Version: 6.00 Build 0)  -->
<!DOCTYPE svg PUBLIC "-//W3C//DTD SVG 1.1//EN" "http://www.w3.org/Graphics/SVG/1.1/DTD/svg11.dtd">
<svg version="1.1" id="Layer_1" xmlns="http://www.w3.org/2000/svg" xmlns:xlink="http://www.w3.org/1999/xlink" x="0px" y="0px"
	 width="55px" height="55px" viewBox="0 0 55 55" enable-background="new 0 0 55 55" xml:space="preserve">
<g>
	<g>
		<g>
			<path fill-rule="evenodd" clip-rule="evenodd" fill="#F05033" d="M27.551,2.016c7.337,0,14.676,0.011,22.014-0.017
				c0.763-0.003,0.997,0.21,0.921,0.957c-0.27,2.634-0.5,5.27-0.739,7.906c-0.176,1.946-0.338,3.894-0.514,5.84
				c-0.239,2.662-0.488,5.322-0.728,7.984c-0.178,1.972-0.341,3.944-0.519,5.916c-0.239,2.662-0.489,5.323-0.728,7.985
				c-0.179,1.997-0.348,3.996-0.518,5.994c-0.109,1.28-0.174,2.567-0.354,3.837c-0.037,0.257-0.474,0.571-0.782,0.658
				c-4.502,1.266-9.013,2.498-13.521,3.738c-1.37,0.377-2.737,0.768-4.114,1.119c-0.309,0.078-0.673,0.092-0.978,0.009
				c-5.909-1.61-11.811-3.242-17.717-4.858c-0.495-0.136-0.677-0.378-0.719-0.914c-0.212-2.716-0.49-5.426-0.732-8.14
				c-0.226-2.534-0.428-5.071-0.654-7.606c-0.238-2.662-0.496-5.323-0.737-7.984c-0.176-1.946-0.331-3.894-0.506-5.839
				c-0.242-2.688-0.498-5.374-0.74-8.062C5.012,8.62,4.849,6.699,4.684,4.778C4.626,4.112,4.602,3.442,4.515,2.78
				C4.431,2.138,4.706,1.992,5.304,2.004c1.633,0.035,3.267,0.012,4.9,0.012C15.987,2.016,21.769,2.016,27.551,2.016z"/>
			<path opacity="0.2" fill-rule="evenodd" clip-rule="evenodd" fill="#FFFFFF" d="M45.155,12.382c0.176-2.15,0.348-4.3,0.547-6.448
				c0.061-0.653-0.125-0.84-0.729-0.837c-5.811,0.024-11.621,0.014-17.432,0.014c-0.013,0-0.027,0-0.041,0v7.271H45.155z"/>
			<path opacity="0.2" fill-rule="evenodd" clip-rule="evenodd" fill="#FFFFFF" d="M27.418,13.251l0.164,38.002
				c0.127-0.005,0.255-0.024,0.372-0.058c1.089-0.313,2.17-0.659,3.254-0.993c3.565-1.101,7.133-2.194,10.692-3.317
				c0.244-0.077,0.589-0.354,0.617-0.579c0.138-1.111,0.185-2.237,0.266-3.358c0.128-1.749,0.253-3.498,0.387-5.247
				c0.18-2.33,0.367-4.659,0.547-6.99c0.133-1.726,0.255-3.452,0.388-5.178c0.18-2.33,0.367-4.659,0.547-6.989
				c0.131-1.704,0.252-3.409,0.384-5.112c0.007-0.085,0.014-0.17,0.021-0.255L27.418,13.251z"/>
			<path fill-rule="evenodd" clip-rule="evenodd" fill="#FFFFFF" d="M48.781,2.923C41.704,2.95,34.627,2.939,27.55,2.939
				c-5.577,0-11.154,0-16.731,0c-1.575,0-3.151,0.022-4.726-0.011C5.516,2.916,5.25,3.057,5.332,3.676
				C5.415,4.314,5.439,4.96,5.495,5.603c0.159,1.853,0.316,3.706,0.483,5.558c0.234,2.592,0.481,5.183,0.714,7.775
				c0.169,1.876,0.318,3.755,0.488,5.632c0.232,2.568,0.481,5.134,0.71,7.701c0.218,2.444,0.413,4.892,0.631,7.337
				c0.233,2.616,0.502,5.23,0.707,7.85c0.04,0.518,0.216,0.751,0.693,0.882c5.697,1.56,11.389,3.133,17.087,4.686
				c0.294,0.08,0.646,0.067,0.943-0.009c1.328-0.339,2.646-0.715,3.968-1.078c4.35-1.197,8.699-2.385,13.041-3.606
				c0.298-0.084,0.719-0.387,0.755-0.635c0.174-1.225,0.236-2.466,0.342-3.7c0.164-1.928,0.326-3.855,0.499-5.782
				c0.229-2.566,0.472-5.133,0.702-7.701c0.171-1.901,0.328-3.804,0.499-5.706c0.231-2.567,0.472-5.133,0.703-7.701
				c0.169-1.877,0.325-3.756,0.495-5.633c0.23-2.542,0.453-5.085,0.713-7.625C49.743,3.126,49.518,2.92,48.781,2.923z M48.884,4.703
				c-0.25,2.449-0.465,4.903-0.688,7.355c-0.164,1.811-0.314,3.622-0.478,5.433c-0.223,2.476-0.455,4.951-0.678,7.428
				c-0.165,1.834-0.316,3.669-0.481,5.503c-0.223,2.477-0.456,4.952-0.678,7.429c-0.166,1.858-0.323,3.718-0.481,5.576
				c-0.102,1.191-0.161,2.388-0.33,3.569c-0.033,0.239-0.439,0.531-0.728,0.612c-4.188,1.179-8.384,2.324-12.578,3.478
				c-1.275,0.352-2.547,0.715-3.828,1.041c-0.287,0.073-0.626,0.086-0.91,0.009c-5.497-1.498-10.987-3.016-16.482-4.52
				c-0.46-0.126-0.63-0.352-0.669-0.851c-0.197-2.526-0.457-5.048-0.681-7.571c-0.21-2.358-0.398-4.719-0.609-7.077
				c-0.221-2.477-0.462-4.952-0.686-7.428c-0.164-1.81-0.308-3.622-0.471-5.432c-0.225-2.5-0.463-5-0.688-7.5
				C6.58,9.971,6.428,8.184,6.274,6.397c-0.053-0.62-0.077-1.243-0.157-1.859C6.039,3.941,6.295,3.805,6.852,3.816
				c1.519,0.032,3.039,0.011,4.559,0.011c5.379,0,10.759,0,16.137,0c6.827,0,13.654,0.01,20.48-0.015
				C48.737,3.809,48.955,4.008,48.884,4.703z"/>
			<g>
				<path fill="#FFFFFF" d="M20.338,6.135h5.357v0.963h-4.629v2.969h3.524V9.063h-1.477V8.099h2.95v2.35
					c0,0.16-0.074,0.297-0.221,0.411s-0.322,0.17-0.524,0.17h-4.981c-0.205,0-0.38-0.057-0.526-0.17
					c-0.146-0.114-0.218-0.25-0.218-0.411V6.716c0-0.158,0.072-0.294,0.218-0.409C19.958,6.192,20.133,6.135,20.338,6.135z"/>
				<path fill="#FFFFFF" d="M26.63,11.03V6.135h1.472v4.896H26.63z"/>
				<path fill="#FFFFFF" d="M35.14,6.135v0.963h-2.497v3.932h-1.477V7.098H28.67V6.135H35.14z"/>
			</g>
		</g>
	</g>
	<g>
		<path fill-rule="evenodd" clip-rule="evenodd" fill="#FFFFFF" d="M13.09,32.686c0-0.304,0-0.607,0-0.912
			c0.281-0.688,0.843-1.152,1.351-1.658c2.558-2.544,5.116-5.086,7.672-7.632c0.088-0.088,0.153-0.201,0.229-0.303
			c0.101,0.073,0.146,0.097,0.18,0.131c1.01,1.002,2.023,2.001,3.02,3.016c0.085,0.087,0.109,0.292,0.078,0.423
			c-0.234,1.005,0.134,1.991,1,2.499c0.248,0.146,0.318,0.297,0.317,0.566c-0.01,2.394-0.01,4.787,0.001,7.181
			c0.001,0.285-0.076,0.446-0.333,0.598c-0.868,0.513-1.245,1.528-0.972,2.502c0.258,0.92,1.12,1.579,2.091,1.597
			c1.034,0.02,1.897-0.584,2.204-1.543c0.302-0.94-0.037-1.954-0.866-2.505c-0.205-0.137-0.28-0.274-0.279-0.519
			c0.01-2.381,0.005-4.762,0.007-7.144c0-0.106,0.014-0.213,0.025-0.37c0.124,0.114,0.21,0.187,0.289,0.266
			c0.82,0.814,1.634,1.635,2.463,2.44c0.176,0.17,0.219,0.312,0.155,0.554c-0.218,0.844,0.004,1.586,0.646,2.175
			c0.628,0.577,1.374,0.749,2.195,0.489c1.129-0.357,1.783-1.517,1.505-2.639c-0.292-1.176-1.405-1.878-2.616-1.674
			c-0.157,0.026-0.388-0.019-0.495-0.122c-0.969-0.935-1.921-1.887-2.866-2.846c-0.083-0.084-0.128-0.264-0.106-0.383
			c0.311-1.671-1.004-2.994-2.685-2.705c-0.138,0.023-0.343-0.047-0.445-0.146c-0.966-0.938-1.917-1.892-2.871-2.842
			c-0.087-0.087-0.169-0.18-0.289-0.307c0.409-0.394,0.793-0.78,1.196-1.146c0.763-0.692,1.356-1.581,2.342-2.017
			c0.305,0,0.611,0,0.917,0c0.672,0.261,1.129,0.791,1.619,1.279c3.709,3.688,7.418,7.375,11.125,11.063
			c0.552,0.55,1.162,1.054,1.475,1.797c0,0.278,0,0.558,0,0.836c-0.237,0.666-0.749,1.121-1.233,1.602
			c-3.794,3.768-7.586,7.538-11.376,11.311c-0.482,0.481-0.94,0.99-1.609,1.227c-0.281,0-0.561,0-0.841,0
			c-0.724-0.3-1.208-0.893-1.746-1.42c-0.39-0.382-0.781-0.762-1.168-1.146c-3.34-3.32-6.679-6.641-10.019-9.962
			C13.887,33.809,13.351,33.356,13.09,32.686z"/>
	</g>
</g>
</svg>
