<?xml version="1.0" encoding="utf-8"?>
<!-- Generator: Adobe Illustrator 16.0.3, SVG Export Plug-In . SVG Version: 6.00 Build 0)  -->
<!DOCTYPE svg PUBLIC "-//W3C//DTD SVG 1.1//EN" "http://www.w3.org/Graphics/SVG/1.1/DTD/svg11.dtd">
<svg version="1.1" id="Layer_1" xmlns="http://www.w3.org/2000/svg" xmlns:xlink="http://www.w3.org/1999/xlink" x="0px" y="0px"
	 width="55px" height="55px" viewBox="0 0 55 55" enable-background="new 0 0 55 55" xml:space="preserve">
<g>
	<g>
		<path fill-rule="evenodd" clip-rule="evenodd" fill="#463014" d="M27.551,2.016c7.337,0,14.676,0.011,22.014-0.017
			c0.763-0.003,0.997,0.21,0.921,0.958c-0.27,2.633-0.5,5.27-0.739,7.906c-0.176,1.946-0.338,3.894-0.514,5.84
			c-0.239,2.662-0.488,5.323-0.728,7.985c-0.178,1.971-0.341,3.944-0.519,5.916c-0.239,2.662-0.489,5.323-0.728,7.985
			c-0.179,1.997-0.348,3.995-0.518,5.994c-0.109,1.28-0.174,2.566-0.354,3.837c-0.037,0.257-0.474,0.571-0.782,0.658
			c-4.502,1.266-9.013,2.498-13.521,3.738c-1.37,0.377-2.737,0.768-4.114,1.118c-0.309,0.079-0.673,0.093-0.978,0.009
			c-5.909-1.609-11.811-3.241-17.717-4.857c-0.495-0.136-0.677-0.378-0.719-0.914c-0.212-2.716-0.49-5.426-0.732-8.14
			c-0.226-2.534-0.428-5.072-0.654-7.606c-0.238-2.663-0.496-5.323-0.737-7.984c-0.176-1.946-0.331-3.894-0.506-5.84
			c-0.242-2.687-0.498-5.374-0.74-8.061C5.012,8.62,4.849,6.699,4.684,4.778C4.626,4.112,4.602,3.442,4.515,2.781
			C4.431,2.138,4.706,1.992,5.304,2.004c1.633,0.034,3.267,0.012,4.9,0.012C15.987,2.016,21.769,2.016,27.551,2.016z"/>
		<path opacity="0.2" fill-rule="evenodd" clip-rule="evenodd" fill="#FFFFFF" d="M45.155,12.383
			c0.176-2.15,0.348-4.301,0.547-6.448c0.061-0.654-0.125-0.84-0.729-0.838c-5.811,0.024-11.621,0.015-17.432,0.015
			c-0.013,0-0.027,0-0.041,0v7.271H45.155z"/>
		<path opacity="0.2" fill-rule="evenodd" clip-rule="evenodd" fill="#FFFFFF" d="M27.418,13.251l0.164,38.002
			c0.127-0.005,0.255-0.024,0.372-0.059c1.089-0.312,2.17-0.658,3.254-0.992c3.565-1.101,7.133-2.194,10.692-3.317
			c0.244-0.077,0.589-0.354,0.617-0.579c0.138-1.111,0.185-2.237,0.266-3.358c0.128-1.749,0.253-3.498,0.387-5.247
			c0.18-2.33,0.367-4.66,0.547-6.99c0.133-1.726,0.255-3.452,0.388-5.178c0.18-2.33,0.367-4.66,0.547-6.99
			c0.131-1.704,0.252-3.408,0.384-5.112c0.007-0.085,0.014-0.17,0.021-0.255L27.418,13.251z"/>
		<path fill-rule="evenodd" clip-rule="evenodd" fill="#FFFFFF" d="M48.781,2.923C41.704,2.95,34.627,2.939,27.55,2.939
			c-5.577,0-11.154,0-16.731,0c-1.575,0-3.151,0.022-4.726-0.012C5.516,2.916,5.25,3.057,5.332,3.676
			c0.083,0.639,0.107,1.285,0.163,1.927c0.159,1.853,0.316,3.706,0.483,5.558c0.234,2.592,0.481,5.183,0.714,7.775
			c0.169,1.876,0.318,3.755,0.488,5.631c0.232,2.568,0.481,5.133,0.71,7.701c0.218,2.444,0.413,4.892,0.631,7.336
			c0.233,2.617,0.502,5.231,0.707,7.851c0.04,0.517,0.216,0.751,0.693,0.882c5.697,1.56,11.389,3.133,17.087,4.686
			c0.294,0.08,0.646,0.066,0.943-0.009c1.328-0.339,2.646-0.716,3.968-1.079c4.35-1.196,8.699-2.385,13.041-3.605
			c0.298-0.084,0.719-0.388,0.755-0.635c0.174-1.225,0.236-2.466,0.342-3.7c0.164-1.928,0.326-3.855,0.499-5.782
			c0.229-2.567,0.472-5.134,0.702-7.701c0.171-1.901,0.328-3.804,0.499-5.705c0.231-2.567,0.472-5.134,0.703-7.701
			c0.169-1.877,0.325-3.755,0.495-5.633c0.23-2.542,0.453-5.085,0.713-7.625C49.743,3.126,49.518,2.92,48.781,2.923z M48.884,4.703
			c-0.25,2.45-0.465,4.903-0.688,7.355c-0.164,1.811-0.314,3.623-0.478,5.433c-0.223,2.476-0.455,4.952-0.678,7.428
			c-0.165,1.834-0.316,3.669-0.481,5.503c-0.223,2.477-0.456,4.952-0.678,7.429c-0.166,1.858-0.323,3.717-0.481,5.576
			c-0.102,1.191-0.161,2.388-0.33,3.569c-0.033,0.238-0.439,0.531-0.728,0.612c-4.188,1.178-8.384,2.324-12.578,3.478
			c-1.275,0.351-2.547,0.714-3.828,1.041c-0.287,0.073-0.626,0.085-0.91,0.009c-5.497-1.498-10.987-3.016-16.482-4.52
			c-0.46-0.126-0.63-0.352-0.669-0.851c-0.197-2.526-0.457-5.048-0.681-7.572c-0.21-2.357-0.398-4.718-0.609-7.076
			c-0.221-2.478-0.462-4.952-0.686-7.428c-0.164-1.811-0.308-3.622-0.471-5.432c-0.225-2.5-0.463-5-0.688-7.5
			C6.58,9.971,6.428,8.184,6.274,6.397c-0.053-0.62-0.077-1.243-0.157-1.858C6.039,3.941,6.295,3.805,6.852,3.816
			c1.519,0.032,3.039,0.011,4.559,0.011c5.379,0,10.759,0,16.137,0c6.827,0,13.654,0.01,20.48-0.016
			C48.737,3.809,48.955,4.008,48.884,4.703z"/>
		<g>
			<path fill="#FFFFFF" d="M18.044,6.659h3.003v0.668h-2.595v2.059h1.975V8.69H19.6V8.021h1.653v1.63
				c0,0.111-0.041,0.206-0.124,0.285c-0.083,0.079-0.18,0.118-0.293,0.118h-2.792c-0.115,0-0.213-0.04-0.295-0.118
				c-0.082-0.079-0.123-0.174-0.123-0.285V7.062c0-0.109,0.041-0.204,0.123-0.284C17.831,6.699,17.929,6.659,18.044,6.659z"/>
			<path fill="#FFFFFF" d="M24.78,6.659c0.114,0,0.212,0.04,0.295,0.119S25.2,6.953,25.2,7.062V8.62
				c0,0.112-0.042,0.208-0.125,0.286c-0.083,0.079-0.181,0.117-0.295,0.117h-0.072l0.648,1.032H24.39l-0.648-1.032h-1.345v1.032
				h-0.825V6.659H24.78z M24.373,8.357v-1.03h-1.976v1.03H24.373z"/>
			<path fill="#FFFFFF" d="M28.476,6.659h0.825v2.992c0,0.111-0.041,0.206-0.123,0.285c-0.081,0.079-0.18,0.118-0.295,0.118h-2.792
				c-0.115,0-0.213-0.04-0.295-0.118c-0.082-0.079-0.122-0.174-0.122-0.285V6.659H26.5v2.727h1.976V6.659z"/>
			<path fill="#FFFFFF" d="M30.443,8.109v1.946h-0.825V6.492l2.801,2.112V6.659h0.826v3.56L30.443,8.109z"/>
			<path fill="#FFFFFF" d="M37.189,6.659v0.668H35.79v2.728h-0.828V7.327h-1.399V6.659H37.189z"/>
		</g>
	</g>
	<g>
		<path fill-rule="evenodd" clip-rule="evenodd" fill="#FFFFFF" d="M26.587,48.186c-0.247-0.1-0.486-0.243-0.743-0.29
			c-0.843-0.153-1.592-0.495-2.298-0.971c-0.216-0.146-0.519-0.175-0.786-0.232c-1.667-0.364-2.817-1.375-3.628-2.829
			c-0.092-0.164-0.269-0.322-0.443-0.396c-1.787-0.75-2.836-2.35-2.874-4.292c-0.021-1.091,0.192-2.09,0.817-2.991
			c0.112-0.16,0.255-0.3,0.441-0.516c0.171,0.937,0.58,1.683,1.171,2.321c0.127,0.139,0.345,0.193,0.521,0.287
			c0.06-0.158,0.16-0.313,0.172-0.475c0.08-1.056,0.19-2.112,0.194-3.169c0.004-1.346-0.21-1.938-1.551-2.656
			c-0.634-0.34-1.254-0.739-1.794-1.21c-0.962-0.839-0.921-2.272,0.226-3.036c0.497-0.331,0.753-0.799,0.72-1.41
			c-0.011-0.216-0.007-0.434,0.003-0.65c0.024-0.551,0.003-1.076-0.373-1.548c-0.188-0.236-0.257-0.563-0.387-0.847
			c-0.461-1.008,0.203-2.111,1.365-2.389c0.241-0.058,0.488-0.087,0.751-0.133c0.202-0.785,0.347-1.639-0.36-2.185
			c-0.602-0.465-1.393-0.688-2.093-1.014c0.653-1.083,2.622-1.641,3.802-1.44c1.687,0.287,2.88,1.295,3.951,2.523
			c0.111,0.128,0.362,0.224,0.519,0.193c0.114-0.022,0.246-0.277,0.256-0.435c0.059-0.913,0.672-1.991,1.596-2.657
			c0.043,0.192,0.081,0.35,0.115,0.508c0.062,0.286,0.103,0.578,0.189,0.856c0.033,0.105,0.166,0.178,0.254,0.266
			c0.088-0.104,0.23-0.194,0.257-0.312c0.24-1.059,1.029-1.605,1.912-2.068c0.038-0.019,0.097,0.002,0.152,0.005
			c0.054,0.575,0.074,1.149,0.168,1.711c0.097,0.579,0.223,0.576,0.691,0.245c0.459-0.324,0.982-0.558,1.521-0.786
			c-0.318,0.855-0.619,1.67-0.396,2.521c0.554,0.341,0.884,0.116,1.243-0.29c0.861-0.971,1.826-1.783,3.135-2.167
			c1.568-0.46,3.685,0.252,4.401,1.387c-0.501,0.18-1.018,0.325-1.497,0.548c-1,0.465-1.408,1.396-1.029,2.393
			c0.063,0.166,0.42,0.27,0.657,0.312c1.031,0.184,1.8,1.07,1.604,2.018c-0.105,0.515-0.422,0.984-0.628,1.48
			c-0.104,0.25-0.236,0.514-0.241,0.774c-0.012,0.559,0,1.129,0.104,1.675c0.057,0.293,0.261,0.65,0.507,0.799
			c1.198,0.723,1.489,2.419-0.078,3.537c-0.561,0.399-1.156,0.76-1.77,1.073c-0.75,0.384-1.101,0.979-1.091,1.785
			c0.016,1.245,0.062,2.489,0.107,3.734c0.006,0.175,0.083,0.348,0.126,0.52c0.667-0.099,1.579-1.444,1.721-2.56
			c0.672,0.525,0.999,1.243,1.14,1.986c0.349,1.851,0.154,3.593-1.384,4.938c-0.186,0.162-0.372,0.367-0.595,0.436
			c-0.797,0.243-1.221,0.837-1.655,1.486c-0.828,1.235-2.025,1.955-3.495,2.231c-0.174,0.032-0.363,0.076-0.503,0.176
			c-0.87,0.617-1.83,0.962-2.896,1.033c-0.074,0.006-0.14,0.127-0.21,0.193C27.728,48.186,27.158,48.186,26.587,48.186z
			 M30.542,34.738c0.054-0.017,0.106-0.033,0.16-0.049c0.07,0.146,0.151,0.289,0.21,0.44c0.482,1.235,0.973,2.468,1.434,3.711
			c0.146,0.393,0.34,0.621,0.793,0.545c0.493-0.083,0.989-0.145,1.483-0.219c0.714-0.108,0.731-0.192,0.685-0.907
			c-0.09-1.41-0.17-2.824-0.168-4.236c0.001-1.113,0.558-1.941,1.572-2.471c0.572-0.299,1.134-0.635,1.65-1.02
			c0.734-0.546,0.738-1.803,0.064-2.316c-0.223-0.169-0.36-0.199-0.436,0.22c-0.718-1.617-0.977-3.17-0.484-4.854
			c0.039,0.205,0.067,0.354,0.095,0.503c0.052,0.013,0.103,0.025,0.154,0.037c0.18-0.413,0.396-0.814,0.531-1.241
			c0.164-0.517-0.055-0.985-0.574-1.088c-0.546-0.107-1.131-0.133-1.683-0.068c-1.457,0.173-2.733,0.828-3.938,1.627
			c-0.605,0.402-1.195,0.829-1.792,1.245c0.871-1.417,2.122-2.415,3.62-3.247c-0.236-0.218-0.389-0.433-0.598-0.538
			c-0.574-0.292-1.162-0.566-1.764-0.797c-1.787-0.685-3.654-0.818-5.527-0.568c-1.097,0.147-2.181,0.452-3.242,0.779
			c-0.633,0.195-1.259,0.505-1.682,1.152c1.483,0.807,2.725,1.815,3.627,3.196c-0.173-0.067-0.314-0.172-0.461-0.269
			c-0.881-0.572-1.736-1.189-2.651-1.701c-1.181-0.66-2.463-1.017-3.838-0.939c-0.678,0.038-1.21,0.453-1.106,0.964
			c0.107,0.528,0.37,1.026,0.564,1.537c0.057-0.017,0.113-0.034,0.169-0.051c0.018-0.171,0.035-0.343,0.055-0.541
			c0.564,1.438,0.207,3.787-0.382,4.603c-0.253,0.017-0.414-0.022-0.498,0.04c-0.58,0.429-0.695,1.547-0.165,2.051
			c0.403,0.384,0.862,0.751,1.363,0.983c1.511,0.703,2.234,1.811,2.1,3.486c-0.103,1.276-0.131,2.558-0.213,3.835
			c-0.018,0.286,0.057,0.447,0.342,0.495c0.624,0.105,1.249,0.204,1.871,0.317c0.412,0.075,0.607-0.125,0.739-0.481
			c0.305-0.825,0.632-1.642,0.945-2.463c0.112-0.294,0.199-0.598,0.321-0.888c0.119-0.283,0.266-0.555,0.401-0.831
			c0.054,0.02,0.107,0.039,0.162,0.06c-0.499,1.825-0.997,3.65-1.491,5.458c3.023,0,6.068,0,9.06,0
			C31.529,38.411,31.036,36.575,30.542,34.738z M33.244,42.491c0.015-0.871-0.203-1.161-0.872-1.322
			c-0.226-0.055-0.46-0.102-0.689-0.102c-2.798-0.007-5.596-0.006-8.394,0c-0.197,0-0.398,0.039-0.591,0.086
			c-0.792,0.19-1.115,0.576-0.931,1.365c0.353,1.511,0.982,2.899,2.312,3.833c2.093,1.471,5.961,1.441,7.868-0.981
			C32.658,44.465,33.012,43.405,33.244,42.491z M34.074,43.112c1.341,0.194,3.254-0.75,3.871-2.015
			c0.601-1.229,0.683-2.509,0.194-3.808c-0.9,2.236-2.833,2.74-4.965,2.961c0.332,0.495,0.726,0.886,0.869,1.352
			C34.186,42.063,34.074,42.601,34.074,43.112z M16.854,37.319c-0.395,1.397-0.458,2.772,0.401,4.01
			c0.872,1.254,2.161,1.747,3.767,1.782c-0.478-1.161,0.046-2.007,0.828-2.837C19.667,40.038,17.76,39.53,16.854,37.319z
			 M32.474,19.271c0.261,0.136,0.519,0.271,0.793,0.414c0.073-0.099,0.123-0.163,0.17-0.228c0.849-1.183,1.93-1.901,3.466-1.805
			c0.277,0.018,0.568-0.17,0.941-0.292C35.931,16.369,33.746,17.121,32.474,19.271z M22.54,19.276
			c-1.363-2.213-3.522-2.889-5.283-1.889c0.347,0.125,0.704,0.25,1.063,0.257c0.924,0.019,1.749,0.272,2.423,0.909
			c0.357,0.338,0.672,0.721,1.028,1.108C22.003,19.544,22.253,19.419,22.54,19.276z M18.723,18.335
			c0.106,0.505,0.215,1.014,0.317,1.524c0.042,0.21,0.056,0.427,0.102,0.636c0.11,0.503,0.611,0.573,0.901,0.478
			c0.312-0.103,0.715-0.505,0.735-0.8C20.839,19.25,19.643,18.271,18.723,18.335z M36.256,18.333
			c-0.732-0.019-1.337,0.356-1.785,1.138c-0.382,0.667-0.358,0.698,0.122,1.275c0.209,0.251,0.396,0.28,0.688,0.208
			c0.301-0.074,0.535-0.176,0.595-0.507C36.003,19.741,36.13,19.035,36.256,18.333z M22.072,45.648
			c-0.275-1.304-0.663-1.623-1.939-1.631C20.609,44.759,21.208,45.288,22.072,45.648z M32.889,45.517
			c0.038,0.03,0.076,0.062,0.113,0.093c0.788-0.305,1.354-0.868,1.892-1.626c-0.373,0.039-0.649,0.056-0.92,0.102
			c-0.154,0.026-0.373,0.059-0.437,0.163C33.294,44.654,33.101,45.091,32.889,45.517z"/>
		<path fill-rule="evenodd" clip-rule="evenodd" fill="#FFFFFF" d="M26.216,26.273c0.925,0.919,1.728,0.91,2.537,0
			C27.943,26.273,27.063,26.273,26.216,26.273z"/>
		<path fill-rule="evenodd" clip-rule="evenodd" fill="#FFFFFF" d="M30.623,42.093c-0.401,0-0.804-0.021-1.202,0.006
			c-0.381,0.025-0.584,0.337-0.4,0.61c0.266,0.395,0.547,0.785,0.87,1.134c0.402,0.435,0.926,0.451,1.378,0.059
			c0.299-0.259,0.592-0.544,0.81-0.868c0.12-0.179,0.155-0.488,0.087-0.691c-0.045-0.129-0.345-0.216-0.541-0.238
			C31.295,42.064,30.957,42.093,30.623,42.093z M24.453,44.223c0.189-0.101,0.429-0.168,0.58-0.321
			c0.299-0.307,0.564-0.649,0.813-0.999c0.103-0.145,0.22-0.4,0.158-0.51c-0.083-0.148-0.329-0.28-0.511-0.289
			c-0.719-0.031-1.439-0.022-2.159-0.007c-0.55,0.012-0.768,0.377-0.446,0.835c0.279,0.397,0.658,0.729,1.02,1.063
			C24.032,44.107,24.236,44.136,24.453,44.223z"/>
		<path fill-rule="evenodd" clip-rule="evenodd" fill="#FFFFFF" d="M36.407,25.999c-0.312,0.128-0.504,0.208-0.716,0.296
			c0.541,0.58,0.454,1.179,0.131,1.878c-0.097-0.281-0.17-0.489-0.251-0.723c-0.19,0.468-0.331,0.896-0.533,1.295
			c-0.558,1.099-1.542,1.516-2.71,1.545c-0.313,0.008-0.667-0.118-0.939-0.285c-0.362-0.222-0.502-0.085-0.548,0.238
			c-0.063,0.453-0.078,0.913-0.176,1.424c-0.219-0.555-0.437-1.109-0.683-1.734c-0.525-0.133-1.126-0.334-1.217-1.193
			c0.719,0.227,1.403,0.24,1.981-0.224c0.411-0.329,0.746-0.75,1.146-1.097C33.277,26.214,34.345,25.874,36.407,25.999z
			 M31.289,29.331c0.618,0.55,1.854,0.507,2.535-0.078c0.565-0.484,0.753-1.543,0.378-2.324
			C33.095,27.575,32.028,28.251,31.289,29.331z"/>
		<path fill-rule="evenodd" clip-rule="evenodd" fill="#FFFFFF" d="M24.295,31.715c-0.065-0.675-0.121-1.25-0.191-1.986
			c-1.084,0.762-2.037,0.673-3.006,0.168c-0.986-0.515-1.354-1.422-1.651-2.565c-0.112,0.334-0.18,0.538-0.247,0.735
			c-0.409-0.521-0.376-1.166,0.115-1.771c-0.205-0.083-0.402-0.164-0.603-0.245c1.334-0.325,3.111,0.181,4.223,1.212
			c0.351,0.326,0.681,0.673,1.023,1.008c0.647,0.634,1.412,0.764,2.303,0.458c-0.087,0.64-0.446,0.978-0.973,1.121
			c-0.276,0.075-0.387,0.152-0.451,0.465C24.741,30.78,24.496,31.218,24.295,31.715z M20.843,26.902
			c-0.423,0.783-0.226,1.936,0.349,2.417c0.584,0.489,1.725,0.6,2.365,0.204c0.076-0.047,0.119-0.307,0.063-0.372
			c-0.223-0.263-0.473-0.511-0.745-0.724C22.211,27.909,21.529,27.415,20.843,26.902z"/>
		<path fill-rule="evenodd" clip-rule="evenodd" fill="#FFFFFF" d="M26.216,26.273c0.848,0,1.727,0,2.537,0
			C27.943,27.183,27.141,27.193,26.216,26.273z"/>
		<path fill-rule="evenodd" clip-rule="evenodd" fill="#FFFFFF" d="M30.623,42.093c0.334,0,0.672-0.028,1.001,0.011
			c0.196,0.022,0.496,0.109,0.541,0.238c0.068,0.203,0.033,0.513-0.087,0.691c-0.218,0.324-0.511,0.609-0.81,0.868
			c-0.452,0.393-0.976,0.376-1.378-0.059c-0.323-0.349-0.604-0.739-0.87-1.134c-0.184-0.273,0.02-0.585,0.4-0.61
			C29.819,42.072,30.222,42.093,30.623,42.093z"/>
		<path fill-rule="evenodd" clip-rule="evenodd" fill="#FFFFFF" d="M24.453,44.223c-0.217-0.087-0.421-0.115-0.545-0.229
			c-0.361-0.333-0.741-0.665-1.02-1.063c-0.322-0.458-0.104-0.823,0.446-0.835c0.719-0.016,1.44-0.024,2.159,0.007
			c0.182,0.009,0.427,0.141,0.511,0.289c0.062,0.109-0.056,0.365-0.158,0.51c-0.248,0.35-0.513,0.692-0.813,0.999
			C24.882,44.055,24.642,44.122,24.453,44.223z"/>
	</g>
</g>
</svg>
