<?xml version="1.0" encoding="utf-8"?>
<!-- Generator: Adobe Illustrator 16.0.3, SVG Export Plug-In . SVG Version: 6.00 Build 0)  -->
<!DOCTYPE svg PUBLIC "-//W3C//DTD SVG 1.1//EN" "http://www.w3.org/Graphics/SVG/1.1/DTD/svg11.dtd">
<svg version="1.1" id="Layer_1" xmlns="http://www.w3.org/2000/svg" xmlns:xlink="http://www.w3.org/1999/xlink" x="0px" y="0px"
	 width="55px" height="55px" viewBox="0 0 55 55" enable-background="new 0 0 55 55" xml:space="preserve">
<g>
	<path fill-rule="evenodd" clip-rule="evenodd" fill="#E55325" d="M27.355,2.552c7.337,0,14.675,0.011,22.014-0.017
		c0.764-0.003,0.997,0.21,0.921,0.957c-0.269,2.634-0.5,5.271-0.739,7.906c-0.177,1.946-0.338,3.894-0.513,5.84
		c-0.24,2.662-0.489,5.322-0.729,7.984c-0.177,1.972-0.341,3.943-0.519,5.917c-0.239,2.661-0.489,5.323-0.729,7.983
		c-0.179,1.998-0.346,3.996-0.517,5.995c-0.108,1.279-0.174,2.566-0.355,3.837c-0.035,0.256-0.473,0.57-0.781,0.657
		c-4.501,1.267-9.012,2.499-13.521,3.739c-1.371,0.377-2.738,0.768-4.114,1.118c-0.31,0.079-0.675,0.092-0.979,0.01
		c-5.908-1.609-11.81-3.243-17.717-4.858c-0.495-0.136-0.677-0.378-0.719-0.913c-0.212-2.716-0.491-5.428-0.733-8.141
		c-0.226-2.535-0.428-5.071-0.654-7.606c-0.238-2.662-0.496-5.323-0.736-7.984c-0.176-1.945-0.332-3.894-0.507-5.839
		c-0.242-2.688-0.498-5.374-0.74-8.061c-0.173-1.92-0.336-3.842-0.502-5.763C4.43,4.647,4.405,3.979,4.319,3.317
		c-0.084-0.643,0.19-0.79,0.789-0.777c1.633,0.035,3.267,0.013,4.9,0.013C15.79,2.552,21.572,2.552,27.355,2.552z"/>
	<path opacity="0.5" fill-rule="evenodd" clip-rule="evenodd" fill="#F37447" d="M44.959,12.918c0.176-2.15,0.348-4.301,0.547-6.449
		c0.062-0.653-0.125-0.84-0.729-0.838c-5.811,0.025-11.621,0.016-17.432,0.016c-0.014,0-0.027,0-0.042,0v7.271H44.959z"/>
	<path opacity="0.5" fill-rule="evenodd" clip-rule="evenodd" fill="#F37447" d="M27.222,13.787l0.164,38.001
		c0.128-0.005,0.255-0.023,0.372-0.058c1.088-0.312,2.17-0.658,3.254-0.993c3.566-1.1,7.133-2.193,10.692-3.317
		c0.243-0.076,0.588-0.353,0.617-0.577c0.138-1.112,0.185-2.238,0.266-3.359c0.127-1.749,0.252-3.498,0.387-5.246
		c0.179-2.33,0.367-4.661,0.547-6.99c0.134-1.727,0.255-3.453,0.389-5.179c0.18-2.33,0.365-4.66,0.545-6.99
		c0.132-1.703,0.254-3.408,0.386-5.111c0.006-0.086,0.014-0.17,0.019-0.256L27.222,13.787z"/>
	<g>
		<g>
			<path fill="#FFFFFF" d="M12.253,17.43h28.36l-0.699,5.384H19.497l0.414,5.595H37.62c0.844,0,1.528,0.324,2.051,0.972
				c0.513,0.647,0.702,1.412,0.573,2.294l-1.44,9.867c-0.131,0.895-0.501,1.659-1.104,2.295c-0.596,0.636-1.237,0.953-1.935,0.953
				h-17.15c-0.706,0-1.349-0.317-1.935-0.953c-0.594-0.636-0.956-1.4-1.08-2.295l-0.703-5.065h5.61l0.217,2.93h12.97l0.456-5.613
				H17.449c-0.805,0-1.533-0.317-2.189-0.953c-0.665-0.635-1.062-1.399-1.186-2.294L12.253,17.43z"/>
		</g>
	</g>
	<g>
		<path fill="#FFFFFF" d="M15.822,9.673h-3.094v1.729h-1.294V7.101h1.294v1.727h3.094V7.101h1.298v4.302h-1.298V9.673z"/>
		<path fill="#FFFFFF" d="M23.304,7.101v0.846H21.11v3.456h-1.299V7.947h-2.194V7.101H23.304z"/>
		<path fill="#FFFFFF" d="M27.293,10.528l-1.519-1.524l-0.679,2.398h-1.295l1.295-4.514l2.197,2.218l2.198-2.218l1.294,4.514h-1.294
			l-0.679-2.398L27.293,10.528z"/>
		<path fill="#FFFFFF" d="M32.577,7.101v3.455h4.392v0.847h-5.686V7.101H32.577z"/>
		<path fill="#FFFFFF" d="M37.467,7.101h5.361v0.846h-4.067v0.88h3.737c0.178,0,0.331,0.05,0.461,0.152
			c0.129,0.102,0.193,0.222,0.193,0.36v1.552c0,0.141-0.064,0.261-0.193,0.36c-0.13,0.1-0.283,0.15-0.461,0.15h-4.377
			c-0.181,0-0.335-0.05-0.462-0.15c-0.128-0.1-0.192-0.22-0.192-0.36v-0.797h1.294v0.46h3.098V9.673h-3.737
			c-0.181,0-0.335-0.05-0.462-0.15c-0.128-0.1-0.192-0.22-0.192-0.361V7.101z"/>
	</g>
	<path fill-rule="evenodd" clip-rule="evenodd" fill="#FFFFFF" d="M48.585,3.459c-7.077,0.026-14.154,0.016-21.231,0.016
		c-5.577,0-11.154,0-16.73,0c-1.576,0-3.152,0.021-4.727-0.012C5.319,3.451,5.053,3.593,5.135,4.212
		c0.083,0.638,0.107,1.284,0.163,1.926c0.159,1.853,0.316,3.706,0.483,5.558c0.234,2.592,0.481,5.183,0.714,7.775
		c0.169,1.877,0.319,3.755,0.488,5.632c0.232,2.566,0.481,5.133,0.71,7.7c0.218,2.445,0.414,4.894,0.631,7.337
		c0.233,2.618,0.502,5.232,0.707,7.851c0.04,0.518,0.215,0.75,0.693,0.882c5.697,1.559,11.39,3.133,17.088,4.686
		c0.293,0.08,0.646,0.066,0.943-0.009c1.328-0.339,2.646-0.715,3.969-1.079c4.349-1.196,8.698-2.385,13.04-3.606
		c0.299-0.083,0.72-0.387,0.755-0.634c0.174-1.225,0.236-2.466,0.342-3.701c0.163-1.927,0.327-3.854,0.499-5.781
		c0.23-2.566,0.472-5.134,0.701-7.7c0.172-1.902,0.329-3.805,0.501-5.707c0.229-2.567,0.472-5.133,0.701-7.7
		c0.17-1.877,0.325-3.756,0.496-5.632c0.23-2.543,0.454-5.086,0.713-7.625C49.547,3.662,49.322,3.456,48.585,3.459z M48.688,5.239
		c-0.251,2.449-0.467,4.902-0.688,7.354c-0.164,1.811-0.314,3.623-0.478,5.434c-0.223,2.476-0.455,4.951-0.678,7.427
		c-0.165,1.834-0.316,3.67-0.481,5.504c-0.222,2.477-0.456,4.952-0.678,7.429c-0.166,1.858-0.323,3.717-0.481,5.576
		c-0.102,1.191-0.161,2.389-0.33,3.569c-0.033,0.239-0.439,0.531-0.728,0.612c-4.188,1.178-8.384,2.324-12.578,3.479
		c-1.275,0.35-2.548,0.713-3.827,1.04c-0.287,0.072-0.627,0.085-0.91,0.008c-5.496-1.497-10.987-3.015-16.482-4.519
		c-0.46-0.127-0.63-0.353-0.669-0.851c-0.197-2.526-0.456-5.048-0.682-7.572C8.788,37.371,8.6,35.01,8.39,32.652
		c-0.221-2.477-0.461-4.952-0.686-7.428c-0.164-1.81-0.308-3.623-0.471-5.432c-0.226-2.5-0.463-4.999-0.689-7.5
		c-0.161-1.786-0.313-3.574-0.467-5.36C6.024,6.313,6.001,5.69,5.921,5.074C5.842,4.477,6.099,4.34,6.655,4.352
		c1.52,0.032,3.04,0.011,4.558,0.011c5.381,0,10.76,0,16.139,0c6.826,0,13.652,0.011,20.479-0.016
		C48.541,4.345,48.759,4.544,48.688,5.239z"/>
</g>
</svg>
