<?xml version="1.0" encoding="utf-8"?>
<!-- Generator: Adobe Illustrator 16.0.3, SVG Export Plug-In . SVG Version: 6.00 Build 0)  -->
<!DOCTYPE svg PUBLIC "-//W3C//DTD SVG 1.1//EN" "http://www.w3.org/Graphics/SVG/1.1/DTD/svg11.dtd">
<svg version="1.1" id="Layer_1" xmlns="http://www.w3.org/2000/svg" xmlns:xlink="http://www.w3.org/1999/xlink" x="0px" y="0px"
	 width="55px" height="55px" viewBox="0 0 55 55" enable-background="new 0 0 55 55" xml:space="preserve">
<g>
	<path fill-rule="evenodd" clip-rule="evenodd" fill="#E55126" d="M27.551,2.016c7.337,0,14.676,0.011,22.013-0.017
		c0.764-0.003,0.998,0.21,0.922,0.958c-0.27,2.633-0.501,5.27-0.739,7.906c-0.177,1.946-0.338,3.894-0.514,5.84
		c-0.239,2.662-0.489,5.323-0.728,7.984c-0.178,1.972-0.341,3.944-0.519,5.916c-0.239,2.662-0.49,5.323-0.729,7.985
		c-0.179,1.997-0.347,3.996-0.517,5.994c-0.109,1.28-0.174,2.566-0.354,3.837c-0.037,0.257-0.474,0.571-0.782,0.658
		c-4.502,1.267-9.013,2.498-13.521,3.738c-1.37,0.377-2.737,0.768-4.114,1.119c-0.309,0.078-0.673,0.092-0.978,0.009
		c-5.908-1.61-11.811-3.241-17.717-4.858c-0.495-0.136-0.677-0.378-0.719-0.914c-0.211-2.715-0.49-5.426-0.732-8.14
		c-0.226-2.535-0.428-5.071-0.654-7.606c-0.238-2.662-0.496-5.323-0.737-7.984c-0.176-1.946-0.331-3.894-0.506-5.839
		c-0.242-2.688-0.498-5.374-0.74-8.062C5.012,8.62,4.849,6.699,4.684,4.778C4.626,4.112,4.602,3.442,4.515,2.78
		C4.431,2.138,4.706,1.992,5.304,2.004c1.633,0.034,3.267,0.012,4.9,0.012C15.987,2.016,21.769,2.016,27.551,2.016z"/>
	<path opacity="0.2" fill-rule="evenodd" clip-rule="evenodd" fill="#FFFFFF" d="M45.155,12.382c0.176-2.15,0.348-4.3,0.547-6.448
		c0.061-0.653-0.125-0.84-0.729-0.837c-5.811,0.024-11.621,0.014-17.432,0.014c-0.014,0-0.027,0-0.041,0v7.271H45.155z"/>
	<path opacity="0.2" fill-rule="evenodd" clip-rule="evenodd" fill="#FFFFFF" d="M27.418,13.251l0.165,38.001
		c0.127-0.004,0.254-0.023,0.372-0.058c1.089-0.312,2.17-0.658,3.254-0.992c3.565-1.101,7.133-2.194,10.692-3.317
		c0.244-0.077,0.589-0.354,0.617-0.578c0.138-1.112,0.185-2.238,0.266-3.359c0.128-1.749,0.253-3.498,0.387-5.247
		c0.18-2.33,0.367-4.659,0.547-6.989c0.133-1.726,0.255-3.453,0.388-5.179c0.18-2.331,0.367-4.66,0.547-6.99
		c0.131-1.704,0.252-3.408,0.384-5.112c0.007-0.085,0.014-0.17,0.021-0.255L27.418,13.251z"/>
	<g>
		<g>
			<path fill="#FFFFFF" d="M12.45,16.894h28.36l-0.699,5.383H19.693l0.414,5.596h17.711c0.841,0,1.526,0.324,2.05,0.971
				c0.514,0.647,0.701,1.412,0.572,2.295L39,41.006c-0.131,0.895-0.5,1.659-1.103,2.295c-0.597,0.636-1.239,0.953-1.935,0.953
				H18.812c-0.706,0-1.349-0.317-1.934-0.953c-0.594-0.636-0.956-1.4-1.081-2.295l-0.703-5.065h5.61l0.217,2.93h12.972l0.455-5.613
				H17.645c-0.805,0-1.532-0.317-2.188-0.953c-0.665-0.636-1.062-1.4-1.186-2.295L12.45,16.894z"/>
		</g>
	</g>
	<g>
		<path fill="#FFFFFF" d="M16.019,9.138h-3.094v1.729h-1.294V6.565h1.294v1.727h3.094V6.565h1.298v4.302h-1.298V9.138z"/>
		<path fill="#FFFFFF" d="M23.5,6.565v0.847h-2.194v3.456h-1.298V7.412h-2.194V6.565H23.5z"/>
		<path fill="#FFFFFF" d="M27.489,9.993l-1.518-1.524l-0.679,2.398h-1.294l1.294-4.513l2.197,2.218l2.198-2.218l1.294,4.513h-1.294
			l-0.68-2.398L27.489,9.993z"/>
		<path fill="#FFFFFF" d="M32.773,6.565v3.456h4.392v0.846h-5.686V6.565H32.773z"/>
		<path fill="#FFFFFF" d="M37.663,6.565h5.361v0.847h-4.067v0.88h3.737c0.178,0,0.331,0.051,0.46,0.152
			c0.13,0.102,0.194,0.222,0.194,0.361v1.552c0,0.141-0.064,0.261-0.194,0.361c-0.129,0.1-0.282,0.149-0.46,0.149h-4.377
			c-0.181,0-0.335-0.05-0.463-0.149c-0.128-0.1-0.191-0.221-0.191-0.361V9.56h1.294v0.461h3.098V9.138h-3.737
			c-0.181,0-0.335-0.05-0.463-0.15s-0.191-0.22-0.191-0.361V6.565z"/>
	</g>
	<path fill-rule="evenodd" clip-rule="evenodd" fill="#FFFFFF" d="M48.781,2.923C41.704,2.95,34.627,2.939,27.549,2.939
		c-5.577,0-11.153,0-16.73,0c-1.576,0-3.152,0.022-4.727-0.011C5.516,2.916,5.25,3.057,5.332,3.676
		C5.415,4.314,5.439,4.96,5.495,5.603c0.159,1.853,0.316,3.706,0.484,5.558c0.234,2.592,0.48,5.183,0.714,7.775
		c0.169,1.877,0.319,3.755,0.488,5.632c0.232,2.567,0.481,5.134,0.711,7.701c0.218,2.444,0.413,4.892,0.631,7.337
		c0.233,2.617,0.502,5.231,0.707,7.851c0.04,0.517,0.216,0.75,0.693,0.881c5.697,1.559,11.389,3.133,17.088,4.686
		c0.293,0.08,0.646,0.067,0.943-0.009c1.328-0.338,2.646-0.715,3.968-1.079c4.35-1.195,8.699-2.384,13.041-3.605
		c0.298-0.084,0.72-0.387,0.755-0.635c0.174-1.225,0.236-2.466,0.342-3.7c0.164-1.928,0.326-3.855,0.499-5.781
		c0.229-2.568,0.472-5.135,0.702-7.702c0.171-1.901,0.328-3.804,0.499-5.706c0.231-2.567,0.472-5.134,0.703-7.701
		c0.169-1.877,0.325-3.755,0.495-5.633c0.229-2.542,0.453-5.085,0.713-7.625C49.743,3.126,49.518,2.92,48.781,2.923z M48.884,4.703
		c-0.25,2.45-0.466,4.903-0.688,7.355c-0.164,1.811-0.314,3.623-0.478,5.433c-0.223,2.476-0.455,4.952-0.678,7.428
		c-0.165,1.834-0.316,3.669-0.481,5.503c-0.223,2.477-0.456,4.952-0.678,7.429c-0.166,1.858-0.323,3.718-0.481,5.576
		c-0.102,1.191-0.161,2.388-0.33,3.569c-0.033,0.239-0.439,0.531-0.728,0.612c-4.188,1.178-8.384,2.324-12.578,3.479
		c-1.275,0.351-2.547,0.714-3.828,1.04c-0.287,0.073-0.626,0.086-0.91,0.009c-5.497-1.498-10.987-3.016-16.482-4.52
		c-0.46-0.127-0.63-0.352-0.669-0.851c-0.197-2.526-0.457-5.048-0.681-7.572c-0.21-2.357-0.398-4.718-0.609-7.076
		c-0.221-2.477-0.462-4.952-0.686-7.428c-0.164-1.811-0.308-3.622-0.471-5.433c-0.225-2.5-0.463-4.999-0.688-7.5
		C6.58,9.971,6.428,8.184,6.274,6.397c-0.053-0.62-0.077-1.243-0.157-1.858C6.039,3.941,6.295,3.805,6.852,3.816
		c1.519,0.032,3.039,0.011,4.559,0.011c5.38,0,10.759,0,16.138,0c6.826,0,13.653,0.011,20.479-0.015
		C48.737,3.809,48.955,4.008,48.884,4.703z"/>
</g>
</svg>
