<?xml version="1.0" encoding="utf-8"?>
<!-- Generator: Adobe Illustrator 16.0.3, SVG Export Plug-In . SVG Version: 6.00 Build 0)  -->
<!DOCTYPE svg PUBLIC "-//W3C//DTD SVG 1.1//EN" "http://www.w3.org/Graphics/SVG/1.1/DTD/svg11.dtd">
<svg version="1.1" id="Layer_1" xmlns="http://www.w3.org/2000/svg" xmlns:xlink="http://www.w3.org/1999/xlink" x="0px" y="0px"
	 width="55px" height="55px" viewBox="0 0 55 55" enable-background="new 0 0 55 55" xml:space="preserve">
<g>
	<g>
		<g>
			<g>
				<path fill-rule="evenodd" clip-rule="evenodd" fill="#FF761B" d="M27.552,2.016c7.338,0,14.676,0.011,22.014-0.017
					c0.764-0.003,0.997,0.21,0.921,0.957c-0.269,2.634-0.5,5.27-0.739,7.906c-0.176,1.946-0.338,3.894-0.513,5.84
					c-0.239,2.662-0.489,5.323-0.729,7.985c-0.178,1.972-0.341,3.944-0.519,5.916c-0.239,2.662-0.489,5.323-0.728,7.985
					c-0.179,1.997-0.348,3.996-0.518,5.994c-0.109,1.28-0.174,2.567-0.354,3.837c-0.036,0.257-0.473,0.571-0.782,0.658
					c-4.501,1.266-9.013,2.498-13.521,3.738c-1.37,0.377-2.737,0.768-4.114,1.119c-0.309,0.078-0.674,0.092-0.978,0.009
					c-5.909-1.61-11.811-3.242-17.717-4.858c-0.495-0.136-0.677-0.378-0.719-0.914c-0.212-2.716-0.491-5.426-0.733-8.14
					c-0.226-2.534-0.428-5.071-0.654-7.606c-0.237-2.662-0.496-5.322-0.736-7.984c-0.176-1.946-0.331-3.893-0.507-5.839
					c-0.242-2.688-0.497-5.374-0.74-8.062C5.012,8.62,4.85,6.699,4.684,4.778C4.627,4.112,4.602,3.442,4.515,2.78
					C4.431,2.138,4.706,1.992,5.304,2.004c1.633,0.035,3.267,0.012,4.9,0.012C15.987,2.016,21.77,2.016,27.552,2.016z"/>
				<path opacity="0.2" fill-rule="evenodd" clip-rule="evenodd" fill="#FFFFFF" d="M45.155,12.382
					c0.176-2.15,0.349-4.3,0.547-6.448c0.061-0.653-0.125-0.84-0.729-0.837c-5.811,0.024-11.621,0.014-17.432,0.014
					c-0.014,0-0.027,0-0.041,0v7.271H45.155z"/>
				<path opacity="0.2" fill-rule="evenodd" clip-rule="evenodd" fill="#FFFFFF" d="M27.418,13.251l0.164,38.002
					c0.128-0.005,0.255-0.024,0.373-0.058c1.088-0.313,2.169-0.659,3.253-0.993c3.565-1.101,7.133-2.194,10.692-3.317
					c0.244-0.077,0.589-0.354,0.617-0.579c0.139-1.111,0.185-2.237,0.267-3.358c0.127-1.749,0.253-3.498,0.387-5.247
					c0.179-2.33,0.367-4.659,0.546-6.99c0.133-1.726,0.255-3.452,0.388-5.178c0.18-2.33,0.367-4.659,0.547-6.989
					c0.132-1.705,0.252-3.409,0.385-5.113c0.006-0.085,0.013-0.17,0.02-0.255L27.418,13.251z"/>
				<path fill-rule="evenodd" clip-rule="evenodd" fill="#FFFFFF" d="M48.781,2.923C41.704,2.95,34.627,2.939,27.55,2.939
					c-5.577,0-11.153,0-16.73,0c-1.576,0-3.152,0.022-4.727-0.011C5.516,2.916,5.25,3.057,5.332,3.676
					C5.415,4.314,5.439,4.96,5.495,5.603c0.16,1.853,0.316,3.706,0.484,5.558c0.234,2.592,0.48,5.183,0.714,7.775
					c0.169,1.876,0.319,3.755,0.488,5.632c0.232,2.568,0.481,5.133,0.71,7.701c0.218,2.444,0.413,4.892,0.631,7.337
					c0.234,2.616,0.502,5.23,0.707,7.85c0.04,0.518,0.216,0.751,0.693,0.882c5.697,1.56,11.39,3.133,17.087,4.686
					c0.294,0.08,0.646,0.067,0.944-0.009c1.328-0.339,2.647-0.715,3.967-1.078c4.35-1.197,8.7-2.385,13.041-3.606
					c0.299-0.084,0.72-0.387,0.755-0.635c0.175-1.225,0.236-2.466,0.342-3.7c0.164-1.928,0.326-3.855,0.499-5.782
					c0.23-2.566,0.472-5.133,0.702-7.701c0.171-1.901,0.329-3.803,0.5-5.705c0.23-2.567,0.472-5.134,0.702-7.701
					c0.169-1.877,0.325-3.756,0.495-5.633c0.23-2.542,0.453-5.085,0.713-7.625C49.743,3.126,49.518,2.92,48.781,2.923z
					 M48.885,4.703c-0.251,2.449-0.466,4.903-0.688,7.355c-0.163,1.811-0.314,3.622-0.478,5.434
					c-0.223,2.476-0.454,4.951-0.678,7.428c-0.164,1.834-0.316,3.669-0.481,5.503c-0.223,2.477-0.456,4.952-0.678,7.429
					c-0.166,1.858-0.322,3.718-0.481,5.576c-0.102,1.191-0.161,2.388-0.329,3.569c-0.034,0.239-0.44,0.531-0.728,0.612
					c-4.188,1.179-8.385,2.324-12.579,3.478c-1.274,0.352-2.546,0.715-3.827,1.041c-0.287,0.073-0.626,0.086-0.91,0.009
					c-5.497-1.498-10.987-3.016-16.481-4.52c-0.461-0.126-0.63-0.352-0.669-0.851c-0.197-2.526-0.456-5.048-0.681-7.571
					c-0.21-2.358-0.398-4.719-0.609-7.077c-0.221-2.477-0.461-4.951-0.686-7.428c-0.164-1.81-0.308-3.622-0.471-5.432
					c-0.226-2.5-0.463-5-0.689-7.5C6.58,9.971,6.429,8.184,6.274,6.397c-0.053-0.62-0.076-1.243-0.157-1.859
					C6.039,3.941,6.295,3.805,6.852,3.816c1.519,0.032,3.039,0.011,4.559,0.011c5.379,0,10.758,0,16.137,0
					c6.827,0,13.653,0.01,20.479-0.015C48.737,3.809,48.955,4.008,48.885,4.703z"/>
				<g>
					<path fill="#FFFFFF" d="M9.198,10.172V7.209h0.72v2.963H9.198z"/>
					<path fill="#FFFFFF" d="M10.916,7.209v2.38h2.444v0.583h-3.165V7.209H10.916z"/>
					<path fill="#FFFFFF" d="M14.357,7.209v2.38h2.444v0.583h-3.165V7.209H14.357z"/>
					<path fill="#FFFFFF" d="M19.523,7.209h0.72v2.611c0,0.097-0.036,0.18-0.107,0.249c-0.071,0.069-0.157,0.103-0.257,0.103h-2.437
						c-0.1,0-0.186-0.034-0.257-0.103c-0.072-0.068-0.107-0.152-0.107-0.249V7.209h0.72v2.38h1.724V7.209z"/>
					<path fill="#FFFFFF" d="M20.887,7.209h2.621v0.583h-2.264v0.606h2.08c0.099,0,0.184,0.035,0.256,0.105
						c0.072,0.07,0.108,0.153,0.108,0.248v1.069c0,0.097-0.036,0.18-0.108,0.249c-0.072,0.069-0.157,0.103-0.256,0.103h-2.802V9.589
						h2.444V8.981h-2.078c-0.1,0-0.187-0.034-0.258-0.103c-0.072-0.069-0.107-0.152-0.107-0.249V7.561
						c0-0.095,0.036-0.178,0.107-0.248S20.787,7.209,20.887,7.209z"/>
					<path fill="#FFFFFF" d="M27.129,7.209v0.583h-1.221v2.38h-0.723v-2.38h-1.221V7.209H27.129z"/>
					<path fill="#FFFFFF" d="M30.207,7.209c0.099,0,0.185,0.035,0.257,0.104c0.073,0.069,0.109,0.152,0.109,0.248V8.92
						c0,0.098-0.036,0.182-0.109,0.25c-0.072,0.068-0.158,0.103-0.257,0.103h-0.063l0.566,0.9h-0.844l-0.566-0.9h-1.173v0.9h-0.721
						V7.209H30.207z M29.851,8.691V7.792h-1.724v0.899H29.851z"/>
					<path fill="#FFFFFF" d="M31.351,7.209h2.438c0.1,0,0.185,0.035,0.257,0.104c0.071,0.069,0.107,0.152,0.107,0.248v2.611h-0.723
						v-0.9h-1.722v0.9h-0.723V7.561c0-0.095,0.036-0.178,0.107-0.248S31.25,7.209,31.351,7.209z M33.431,8.691V7.792h-1.722v0.899
						H33.431z"/>
					<path fill="#FFFFFF" d="M37.595,7.209v0.583h-1.221v2.38h-0.723v-2.38h-1.221V7.209H37.595z"/>
					<path fill="#FFFFFF" d="M40.675,7.209c0.099,0,0.185,0.035,0.257,0.104c0.071,0.069,0.107,0.152,0.107,0.248v2.26
						c0,0.097-0.036,0.18-0.107,0.249c-0.072,0.069-0.158,0.103-0.257,0.103h-2.437c-0.1,0-0.186-0.034-0.258-0.103
						c-0.072-0.068-0.108-0.152-0.108-0.249v-2.26c0-0.095,0.036-0.178,0.108-0.248s0.158-0.104,0.258-0.104H40.675z M40.318,7.792
						h-1.724v1.797h1.724V7.792z"/>
					<path fill="#FFFFFF" d="M44.116,7.209c0.1,0,0.186,0.035,0.258,0.104c0.073,0.069,0.108,0.152,0.108,0.248V8.92
						c0,0.098-0.035,0.182-0.108,0.25c-0.072,0.068-0.158,0.103-0.258,0.103h-0.063l0.566,0.9h-0.844l-0.566-0.9h-1.173v0.9h-0.721
						V7.209H44.116z M43.761,8.691V7.792h-1.724v0.899H43.761z"/>
				</g>
			</g>
		</g>
	</g>
	<g>
		<path fill-rule="evenodd" clip-rule="evenodd" fill="#FFFFFF" d="M16.578,18.85c7.281,0,14.563,0,21.845,0c0,7.12,0,14.24,0,21.36
			c-7.282,0-14.563,0-21.845,0C16.578,33.09,16.578,25.97,16.578,18.85z M18.316,20.551c0,5.996,0,11.976,0,17.959
			c6.13,0,12.246,0,18.368,0c0-5.991,0-11.97,0-17.959C30.559,20.551,24.448,20.551,18.316,20.551z"/>
		<path fill-rule="evenodd" clip-rule="evenodd" fill="#FFFFFF" d="M29.315,34.447c-0.376,0-0.714,0.002-1.052,0
			c-0.776-0.006-0.609,0.098-0.808-0.612c-0.204-0.726-0.398-1.455-0.6-2.197c-0.95,0-1.904,0-2.895,0
			c-0.119,0.46-0.24,0.931-0.361,1.401c-0.103,0.399-0.212,0.796-0.304,1.198c-0.036,0.154-0.102,0.216-0.26,0.213
			c-0.367-0.008-0.734-0.003-1.102,0.002c-0.188,0.002-0.266-0.054-0.205-0.263c0.229-0.789,0.447-1.582,0.671-2.373
			c0.622-2.195,1.246-4.389,1.864-6.584c0.055-0.196,0.08-0.401,0.099-0.604c0.014-0.142,0.066-0.194,0.208-0.192
			c0.555,0.005,1.111-0.005,1.666,0.009c0.078,0.002,0.201,0.097,0.223,0.173c0.488,1.656,0.964,3.315,1.445,4.973
			C28.368,31.188,28.832,32.785,29.315,34.447z M26.501,30.119c-0.354-1.344-0.701-2.664-1.049-3.984
			c-0.032,0.004-0.064,0.009-0.097,0.014c-0.326,1.317-0.651,2.633-0.981,3.97C25.097,30.119,25.777,30.119,26.501,30.119z"/>
		<path fill-rule="evenodd" clip-rule="evenodd" fill="#FFFFFF" d="M30.679,27.058c0.477,0,0.945-0.006,1.413,0.008
			c0.056,0.001,0.119,0.104,0.159,0.172c0.022,0.039,0.004,0.101,0.004,0.153c0,2.257-0.003,4.514,0.006,6.771
			c0.001,0.225-0.053,0.305-0.283,0.292c-0.366-0.019-0.734-0.01-1.102-0.005c-0.154,0.002-0.236-0.043-0.236-0.218
			c0.006-2.352,0.008-4.703,0.012-7.055C30.651,27.151,30.662,27.127,30.679,27.058z"/>
		<path fill-rule="evenodd" clip-rule="evenodd" fill="#FFFFFF" d="M30.569,25.087c0.004-0.625,0.381-0.983,1.074-0.936
			c0.368,0.024,0.729,0.393,0.726,0.969c-0.002,0.467-0.28,0.899-0.902,0.881C30.88,25.984,30.567,25.679,30.569,25.087z"/>
	</g>
</g>
</svg>
