<?xml version="1.0" encoding="utf-8"?>
<!-- Generator: Adobe Illustrator 16.0.3, SVG Export Plug-In . SVG Version: 6.00 Build 0)  -->
<!DOCTYPE svg PUBLIC "-//W3C//DTD SVG 1.1//EN" "http://www.w3.org/Graphics/SVG/1.1/DTD/svg11.dtd">
<svg version="1.1" id="Layer_1" xmlns="http://www.w3.org/2000/svg" xmlns:xlink="http://www.w3.org/1999/xlink" x="0px" y="0px"
	 width="55px" height="55px" viewBox="0 0 55 55" enable-background="new 0 0 55 55" xml:space="preserve">
<g>
	<g>
		<g>
			<path fill-rule="evenodd" clip-rule="evenodd" fill="#498AFF" d="M27.551,2.016c7.337,0,14.676,0.011,22.013-0.017
				c0.764-0.003,0.998,0.21,0.922,0.957c-0.269,2.633-0.5,5.27-0.739,7.906c-0.177,1.946-0.338,3.894-0.514,5.84
				c-0.239,2.662-0.489,5.322-0.728,7.984c-0.178,1.971-0.341,3.944-0.519,5.916c-0.239,2.662-0.489,5.323-0.729,7.985
				c-0.179,1.997-0.347,3.995-0.517,5.994c-0.109,1.28-0.174,2.566-0.354,3.837c-0.037,0.257-0.474,0.571-0.782,0.658
				c-4.501,1.266-9.013,2.498-13.521,3.738c-1.37,0.377-2.737,0.768-4.114,1.118c-0.309,0.079-0.674,0.093-0.978,0.009
				c-5.908-1.609-11.81-3.241-17.717-4.857c-0.495-0.136-0.677-0.378-0.719-0.914c-0.211-2.716-0.491-5.426-0.732-8.14
				c-0.227-2.534-0.429-5.072-0.655-7.606c-0.238-2.663-0.496-5.323-0.737-7.985c-0.176-1.946-0.331-3.894-0.506-5.839
				c-0.242-2.688-0.498-5.374-0.74-8.061C5.012,8.62,4.849,6.699,4.684,4.778C4.626,4.112,4.602,3.442,4.515,2.78
				c-0.084-0.643,0.191-0.789,0.79-0.776c1.633,0.035,3.267,0.012,4.9,0.012C15.987,2.016,21.769,2.016,27.551,2.016z"/>
			<path opacity="0.2" fill-rule="evenodd" clip-rule="evenodd" fill="#FFFFFF" d="M45.155,12.382
				c0.176-2.15,0.348-4.301,0.547-6.448c0.061-0.653-0.125-0.84-0.729-0.837c-5.811,0.024-11.621,0.014-17.432,0.014
				c-0.014,0-0.027,0-0.041,0v7.271H45.155z"/>
			<path opacity="0.2" fill-rule="evenodd" clip-rule="evenodd" fill="#FFFFFF" d="M27.418,13.251l0.164,38.002
				c0.127-0.005,0.255-0.024,0.372-0.059c1.089-0.312,2.17-0.658,3.254-0.992c3.565-1.101,7.132-2.194,10.692-3.317
				c0.244-0.077,0.589-0.354,0.617-0.579c0.138-1.111,0.185-2.237,0.266-3.358c0.128-1.749,0.254-3.498,0.387-5.247
				c0.18-2.33,0.367-4.66,0.547-6.99c0.133-1.726,0.255-3.452,0.388-5.178c0.18-2.33,0.367-4.659,0.547-6.99
				c0.131-1.704,0.252-3.408,0.384-5.112c0.007-0.085,0.014-0.17,0.021-0.255L27.418,13.251z"/>
			<path fill-rule="evenodd" clip-rule="evenodd" fill="#FFFFFF" d="M48.781,2.923C41.704,2.95,34.627,2.939,27.549,2.939
				c-5.577,0-11.153,0-16.73,0c-1.575,0-3.151,0.022-4.726-0.011C5.516,2.916,5.25,3.057,5.332,3.676
				C5.415,4.314,5.439,4.96,5.495,5.603c0.159,1.853,0.316,3.706,0.483,5.558c0.234,2.592,0.48,5.183,0.714,7.775
				c0.168,1.876,0.318,3.755,0.488,5.632c0.232,2.567,0.481,5.133,0.71,7.701c0.218,2.444,0.414,4.892,0.631,7.336
				c0.233,2.617,0.502,5.231,0.707,7.851c0.04,0.517,0.216,0.751,0.693,0.882c5.696,1.56,11.389,3.133,17.087,4.686
				c0.293,0.08,0.646,0.066,0.943-0.009c1.328-0.339,2.646-0.716,3.968-1.079c4.349-1.196,8.699-2.385,13.041-3.605
				c0.298-0.084,0.719-0.388,0.754-0.635c0.175-1.226,0.237-2.466,0.343-3.7c0.164-1.928,0.326-3.855,0.499-5.782
				c0.229-2.567,0.472-5.134,0.702-7.701c0.171-1.901,0.328-3.804,0.499-5.706c0.231-2.567,0.472-5.134,0.703-7.701
				c0.169-1.877,0.325-3.756,0.494-5.633c0.23-2.542,0.454-5.085,0.714-7.625C49.743,3.126,49.518,2.92,48.781,2.923z M48.884,4.703
				c-0.25,2.449-0.466,4.903-0.688,7.355c-0.164,1.811-0.314,3.622-0.478,5.433c-0.223,2.476-0.455,4.951-0.678,7.428
				c-0.165,1.834-0.316,3.669-0.482,5.503c-0.222,2.477-0.455,4.952-0.677,7.429c-0.166,1.858-0.323,3.717-0.481,5.576
				c-0.102,1.191-0.161,2.388-0.33,3.569c-0.033,0.238-0.439,0.531-0.728,0.612c-4.188,1.178-8.384,2.324-12.578,3.478
				c-1.275,0.351-2.547,0.714-3.827,1.041c-0.288,0.073-0.627,0.085-0.911,0.009c-5.496-1.498-10.987-3.016-16.481-4.52
				c-0.461-0.126-0.63-0.352-0.669-0.851c-0.197-2.526-0.457-5.048-0.682-7.572c-0.21-2.357-0.398-4.718-0.608-7.076
				c-0.221-2.478-0.462-4.952-0.686-7.428c-0.164-1.811-0.308-3.622-0.471-5.432c-0.226-2.5-0.463-5-0.688-7.5
				C6.58,9.971,6.428,8.184,6.274,6.397c-0.053-0.62-0.077-1.243-0.157-1.859C6.039,3.941,6.295,3.805,6.852,3.816
				c1.519,0.032,3.039,0.011,4.559,0.011c5.379,0,10.758,0,16.137,0c6.827,0,13.654,0.01,20.479-0.015
				C48.737,3.809,48.955,4.008,48.884,4.703z"/>
			<g>
				<path fill="#FFFFFF" d="M16.904,11.417V6.232h1.261v5.186H16.904z"/>
				<path fill="#FFFFFF" d="M23.554,6.232c0.173,0,0.323,0.061,0.449,0.182c0.125,0.122,0.188,0.266,0.188,0.433v3.955
					c0,0.169-0.063,0.314-0.188,0.435c-0.126,0.121-0.275,0.181-0.449,0.181H19.29c-0.175,0-0.326-0.06-0.452-0.181
					s-0.189-0.266-0.189-0.435V6.847c0-0.167,0.063-0.312,0.189-0.433s0.276-0.182,0.452-0.182H23.554z M22.931,7.252h-3.017v3.145
					h3.017V7.252z"/>
				<path fill="#FFFFFF" d="M25.937,8.446v2.971h-1.26v-5.44l4.278,3.225V6.232h1.261v5.437L25.937,8.446z"/>
				<path fill="#FFFFFF" d="M30.699,11.417V6.232h1.261v5.186H30.699z"/>
				<path fill="#FFFFFF" d="M33.082,6.232h4.901v1.02h-4.274v3.145h4.274v1.021h-4.901c-0.175,0-0.325-0.06-0.45-0.181
					s-0.187-0.266-0.187-0.435V6.847c0-0.167,0.062-0.312,0.187-0.433S32.907,6.232,33.082,6.232z"/>
			</g>
		</g>
	</g>
	<g>
		<path fill-rule="evenodd" clip-rule="evenodd" fill="#FFFFFF" d="M37.922,26.833c2.3,6.467-0.706,11.585-4.586,13.921
			c-4.398,2.646-9.882,2.026-13.576-1.395c-3.528-3.268-4.82-8.864-2.078-13.722c1.138-2.017,2.783-3.543,4.892-4.534
			c3.232-1.517,6.5-1.441,9.716-0.073c0.497-0.645,0.939-1.217,1.383-1.792c-5.473-3.051-13.111-1.729-17.413,4.282
			c-4.101,5.73-2.854,13.792,2.8,18.291c5.611,4.465,13.647,3.733,18.575-1.688c3.602-3.964,4.703-11.763,2.069-14.428
			C39.104,26.077,38.514,26.455,37.922,26.833z M27.468,25.068c-3.328-0.002-6.138,2.766-6.161,6.07
			c-0.023,3.355,2.784,6.172,6.153,6.174c3.328,0.002,6.137-2.767,6.161-6.069C33.645,27.887,30.837,25.069,27.468,25.068z
			 M36.422,25.451c1.533-0.018,2.766-1.256,2.757-2.77c-0.009-1.415-1.32-2.744-2.71-2.744c-1.528,0-2.831,1.321-2.809,2.846
			C33.683,24.212,34.981,25.468,36.422,25.451z"/>
		<path fill-rule="evenodd" clip-rule="evenodd" fill="#FFFFFF" d="M37.922,26.833c0.592-0.378,1.183-0.756,1.781-1.138
			c2.634,2.666,1.532,10.464-2.069,14.428c-4.928,5.421-12.963,6.152-18.575,1.688c-5.654-4.499-6.901-12.561-2.8-18.291
			c4.302-6.01,11.94-7.333,17.413-4.282c-0.443,0.576-0.886,1.148-1.383,1.792c-3.216-1.368-6.484-1.444-9.716,0.073
			c-2.109,0.991-3.753,2.517-4.892,4.534c-2.742,4.857-1.45,10.454,2.078,13.722c3.694,3.421,9.178,4.041,13.576,1.395
			C37.216,38.418,40.222,33.3,37.922,26.833z"/>
		<path fill-rule="evenodd" clip-rule="evenodd" fill="#FFFFFF" d="M27.468,25.068c3.369,0.001,6.176,2.819,6.153,6.174
			c-0.023,3.303-2.833,6.071-6.161,6.069c-3.369-0.002-6.176-2.818-6.153-6.174C21.331,27.834,24.141,25.066,27.468,25.068z"/>
		<path fill-rule="evenodd" clip-rule="evenodd" fill="#FFFFFF" d="M36.422,25.451c-1.44,0.017-2.739-1.238-2.762-2.667
			c-0.022-1.525,1.28-2.846,2.809-2.846c1.39,0,2.701,1.329,2.71,2.744C39.188,24.195,37.955,25.433,36.422,25.451z"/>
	</g>
</g>
</svg>
