<?xml version="1.0" encoding="utf-8"?>
<!-- Generator: Adobe Illustrator 16.0.3, SVG Export Plug-In . SVG Version: 6.00 Build 0)  -->
<!DOCTYPE svg PUBLIC "-//W3C//DTD SVG 1.1//EN" "http://www.w3.org/Graphics/SVG/1.1/DTD/svg11.dtd">
<svg version="1.1" id="Layer_1" xmlns="http://www.w3.org/2000/svg" xmlns:xlink="http://www.w3.org/1999/xlink" x="0px" y="0px"
	 width="55px" height="55px" viewBox="0 0 55 55" enable-background="new 0 0 55 55" xml:space="preserve">
<g>
	<g>
		<path fill-rule="evenodd" clip-rule="evenodd" fill="#FA0F0B" d="M27.552,2.016c7.338,0,14.676,0.011,22.014-0.017
			c0.764-0.003,0.997,0.21,0.921,0.958c-0.269,2.633-0.5,5.27-0.739,7.906c-0.176,1.946-0.338,3.894-0.513,5.84
			c-0.239,2.662-0.489,5.323-0.729,7.985c-0.178,1.971-0.341,3.944-0.519,5.916c-0.239,2.662-0.489,5.323-0.728,7.985
			c-0.179,1.997-0.348,3.995-0.518,5.994c-0.109,1.28-0.174,2.566-0.354,3.837c-0.036,0.257-0.473,0.571-0.782,0.658
			c-4.502,1.266-9.013,2.498-13.521,3.738c-1.37,0.377-2.737,0.768-4.114,1.118c-0.309,0.079-0.674,0.093-0.978,0.009
			c-5.908-1.609-11.811-3.241-17.717-4.857c-0.495-0.136-0.677-0.378-0.719-0.914c-0.211-2.716-0.49-5.426-0.732-8.14
			c-0.226-2.534-0.428-5.072-0.654-7.606c-0.238-2.663-0.496-5.323-0.737-7.984c-0.176-1.946-0.331-3.894-0.506-5.84
			c-0.242-2.687-0.497-5.374-0.74-8.061C5.012,8.62,4.849,6.699,4.684,4.778C4.626,4.112,4.602,3.442,4.515,2.781
			C4.431,2.138,4.706,1.992,5.304,2.004c1.633,0.034,3.267,0.012,4.9,0.012C15.987,2.016,21.77,2.016,27.552,2.016z"/>
		<path opacity="0.2" fill-rule="evenodd" clip-rule="evenodd" fill="#FFFFFF" d="M45.155,12.383
			c0.176-2.15,0.348-4.301,0.547-6.448c0.061-0.654-0.125-0.84-0.729-0.838c-5.811,0.024-11.621,0.015-17.432,0.015
			c-0.014,0-0.027,0-0.041,0v7.271H45.155z"/>
		<path opacity="0.2" fill-rule="evenodd" clip-rule="evenodd" fill="#FFFFFF" d="M27.418,13.251l0.164,38.002
			c0.128-0.005,0.255-0.024,0.372-0.059c1.089-0.312,2.17-0.658,3.254-0.992c3.565-1.101,7.133-2.194,10.692-3.317
			c0.244-0.077,0.589-0.354,0.617-0.579c0.139-1.111,0.185-2.237,0.267-3.358c0.127-1.749,0.252-3.498,0.387-5.247
			c0.179-2.33,0.367-4.66,0.546-6.99c0.133-1.726,0.255-3.452,0.388-5.178c0.18-2.33,0.367-4.66,0.547-6.99
			c0.132-1.704,0.252-3.408,0.385-5.112c0.006-0.085,0.013-0.17,0.02-0.255L27.418,13.251z"/>
		<path fill-rule="evenodd" clip-rule="evenodd" fill="#FFFFFF" d="M48.781,2.923C41.704,2.95,34.627,2.939,27.55,2.939
			c-5.577,0-11.154,0-16.73,0c-1.576,0-3.152,0.022-4.727-0.012C5.516,2.916,5.25,3.057,5.332,3.676
			c0.083,0.639,0.108,1.285,0.163,1.927c0.159,1.853,0.316,3.706,0.484,5.558c0.234,2.592,0.48,5.183,0.714,7.775
			c0.169,1.876,0.319,3.755,0.488,5.631c0.232,2.568,0.481,5.133,0.71,7.701c0.218,2.444,0.414,4.892,0.631,7.336
			c0.233,2.617,0.502,5.231,0.707,7.851c0.04,0.517,0.216,0.751,0.693,0.882c5.697,1.56,11.389,3.133,17.087,4.686
			c0.294,0.08,0.646,0.066,0.944-0.009c1.328-0.339,2.647-0.716,3.967-1.079c4.35-1.196,8.7-2.385,13.041-3.605
			c0.299-0.084,0.719-0.388,0.755-0.635c0.175-1.225,0.236-2.466,0.342-3.7c0.164-1.928,0.326-3.855,0.499-5.782
			c0.229-2.567,0.472-5.134,0.702-7.701c0.171-1.901,0.329-3.804,0.5-5.705c0.23-2.567,0.472-5.134,0.702-7.701
			c0.169-1.877,0.325-3.755,0.495-5.633c0.23-2.542,0.453-5.085,0.713-7.625C49.743,3.126,49.518,2.92,48.781,2.923z M48.885,4.703
			c-0.251,2.45-0.466,4.903-0.688,7.355c-0.164,1.811-0.314,3.623-0.478,5.433c-0.223,2.476-0.455,4.952-0.678,7.428
			c-0.164,1.834-0.316,3.669-0.481,5.503c-0.223,2.477-0.456,4.952-0.678,7.429c-0.166,1.858-0.322,3.717-0.481,5.576
			c-0.102,1.191-0.161,2.388-0.329,3.569c-0.034,0.238-0.44,0.531-0.728,0.612c-4.188,1.178-8.385,2.324-12.579,3.478
			c-1.274,0.351-2.546,0.714-3.828,1.041c-0.287,0.073-0.626,0.085-0.91,0.009c-5.496-1.498-10.987-3.016-16.482-4.52
			c-0.46-0.126-0.63-0.352-0.669-0.851c-0.197-2.526-0.456-5.048-0.681-7.572c-0.21-2.357-0.398-4.718-0.609-7.076
			c-0.221-2.478-0.462-4.952-0.686-7.428c-0.164-1.811-0.308-3.622-0.471-5.432c-0.226-2.5-0.463-5-0.689-7.5
			C6.58,9.971,6.428,8.184,6.274,6.397c-0.053-0.62-0.077-1.243-0.157-1.858C6.039,3.941,6.295,3.805,6.852,3.816
			c1.52,0.032,3.04,0.011,4.559,0.011c5.379,0,10.758,0,16.137,0c6.828,0,13.654,0.01,20.48-0.016
			C48.737,3.809,48.955,4.008,48.885,4.703z"/>
		<g>
			<path fill="#FFFFFF" d="M20.771,6.597h1.015v3.67c0,0.136-0.05,0.252-0.151,0.349s-0.221,0.145-0.36,0.145h-3.424
				c-0.141,0-0.262-0.048-0.363-0.145c-0.102-0.097-0.152-0.213-0.152-0.349v-1.18h1.015v0.854h2.42V6.597z"/>
			<path fill="#FFFFFF" d="M22.688,6.597h3.427c0.139,0,0.259,0.049,0.36,0.146s0.152,0.213,0.152,0.348v3.67h-1.016V9.496h-2.42
				v1.266h-1.015v-3.67c0-0.134,0.05-0.25,0.15-0.348S22.547,6.597,22.688,6.597z M25.611,8.679V7.416h-2.42v1.263H25.611z"/>
			<path fill="#FFFFFF" d="M27.016,6.597h1.071l1.152,2.26l1.154-2.26h1.07l-2.225,4.369L27.016,6.597z"/>
			<path fill="#FFFFFF" d="M32.365,6.597h3.427c0.14,0,0.26,0.049,0.361,0.146c0.101,0.098,0.151,0.213,0.151,0.348v3.67h-1.016
				V9.496h-2.42v1.266h-1.016v-3.67c0-0.134,0.05-0.25,0.15-0.348C32.104,6.646,32.225,6.597,32.365,6.597z M35.289,8.679V7.416
				h-2.42v1.263H35.289z"/>
		</g>
	</g>
	<g>
		<path fill-rule="evenodd" clip-rule="evenodd" fill="#FFFFFF" d="M27.255,44.074c-0.198-0.023-0.395-0.057-0.593-0.068
			c-1.56-0.087-3.111-0.243-4.647-0.53c-0.128-0.024-0.253-0.062-0.343-0.083c0.4,0,0.833-0.005,1.265,0
			c1.939,0.024,3.88,0.094,5.819,0.064c1.582-0.023,3.168-0.108,4.741-0.27c1.35-0.138,2.643-0.557,3.849-1.194
			c0.305-0.161,0.585-0.369,0.907-0.575c-0.134,0.378-0.343,0.668-0.616,0.919c-0.702,0.641-1.563,0.97-2.474,1.131
			c-1.124,0.198-2.261,0.326-3.395,0.467c-0.559,0.068-1.121,0.095-1.683,0.14C29.143,44.074,28.199,44.074,27.255,44.074z"/>
		<path fill-rule="evenodd" clip-rule="evenodd" fill="#FFFFFF" d="M27.069,30.615c-0.393-0.377-0.799-0.742-1.175-1.136
			c-0.614-0.642-1.151-1.344-1.541-2.146c-0.412-0.847-0.616-1.733-0.331-2.655c0.218-0.705,0.644-1.305,1.125-1.864
			c0.715-0.832,1.607-1.453,2.483-2.097c0.62-0.455,1.236-0.917,1.826-1.41c0.459-0.384,0.71-0.918,0.911-1.473
			c0.293-0.808,0.381-1.64,0.338-2.515c0.121,0.242,0.26,0.477,0.358,0.728c0.412,1.057,0.475,2.124,0.026,3.188
			c-0.245,0.58-0.599,1.101-1.057,1.527c-0.758,0.708-1.553,1.376-2.331,2.064c-0.467,0.413-0.938,0.822-1.395,1.247
			c-0.667,0.623-0.746,1.395-0.598,2.249c0.247,1.42,0.728,2.758,1.34,4.056c0.028,0.061,0.048,0.125,0.072,0.188
			C27.104,30.583,27.087,30.6,27.069,30.615z"/>
		<path fill-rule="evenodd" clip-rule="evenodd" fill="#FFFFFF" d="M20.905,39.693c-0.391,0.107-0.787,0.203-1.172,0.329
			c-0.248,0.08-0.494,0.183-0.717,0.315c-0.324,0.194-0.324,0.417,0.024,0.538c0.521,0.182,1.062,0.328,1.605,0.425
			c1.715,0.308,3.45,0.416,5.189,0.454c2.16,0.048,4.313-0.064,6.45-0.368c1.145-0.163,2.275-0.422,3.409-0.65
			c0.24-0.049,0.473-0.146,0.701-0.237c0.294-0.118,0.378-0.264,0.386-0.609c0.335,0.209,0.368,0.651,0.034,0.895
			c-0.277,0.202-0.581,0.387-0.899,0.512c-1.33,0.521-2.727,0.778-4.137,0.978c-2.728,0.385-5.471,0.376-8.214,0.313
			c-1.368-0.032-2.733-0.131-4.083-0.365c-0.691-0.12-1.386-0.264-1.972-0.688c-0.132-0.096-0.25-0.233-0.327-0.377
			c-0.175-0.329-0.061-0.666,0.304-0.848c0.273-0.137,0.566-0.263,0.865-0.317c0.841-0.153,1.688-0.267,2.534-0.396
			C20.892,39.628,20.898,39.661,20.905,39.693z"/>
		<path fill-rule="evenodd" clip-rule="evenodd" fill="#FFFFFF" d="M23.858,31.111c-0.325,0.09-0.657,0.161-0.972,0.277
			c-0.403,0.148-0.794,0.33-1.187,0.505c-0.067,0.029-0.127,0.09-0.173,0.149c-0.123,0.158-0.087,0.305,0.109,0.349
			c0.428,0.096,0.859,0.203,1.295,0.236c2.301,0.176,4.603,0.132,6.902-0.023c1.173-0.079,2.339-0.207,3.487-0.47
			c0.028-0.006,0.06-0.007,0.09-0.01c0.009,0.019,0.018,0.037,0.026,0.055c-0.301,0.163-0.593,0.349-0.905,0.486
			c-1.589,0.696-3.268,1.009-4.989,1.126c-1.808,0.122-3.615,0.121-5.414-0.111c-0.788-0.102-1.576-0.247-2.259-0.697
			c-0.247-0.163-0.449-0.371-0.421-0.691c0.03-0.343,0.28-0.543,0.572-0.631c0.566-0.171,1.142-0.335,1.725-0.424
			c0.693-0.106,1.398-0.131,2.098-0.191C23.848,31.067,23.853,31.089,23.858,31.111z"/>
		<path fill-rule="evenodd" clip-rule="evenodd" fill="#FFFFFF" d="M29.123,31.709c0.101-0.29,0.184-0.551,0.279-0.808
			c0.285-0.764,0.107-1.408-0.432-2.014c-0.741-0.833-1.18-1.801-1.214-2.939c-0.02-0.655,0.237-1.181,0.643-1.652
			c0.767-0.89,1.751-1.497,2.778-2.036c0.604-0.317,1.227-0.601,1.841-0.9c0.014,0.022,0.027,0.045,0.042,0.068
			c-0.256,0.208-0.512,0.415-0.766,0.625c-0.826,0.682-1.662,1.356-2.304,2.223c-0.666,0.901-0.646,1.603-0.003,2.536
			c0.261,0.378,0.498,0.778,0.694,1.193c0.363,0.77,0.261,1.521-0.179,2.239c-0.321,0.523-0.734,0.965-1.207,1.354
			C29.253,31.636,29.199,31.661,29.123,31.709z"/>
		<path fill-rule="evenodd" clip-rule="evenodd" fill="#FFFFFF" d="M32.211,39.007c-0.666,0.184-1.325,0.397-1.999,0.545
			c-2.118,0.465-4.238,0.377-6.348-0.064c-0.443-0.094-0.882-0.241-1.232-0.556c-0.418-0.375-0.377-0.883,0.124-1.129
			c0.288-0.142,0.621-0.191,0.974-0.294c-0.138,0.45-0.096,0.546,0.31,0.63c1.592,0.328,3.193,0.466,4.811,0.196
			c0.586-0.097,1.172-0.199,1.759-0.293c0.071-0.012,0.162-0.009,0.222,0.025c0.438,0.257,0.871,0.524,1.306,0.789
			c0.024,0.015,0.044,0.039,0.065,0.06C32.205,38.946,32.208,38.977,32.211,39.007z"/>
		<path fill-rule="evenodd" clip-rule="evenodd" fill="#FFFFFF" d="M22.813,34.576c-0.04,0.045-0.081,0.089-0.118,0.136
			c-0.159,0.2-0.114,0.447,0.129,0.519c0.375,0.11,0.76,0.211,1.147,0.255c2.018,0.229,4.025,0.115,6.021-0.243
			c0.471-0.085,0.938-0.188,1.407-0.276c0.063-0.012,0.146-0.009,0.195,0.023c0.362,0.245,0.719,0.499,1.133,0.79
			c-0.517,0.103-0.976,0.191-1.433,0.285c-1.774,0.363-3.563,0.62-5.376,0.619c-1.114,0-2.221-0.135-3.289-0.476
			c-0.296-0.095-0.584-0.246-0.843-0.42c-0.381-0.255-0.369-0.605,0.03-0.84c0.301-0.177,0.636-0.296,0.956-0.44
			C22.786,34.53,22.8,34.554,22.813,34.576z"/>
		<path fill-rule="evenodd" clip-rule="evenodd" fill="#FFFFFF" d="M34.536,31.176c0.7-0.334,1.405-0.595,2.188-0.486
			c0.813,0.111,1.314,0.589,1.592,1.332c0.235,0.629,0.292,1.256-0.038,1.873c-0.249,0.464-0.619,0.821-1.048,1.115
			c-0.922,0.631-1.946,1.025-3.026,1.289c-0.02,0.005-0.042,0.001-0.072,0.001c0.468-0.378,0.942-0.731,1.382-1.122
			c0.582-0.516,1.157-1.049,1.467-1.785c0.296-0.705,0.046-1.363-0.632-1.738c-0.495-0.273-1.032-0.4-1.591-0.454
			C34.684,31.193,34.61,31.184,34.536,31.176z"/>
	</g>
</g>
</svg>
