<?xml version="1.0" encoding="utf-8"?>
<!-- Generator: Adobe Illustrator 16.0.3, SVG Export Plug-In . SVG Version: 6.00 Build 0)  -->
<!DOCTYPE svg PUBLIC "-//W3C//DTD SVG 1.1//EN" "http://www.w3.org/Graphics/SVG/1.1/DTD/svg11.dtd">
<svg version="1.1" id="Layer_1" xmlns="http://www.w3.org/2000/svg" xmlns:xlink="http://www.w3.org/1999/xlink" x="0px" y="0px"
	 width="55px" height="55px" viewBox="0 0 55 55" enable-background="new 0 0 55 55" xml:space="preserve">
<g>
	<path fill-rule="evenodd" clip-rule="evenodd" fill="#E5A228" d="M27.551,2.016c7.337,0,14.676,0.011,22.014-0.017
		c0.763-0.003,0.997,0.21,0.921,0.958c-0.27,2.633-0.5,5.27-0.739,7.906c-0.176,1.946-0.338,3.894-0.514,5.84
		c-0.239,2.662-0.488,5.323-0.728,7.984c-0.178,1.972-0.341,3.944-0.519,5.916c-0.239,2.662-0.489,5.323-0.728,7.985
		c-0.179,1.997-0.348,3.996-0.518,5.994c-0.109,1.28-0.174,2.566-0.354,3.837c-0.037,0.257-0.474,0.571-0.782,0.658
		c-4.502,1.267-9.013,2.498-13.521,3.738c-1.37,0.377-2.737,0.768-4.114,1.119c-0.309,0.078-0.673,0.092-0.978,0.009
		c-5.909-1.61-11.811-3.241-17.717-4.858c-0.495-0.136-0.677-0.378-0.719-0.914c-0.212-2.715-0.49-5.426-0.732-8.14
		c-0.226-2.535-0.428-5.071-0.654-7.606c-0.238-2.662-0.496-5.323-0.737-7.984c-0.176-1.946-0.331-3.894-0.506-5.839
		c-0.242-2.688-0.498-5.374-0.74-8.062C5.012,8.62,4.849,6.699,4.684,4.778C4.626,4.112,4.602,3.442,4.515,2.78
		C4.431,2.138,4.706,1.992,5.304,2.004c1.633,0.034,3.267,0.012,4.9,0.012C15.987,2.016,21.769,2.016,27.551,2.016z"/>
	<path opacity="0.2" fill-rule="evenodd" clip-rule="evenodd" fill="#FFFFFF" d="M45.155,12.382c0.176-2.15,0.348-4.3,0.547-6.448
		c0.061-0.653-0.125-0.84-0.729-0.837c-5.811,0.024-11.621,0.014-17.432,0.014c-0.013,0-0.027,0-0.041,0v7.271H45.155z"/>
	<path opacity="0.2" fill-rule="evenodd" clip-rule="evenodd" fill="#FFFFFF" d="M27.418,13.251l0.164,38.001
		c0.127-0.004,0.255-0.023,0.372-0.058c1.089-0.312,2.17-0.658,3.254-0.992c3.565-1.101,7.133-2.194,10.692-3.317
		c0.244-0.077,0.589-0.354,0.617-0.578c0.138-1.112,0.185-2.238,0.266-3.359c0.128-1.749,0.253-3.498,0.387-5.247
		c0.18-2.33,0.367-4.659,0.547-6.989c0.133-1.726,0.255-3.453,0.388-5.179c0.18-2.331,0.367-4.66,0.547-6.99
		c0.131-1.704,0.252-3.408,0.384-5.112c0.007-0.085,0.014-0.17,0.021-0.255L27.418,13.251z"/>
	<g>
		<path fill="#FFFFFF" d="M12.637,6.571h0.77v3.658c0,0.136-0.038,0.252-0.115,0.348s-0.168,0.145-0.273,0.145h-2.597
			c-0.106,0-0.198-0.048-0.275-0.145s-0.115-0.212-0.115-0.348V9.053h0.77v0.852h1.835V6.571z"/>
		<path fill="#FFFFFF" d="M14.09,6.571h2.599c0.105,0,0.196,0.049,0.273,0.146c0.077,0.097,0.115,0.213,0.115,0.347v3.658h-0.77
			V9.46h-1.835v1.261h-0.77V7.063c0-0.134,0.038-0.25,0.114-0.347C13.892,6.62,13.983,6.571,14.09,6.571z M16.307,8.646V7.388
			h-1.835v1.258H16.307z"/>
		<path fill="#FFFFFF" d="M17.372,6.571h0.813l0.873,2.252l0.875-2.252h0.812l-1.688,4.354L17.372,6.571z"/>
		<path fill="#FFFFFF" d="M21.428,6.571h2.599c0.105,0,0.196,0.049,0.273,0.146s0.115,0.213,0.115,0.347v3.658h-0.77V9.46H21.81
			v1.261h-0.77V7.063c0-0.134,0.038-0.25,0.114-0.347C21.23,6.62,21.321,6.571,21.428,6.571z M23.646,8.646V7.388H21.81v1.258
			H23.646z"/>
		<path fill="#FFFFFF" d="M25.101,6.571h2.792v0.817H25.48v0.849h2.217c0.105,0,0.196,0.049,0.273,0.147s0.115,0.214,0.115,0.348
			v1.497c0,0.136-0.038,0.252-0.115,0.348s-0.167,0.145-0.273,0.145H24.71V9.905h2.605V9.053h-2.214
			c-0.107,0-0.199-0.048-0.275-0.145c-0.077-0.096-0.115-0.212-0.115-0.348V7.063c0-0.134,0.038-0.25,0.115-0.347
			C24.902,6.62,24.994,6.571,25.101,6.571z"/>
		<path fill="#FFFFFF" d="M28.769,6.571h2.984v0.817H29.15v2.517h2.603v0.816h-2.984c-0.106,0-0.198-0.048-0.273-0.145
			c-0.076-0.096-0.114-0.212-0.114-0.348V7.063c0-0.134,0.038-0.25,0.114-0.347C28.57,6.62,28.662,6.571,28.769,6.571z"/>
		<path fill="#FFFFFF" d="M35.033,6.571c0.105,0,0.197,0.049,0.274,0.146s0.116,0.213,0.116,0.347v1.904
			c0,0.138-0.039,0.254-0.116,0.35C35.23,9.412,35.139,9.46,35.033,9.46h-0.067l0.604,1.261h-0.898L34.067,9.46h-1.251v1.261h-0.768
			v-4.15H35.033z M34.654,8.646V7.388h-1.838v1.258H34.654z"/>
		<path fill="#FFFFFF" d="M35.864,10.721v-4.15h0.769v4.15H35.864z"/>
		<path fill="#FFFFFF" d="M39.912,6.571c0.107,0,0.199,0.049,0.275,0.146c0.077,0.097,0.115,0.213,0.115,0.347v1.904
			c0,0.138-0.038,0.254-0.115,0.35C40.111,9.412,40.02,9.46,39.912,9.46h-2.215v1.261h-0.77v-4.15H39.912z M37.697,7.388v1.258
			h1.836V7.388H37.697z"/>
		<path fill="#FFFFFF" d="M43.971,6.571v0.817h-1.302v3.333h-0.77V7.388h-1.302V6.571H43.971z"/>
	</g>
	<path fill-rule="evenodd" clip-rule="evenodd" fill="#FFFFFF" d="M48.781,2.923C41.704,2.95,34.627,2.939,27.55,2.939
		c-5.577,0-11.154,0-16.731,0c-1.575,0-3.151,0.022-4.726-0.011C5.516,2.916,5.25,3.057,5.332,3.676
		C5.415,4.314,5.439,4.96,5.495,5.603c0.159,1.853,0.316,3.706,0.483,5.558c0.234,2.592,0.481,5.183,0.714,7.775
		c0.169,1.877,0.318,3.755,0.488,5.632c0.232,2.567,0.481,5.134,0.71,7.701c0.218,2.444,0.413,4.892,0.631,7.337
		c0.233,2.617,0.502,5.231,0.707,7.851c0.04,0.517,0.216,0.75,0.693,0.881c5.697,1.559,11.389,3.133,17.087,4.686
		c0.294,0.08,0.646,0.067,0.943-0.009c1.328-0.338,2.646-0.715,3.968-1.079c4.35-1.195,8.699-2.384,13.041-3.605
		c0.298-0.084,0.719-0.387,0.755-0.635c0.174-1.225,0.236-2.466,0.342-3.7c0.164-1.928,0.326-3.855,0.499-5.781
		c0.229-2.568,0.472-5.135,0.702-7.702c0.171-1.901,0.328-3.804,0.499-5.706c0.231-2.567,0.472-5.134,0.703-7.701
		c0.169-1.877,0.325-3.755,0.495-5.633c0.23-2.542,0.453-5.085,0.713-7.625C49.743,3.126,49.518,2.92,48.781,2.923z M48.884,4.703
		c-0.25,2.45-0.465,4.903-0.688,7.355c-0.164,1.811-0.314,3.623-0.478,5.433c-0.223,2.476-0.455,4.952-0.678,7.428
		c-0.165,1.834-0.316,3.669-0.481,5.503c-0.223,2.477-0.456,4.952-0.678,7.429c-0.166,1.858-0.323,3.718-0.481,5.576
		c-0.102,1.191-0.161,2.388-0.33,3.569c-0.033,0.239-0.439,0.531-0.728,0.612c-4.188,1.178-8.384,2.324-12.578,3.479
		c-1.275,0.351-2.547,0.714-3.828,1.04c-0.287,0.073-0.626,0.086-0.91,0.009c-5.497-1.498-10.987-3.016-16.482-4.52
		c-0.46-0.127-0.63-0.352-0.669-0.851c-0.197-2.526-0.457-5.048-0.681-7.572c-0.21-2.357-0.398-4.718-0.609-7.076
		c-0.221-2.477-0.462-4.952-0.686-7.428c-0.164-1.811-0.308-3.622-0.471-5.433c-0.225-2.5-0.463-4.999-0.688-7.5
		C6.58,9.971,6.428,8.184,6.274,6.397c-0.053-0.62-0.077-1.243-0.157-1.858C6.039,3.941,6.295,3.805,6.852,3.816
		c1.519,0.032,3.039,0.011,4.559,0.011c5.379,0,10.759,0,16.137,0c6.827,0,13.654,0.011,20.48-0.015
		C48.737,3.809,48.955,4.008,48.884,4.703z"/>
	<g>
		<g>
			<path fill="#FFFFFF" d="M9.333,16.909l17.469,0.098v23.962c0,0.889-0.117,1.649-0.341,2.28c-0.213,0.632-0.465,0.947-0.766,0.947
				h-7.409c-0.305,0-0.691-0.315-1.17-0.947c-0.491-0.631-0.93-1.392-1.309-2.28l-1.804-7.7h1.715l1.893,5.578h6.475l-1.048-16.708
				l-12.14,0.114L9.333,16.909z"/>
		</g>
	</g>
	<g>
		<g>
			<path fill="#FFFFFF" d="M30.224,16.836h13.878L42.49,22.22h-10.77l-0.405,5.596h8.729c0.415,0,0.677,0.323,0.777,0.971
				c0.092,0.647-0.006,1.412-0.286,2.295l-3.131,9.867c-0.283,0.895-0.624,1.659-1.014,2.295c-0.381,0.636-0.693,0.953-0.946,0.953
				h-7.159v-5.384h7.563l1.375-5.613h-7.6c-0.366,0-0.676-0.317-0.934-0.953c-0.268-0.636-0.404-1.4-0.404-2.295v-9.867
				c0-0.882,0.184-1.644,0.56-2.286C29.23,17.157,29.692,16.836,30.224,16.836z"/>
		</g>
	</g>
</g>
</svg>
