<?xml version="1.0" encoding="utf-8"?>
<!-- Generator: Adobe Illustrator 16.0.3, SVG Export Plug-In . SVG Version: 6.00 Build 0)  -->
<!DOCTYPE svg PUBLIC "-//W3C//DTD SVG 1.1//EN" "http://www.w3.org/Graphics/SVG/1.1/DTD/svg11.dtd">
<svg version="1.1" id="Layer_1" xmlns="http://www.w3.org/2000/svg" xmlns:xlink="http://www.w3.org/1999/xlink" x="0px" y="0px"
	 width="55px" height="55px" viewBox="0 0 55 55" enable-background="new 0 0 55 55" xml:space="preserve">
<g>
	<path fill-rule="evenodd" clip-rule="evenodd" fill="#E6A329" d="M27.551,2.016c7.337,0,14.677,0.012,22.013-0.016
		c0.764-0.003,0.998,0.21,0.922,0.957c-0.27,2.632-0.5,5.27-0.74,7.906c-0.174,1.946-0.338,3.894-0.512,5.839
		c-0.24,2.663-0.49,5.323-0.729,7.985c-0.178,1.971-0.342,3.944-0.52,5.916c-0.238,2.662-0.488,5.323-0.727,7.984
		c-0.18,1.998-0.348,3.996-0.518,5.996c-0.109,1.278-0.174,2.565-0.355,3.836c-0.037,0.256-0.473,0.57-0.783,0.658
		c-4.5,1.267-9.012,2.499-13.52,3.738c-1.371,0.377-2.738,0.768-4.114,1.118c-0.31,0.079-0.674,0.093-0.979,0.009
		c-5.909-1.61-11.811-3.241-17.716-4.857c-0.496-0.137-0.678-0.378-0.721-0.915c-0.212-2.715-0.49-5.426-0.731-8.14
		c-0.228-2.534-0.429-5.07-0.655-7.606c-0.237-2.661-0.496-5.322-0.736-7.983c-0.176-1.946-0.331-3.894-0.506-5.84
		c-0.242-2.688-0.498-5.374-0.74-8.061C5.011,8.62,4.85,6.699,4.684,4.778C4.626,4.112,4.602,3.442,4.514,2.78
		C4.43,2.139,4.707,1.992,5.304,2.004c1.633,0.034,3.267,0.011,4.9,0.011C15.987,2.016,21.769,2.016,27.551,2.016z"/>
	<path opacity="0.5" fill-rule="evenodd" clip-rule="evenodd" fill="#F0BF24" d="M45.154,12.383c0.176-2.15,0.348-4.301,0.547-6.449
		c0.061-0.653-0.125-0.84-0.729-0.837c-5.811,0.024-11.621,0.014-17.434,0.014c-0.013,0-0.026,0-0.039,0v7.272H45.154z"/>
	<path opacity="0.5" fill-rule="evenodd" clip-rule="evenodd" fill="#F0BF24" d="M27.417,13.251l0.165,38.002
		c0.127-0.004,0.254-0.023,0.371-0.058c1.089-0.313,2.171-0.657,3.253-0.992c3.566-1.1,7.133-2.194,10.691-3.317
		c0.246-0.077,0.592-0.354,0.617-0.578c0.141-1.112,0.186-2.239,0.268-3.358c0.127-1.75,0.254-3.499,0.387-5.248
		c0.18-2.331,0.367-4.659,0.547-6.99c0.133-1.726,0.254-3.452,0.389-5.178c0.18-2.33,0.365-4.659,0.547-6.989
		c0.129-1.704,0.25-3.408,0.383-5.112c0.006-0.086,0.014-0.171,0.02-0.256L27.417,13.251z"/>
	<g>
		<path fill="#FFFFFF" d="M12.637,6.572h0.77v3.658c0,0.136-0.038,0.251-0.115,0.348c-0.076,0.096-0.167,0.145-0.272,0.145h-2.597
			c-0.107,0-0.199-0.048-0.275-0.145c-0.077-0.097-0.115-0.212-0.115-0.348V9.054h0.771v0.851h1.835V6.572z"/>
		<path fill="#FFFFFF" d="M14.09,6.572h2.599c0.105,0,0.196,0.049,0.272,0.146c0.077,0.097,0.115,0.213,0.115,0.347v3.658h-0.77
			V9.461h-1.835v1.261h-0.771V7.064c0-0.134,0.038-0.25,0.114-0.347S13.983,6.572,14.09,6.572z M16.307,8.647V7.389h-1.835v1.258
			H16.307z"/>
		<path fill="#FFFFFF" d="M17.373,6.572h0.813l0.873,2.252l0.875-2.252h0.813l-1.688,4.354L17.373,6.572z"/>
		<path fill="#FFFFFF" d="M21.429,6.572h2.599c0.105,0,0.196,0.049,0.272,0.146c0.077,0.097,0.115,0.213,0.115,0.347v3.658h-0.77
			V9.461h-1.835v1.261h-0.771V7.064c0-0.134,0.038-0.25,0.114-0.347S21.322,6.572,21.429,6.572z M23.646,8.647V7.389h-1.835v1.258
			H23.646z"/>
		<path fill="#FFFFFF" d="M25.101,6.572h2.793v0.817h-2.413v0.849h2.217c0.105,0,0.196,0.049,0.272,0.147
			c0.077,0.098,0.116,0.214,0.116,0.348v1.497c0,0.136-0.039,0.251-0.116,0.348c-0.076,0.096-0.167,0.145-0.272,0.145H24.71V9.905
			h2.605V9.054h-2.215c-0.107,0-0.199-0.048-0.275-0.145c-0.077-0.096-0.115-0.212-0.115-0.348V7.064
			c0-0.134,0.038-0.25,0.115-0.347C24.902,6.621,24.994,6.572,25.101,6.572z"/>
		<path fill="#FFFFFF" d="M28.77,6.572h2.984v0.817H29.15v2.517h2.604v0.817H28.77c-0.107,0-0.199-0.048-0.275-0.145
			c-0.076-0.097-0.113-0.212-0.113-0.348V7.064c0-0.134,0.037-0.25,0.113-0.347S28.662,6.572,28.77,6.572z"/>
		<path fill="#FFFFFF" d="M35.033,6.572c0.105,0,0.197,0.049,0.273,0.146c0.078,0.097,0.117,0.213,0.117,0.347v1.904
			c0,0.138-0.039,0.254-0.117,0.35c-0.076,0.095-0.168,0.143-0.273,0.143h-0.068l0.604,1.261H34.67l-0.604-1.261h-1.25v1.261h-0.768
			v-4.15H35.033z M34.654,8.647V7.389h-1.838v1.258H34.654z"/>
		<path fill="#FFFFFF" d="M35.865,10.722v-4.15h0.768v4.15H35.865z"/>
		<path fill="#FFFFFF" d="M39.912,6.572c0.107,0,0.199,0.049,0.275,0.146s0.115,0.213,0.115,0.347v1.904
			c0,0.138-0.039,0.254-0.115,0.35c-0.076,0.095-0.168,0.143-0.275,0.143h-2.215v1.261h-0.77v-4.15H39.912z M37.697,7.389v1.258
			h1.836V7.389H37.697z"/>
		<path fill="#FFFFFF" d="M43.971,6.572v0.817h-1.303v3.333h-0.77V7.389h-1.301V6.572H43.971z"/>
	</g>
	<path fill-rule="evenodd" clip-rule="evenodd" fill="#FFFFFF" d="M48.781,2.923C41.703,2.95,34.627,2.939,27.548,2.939
		c-5.575,0-11.153,0-16.73,0c-1.574,0-3.151,0.022-4.726-0.011C5.515,2.916,5.25,3.057,5.332,3.677
		c0.083,0.638,0.107,1.284,0.162,1.926c0.159,1.853,0.316,3.706,0.483,5.558c0.234,2.591,0.481,5.182,0.715,7.775
		c0.169,1.876,0.318,3.755,0.488,5.631c0.232,2.567,0.481,5.133,0.711,7.702c0.218,2.443,0.412,4.89,0.632,7.335
		c0.233,2.618,0.5,5.231,0.705,7.852c0.04,0.517,0.216,0.75,0.693,0.88c5.697,1.56,11.391,3.134,17.088,4.687
		c0.295,0.08,0.646,0.067,0.943-0.01c1.329-0.338,2.647-0.715,3.969-1.078c4.348-1.196,8.699-2.384,13.039-3.605
		c0.299-0.085,0.719-0.387,0.756-0.636c0.174-1.225,0.236-2.464,0.342-3.7c0.162-1.926,0.326-3.854,0.498-5.78
		c0.23-2.568,0.471-5.135,0.703-7.702c0.17-1.901,0.328-3.804,0.498-5.706c0.232-2.567,0.473-5.133,0.703-7.7
		c0.17-1.877,0.326-3.755,0.496-5.633c0.229-2.542,0.453-5.085,0.713-7.625C49.742,3.126,49.518,2.92,48.781,2.923z M48.885,4.703
		c-0.252,2.449-0.467,4.902-0.689,7.355c-0.162,1.81-0.313,3.622-0.477,5.433c-0.223,2.476-0.455,4.952-0.678,7.428
		c-0.164,1.834-0.316,3.669-0.482,5.502c-0.221,2.479-0.455,4.953-0.678,7.429c-0.166,1.858-0.322,3.719-0.48,5.576
		c-0.102,1.191-0.162,2.389-0.33,3.57c-0.033,0.238-0.439,0.531-0.729,0.612c-4.188,1.178-8.385,2.325-12.578,3.478
		c-1.275,0.352-2.547,0.715-3.827,1.042c-0.288,0.071-0.627,0.084-0.91,0.007c-5.497-1.497-10.987-3.016-16.481-4.52
		c-0.461-0.126-0.63-0.351-0.67-0.85c-0.196-2.525-0.455-5.048-0.68-7.572c-0.211-2.357-0.399-4.719-0.61-7.076
		c-0.22-2.477-0.461-4.951-0.686-7.429c-0.162-1.81-0.308-3.622-0.471-5.432c-0.226-2.5-0.464-4.999-0.688-7.5
		C6.58,9.971,6.427,8.184,6.274,6.397c-0.053-0.62-0.076-1.243-0.156-1.858C6.039,3.94,6.294,3.805,6.851,3.816
		c1.519,0.033,3.039,0.011,4.56,0.011c5.379,0,10.758,0,16.136,0c6.827,0,13.653,0.011,20.481-0.015
		C48.736,3.809,48.955,4.007,48.885,4.703z"/>
	<g>
		<g>
			<g>
				<g>
					<path fill="#FFFFFF" d="M9.333,16.908l17.47,0.099v23.962c0,0.889-0.117,1.648-0.342,2.28
						c-0.212,0.632-0.465,0.947-0.767,0.947h-7.408c-0.306,0-0.691-0.315-1.17-0.947c-0.492-0.632-0.931-1.392-1.31-2.28
						l-1.805-7.701h1.716l1.893,5.578h6.476l-1.048-16.707l-12.14,0.114L9.333,16.908z"/>
				</g>
			</g>
			<g>
				<g>
					<path fill="#FFFFFF" d="M29.764,16.837h13.877l-1.611,5.384H31.261l-0.405,5.595h8.728c0.415,0,0.677,0.324,0.778,0.971
						c0.091,0.647-0.007,1.412-0.287,2.295l-3.131,9.867c-0.283,0.895-0.623,1.659-1.014,2.295
						c-0.381,0.636-0.694,0.953-0.946,0.953h-7.16v-5.384h7.563l1.375-5.613h-7.599c-0.367,0-0.677-0.317-0.935-0.953
						c-0.268-0.636-0.405-1.4-0.405-2.295v-9.867c0-0.883,0.184-1.645,0.56-2.286C28.77,17.158,29.232,16.837,29.764,16.837z"/>
				</g>
			</g>
		</g>
	</g>
</g>
</svg>
