<?xml version="1.0" encoding="utf-8"?>
<!-- Generator: Adobe Illustrator 16.0.3, SVG Export Plug-In . SVG Version: 6.00 Build 0)  -->
<!DOCTYPE svg PUBLIC "-//W3C//DTD SVG 1.1//EN" "http://www.w3.org/Graphics/SVG/1.1/DTD/svg11.dtd">
<svg version="1.1" id="Layer_1" xmlns="http://www.w3.org/2000/svg" xmlns:xlink="http://www.w3.org/1999/xlink" x="0px" y="0px"
	 width="55px" height="55px" viewBox="0 0 55 55" enable-background="new 0 0 55 55" xml:space="preserve">
<g>
	<g>
		<g>
			<path fill-rule="evenodd" clip-rule="evenodd" fill="#205AA0" d="M27.551,2.016c7.338,0,14.676,0.011,22.014-0.017
				c0.764-0.002,0.997,0.211,0.921,0.958c-0.27,2.633-0.5,5.27-0.739,7.906c-0.176,1.946-0.338,3.894-0.513,5.84
				c-0.24,2.662-0.489,5.322-0.729,7.984c-0.178,1.972-0.341,3.945-0.519,5.916c-0.239,2.662-0.49,5.323-0.728,7.985
				c-0.179,1.997-0.348,3.996-0.518,5.994c-0.109,1.28-0.174,2.567-0.354,3.837c-0.037,0.257-0.474,0.571-0.782,0.658
				c-4.502,1.266-9.013,2.498-13.521,3.738c-1.37,0.377-2.737,0.768-4.114,1.119c-0.309,0.078-0.674,0.092-0.978,0.009
				c-5.909-1.61-11.811-3.242-17.717-4.858c-0.495-0.136-0.677-0.378-0.719-0.914c-0.212-2.716-0.49-5.426-0.732-8.14
				c-0.226-2.534-0.428-5.071-0.654-7.606c-0.238-2.662-0.497-5.322-0.737-7.984c-0.176-1.946-0.331-3.893-0.506-5.839
				c-0.242-2.688-0.498-5.374-0.74-8.061c-0.173-1.92-0.336-3.842-0.502-5.763C4.626,4.112,4.602,3.442,4.515,2.781
				C4.43,2.138,4.706,1.992,5.304,2.004c1.633,0.035,3.267,0.012,4.9,0.012C15.987,2.016,21.769,2.016,27.551,2.016z"/>
			<path opacity="0.2" fill-rule="evenodd" clip-rule="evenodd" fill="#FFFFFF" d="M45.155,12.383
				c0.176-2.15,0.348-4.301,0.547-6.448c0.061-0.654-0.125-0.84-0.729-0.837c-5.811,0.024-11.621,0.014-17.432,0.014
				c-0.013,0-0.027,0-0.041,0v7.271H45.155z"/>
			<path opacity="0.2" fill-rule="evenodd" clip-rule="evenodd" fill="#FFFFFF" d="M27.418,13.252l0.164,38.002
				c0.128-0.005,0.255-0.024,0.372-0.058c1.089-0.313,2.17-0.659,3.254-0.993c3.565-1.101,7.133-2.194,10.692-3.317
				c0.244-0.077,0.589-0.354,0.617-0.579c0.139-1.111,0.185-2.237,0.266-3.357c0.128-1.75,0.253-3.499,0.388-5.248
				c0.179-2.33,0.367-4.659,0.546-6.989c0.133-1.726,0.255-3.453,0.388-5.179c0.18-2.33,0.367-4.659,0.547-6.989
				c0.132-1.704,0.252-3.409,0.385-5.112c0.006-0.085,0.013-0.17,0.02-0.255L27.418,13.252z"/>
			<path fill-rule="evenodd" clip-rule="evenodd" fill="#FFFFFF" d="M48.781,2.923C41.704,2.95,34.627,2.939,27.55,2.939
				c-5.577,0-11.154,0-16.73,0c-1.576,0-3.152,0.022-4.727-0.011C5.516,2.916,5.25,3.057,5.332,3.677
				c0.083,0.638,0.108,1.284,0.163,1.926c0.159,1.853,0.316,3.706,0.484,5.558c0.234,2.592,0.48,5.183,0.714,7.775
				c0.169,1.876,0.318,3.755,0.488,5.632c0.232,2.568,0.481,5.133,0.71,7.701c0.218,2.444,0.413,4.892,0.631,7.337
				c0.233,2.616,0.502,5.23,0.707,7.851c0.04,0.517,0.216,0.75,0.693,0.881c5.697,1.56,11.389,3.133,17.087,4.686
				c0.294,0.08,0.646,0.067,0.943-0.009c1.328-0.339,2.647-0.715,3.968-1.078c4.35-1.197,8.699-2.385,13.041-3.606
				c0.299-0.084,0.719-0.387,0.755-0.635c0.175-1.225,0.236-2.466,0.342-3.7c0.164-1.928,0.326-3.855,0.498-5.782
				c0.23-2.566,0.473-5.133,0.703-7.701c0.171-1.901,0.329-3.803,0.5-5.705c0.23-2.567,0.472-5.134,0.702-7.701
				c0.169-1.877,0.325-3.756,0.495-5.633c0.23-2.542,0.453-5.085,0.713-7.625C49.743,3.126,49.518,2.921,48.781,2.923z
				 M48.885,4.703c-0.251,2.449-0.466,4.903-0.688,7.355c-0.164,1.811-0.314,3.622-0.478,5.433
				c-0.223,2.476-0.455,4.951-0.678,7.428c-0.164,1.834-0.316,3.669-0.481,5.503c-0.223,2.477-0.456,4.952-0.678,7.429
				c-0.166,1.858-0.323,3.718-0.481,5.576c-0.102,1.191-0.161,2.388-0.329,3.569c-0.034,0.239-0.44,0.531-0.729,0.612
				c-4.187,1.179-8.384,2.324-12.578,3.478c-1.274,0.352-2.547,0.715-3.828,1.041c-0.287,0.073-0.626,0.086-0.91,0.009
				c-5.497-1.498-10.987-3.016-16.482-4.52c-0.46-0.126-0.63-0.352-0.669-0.851c-0.197-2.526-0.457-5.048-0.681-7.571
				c-0.211-2.358-0.398-4.719-0.609-7.077c-0.222-2.477-0.462-4.951-0.686-7.428c-0.163-1.81-0.308-3.622-0.471-5.432
				c-0.225-2.5-0.463-5-0.688-7.5C6.58,9.971,6.428,8.184,6.274,6.397c-0.054-0.62-0.077-1.243-0.157-1.859
				C6.039,3.941,6.295,3.805,6.852,3.816c1.519,0.032,3.039,0.011,4.559,0.011c5.379,0,10.759,0,16.137,0
				c6.827,0,13.654,0.01,20.48-0.016C48.737,3.81,48.955,4.008,48.885,4.703z"/>
			<g>
				<path fill="#FFFFFF" d="M14.286,6.642h1.204v3.518c0,0.13-0.06,0.242-0.179,0.335c-0.121,0.093-0.263,0.139-0.428,0.139h-4.061
					c-0.167,0-0.311-0.046-0.431-0.139c-0.12-0.093-0.18-0.205-0.18-0.335V9.029h1.204v0.819h2.87V6.642z"/>
				<path fill="#FFFFFF" d="M20.624,6.642c0.165,0,0.308,0.047,0.427,0.141c0.12,0.093,0.18,0.204,0.18,0.333v2.733h0.3v0.785
					h-4.969c-0.169,0-0.313-0.046-0.432-0.139c-0.119-0.093-0.178-0.205-0.178-0.335V7.115c0-0.129,0.059-0.24,0.178-0.333
					c0.119-0.094,0.263-0.141,0.432-0.141H20.624z M20.03,7.427h-2.874v2.421h2.874V7.427z"/>
				<path fill="#FFFFFF" d="M26.067,6.642h1.201v3.518c0,0.13-0.06,0.242-0.178,0.335s-0.262,0.139-0.429,0.139H22.6
					c-0.167,0-0.31-0.046-0.429-0.139c-0.119-0.093-0.178-0.205-0.178-0.335V6.642h1.201v3.207h2.874V6.642z"/>
				<path fill="#FFFFFF" d="M31.805,9.029h-2.87v0.819h4.074v0.785H27.73V6.642h5.279v0.786h-4.074v0.816h2.87V9.029z"/>
				<path fill="#FFFFFF" d="M38.139,6.642c0.165,0,0.308,0.047,0.429,0.141c0.121,0.093,0.182,0.204,0.182,0.333v1.832
					c0,0.132-0.061,0.244-0.182,0.336S38.304,9.42,38.139,9.42h-0.105l0.943,1.213h-1.405L36.628,9.42h-1.956v1.213h-1.201V6.642
					H38.139z M37.545,8.638v-1.21h-2.873v1.21H37.545z"/>
				<path fill="#FFFFFF" d="M39.438,6.642h1.353l1.276,1.298l1.294-1.298h1.353l-2.046,2.083v1.908h-1.204V8.702L39.438,6.642z"/>
			</g>
		</g>
	</g>
	<g>
		<path fill-rule="evenodd" clip-rule="evenodd" fill="#FFFFFF" d="M17.436,21.97c-0.397,0.531-0.795,1.083-1.213,1.62
			c-2.799,3.585-3.1,7.49-1.478,11.622c1.127,2.871,3.006,5.188,5.515,6.974c3.566,2.538,7.5,3.707,11.897,2.919
			c3.969-0.711,6.47-3.297,8.432-6.622c-0.288,0.244-0.536,0.47-0.801,0.674c-0.28,0.215-0.567,0.425-0.868,0.609
			c-3.201,1.955-6.658,2.25-10.202,1.314c-4.904-1.296-8.556-4.225-10.829-8.766c-1.186-2.368-1.597-4.891-1.182-7.509
			C16.858,23.846,17.188,22.915,17.436,21.97z M24.684,19.774c-0.381,0.525-0.781,1.105-1.209,1.663
			c-1.434,1.865-1.8,3.968-1.296,6.209c0.811,3.6,3.09,6.04,6.347,7.645c2.034,1.002,4.184,1.283,6.417,0.873
			c2.828-0.521,4.523-2.435,5.88-4.75c-2.449,1.962-5.25,2.158-7.619,1.666c-2.556-0.531-4.668-1.846-6.389-3.765
			c-1.742-1.942-2.71-4.222-2.609-6.852C24.24,21.552,24.521,20.65,24.684,19.774z M41.078,25.744
			c-2.391,1.445-4.744,1.317-6.985-0.072c-2.733-1.693-4.075-4.102-3.288-7.505c-0.312,0.423-0.543,0.754-0.792,1.073
			c-1.07,1.376-1.203,2.904-0.694,4.507c0.698,2.197,2.222,3.685,4.315,4.542C36.213,29.343,39.323,29.086,41.078,25.744z"/>
		<path fill-rule="evenodd" clip-rule="evenodd" fill="#FFFFFF" d="M17.436,21.97c-0.249,0.945-0.578,1.876-0.729,2.836
			c-0.415,2.618-0.004,5.141,1.182,7.509c2.273,4.541,5.925,7.47,10.829,8.766c3.544,0.936,7.001,0.641,10.202-1.314
			c0.301-0.185,0.588-0.395,0.868-0.609c0.265-0.204,0.513-0.43,0.801-0.674c-1.962,3.325-4.463,5.911-8.432,6.622
			c-4.397,0.788-8.331-0.381-11.897-2.919c-2.509-1.786-4.388-4.103-5.515-6.974c-1.622-4.132-1.322-8.037,1.478-11.622
			C16.641,23.053,17.039,22.501,17.436,21.97z"/>
		<path fill-rule="evenodd" clip-rule="evenodd" fill="#FFFFFF" d="M24.684,19.774c-0.163,0.876-0.444,1.778-0.479,2.689
			c-0.101,2.63,0.867,4.91,2.609,6.852c1.721,1.919,3.833,3.233,6.389,3.765c2.369,0.492,5.17,0.296,7.619-1.666
			c-1.356,2.315-3.052,4.229-5.88,4.75c-2.233,0.41-4.383,0.129-6.417-0.873c-3.256-1.604-5.536-4.045-6.347-7.645
			c-0.504-2.241-0.138-4.344,1.296-6.209C23.903,20.88,24.303,20.3,24.684,19.774z"/>
		<path fill-rule="evenodd" clip-rule="evenodd" fill="#FFFFFF" d="M41.078,25.744c-1.755,3.342-4.865,3.599-7.444,2.544
			c-2.094-0.856-3.617-2.345-4.315-4.542c-0.509-1.604-0.376-3.131,0.694-4.507c0.249-0.319,0.48-0.65,0.792-1.073
			c-0.787,3.404,0.555,5.812,3.288,7.505C36.334,27.061,38.688,27.188,41.078,25.744z"/>
	</g>
</g>
</svg>
