<?xml version="1.0" encoding="utf-8"?>
<!-- Generator: Adobe Illustrator 16.0.3, SVG Export Plug-In . SVG Version: 6.00 Build 0)  -->
<!DOCTYPE svg PUBLIC "-//W3C//DTD SVG 1.1//EN" "http://www.w3.org/Graphics/SVG/1.1/DTD/svg11.dtd">
<svg version="1.1" id="Layer_1" xmlns="http://www.w3.org/2000/svg" xmlns:xlink="http://www.w3.org/1999/xlink" x="0px" y="0px"
	 width="55px" height="55px" viewBox="0 0 55 55" enable-background="new 0 0 55 55" xml:space="preserve">
<g>
	<g>
		<g>
			<path fill-rule="evenodd" clip-rule="evenodd" fill="#474747" d="M27.551,2.017c7.337,0,14.676,0.011,22.014-0.017
				c0.763-0.003,0.997,0.21,0.921,0.957c-0.27,2.633-0.5,5.27-0.739,7.906c-0.176,1.946-0.338,3.894-0.514,5.84
				c-0.239,2.662-0.488,5.323-0.728,7.985c-0.178,1.971-0.341,3.945-0.519,5.916c-0.239,2.662-0.489,5.323-0.728,7.985
				c-0.179,1.998-0.348,3.996-0.518,5.994c-0.109,1.28-0.174,2.567-0.354,3.837c-0.037,0.257-0.474,0.571-0.782,0.658
				c-4.502,1.267-9.013,2.498-13.521,3.738c-1.37,0.378-2.737,0.769-4.114,1.119c-0.309,0.078-0.673,0.092-0.978,0.009
				c-5.909-1.61-11.811-3.241-17.717-4.858c-0.495-0.136-0.677-0.377-0.719-0.913c-0.212-2.716-0.49-5.427-0.732-8.141
				c-0.226-2.534-0.428-5.071-0.654-7.606c-0.238-2.662-0.496-5.323-0.737-7.984c-0.176-1.946-0.331-3.894-0.506-5.839
				c-0.242-2.688-0.498-5.374-0.74-8.062C5.012,8.62,4.849,6.699,4.684,4.778C4.626,4.112,4.602,3.442,4.515,2.781
				C4.431,2.138,4.706,1.992,5.304,2.004c1.633,0.034,3.267,0.012,4.9,0.012C15.987,2.017,21.769,2.017,27.551,2.017z"/>
			<path opacity="0.2" fill-rule="evenodd" clip-rule="evenodd" fill="#FFFFFF" d="M45.155,12.383
				c0.176-2.15,0.348-4.301,0.547-6.448c0.061-0.653-0.125-0.84-0.729-0.838c-5.811,0.024-11.621,0.015-17.432,0.015
				c-0.013,0-0.027,0-0.041,0v7.271H45.155z"/>
			<path opacity="0.2" fill-rule="evenodd" clip-rule="evenodd" fill="#FFFFFF" d="M27.418,13.251l0.164,38.002
				c0.127-0.005,0.255-0.024,0.372-0.058c1.089-0.312,2.17-0.658,3.254-0.993c3.565-1.101,7.133-2.194,10.692-3.317
				c0.244-0.077,0.589-0.354,0.617-0.578c0.138-1.112,0.185-2.238,0.266-3.358c0.128-1.75,0.253-3.499,0.387-5.248
				c0.18-2.33,0.367-4.659,0.547-6.989c0.133-1.726,0.255-3.453,0.388-5.179c0.18-2.33,0.367-4.66,0.547-6.99
				c0.131-1.704,0.252-3.408,0.384-5.112c0.007-0.085,0.014-0.17,0.021-0.256L27.418,13.251z"/>
			<path fill-rule="evenodd" clip-rule="evenodd" fill="#FFFFFF" d="M48.781,2.923C41.704,2.95,34.627,2.939,27.55,2.939
				c-5.577,0-11.154,0-16.731,0c-1.575,0-3.151,0.022-4.726-0.012C5.516,2.916,5.25,3.057,5.332,3.676
				c0.083,0.639,0.107,1.285,0.163,1.927c0.159,1.852,0.316,3.706,0.483,5.557c0.234,2.592,0.481,5.183,0.714,7.775
				c0.169,1.876,0.318,3.755,0.488,5.632c0.232,2.567,0.481,5.133,0.71,7.701c0.218,2.444,0.413,4.893,0.631,7.337
				c0.233,2.617,0.502,5.231,0.707,7.851c0.04,0.517,0.216,0.751,0.693,0.881c5.697,1.56,11.389,3.133,17.087,4.686
				c0.294,0.08,0.646,0.067,0.943-0.009c1.328-0.338,2.646-0.715,3.968-1.078c4.35-1.196,8.699-2.385,13.041-3.606
				c0.298-0.084,0.719-0.387,0.755-0.635c0.174-1.225,0.236-2.466,0.342-3.7c0.164-1.928,0.326-3.855,0.499-5.781
				c0.229-2.567,0.472-5.134,0.702-7.702c0.171-1.901,0.328-3.804,0.499-5.705c0.231-2.567,0.472-5.134,0.703-7.701
				c0.169-1.877,0.325-3.755,0.495-5.632c0.23-2.542,0.453-5.086,0.713-7.625C49.743,3.126,49.518,2.92,48.781,2.923z M48.884,4.703
				c-0.25,2.45-0.465,4.903-0.688,7.355c-0.164,1.811-0.314,3.623-0.478,5.433c-0.223,2.476-0.455,4.952-0.678,7.428
				c-0.165,1.834-0.316,3.669-0.481,5.503c-0.223,2.477-0.456,4.952-0.678,7.429c-0.166,1.858-0.323,3.718-0.481,5.576
				c-0.102,1.191-0.161,2.389-0.33,3.57c-0.033,0.238-0.439,0.53-0.728,0.611c-4.188,1.179-8.384,2.325-12.578,3.479
				c-1.275,0.351-2.547,0.714-3.828,1.04c-0.287,0.073-0.626,0.086-0.91,0.009c-5.497-1.497-10.987-3.016-16.482-4.52
				c-0.46-0.126-0.63-0.352-0.669-0.85c-0.197-2.526-0.457-5.049-0.681-7.572c-0.21-2.358-0.398-4.719-0.609-7.077
				c-0.221-2.477-0.462-4.951-0.686-7.428c-0.164-1.811-0.308-3.622-0.471-5.432c-0.225-2.5-0.463-5-0.688-7.5
				C6.58,9.972,6.428,8.184,6.274,6.397c-0.053-0.62-0.077-1.243-0.157-1.858C6.039,3.941,6.295,3.805,6.852,3.817
				c1.519,0.032,3.039,0.011,4.559,0.011c5.379,0,10.759,0,16.137,0c6.827,0,13.654,0.01,20.48-0.015
				C48.737,3.809,48.955,4.008,48.884,4.703z"/>
			<g>
				<path fill="#FFFFFF" d="M21.21,6.817h1.058v3.823c0,0.142-0.053,0.263-0.158,0.364c-0.105,0.101-0.23,0.151-0.375,0.151h-3.566
					c-0.146,0-0.272-0.05-0.378-0.151c-0.105-0.101-0.158-0.222-0.158-0.364V9.411h1.057v0.89h2.521V6.817z"/>
				<path fill="#FFFFFF" d="M23.209,6.817h3.836V7.67H23.73v0.887h3.045c0.145,0,0.27,0.052,0.375,0.154
					c0.105,0.103,0.158,0.224,0.158,0.364v1.565c0,0.142-0.053,0.263-0.158,0.364c-0.105,0.101-0.23,0.151-0.375,0.151h-4.103
					v-0.854h3.578v-0.89h-3.042c-0.146,0-0.272-0.051-0.378-0.151c-0.105-0.101-0.158-0.222-0.158-0.364V7.332
					c0-0.14,0.053-0.261,0.158-0.362C22.937,6.868,23.063,6.817,23.209,6.817z"/>
				<path fill="#FFFFFF" d="M31.816,6.817c0.145,0,0.27,0.051,0.375,0.152s0.158,0.223,0.158,0.362v3.308
					c0,0.142-0.053,0.263-0.158,0.364c-0.105,0.101-0.23,0.151-0.375,0.151H28.25c-0.146,0-0.273-0.05-0.378-0.151
					c-0.105-0.101-0.158-0.222-0.158-0.364V7.332c0-0.14,0.052-0.261,0.158-0.362c0.105-0.102,0.231-0.152,0.378-0.152H31.816z
					 M31.295,7.67h-2.523v2.63h2.523V7.67z"/>
				<path fill="#FFFFFF" d="M33.81,8.669v2.485h-1.055v-4.55l3.578,2.698V6.817h1.055v4.547L33.81,8.669z"/>
			</g>
		</g>
	</g>
	<g>
		<path fill="#FFFFFF" d="M15.917,29.618c0.942-0.019,1.71-0.217,2.304-0.595c0.593-0.377,0.988-0.896,1.184-1.555
			c0.196-0.659,0.299-1.786,0.312-3.382c0.012-1.596,0.049-2.646,0.11-3.153c0.11-0.803,0.315-1.447,0.615-1.935
			s0.67-0.876,1.111-1.168c0.44-0.292,1.003-0.514,1.689-0.667c0.465-0.096,1.224-0.144,2.276-0.144h1.028v2.25h-0.569
			c-1.273,0-2.118,0.179-2.534,0.538s-0.624,1.159-0.624,2.401c0,2.503-0.067,4.084-0.202,4.743
			c-0.221,1.023-0.597,1.811-1.129,2.365c-0.532,0.554-1.368,1.046-2.506,1.477c1.346,0.438,2.322,1.11,2.928,2.013
			c0.606,0.903,0.909,2.382,0.909,4.436c0,1.863,0.024,2.972,0.073,3.325c0.098,0.649,0.346,1.104,0.744,1.361
			c0.398,0.259,1.178,0.388,2.341,0.388h0.569v2.25h-1.028c-1.2,0-2.069-0.077-2.607-0.229c-0.783-0.22-1.432-0.575-1.946-1.067
			c-0.514-0.492-0.848-1.116-1-1.871c-0.153-0.754-0.236-1.992-0.248-3.712c-0.013-1.72-0.116-2.909-0.312-3.568
			s-0.591-1.18-1.184-1.562c-0.594-0.383-1.362-0.583-2.304-0.603V29.618z"/>
		<path fill="#FFFFFF" d="M38.92,29.618v2.336c-0.942,0.02-1.711,0.22-2.304,0.603c-0.594,0.382-0.989,0.9-1.185,1.555
			c-0.196,0.654-0.3,1.779-0.312,3.375c-0.013,1.596-0.05,2.646-0.11,3.152c-0.11,0.813-0.315,1.46-0.615,1.942
			s-0.67,0.869-1.11,1.161c-0.441,0.291-1.004,0.514-1.689,0.666c-0.465,0.105-1.224,0.158-2.276,0.158H28.29v-2.25h0.569
			c1.272,0,2.117-0.18,2.533-0.538s0.624-1.163,0.624-2.414c0-2.389,0.056-3.903,0.166-4.544c0.195-1.061,0.587-1.908,1.175-2.544
			c0.587-0.635,1.419-1.13,2.497-1.482c-1.408-0.525-2.399-1.221-2.975-2.086c-0.575-0.864-0.863-2.324-0.863-4.378
			c0-1.863-0.03-2.976-0.092-3.339c-0.086-0.64-0.327-1.087-0.725-1.34c-0.398-0.253-1.179-0.38-2.341-0.38H28.29v-2.25h1.028
			c1.199,0,2.068,0.077,2.606,0.229c0.783,0.21,1.433,0.564,1.946,1.061c0.515,0.497,0.848,1.123,1.001,1.877
			c0.152,0.755,0.235,1.992,0.248,3.712c0.012,1.72,0.115,2.907,0.312,3.562c0.195,0.654,0.591,1.172,1.185,1.555
			C37.209,29.398,37.978,29.6,38.92,29.618z"/>
	</g>
</g>
</svg>
