<?xml version="1.0" encoding="utf-8"?>
<!-- Generator: Adobe Illustrator 16.0.3, SVG Export Plug-In . SVG Version: 6.00 Build 0)  -->
<!DOCTYPE svg PUBLIC "-//W3C//DTD SVG 1.1//EN" "http://www.w3.org/Graphics/SVG/1.1/DTD/svg11.dtd">
<svg version="1.1" id="Layer_1" xmlns="http://www.w3.org/2000/svg" xmlns:xlink="http://www.w3.org/1999/xlink" x="0px" y="0px"
	 width="55px" height="55px" viewBox="0 0 55 55" enable-background="new 0 0 55 55" xml:space="preserve">
<g>
	<g>
		<g>
			<path fill-rule="evenodd" clip-rule="evenodd" fill="#38A525" d="M27.551,2.016c7.337,0,14.676,0.011,22.013-0.017
				c0.764-0.002,0.998,0.211,0.922,0.958c-0.269,2.633-0.5,5.27-0.739,7.906c-0.177,1.946-0.338,3.894-0.514,5.84
				c-0.239,2.662-0.489,5.322-0.728,7.984c-0.178,1.972-0.341,3.945-0.519,5.916c-0.239,2.662-0.489,5.323-0.729,7.985
				c-0.179,1.998-0.347,3.996-0.517,5.994c-0.109,1.28-0.174,2.567-0.354,3.837c-0.037,0.257-0.474,0.571-0.782,0.658
				c-4.501,1.266-9.013,2.498-13.521,3.738c-1.37,0.377-2.737,0.768-4.114,1.119c-0.309,0.078-0.674,0.092-0.978,0.009
				c-5.908-1.61-11.81-3.242-17.717-4.858c-0.495-0.136-0.677-0.377-0.719-0.913c-0.211-2.716-0.491-5.427-0.732-8.141
				c-0.227-2.534-0.429-5.071-0.655-7.606c-0.238-2.662-0.496-5.322-0.737-7.984c-0.176-1.946-0.331-3.893-0.506-5.839
				c-0.242-2.688-0.498-5.374-0.74-8.061c-0.173-1.92-0.336-3.842-0.501-5.763C4.626,4.112,4.602,3.442,4.515,2.781
				c-0.084-0.643,0.191-0.789,0.79-0.776c1.633,0.035,3.267,0.012,4.9,0.012C15.987,2.016,21.769,2.016,27.551,2.016z"/>
			<path opacity="0.2" fill-rule="evenodd" clip-rule="evenodd" fill="#FFFFFF" d="M45.155,12.383
				c0.176-2.15,0.348-4.301,0.547-6.448c0.061-0.654-0.125-0.84-0.729-0.837c-5.811,0.024-11.621,0.014-17.432,0.014
				c-0.014,0-0.027,0-0.041,0v7.271H45.155z"/>
			<path opacity="0.2" fill-rule="evenodd" clip-rule="evenodd" fill="#FFFFFF" d="M27.418,13.252l0.164,38.002
				c0.127-0.005,0.255-0.024,0.372-0.058c1.089-0.313,2.17-0.659,3.254-0.993c3.565-1.101,7.132-2.194,10.692-3.317
				c0.244-0.077,0.589-0.354,0.617-0.578c0.138-1.112,0.185-2.238,0.266-3.358c0.128-1.75,0.254-3.499,0.387-5.248
				c0.18-2.33,0.367-4.659,0.547-6.989c0.133-1.726,0.255-3.453,0.388-5.179c0.18-2.33,0.367-4.659,0.547-6.989
				c0.131-1.704,0.252-3.409,0.384-5.112c0.007-0.085,0.014-0.17,0.021-0.255L27.418,13.252z"/>
			<path fill-rule="evenodd" clip-rule="evenodd" fill="#FFFFFF" d="M48.781,2.923C41.704,2.95,34.627,2.939,27.549,2.939
				c-5.577,0-11.153,0-16.73,0c-1.575,0-3.151,0.022-4.726-0.011C5.516,2.916,5.25,3.057,5.332,3.677
				c0.083,0.638,0.107,1.284,0.163,1.926c0.159,1.853,0.316,3.706,0.483,5.558c0.234,2.592,0.48,5.183,0.714,7.775
				c0.168,1.876,0.318,3.755,0.488,5.632c0.232,2.568,0.481,5.133,0.71,7.701c0.218,2.444,0.414,4.893,0.631,7.337
				c0.233,2.617,0.502,5.231,0.707,7.851c0.04,0.517,0.216,0.751,0.693,0.881c5.696,1.56,11.389,3.133,17.087,4.686
				c0.293,0.08,0.646,0.067,0.943-0.009c1.328-0.339,2.646-0.715,3.968-1.078c4.349-1.197,8.699-2.385,13.041-3.606
				c0.298-0.084,0.719-0.387,0.754-0.635c0.175-1.225,0.237-2.465,0.343-3.7c0.164-1.928,0.326-3.854,0.499-5.781
				c0.229-2.567,0.472-5.134,0.702-7.702c0.171-1.901,0.328-3.803,0.499-5.705c0.231-2.567,0.472-5.134,0.703-7.701
				c0.169-1.877,0.325-3.756,0.494-5.633c0.23-2.542,0.454-5.085,0.714-7.625C49.743,3.126,49.518,2.921,48.781,2.923z
				 M48.884,4.703c-0.25,2.449-0.466,4.903-0.688,7.355c-0.164,1.811-0.314,3.622-0.478,5.433c-0.223,2.476-0.455,4.951-0.678,7.428
				c-0.165,1.834-0.316,3.669-0.482,5.503c-0.222,2.477-0.455,4.952-0.677,7.429c-0.166,1.858-0.323,3.718-0.481,5.577
				c-0.102,1.19-0.161,2.388-0.33,3.569c-0.033,0.238-0.439,0.531-0.728,0.611c-4.188,1.179-8.384,2.324-12.578,3.478
				c-1.275,0.352-2.547,0.715-3.827,1.041c-0.288,0.073-0.627,0.086-0.911,0.009c-5.496-1.498-10.987-3.016-16.481-4.52
				c-0.461-0.126-0.63-0.352-0.669-0.85c-0.197-2.526-0.457-5.049-0.682-7.572c-0.21-2.358-0.398-4.719-0.608-7.077
				c-0.221-2.477-0.462-4.951-0.686-7.428c-0.164-1.81-0.308-3.622-0.471-5.432c-0.226-2.5-0.463-5-0.688-7.5
				C6.58,9.971,6.428,8.184,6.274,6.397c-0.053-0.62-0.077-1.243-0.157-1.859C6.039,3.941,6.295,3.805,6.852,3.816
				c1.519,0.032,3.039,0.011,4.559,0.011c5.379,0,10.758,0,16.137,0c6.827,0,13.654,0.01,20.479-0.016
				C48.737,3.81,48.955,4.008,48.884,4.703z"/>
			<g>
				<path fill="#FFFFFF" d="M12.722,9.748l-1.175-1.18l-0.525,1.856H10.02l1.001-3.494l1.701,1.717l1.701-1.717l1.001,3.494h-1.001
					l-0.525-1.856L12.722,9.748z"/>
				<path fill="#FFFFFF" d="M19.707,7.094c0.138,0,0.256,0.04,0.356,0.117c0.1,0.078,0.15,0.171,0.15,0.278v2.54
					c0,0.109-0.05,0.202-0.15,0.279c-0.1,0.078-0.219,0.116-0.356,0.116h-3.388c-0.139,0-0.259-0.039-0.359-0.116
					c-0.1-0.077-0.15-0.17-0.15-0.279v-2.54c0-0.107,0.05-0.2,0.15-0.278c0.1-0.078,0.22-0.117,0.359-0.117H19.707z M19.211,7.75
					h-2.397v2.02h2.397V7.75z"/>
				<path fill="#FFFFFF" d="M21.601,8.516v1.908h-1.002V6.931l3.399,2.071V7.094H25v3.492L21.601,8.516z"/>
				<path fill="#FFFFFF" d="M25.891,7.094h3.645V7.75h-3.149v2.02h2.397V9.086h-1.005V8.43h2.007v1.599
					c0,0.109-0.05,0.202-0.15,0.279c-0.1,0.078-0.219,0.116-0.356,0.116h-3.388c-0.139,0-0.258-0.039-0.357-0.116
					c-0.099-0.077-0.148-0.17-0.148-0.279v-2.54c0-0.107,0.049-0.2,0.148-0.278C25.633,7.133,25.752,7.094,25.891,7.094z"/>
				<path fill="#FFFFFF" d="M34.068,7.094c0.138,0,0.257,0.04,0.356,0.117c0.101,0.078,0.15,0.171,0.15,0.278v2.54
					c0,0.109-0.05,0.202-0.15,0.279c-0.1,0.078-0.219,0.116-0.356,0.116h-3.388c-0.14,0-0.26-0.039-0.359-0.116
					c-0.101-0.077-0.15-0.17-0.15-0.279v-2.54c0-0.107,0.05-0.2,0.15-0.278c0.1-0.078,0.22-0.117,0.359-0.117H34.068z M33.573,7.75
					h-2.397v2.02h2.397V7.75z"/>
				<path fill="#FFFFFF" d="M39.212,7.211c0.102,0.078,0.151,0.171,0.151,0.278v2.54c0,0.109-0.05,0.202-0.151,0.279
					c-0.101,0.078-0.22,0.116-0.357,0.116H34.96V7.094h3.895C38.992,7.094,39.111,7.133,39.212,7.211z M35.962,7.75v2.02h2.397V7.75
					H35.962z"/>
				<path fill="#FFFFFF" d="M44.152,10.029c0,0.109-0.05,0.202-0.15,0.279c-0.1,0.078-0.219,0.116-0.356,0.116h-3.896V7.094h3.646
					c0.138,0,0.256,0.04,0.356,0.117c0.1,0.078,0.15,0.171,0.15,0.278v0.735c0,0.129-0.085,0.219-0.257,0.271
					c0.138,0,0.257,0.039,0.356,0.117c0.101,0.078,0.15,0.171,0.15,0.278V10.029z M42.897,7.75h-2.144V8.43h2.144V7.75z
					 M43.147,9.086h-2.394v0.683h2.394V9.086z"/>
			</g>
		</g>
	</g>
	<g>
		<path fill-rule="evenodd" clip-rule="evenodd" fill="#FFFFFF" d="M26.751,44.286c-7.8-5.24-9.915-19.148,0.56-27.628
			c0.856,1.021,1.689,2.057,2.567,3.054c4.991,5.665,6.43,13.901,2.657,20.127c-1.077,1.776-2.393,3.335-4.344,4.603
			c-0.201-5.429-0.396-10.664-0.589-15.898c-0.15,0-0.3,0.001-0.45,0.002C26.604,33.722,26.854,38.935,26.751,44.286z"/>
		<path fill-rule="evenodd" clip-rule="evenodd" fill="#FFFFFF" d="M27.877,45.078c0,1.053,0,2.106,0,3.159
			c-0.113,0.02-0.226,0.039-0.339,0.059c-0.123-0.963-0.272-1.925-0.346-2.892c-0.013-0.166,0.298-0.355,0.459-0.533
			C27.727,44.94,27.802,45.009,27.877,45.078z"/>
	</g>
</g>
</svg>
