<?xml version="1.0" encoding="utf-8"?>
<!-- Generator: Adobe Illustrator 16.0.3, SVG Export Plug-In . SVG Version: 6.00 Build 0)  -->
<!DOCTYPE svg PUBLIC "-//W3C//DTD SVG 1.1//EN" "http://www.w3.org/Graphics/SVG/1.1/DTD/svg11.dtd">
<svg version="1.1" id="Layer_1" xmlns="http://www.w3.org/2000/svg" xmlns:xlink="http://www.w3.org/1999/xlink" x="0px" y="0px"
	 width="55px" height="55px" viewBox="0 0 55 55" enable-background="new 0 0 55 55" xml:space="preserve">
<g>
	<g>
		<g>
			<path fill-rule="evenodd" clip-rule="evenodd" fill="#5FAA43" d="M27.551,2.016c7.337,0,14.676,0.011,22.014-0.017
				c0.763-0.003,0.997,0.21,0.921,0.958c-0.27,2.633-0.5,5.27-0.739,7.906c-0.176,1.946-0.338,3.894-0.514,5.84
				c-0.239,2.662-0.488,5.323-0.728,7.985c-0.178,1.971-0.341,3.944-0.519,5.916c-0.239,2.662-0.489,5.323-0.728,7.985
				c-0.179,1.997-0.348,3.996-0.518,5.994c-0.109,1.28-0.174,2.567-0.354,3.837c-0.037,0.257-0.474,0.571-0.782,0.658
				c-4.502,1.266-9.013,2.498-13.521,3.738c-1.37,0.377-2.737,0.768-4.114,1.119c-0.309,0.078-0.673,0.092-0.978,0.009
				c-5.909-1.61-11.811-3.242-17.717-4.858c-0.495-0.136-0.677-0.378-0.719-0.914c-0.212-2.716-0.49-5.426-0.732-8.14
				c-0.226-2.534-0.428-5.071-0.654-7.606c-0.238-2.662-0.496-5.323-0.737-7.984c-0.176-1.946-0.331-3.894-0.506-5.839
				c-0.242-2.688-0.498-5.374-0.74-8.062C5.012,8.62,4.849,6.699,4.684,4.778C4.626,4.112,4.602,3.442,4.515,2.78
				C4.431,2.138,4.706,1.992,5.304,2.004c1.633,0.035,3.267,0.012,4.9,0.012C15.987,2.016,21.769,2.016,27.551,2.016z"/>
			<path opacity="0.2" fill-rule="evenodd" clip-rule="evenodd" fill="#FFFFFF" d="M45.155,12.382c0.176-2.15,0.348-4.3,0.547-6.448
				c0.061-0.653-0.125-0.84-0.729-0.837c-5.811,0.024-11.621,0.015-17.432,0.015c-0.013,0-0.027,0-0.041,0v7.271H45.155z"/>
			<path opacity="0.2" fill-rule="evenodd" clip-rule="evenodd" fill="#FFFFFF" d="M27.418,13.251l0.164,38.002
				c0.127-0.005,0.255-0.024,0.372-0.058c1.089-0.313,2.17-0.659,3.254-0.993c3.565-1.101,7.133-2.194,10.692-3.317
				c0.244-0.077,0.589-0.354,0.617-0.579c0.138-1.111,0.185-2.237,0.266-3.357c0.128-1.75,0.253-3.499,0.387-5.248
				c0.18-2.33,0.367-4.659,0.547-6.989c0.133-1.727,0.255-3.453,0.388-5.179c0.18-2.33,0.367-4.66,0.547-6.99
				c0.131-1.704,0.252-3.408,0.384-5.112c0.007-0.085,0.014-0.17,0.021-0.256L27.418,13.251z"/>
			<g>
				<path fill="#FFFFFF" d="M15.671,8.475v2.68h-1.407V6.248l4.774,2.909v-2.68h1.407v4.904L15.671,8.475z"/>
				<path fill="#FFFFFF" d="M26.46,6.477c0.193,0,0.36,0.055,0.5,0.165s0.211,0.24,0.211,0.391v3.567
					c0,0.153-0.07,0.284-0.211,0.393c-0.141,0.108-0.307,0.163-0.5,0.163h-4.759c-0.196,0-0.364-0.055-0.504-0.163
					c-0.14-0.109-0.21-0.239-0.21-0.393V7.032c0-0.151,0.07-0.281,0.21-0.391c0.141-0.11,0.309-0.165,0.504-0.165H26.46z
					 M25.764,7.397h-3.367v2.836h3.367V7.397z"/>
				<path fill="#FFFFFF" d="M33.685,6.642c0.142,0.11,0.213,0.24,0.213,0.391v3.567c0,0.153-0.071,0.284-0.213,0.393
					c-0.142,0.108-0.31,0.163-0.503,0.163h-5.469V6.477h5.469C33.375,6.477,33.543,6.532,33.685,6.642z M29.119,7.397v2.836h3.367
					V7.397H29.119z"/>
				<path fill="#FFFFFF" d="M39.213,9.274H35.85v0.959h4.773v0.921h-6.185V6.477h6.185v0.92H35.85v0.957h3.363V9.274z"/>
			</g>
			<path fill-rule="evenodd" clip-rule="evenodd" fill="#FFFFFF" d="M48.781,2.923C41.704,2.95,34.627,2.939,27.55,2.939
				c-5.577,0-11.154,0-16.731,0c-1.575,0-3.151,0.022-4.726-0.012C5.516,2.916,5.25,3.057,5.332,3.676
				c0.083,0.639,0.107,1.285,0.163,1.927c0.159,1.853,0.316,3.706,0.483,5.558c0.234,2.592,0.481,5.183,0.714,7.775
				c0.169,1.876,0.318,3.755,0.488,5.632c0.232,2.567,0.481,5.133,0.71,7.701c0.218,2.444,0.413,4.892,0.631,7.337
				c0.233,2.616,0.502,5.23,0.707,7.851c0.04,0.517,0.216,0.75,0.693,0.881c5.697,1.56,11.389,3.133,17.087,4.686
				c0.294,0.08,0.646,0.067,0.943-0.009c1.328-0.339,2.646-0.715,3.968-1.078c4.35-1.197,8.699-2.385,13.041-3.606
				c0.298-0.084,0.719-0.387,0.755-0.635c0.174-1.225,0.236-2.466,0.342-3.7c0.164-1.928,0.326-3.854,0.499-5.781
				c0.229-2.567,0.472-5.134,0.702-7.702c0.171-1.901,0.328-3.804,0.499-5.705c0.231-2.567,0.472-5.134,0.703-7.701
				c0.169-1.877,0.325-3.755,0.495-5.633c0.23-2.542,0.453-5.085,0.713-7.625C49.743,3.126,49.518,2.92,48.781,2.923z M48.884,4.703
				c-0.25,2.45-0.465,4.903-0.688,7.355c-0.164,1.811-0.314,3.623-0.478,5.433c-0.223,2.476-0.455,4.952-0.678,7.428
				c-0.165,1.834-0.316,3.669-0.481,5.503c-0.223,2.477-0.456,4.952-0.678,7.429c-0.166,1.858-0.323,3.718-0.481,5.576
				c-0.102,1.191-0.161,2.388-0.33,3.569c-0.033,0.239-0.439,0.531-0.728,0.612c-4.188,1.179-8.384,2.324-12.578,3.478
				c-1.275,0.352-2.547,0.715-3.828,1.041c-0.287,0.073-0.626,0.086-0.91,0.009c-5.497-1.498-10.987-3.016-16.482-4.52
				c-0.46-0.126-0.63-0.352-0.669-0.851c-0.197-2.526-0.457-5.048-0.681-7.571c-0.21-2.358-0.398-4.719-0.609-7.077
				c-0.221-2.477-0.462-4.952-0.686-7.428c-0.164-1.811-0.308-3.622-0.471-5.433c-0.225-2.5-0.463-4.999-0.688-7.499
				C6.58,9.971,6.428,8.184,6.274,6.397c-0.053-0.62-0.077-1.243-0.157-1.858C6.039,3.941,6.295,3.805,6.852,3.816
				c1.519,0.032,3.039,0.011,4.559,0.011c5.379,0,10.759,0,16.137,0c6.827,0,13.654,0.01,20.48-0.016
				C48.737,3.809,48.955,4.008,48.884,4.703z"/>
		</g>
	</g>
	<g>
		<path fill-rule="evenodd" clip-rule="evenodd" fill="#FFFFFF" d="M27.221,45.842c-1.563-0.857-3.125-1.716-4.822-2.648
			c0.711-0.348,1.239-0.633,1.792-0.858c0.138-0.057,0.375,0.041,0.53,0.13c0.722,0.414,1.438,0.838,2.142,1.282
			c0.378,0.239,0.71,0.236,1.098,0.011c3.313-1.927,6.627-3.852,9.956-5.749c0.524-0.299,0.715-0.641,0.711-1.244
			c-0.028-3.8-0.025-7.601-0.003-11.4c0.004-0.547-0.161-0.877-0.643-1.152c-3.346-1.912-6.681-3.843-10.012-5.781
			c-0.382-0.222-0.692-0.242-1.087-0.011c-3.347,1.954-6.701,3.895-10.063,5.822c-0.43,0.247-0.608,0.528-0.606,1.036
			c0.021,3.888,0.018,7.775,0.003,11.663c-0.002,0.445,0.126,0.734,0.525,0.95c0.924,0.502,1.811,1.073,2.749,1.545
			c1.5,0.755,2.636,0.039,2.637-1.627c0.003-3.778,0.018-7.557-0.015-11.335c-0.005-0.674,0.247-0.81,0.844-0.777
			c0.527,0.028,0.954-0.053,0.946,0.746c-0.041,3.953-0.04,7.906-0.012,11.859c0.017,2.517-1.815,3.761-4.227,2.997
			c-1.557-0.492-2.991-1.436-4.386-2.322c-0.425-0.271-0.75-1.024-0.758-1.562c-0.061-4.214-0.037-8.43-0.032-12.646
			c0.001-0.873,0.471-1.472,1.2-1.895c2.769-1.601,5.533-3.208,8.311-4.793c1.058-0.604,2.147-1.156,3.222-1.731
			c0.132,0,0.264,0,0.396,0c0.335,0.148,0.688,0.268,1.003,0.449c3.514,2.02,7.021,4.048,10.529,6.076
			c0.807,0.466,1.212,1.144,1.209,2.092c-0.014,4.084-0.014,8.168,0,12.252c0.003,0.949-0.401,1.634-1.209,2.092
			c-3.843,2.18-7.688,4.353-11.532,6.527C27.484,45.842,27.353,45.842,27.221,45.842z"/>
		<path fill-rule="evenodd" clip-rule="evenodd" fill="#FFFFFF" d="M30.68,37.146c-1.506-0.016-2.986-0.153-4.252-1.082
			c-0.851-0.624-1.253-1.502-1.245-2.54c0.001-0.159,0.258-0.398,0.441-0.453c0.263-0.078,0.576-0.066,0.847-0.004
			c0.194,0.045,0.486,0.214,0.511,0.363c0.237,1.436,1.29,1.864,2.513,1.948c0.997,0.067,2.009-0.047,3.013-0.107
			c0.231-0.015,0.463-0.124,0.683-0.218c0.647-0.277,0.895-0.825,0.887-1.475c-0.008-0.647-0.482-0.991-1.04-1.106
			c-1.133-0.233-2.283-0.378-3.424-0.574c-0.646-0.111-1.303-0.197-1.925-0.39c-1.501-0.467-2.114-1.225-2.147-2.53
			c-0.039-1.572,0.624-2.63,2.061-3.142c1.926-0.686,3.884-0.641,5.793,0.032c1.347,0.476,1.985,1.578,2.194,2.943
			c0.015,0.102,0.002,0.229-0.05,0.313c-0.184,0.301-1.698,0.216-1.782-0.12c-0.338-1.359-1.334-1.834-2.587-1.895
			c-0.781-0.038-1.571,0.052-2.354,0.122c-0.229,0.021-0.459,0.149-0.665,0.268c-0.5,0.287-0.745,0.734-0.703,1.307
			c0.043,0.577,0.48,0.822,0.961,0.937c0.743,0.176,1.503,0.283,2.254,0.426c1.072,0.203,2.155,0.363,3.211,0.632
			c1.171,0.297,2.005,0.986,2.12,2.279c0.133,1.481-0.363,2.663-1.742,3.372C33.134,37.026,31.922,37.17,30.68,37.146z"/>
	</g>
</g>
</svg>
