<?xml version="1.0" encoding="utf-8"?>
<!-- Generator: Adobe Illustrator 16.0.3, SVG Export Plug-In . SVG Version: 6.00 Build 0)  -->
<!DOCTYPE svg PUBLIC "-//W3C//DTD SVG 1.1//EN" "http://www.w3.org/Graphics/SVG/1.1/DTD/svg11.dtd">
<svg version="1.1" id="Layer_1" xmlns="http://www.w3.org/2000/svg" xmlns:xlink="http://www.w3.org/1999/xlink" x="0px" y="0px"
	 width="55px" height="55px" viewBox="0 0 55 55" enable-background="new 0 0 55 55" xml:space="preserve">
<g>
	<g>
		<path fill-rule="evenodd" clip-rule="evenodd" fill="#897009" d="M27.551,2.016c7.337,0,14.676,0.011,22.014-0.017
			c0.763-0.003,0.997,0.21,0.921,0.958c-0.27,2.633-0.5,5.27-0.739,7.906c-0.176,1.946-0.338,3.894-0.514,5.84
			c-0.239,2.662-0.488,5.323-0.728,7.985c-0.178,1.971-0.341,3.944-0.519,5.916c-0.239,2.662-0.489,5.323-0.728,7.985
			c-0.179,1.997-0.348,3.995-0.518,5.994c-0.109,1.28-0.174,2.566-0.354,3.837c-0.037,0.257-0.474,0.571-0.782,0.658
			c-4.502,1.266-9.013,2.498-13.521,3.738c-1.37,0.377-2.737,0.768-4.114,1.118c-0.309,0.079-0.673,0.093-0.978,0.009
			c-5.909-1.609-11.811-3.241-17.717-4.857c-0.495-0.136-0.677-0.378-0.719-0.914c-0.212-2.716-0.49-5.426-0.732-8.14
			c-0.226-2.534-0.428-5.072-0.654-7.606c-0.238-2.663-0.496-5.323-0.737-7.984c-0.176-1.946-0.331-3.894-0.506-5.84
			c-0.242-2.687-0.498-5.374-0.74-8.061C5.012,8.62,4.849,6.699,4.684,4.778C4.626,4.112,4.602,3.442,4.515,2.781
			C4.431,2.138,4.706,1.992,5.304,2.004c1.633,0.034,3.267,0.012,4.9,0.012C15.987,2.016,21.769,2.016,27.551,2.016z"/>
		<path opacity="0.2" fill-rule="evenodd" clip-rule="evenodd" fill="#FFFFFF" d="M45.155,12.383
			c0.176-2.15,0.348-4.301,0.547-6.448c0.061-0.654-0.125-0.84-0.729-0.838c-5.811,0.024-11.621,0.015-17.432,0.015
			c-0.013,0-0.027,0-0.041,0v7.271H45.155z"/>
		<path opacity="0.2" fill-rule="evenodd" clip-rule="evenodd" fill="#FFFFFF" d="M27.418,13.251l0.164,38.002
			c0.127-0.005,0.255-0.024,0.372-0.059c1.089-0.312,2.17-0.658,3.254-0.992c3.565-1.101,7.133-2.194,10.692-3.317
			c0.244-0.077,0.589-0.354,0.617-0.579c0.138-1.111,0.185-2.237,0.266-3.358c0.128-1.749,0.253-3.498,0.387-5.247
			c0.18-2.33,0.367-4.66,0.547-6.99c0.133-1.726,0.255-3.452,0.388-5.178c0.18-2.33,0.367-4.66,0.547-6.99
			c0.131-1.704,0.252-3.408,0.384-5.112c0.007-0.085,0.014-0.17,0.021-0.255L27.418,13.251z"/>
		<path fill-rule="evenodd" clip-rule="evenodd" fill="#FFFFFF" d="M48.781,2.923C41.704,2.95,34.627,2.939,27.55,2.939
			c-5.577,0-11.154,0-16.731,0c-1.575,0-3.151,0.022-4.726-0.012C5.516,2.916,5.25,3.057,5.332,3.676
			c0.083,0.639,0.107,1.285,0.163,1.927c0.159,1.853,0.316,3.706,0.483,5.558c0.234,2.592,0.481,5.183,0.714,7.775
			c0.169,1.876,0.318,3.755,0.488,5.631c0.232,2.568,0.481,5.133,0.71,7.701c0.218,2.444,0.413,4.892,0.631,7.336
			c0.233,2.617,0.502,5.231,0.707,7.851c0.04,0.517,0.216,0.751,0.693,0.882c5.697,1.56,11.389,3.133,17.087,4.686
			c0.294,0.08,0.646,0.066,0.943-0.009c1.328-0.339,2.646-0.716,3.968-1.079c4.35-1.196,8.699-2.385,13.041-3.605
			c0.298-0.084,0.719-0.388,0.755-0.635c0.174-1.225,0.236-2.466,0.342-3.7c0.164-1.928,0.326-3.855,0.499-5.782
			c0.229-2.567,0.472-5.134,0.702-7.701c0.171-1.901,0.328-3.804,0.499-5.705c0.231-2.567,0.472-5.134,0.703-7.701
			c0.169-1.877,0.325-3.755,0.495-5.633c0.23-2.542,0.453-5.085,0.713-7.625C49.743,3.126,49.518,2.92,48.781,2.923z M48.884,4.703
			c-0.25,2.45-0.465,4.903-0.688,7.355c-0.164,1.811-0.314,3.623-0.478,5.433c-0.223,2.476-0.455,4.952-0.678,7.428
			c-0.165,1.834-0.316,3.669-0.481,5.503c-0.223,2.477-0.456,4.952-0.678,7.429c-0.166,1.858-0.323,3.717-0.481,5.576
			c-0.102,1.191-0.161,2.388-0.33,3.569c-0.033,0.238-0.439,0.531-0.728,0.612c-4.188,1.178-8.384,2.324-12.578,3.478
			c-1.275,0.351-2.547,0.714-3.828,1.041c-0.287,0.073-0.626,0.085-0.91,0.009c-5.497-1.498-10.987-3.016-16.482-4.52
			c-0.46-0.126-0.63-0.352-0.669-0.851c-0.197-2.526-0.457-5.048-0.681-7.572c-0.21-2.357-0.398-4.718-0.609-7.076
			c-0.221-2.478-0.462-4.952-0.686-7.428c-0.164-1.811-0.308-3.622-0.471-5.432c-0.225-2.5-0.463-5-0.688-7.5
			C6.58,9.971,6.428,8.184,6.274,6.397c-0.053-0.62-0.077-1.243-0.157-1.858C6.039,3.941,6.295,3.805,6.852,3.816
			c1.519,0.032,3.039,0.011,4.559,0.011c5.379,0,10.759,0,16.137,0c6.827,0,13.654,0.01,20.48-0.016
			C48.737,3.809,48.955,4.008,48.884,4.703z"/>
		<g>
			<path fill="#FFFFFF" d="M16.114,8.517v2.56h-1.086V6.39l3.686,2.779v-2.56h1.086v4.684L16.114,8.517z"/>
			<path fill="#FFFFFF" d="M24.443,6.609c0.149,0,0.278,0.052,0.386,0.157c0.108,0.104,0.163,0.229,0.163,0.373v3.407
				c0,0.146-0.055,0.271-0.163,0.375c-0.108,0.104-0.237,0.155-0.386,0.155h-3.674c-0.151,0-0.281-0.052-0.389-0.155
				c-0.108-0.104-0.163-0.229-0.163-0.375V7.139c0-0.144,0.054-0.269,0.163-0.373c0.108-0.105,0.238-0.157,0.389-0.157H24.443z
				 M23.906,7.488h-2.599v2.709h2.599V7.488z"/>
			<path fill="#FFFFFF" d="M25.962,6.609h3.951v0.879h-3.414v0.914h3.137c0.148,0,0.277,0.053,0.386,0.159
				c0.108,0.105,0.163,0.23,0.163,0.375v1.611c0,0.146-0.055,0.271-0.163,0.375c-0.108,0.104-0.237,0.155-0.386,0.155H25.41v-0.879
				h3.685V9.281h-3.133c-0.151,0-0.281-0.052-0.39-0.156C25.464,9.021,25.41,8.897,25.41,8.75V7.139
				c0-0.144,0.054-0.269,0.163-0.373C25.681,6.661,25.811,6.609,25.962,6.609z"/>
			<path fill="#FFFFFF" d="M34.828,6.609c0.149,0,0.277,0.052,0.387,0.157c0.108,0.104,0.162,0.229,0.162,0.373v3.059h0.271v0.879
				h-4.494c-0.153,0-0.283-0.052-0.391-0.155c-0.107-0.104-0.161-0.229-0.161-0.375V7.139c0-0.144,0.054-0.269,0.161-0.373
				c0.107-0.105,0.237-0.157,0.391-0.157H34.828z M34.291,7.488h-2.6v2.709h2.6V7.488z"/>
			<path fill="#FFFFFF" d="M37.152,6.609v3.589h3.686v0.879h-4.771V6.609H37.152z"/>
		</g>
	</g>
	<g>
		<path fill-rule="evenodd" clip-rule="evenodd" fill="#FFFFFF" d="M26.266,16.303c0.768,0,1.535,0,2.303,0
			c0.063,0.012,0.124,0.031,0.187,0.036c1.472,0.111,2.938,0.263,4.368,0.646c1.128,0.302,2.228,0.672,3.17,1.39
			c0.53,0.403,0.887,0.906,0.886,1.604c-0.002,1.604,0.003,3.208-0.006,4.813c-0.001,0.207-0.045,0.422-0.112,0.618
			c-0.186,0.544-0.616,0.887-1.072,1.192c-0.774,0.517-1.642,0.833-2.53,1.083c-1.674,0.472-3.392,0.689-5.126,0.741
			c-2.25,0.067-4.483-0.092-6.671-0.669c-1.123-0.296-2.211-0.674-3.144-1.394c-0.516-0.398-0.862-0.892-0.862-1.572
			c0-1.604,0-3.208,0-4.813c0-0.495,0.177-0.918,0.522-1.277c0.439-0.458,0.976-0.773,1.547-1.029
			c1.663-0.746,3.431-1.06,5.23-1.239C25.393,16.39,25.83,16.346,26.266,16.303z M27.415,16.972
			c-0.702,0.043-1.404,0.069-2.104,0.133c-1.333,0.123-2.639,0.376-3.879,0.895c-0.524,0.22-1.023,0.489-1.42,0.907
			c-0.426,0.447-0.611,1.067-0.121,1.636c0.245,0.283,0.546,0.536,0.866,0.731c0.887,0.542,1.883,0.807,2.894,1.004
			c1.596,0.311,3.208,0.39,4.833,0.313c1.468-0.07,2.908-0.271,4.304-0.736c0.741-0.248,1.452-0.562,2.021-1.127
			c0.431-0.429,0.547-0.981,0.268-1.486c-0.191-0.345-0.497-0.594-0.827-0.803c-0.634-0.401-1.33-0.659-2.05-0.856
			C30.634,17.154,29.034,16.999,27.415,16.972z"/>
		<path fill-rule="evenodd" clip-rule="evenodd" fill="#FFFFFF" d="M28.569,42.854c-0.768,0-1.535,0-2.303,0
			c-0.062-0.013-0.124-0.03-0.186-0.036c-0.67-0.064-1.343-0.109-2.01-0.194c-1.084-0.139-2.153-0.354-3.194-0.695
			c-0.845-0.278-1.66-0.618-2.368-1.17c-0.555-0.432-0.866-0.976-0.857-1.706c0.019-1.547,0.006-3.095,0.007-4.642
			c0-0.089,0.013-0.178,0.02-0.267c0.343,0.728,0.932,1.187,1.622,1.508c0.639,0.299,1.295,0.577,1.968,0.785
			c1.573,0.486,3.2,0.681,4.839,0.766c1.648,0.084,3.295,0.02,4.928-0.218c1.419-0.207,2.818-0.513,4.126-1.13
			c0.815-0.385,1.583-0.834,1.988-1.764c0.014,0.134,0.028,0.216,0.028,0.297c0.001,1.583-0.001,3.166,0.002,4.749
			c0.001,0.535-0.188,0.984-0.569,1.364c-0.417,0.417-0.915,0.712-1.445,0.955c-1.69,0.772-3.493,1.092-5.329,1.269
			C29.414,42.766,28.991,42.811,28.569,42.854z"/>
		<path fill-rule="evenodd" clip-rule="evenodd" fill="#FFFFFF" d="M37.159,26.893c0.007,0.089,0.019,0.178,0.019,0.266
			c0.002,1.541-0.014,3.082,0.008,4.622c0.011,0.783-0.341,1.342-0.943,1.791c-0.803,0.597-1.72,0.948-2.668,1.226
			c-1.256,0.367-2.542,0.57-3.846,0.686c-1.276,0.113-2.553,0.142-3.83,0.064c-1.681-0.103-3.344-0.328-4.954-0.846
			c-0.935-0.3-1.838-0.67-2.591-1.326c-0.476-0.415-0.708-0.927-0.702-1.564c0.013-1.555,0.004-3.109,0.005-4.664
			c0-0.085,0.015-0.171,0.04-0.258c0.313,0.727,0.909,1.151,1.565,1.504c1.205,0.649,2.51,1.004,3.853,1.214
			c0.909,0.143,1.827,0.251,2.746,0.308c0.912,0.057,1.83,0.062,2.744,0.032c1.605-0.052,3.193-0.269,4.747-0.688
			c0.809-0.218,1.598-0.499,2.326-0.919C36.286,27.991,36.846,27.585,37.159,26.893z"/>
	</g>
</g>
</svg>
