<?xml version="1.0" encoding="utf-8"?>
<!-- Generator: Adobe Illustrator 16.0.3, SVG Export Plug-In . SVG Version: 6.00 Build 0)  -->
<!DOCTYPE svg PUBLIC "-//W3C//DTD SVG 1.1//EN" "http://www.w3.org/Graphics/SVG/1.1/DTD/svg11.dtd">
<svg version="1.1" id="Layer_1" xmlns="http://www.w3.org/2000/svg" xmlns:xlink="http://www.w3.org/1999/xlink" x="0px" y="0px"
	 width="55px" height="55px" viewBox="0 0 55 55" enable-background="new 0 0 55 55" xml:space="preserve">
<g>
	<g>
		<path fill-rule="evenodd" clip-rule="evenodd" fill="#CB3837" d="M27.552,2.016c7.338,0,14.676,0.011,22.014-0.017
			c0.764-0.002,0.997,0.211,0.921,0.958c-0.27,2.633-0.501,5.27-0.739,7.906c-0.177,1.946-0.339,3.894-0.514,5.84
			c-0.238,2.662-0.488,5.322-0.728,7.984c-0.178,1.972-0.342,3.944-0.518,5.916c-0.24,2.662-0.491,5.323-0.729,7.985
			c-0.178,1.997-0.348,3.996-0.517,5.994c-0.108,1.28-0.175,2.567-0.354,3.837c-0.036,0.257-0.473,0.571-0.782,0.658
			c-4.501,1.266-9.012,2.498-13.521,3.738c-1.37,0.377-2.737,0.768-4.114,1.119c-0.31,0.078-0.674,0.092-0.978,0.009
			c-5.908-1.61-11.811-3.242-17.717-4.858c-0.495-0.136-0.678-0.378-0.719-0.914c-0.212-2.716-0.491-5.426-0.733-8.14
			c-0.226-2.534-0.428-5.071-0.655-7.606c-0.237-2.662-0.496-5.322-0.736-7.984c-0.176-1.946-0.332-3.893-0.507-5.839
			c-0.241-2.688-0.497-5.374-0.74-8.061c-0.173-1.92-0.336-3.842-0.501-5.763C4.626,4.112,4.602,3.442,4.515,2.781
			c-0.084-0.643,0.191-0.789,0.79-0.776c1.633,0.035,3.267,0.012,4.9,0.012C15.987,2.016,21.769,2.016,27.552,2.016z"/>
		<path opacity="0.2" fill-rule="evenodd" clip-rule="evenodd" fill="#FFFFFF" d="M45.156,12.383
			c0.175-2.15,0.347-4.301,0.546-6.448c0.061-0.654-0.124-0.84-0.729-0.837c-5.811,0.024-11.621,0.014-17.432,0.014
			c-0.014,0-0.027,0-0.041,0v7.271H45.156z"/>
		<path opacity="0.2" fill-rule="evenodd" clip-rule="evenodd" fill="#FFFFFF" d="M27.418,13.252l0.164,38.002
			c0.128-0.005,0.255-0.024,0.373-0.058c1.088-0.313,2.17-0.659,3.253-0.993c3.566-1.101,7.132-2.194,10.693-3.317
			c0.243-0.077,0.587-0.354,0.616-0.579c0.139-1.111,0.186-2.237,0.267-3.357c0.126-1.75,0.252-3.499,0.387-5.248
			c0.178-2.33,0.366-4.659,0.546-6.99c0.133-1.726,0.256-3.452,0.387-5.178c0.18-2.33,0.368-4.659,0.548-6.989
			c0.132-1.704,0.253-3.409,0.384-5.112c0.007-0.085,0.014-0.17,0.021-0.255L27.418,13.252z"/>
		<path fill-rule="evenodd" clip-rule="evenodd" fill="#FFFFFF" d="M48.781,2.923C41.704,2.95,34.627,2.939,27.549,2.939
			c-5.576,0-11.154,0-16.73,0c-1.576,0-3.151,0.022-4.727-0.011C5.516,2.916,5.25,3.057,5.332,3.677
			c0.083,0.638,0.107,1.284,0.162,1.926c0.16,1.853,0.316,3.706,0.484,5.558c0.234,2.592,0.48,5.183,0.714,7.775
			c0.168,1.876,0.319,3.755,0.488,5.632c0.232,2.568,0.481,5.133,0.71,7.701c0.219,2.444,0.414,4.892,0.632,7.337
			c0.234,2.616,0.501,5.23,0.707,7.851c0.04,0.517,0.216,0.75,0.693,0.881c5.697,1.56,11.39,3.133,17.088,4.686
			c0.293,0.08,0.646,0.067,0.943-0.009c1.328-0.339,2.646-0.715,3.968-1.078c4.349-1.197,8.699-2.385,13.041-3.606
			c0.297-0.084,0.719-0.387,0.753-0.635c0.175-1.225,0.236-2.466,0.342-3.7c0.164-1.928,0.327-3.855,0.5-5.782
			c0.229-2.566,0.472-5.133,0.703-7.701c0.171-1.901,0.328-3.803,0.499-5.705c0.229-2.567,0.472-5.134,0.701-7.701
			c0.17-1.877,0.325-3.756,0.496-5.633c0.229-2.542,0.453-5.085,0.714-7.625C49.743,3.126,49.517,2.921,48.781,2.923z M48.885,4.703
			c-0.251,2.449-0.467,4.903-0.688,7.355c-0.164,1.811-0.314,3.622-0.479,5.433c-0.224,2.476-0.455,4.951-0.678,7.428
			c-0.164,1.834-0.316,3.669-0.482,5.503c-0.223,2.477-0.456,4.952-0.677,7.429c-0.166,1.858-0.323,3.718-0.482,5.576
			c-0.1,1.191-0.16,2.388-0.328,3.569c-0.034,0.239-0.44,0.531-0.729,0.612c-4.187,1.179-8.384,2.324-12.578,3.478
			c-1.275,0.352-2.547,0.715-3.828,1.041c-0.288,0.073-0.626,0.086-0.91,0.009c-5.497-1.498-10.988-3.016-16.482-4.52
			c-0.46-0.126-0.63-0.352-0.668-0.851c-0.198-2.526-0.457-5.048-0.682-7.571c-0.211-2.358-0.398-4.719-0.609-7.077
			c-0.221-2.477-0.461-4.951-0.685-7.428c-0.164-1.81-0.308-3.622-0.471-5.432c-0.226-2.5-0.463-5-0.689-7.5
			C6.58,9.971,6.428,8.184,6.274,6.397c-0.054-0.62-0.077-1.243-0.157-1.859C6.039,3.941,6.295,3.805,6.852,3.816
			c1.52,0.032,3.039,0.011,4.559,0.011c5.379,0,10.759,0,16.137,0c6.828,0,13.654,0.01,20.48-0.016
			C48.737,3.81,48.955,4.008,48.885,4.703z"/>
		<g>
			<path fill="#FFFFFF" d="M21.073,8.628v2.343h-0.994V6.681l3.373,2.543V6.881h0.995v4.288L21.073,8.628z"/>
			<path fill="#FFFFFF" d="M28.694,6.881c0.138,0,0.257,0.048,0.355,0.144c0.101,0.096,0.15,0.21,0.15,0.342v1.876
				c0,0.136-0.05,0.25-0.15,0.344c-0.099,0.094-0.218,0.142-0.355,0.142h-2.869v1.243h-0.997v-4.09H28.694z M25.826,7.686v1.24
				h2.376v-1.24H25.826z"/>
			<path fill="#FFFFFF" d="M32.266,10.14l-1.168-1.449l-0.522,2.28h-0.993l0.993-4.291l1.69,2.108l1.688-2.108l0.993,4.291h-0.993
				l-0.521-2.28L32.266,10.14z"/>
		</g>
	</g>
	<g>
		<path fill-rule="evenodd" clip-rule="evenodd" fill="#FFFFFF" d="M27.418,36.623c-2.091,0-4.184,0-6.275,0
			c0-0.513,0-1.025,0-1.537c-0.069-0.017-0.105-0.032-0.143-0.032c-2.567,0.002-5.134,0.006-7.701,0.01c0-3.12,0-6.239,0-9.36
			c9.413,0,18.826,0,28.239,0c0,3.121,0,6.24,0,9.36c-0.065-0.005-0.131-0.013-0.195-0.013c-4.54-0.001-9.079-0.001-13.619,0.001
			c-0.099,0-0.198,0.02-0.306,0.031C27.418,35.614,27.418,36.119,27.418,36.623z M33.722,33.499c0-1.566,0-3.095,0-4.629
			c0.523,0,1.011,0,1.534,0c0,1.557,0,3.084,0,4.618c0.548,0,1.061,0,1.607,0c0-1.56,0-3.087,0-4.619c0.523,0,1.011,0,1.532,0
			c0,1.557,0,3.084,0,4.618c0.546,0,1.058,0,1.559,0c0-2.093,0-4.152,0-6.213c-3.146,0-6.262,0-9.393,0c0,2.084,0,4.144,0,6.225
			C31.608,33.499,32.633,33.499,33.722,33.499z M28.967,33.524c0-2.098,0-4.177,0-6.247c-2.102,0-4.173,0-6.249,0
			c0,2.607,0,5.187,0,7.779c1.052,0,2.078,0,3.152,0c0-0.519,0-1.017,0-1.532C26.923,33.524,27.928,33.524,28.967,33.524z
			 M19.563,33.491c0.549,0,1.061,0,1.571,0c0-2.091,0-4.149,0-6.22c-2.097,0-4.169,0-6.249,0c0,2.091,0,4.16,0,6.221
			c1.058,0,2.083,0,3.145,0c0-1.556,0-3.084,0-4.624c0.523,0,1.011,0,1.533,0C19.563,30.423,19.563,31.95,19.563,33.491z"/>
		<path fill-rule="evenodd" clip-rule="evenodd" fill="#FFFFFF" d="M27.388,31.905c-0.508,0-0.996,0-1.504,0
			c0-1.012,0-2.006,0-3.031c0.49,0,0.987,0,1.504,0C27.388,29.882,27.388,30.885,27.388,31.905z"/>
	</g>
</g>
</svg>
