<?xml version="1.0" encoding="utf-8"?>
<!-- Generator: Adobe Illustrator 16.0.3, SVG Export Plug-In . SVG Version: 6.00 Build 0)  -->
<!DOCTYPE svg PUBLIC "-//W3C//DTD SVG 1.1//EN" "http://www.w3.org/Graphics/SVG/1.1/DTD/svg11.dtd">
<svg version="1.1" id="Layer_1" xmlns="http://www.w3.org/2000/svg" xmlns:xlink="http://www.w3.org/1999/xlink" x="0px" y="0px"
	 width="55px" height="55px" viewBox="0 0 55 55" enable-background="new 0 0 55 55" xml:space="preserve">
<g>
	<g>
		<g>
			<path fill-rule="evenodd" clip-rule="evenodd" fill="#0F73AA" d="M27.551,2.016c7.337,0,14.676,0.011,22.014-0.017
				c0.763-0.003,0.997,0.21,0.921,0.957c-0.27,2.634-0.5,5.271-0.739,7.907c-0.177,1.946-0.338,3.894-0.514,5.84
				c-0.239,2.662-0.488,5.323-0.728,7.985c-0.178,1.972-0.341,3.945-0.519,5.916c-0.239,2.662-0.49,5.323-0.728,7.985
				c-0.179,1.997-0.348,3.996-0.518,5.994c-0.109,1.28-0.174,2.567-0.354,3.837c-0.037,0.257-0.474,0.571-0.782,0.658
				c-4.502,1.266-9.013,2.498-13.521,3.738c-1.37,0.377-2.737,0.768-4.114,1.119c-0.309,0.078-0.674,0.092-0.978,0.009
				c-5.909-1.61-11.811-3.242-17.717-4.858c-0.495-0.136-0.677-0.377-0.719-0.913c-0.212-2.716-0.491-5.427-0.732-8.141
				c-0.226-2.534-0.428-5.071-0.654-7.606c-0.238-2.662-0.496-5.323-0.737-7.984c-0.176-1.946-0.331-3.893-0.506-5.839
				c-0.242-2.688-0.498-5.374-0.74-8.062C5.012,8.62,4.849,6.699,4.684,4.778C4.626,4.112,4.602,3.442,4.515,2.781
				c-0.084-0.643,0.191-0.789,0.79-0.776c1.633,0.034,3.267,0.012,4.9,0.012C15.987,2.016,21.769,2.016,27.551,2.016z"/>
			<path opacity="0.2" fill-rule="evenodd" clip-rule="evenodd" fill="#FFFFFF" d="M45.155,12.382c0.176-2.15,0.348-4.3,0.547-6.448
				c0.061-0.653-0.125-0.84-0.729-0.838c-5.811,0.024-11.621,0.014-17.432,0.014c-0.014,0-0.027,0-0.041,0v7.271H45.155z"/>
			<path opacity="0.2" fill-rule="evenodd" clip-rule="evenodd" fill="#FFFFFF" d="M27.418,13.251l0.164,38.002
				c0.127-0.005,0.255-0.024,0.372-0.058c1.089-0.313,2.17-0.659,3.254-0.993c3.565-1.101,7.132-2.194,10.692-3.317
				c0.244-0.077,0.589-0.354,0.617-0.579c0.138-1.111,0.185-2.237,0.266-3.357c0.128-1.75,0.253-3.499,0.387-5.248
				c0.18-2.33,0.367-4.659,0.547-6.989c0.133-1.726,0.255-3.453,0.388-5.179c0.18-2.33,0.367-4.659,0.547-6.989
				c0.131-1.704,0.252-3.409,0.384-5.113c0.007-0.085,0.014-0.17,0.021-0.255L27.418,13.251z"/>
			<path fill-rule="evenodd" clip-rule="evenodd" fill="#FFFFFF" d="M48.781,2.923C41.704,2.95,34.627,2.939,27.549,2.939
				c-5.577,0-11.153,0-16.73,0c-1.576,0-3.151,0.022-4.726-0.012C5.516,2.916,5.25,3.057,5.332,3.676
				c0.083,0.638,0.107,1.285,0.163,1.927c0.159,1.853,0.316,3.706,0.483,5.558c0.234,2.592,0.481,5.183,0.714,7.775
				c0.168,1.876,0.318,3.755,0.488,5.632c0.232,2.567,0.481,5.133,0.71,7.701c0.218,2.444,0.413,4.892,0.631,7.337
				c0.233,2.616,0.502,5.231,0.706,7.85c0.041,0.518,0.216,0.751,0.694,0.882c5.696,1.56,11.389,3.133,17.087,4.686
				c0.293,0.08,0.646,0.067,0.943-0.009c1.328-0.339,2.646-0.715,3.968-1.078c4.349-1.197,8.699-2.385,13.041-3.606
				c0.298-0.084,0.719-0.387,0.754-0.635c0.175-1.225,0.236-2.466,0.343-3.7c0.164-1.928,0.326-3.855,0.498-5.781
				c0.23-2.567,0.473-5.134,0.703-7.702c0.171-1.901,0.328-3.804,0.499-5.705c0.231-2.567,0.472-5.134,0.703-7.701
				c0.169-1.877,0.325-3.755,0.495-5.632c0.229-2.543,0.453-5.086,0.713-7.625C49.743,3.126,49.518,2.92,48.781,2.923z
				 M48.884,4.703c-0.25,2.45-0.466,4.903-0.688,7.355c-0.164,1.811-0.314,3.623-0.478,5.433c-0.223,2.476-0.455,4.952-0.678,7.428
				c-0.165,1.834-0.316,3.669-0.482,5.503c-0.222,2.477-0.455,4.952-0.677,7.429c-0.167,1.858-0.323,3.718-0.481,5.576
				c-0.102,1.191-0.161,2.389-0.33,3.569c-0.034,0.239-0.439,0.531-0.728,0.612c-4.188,1.179-8.384,2.324-12.578,3.478
				c-1.275,0.352-2.547,0.715-3.828,1.041c-0.287,0.073-0.626,0.086-0.91,0.009c-5.496-1.498-10.987-3.016-16.481-4.52
				c-0.461-0.126-0.63-0.352-0.669-0.851c-0.197-2.526-0.457-5.048-0.682-7.571c-0.21-2.358-0.398-4.719-0.608-7.077
				c-0.221-2.477-0.462-4.951-0.686-7.428c-0.164-1.811-0.308-3.622-0.471-5.432c-0.226-2.5-0.463-5-0.688-7.5
				C6.58,9.971,6.428,8.184,6.274,6.397c-0.054-0.62-0.077-1.243-0.157-1.858C6.039,3.941,6.295,3.805,6.852,3.817
				c1.519,0.032,3.039,0.011,4.559,0.011c5.379,0,10.758,0,16.137,0c6.827,0,13.654,0.01,20.479-0.015
				C48.737,3.809,48.955,4.008,48.884,4.703z"/>
			<g>
				<path fill="#FFFFFF" d="M12.657,6.659c0.115,0,0.214,0.04,0.296,0.119c0.082,0.08,0.124,0.174,0.124,0.284V8.62
					c0,0.113-0.042,0.208-0.124,0.286c-0.083,0.078-0.181,0.117-0.296,0.117h-2.381v1.032H9.448V6.659H12.657z M10.276,7.327v1.03
					h1.973v-1.03H10.276z"/>
				<path fill="#FFFFFF" d="M16.193,8.69H14.22v1.365h-0.826V6.659h0.826v1.363h1.973V6.659h0.828v3.396h-0.828V8.69z"/>
				<path fill="#FFFFFF" d="M20.55,6.659c0.113,0,0.211,0.04,0.294,0.119c0.082,0.08,0.123,0.174,0.123,0.284v2.589
					c0,0.111-0.041,0.206-0.123,0.285c-0.083,0.079-0.181,0.118-0.294,0.118h-2.792c-0.115,0-0.213-0.04-0.296-0.118
					c-0.082-0.079-0.123-0.174-0.123-0.285V7.063c0-0.11,0.041-0.205,0.123-0.284c0.083-0.08,0.182-0.119,0.296-0.119H20.55z
					 M20.142,7.327h-1.976v2.06h1.976V7.327z"/>
				<path fill="#FFFFFF" d="M24.912,6.659v0.668h-1.399v2.728h-0.828V7.327h-1.399V6.659H24.912z"/>
				<path fill="#FFFFFF" d="M28.441,6.659c0.113,0,0.211,0.04,0.294,0.119c0.082,0.08,0.123,0.174,0.123,0.284v2.589
					c0,0.111-0.041,0.206-0.123,0.285c-0.083,0.079-0.181,0.118-0.294,0.118h-2.792c-0.115,0-0.213-0.04-0.296-0.118
					s-0.124-0.174-0.124-0.285V7.063c0-0.11,0.041-0.205,0.124-0.284s0.181-0.119,0.296-0.119H28.441z M28.033,7.327h-1.976v2.06
					h1.976V7.327z"/>
				<path fill="#FFFFFF" d="M29.596,6.659h3.003v0.668h-2.595v0.695h2.384c0.113,0,0.211,0.04,0.294,0.12
					c0.082,0.081,0.123,0.175,0.123,0.285v1.225c0,0.111-0.041,0.206-0.123,0.285c-0.083,0.079-0.181,0.118-0.294,0.118h-3.212
					V9.387h2.802V8.69h-2.382c-0.115,0-0.214-0.04-0.296-0.118c-0.083-0.079-0.124-0.174-0.124-0.285V7.063
					c0-0.11,0.041-0.205,0.124-0.284C29.382,6.699,29.48,6.659,29.596,6.659z"/>
				<path fill="#FFFFFF" d="M35.921,8.69h-1.973v1.365h-0.826V6.659h0.826v1.363h1.973V6.659h0.828v3.396h-0.828V8.69z"/>
				<path fill="#FFFFFF" d="M40.278,6.659c0.113,0,0.211,0.04,0.294,0.119c0.082,0.08,0.123,0.174,0.123,0.284v2.589
					c0,0.111-0.041,0.206-0.123,0.285c-0.083,0.079-0.181,0.118-0.294,0.118h-2.792c-0.115,0-0.214-0.04-0.296-0.118
					c-0.083-0.079-0.124-0.174-0.124-0.285V7.063c0-0.11,0.041-0.205,0.124-0.284c0.082-0.08,0.181-0.119,0.296-0.119H40.278z
					 M39.87,7.327h-1.976v2.06h1.976V7.327z"/>
				<path fill="#FFFFFF" d="M44.223,6.659c0.114,0,0.213,0.04,0.296,0.119c0.082,0.08,0.123,0.174,0.123,0.284V8.62
					c0,0.113-0.041,0.208-0.123,0.286c-0.083,0.078-0.182,0.117-0.296,0.117h-2.382v1.032h-0.827V6.659H44.223z M41.841,7.327v1.03
					h1.974v-1.03H41.841z"/>
			</g>
		</g>
	</g>
	<g>
		<path fill-rule="evenodd" clip-rule="evenodd" fill="#FFFFFF" d="M16.578,19.144c7.282,0,14.563,0,21.844,0
			c0,7.12,0,14.24,0,21.36c-7.281,0-14.563,0-21.844,0C16.578,33.384,16.578,26.264,16.578,19.144z M18.316,20.845
			c0,5.996,0,11.975,0,17.959c6.13,0,12.246,0,18.368,0c0-5.991,0-11.971,0-17.959C30.559,20.845,24.448,20.845,18.316,20.845z"/>
		<path fill-rule="evenodd" clip-rule="evenodd" fill="#FFFFFF" d="M21.883,25.171c1.071,0,2.128-0.022,3.184,0.012
			c0.365,0.012,0.738,0.127,1.083,0.258c0.794,0.299,1.301,0.883,1.5,1.702c0.239,0.981,0.133,1.919-0.525,2.726
			c-0.535,0.655-1.253,1.028-2.094,1.141c-0.376,0.051-0.758,0.064-1.138,0.076c-0.155,0.005-0.208,0.043-0.206,0.205
			c0.008,0.799,0.004,1.599,0.004,2.398c0,0.064,0,0.129,0,0.206c-0.608,0-1.203,0-1.808,0
			C21.883,30.991,21.883,28.092,21.883,25.171z M23.704,29.562c0.227,0,0.449,0.011,0.669-0.002
			c0.928-0.053,1.449-0.517,1.552-1.373c0.073-0.604-0.222-1.21-0.729-1.479c-0.472-0.25-0.979-0.193-1.492-0.184
			C23.704,27.541,23.704,28.535,23.704,29.562z"/>
		<path fill-rule="evenodd" clip-rule="evenodd" fill="#FFFFFF" d="M32.777,28.969c-0.482-0.145-0.942-0.31-1.415-0.414
			c-0.219-0.048-0.468-0.004-0.693,0.044c-0.201,0.042-0.326,0.194-0.35,0.412c-0.023,0.211,0.068,0.369,0.249,0.461
			c0.257,0.129,0.528,0.232,0.79,0.354c0.316,0.147,0.645,0.276,0.94,0.457c0.5,0.305,0.776,0.772,0.82,1.353
			c0.092,1.2-0.615,1.916-1.595,2.185c-0.325,0.089-0.655,0.133-0.999,0.136c-0.687,0.007-1.306-0.199-1.91-0.482
			c-0.052-0.023-0.12-0.084-0.122-0.129c-0.009-0.442-0.005-0.886-0.005-1.305c0.433,0.146,0.851,0.321,1.287,0.422
			c0.298,0.069,0.628,0.08,0.93,0.033c0.509-0.078,0.661-0.564,0.339-0.969c-0.197-0.246-0.473-0.362-0.754-0.479
			c-0.378-0.157-0.761-0.309-1.118-0.505c-0.405-0.223-0.712-0.556-0.759-1.038c-0.077-0.797,0.22-1.434,0.887-1.891
			c0.402-0.276,0.859-0.408,1.34-0.454c0.701-0.067,1.372,0.053,2.006,0.362c0.055,0.026,0.125,0.094,0.126,0.144
			C32.781,28.109,32.777,28.554,32.777,28.969z"/>
	</g>
</g>
</svg>
