<?xml version="1.0" encoding="utf-8"?>
<!-- Generator: Adobe Illustrator 16.0.3, SVG Export Plug-In . SVG Version: 6.00 Build 0)  -->
<!DOCTYPE svg PUBLIC "-//W3C//DTD SVG 1.1//EN" "http://www.w3.org/Graphics/SVG/1.1/DTD/svg11.dtd">
<svg version="1.1" id="Layer_1" xmlns="http://www.w3.org/2000/svg" xmlns:xlink="http://www.w3.org/1999/xlink" x="0px" y="0px"
	 width="55px" height="55px" viewBox="0 0 55 55" enable-background="new 0 0 55 55" xml:space="preserve">
<g>
	<g>
		<path fill-rule="evenodd" clip-rule="evenodd" fill="#18E0EF" d="M27.551,2.016c7.337,0,14.676,0.011,22.014-0.017
			c0.763-0.003,0.997,0.21,0.921,0.958c-0.27,2.633-0.5,5.27-0.739,7.906c-0.176,1.946-0.338,3.894-0.514,5.84
			c-0.239,2.662-0.488,5.323-0.728,7.985c-0.178,1.971-0.341,3.944-0.519,5.916c-0.239,2.662-0.489,5.323-0.728,7.985
			c-0.179,1.997-0.348,3.996-0.518,5.994c-0.109,1.28-0.174,2.567-0.354,3.837c-0.037,0.257-0.474,0.571-0.782,0.658
			c-4.502,1.267-9.013,2.498-13.521,3.738c-1.37,0.377-2.737,0.768-4.114,1.119c-0.309,0.078-0.673,0.092-0.978,0.009
			c-5.909-1.61-11.811-3.242-17.717-4.858c-0.495-0.136-0.677-0.378-0.719-0.913c-0.212-2.716-0.49-5.427-0.732-8.14
			c-0.226-2.535-0.428-5.072-0.654-7.607c-0.238-2.662-0.496-5.323-0.737-7.984c-0.176-1.946-0.331-3.894-0.506-5.839
			c-0.242-2.688-0.498-5.374-0.74-8.062C5.012,8.62,4.849,6.699,4.684,4.778C4.626,4.112,4.602,3.442,4.515,2.78
			C4.431,2.138,4.706,1.992,5.304,2.004c1.633,0.035,3.267,0.012,4.9,0.012C15.987,2.016,21.769,2.016,27.551,2.016z"/>
		<path opacity="0.2" fill-rule="evenodd" clip-rule="evenodd" fill="#FFFFFF" d="M45.155,12.382c0.176-2.15,0.348-4.3,0.547-6.448
			c0.061-0.653-0.125-0.84-0.729-0.838c-5.811,0.024-11.621,0.015-17.432,0.015c-0.013,0-0.027,0-0.041,0v7.271H45.155z"/>
		<path opacity="0.2" fill-rule="evenodd" clip-rule="evenodd" fill="#FFFFFF" d="M27.418,13.251l0.164,38.002
			c0.127-0.005,0.255-0.024,0.372-0.058c1.089-0.313,2.17-0.658,3.254-0.993c3.565-1.101,7.133-2.194,10.692-3.317
			c0.244-0.077,0.589-0.354,0.617-0.578c0.138-1.112,0.185-2.238,0.266-3.358c0.128-1.75,0.253-3.499,0.387-5.247
			c0.18-2.331,0.367-4.66,0.547-6.99c0.133-1.727,0.255-3.453,0.388-5.179c0.18-2.33,0.367-4.66,0.547-6.989
			c0.131-1.704,0.252-3.409,0.384-5.112c0.007-0.085,0.014-0.17,0.021-0.255L27.418,13.251z"/>
		<g>
			<path fill="#FFFFFF" d="M17.123,6.565c0.178,0,0.332,0.05,0.462,0.151c0.131,0.101,0.196,0.221,0.196,0.359v1.974
				c0,0.143-0.065,0.263-0.196,0.362c-0.13,0.099-0.284,0.148-0.462,0.148h-0.114l1.017,1.308h-1.514L15.495,9.56h-2.109v1.308
				h-1.294V6.565H17.123z M16.483,8.716V7.412h-3.097v1.305H16.483z"/>
			<path fill="#FFFFFF" d="M22.916,9.138h-3.094v0.883h4.392v0.847h-5.689V6.565h5.689v0.847h-4.392v0.88h3.094V9.138z"/>
			<path fill="#FFFFFF" d="M25.365,6.565h4.381c0.178,0,0.331,0.05,0.46,0.151c0.13,0.101,0.194,0.221,0.194,0.359v3.792h-1.298
				V9.56h-3.093v1.308h-1.298V7.076c0-0.139,0.064-0.258,0.192-0.359S25.185,6.565,25.365,6.565z M29.103,8.716V7.412h-3.093v1.305
				H29.103z"/>
			<path fill="#FFFFFF" d="M31.553,6.565h5.031v0.847h-4.388v2.609h4.388v0.847h-5.031c-0.181,0-0.335-0.05-0.463-0.15
				c-0.128-0.1-0.191-0.22-0.191-0.361V7.076c0-0.139,0.063-0.258,0.191-0.359S31.372,6.565,31.553,6.565z"/>
			<path fill="#FFFFFF" d="M42.768,6.565v0.847h-2.194v3.456h-1.298V7.412h-2.193V6.565H42.768z"/>
		</g>
		<path fill-rule="evenodd" clip-rule="evenodd" fill="#FFFFFF" d="M48.781,2.923C41.704,2.95,34.627,2.939,27.55,2.939
			c-5.577,0-11.154,0-16.731,0c-1.575,0-3.151,0.022-4.726-0.012C5.516,2.916,5.25,3.057,5.332,3.676
			c0.083,0.639,0.107,1.285,0.163,1.927c0.159,1.853,0.316,3.706,0.483,5.558c0.234,2.592,0.481,5.183,0.714,7.775
			c0.169,1.876,0.318,3.755,0.488,5.632c0.232,2.567,0.481,5.133,0.71,7.701c0.218,2.444,0.413,4.892,0.631,7.337
			c0.233,2.616,0.502,5.23,0.707,7.851c0.04,0.517,0.216,0.75,0.693,0.881c5.697,1.56,11.389,3.133,17.087,4.686
			c0.294,0.08,0.646,0.067,0.943-0.009c1.328-0.338,2.646-0.715,3.968-1.078c4.35-1.196,8.699-2.385,13.041-3.606
			c0.298-0.084,0.719-0.387,0.755-0.635c0.174-1.225,0.236-2.466,0.342-3.7c0.164-1.928,0.326-3.854,0.499-5.781
			c0.229-2.567,0.472-5.134,0.702-7.702c0.171-1.901,0.328-3.804,0.499-5.705c0.231-2.567,0.472-5.134,0.703-7.701
			c0.169-1.877,0.325-3.755,0.495-5.632c0.23-2.542,0.453-5.086,0.713-7.625C49.743,3.126,49.518,2.92,48.781,2.923z M48.884,4.703
			c-0.25,2.45-0.465,4.903-0.688,7.355c-0.164,1.811-0.314,3.623-0.478,5.433c-0.223,2.476-0.455,4.952-0.678,7.428
			c-0.165,1.834-0.316,3.669-0.481,5.503c-0.223,2.477-0.456,4.952-0.678,7.429c-0.166,1.858-0.323,3.718-0.481,5.576
			c-0.102,1.191-0.161,2.388-0.33,3.569c-0.033,0.239-0.439,0.531-0.728,0.612c-4.188,1.179-8.384,2.324-12.578,3.479
			c-1.275,0.351-2.547,0.714-3.828,1.04c-0.287,0.073-0.626,0.086-0.91,0.009c-5.497-1.498-10.987-3.016-16.482-4.52
			c-0.46-0.126-0.63-0.352-0.669-0.85c-0.197-2.526-0.457-5.049-0.681-7.572c-0.21-2.358-0.398-4.719-0.609-7.077
			c-0.221-2.477-0.462-4.951-0.686-7.428c-0.164-1.81-0.308-3.622-0.471-5.432c-0.225-2.5-0.463-5-0.688-7.5
			C6.58,9.971,6.428,8.184,6.274,6.397c-0.053-0.62-0.077-1.243-0.157-1.858C6.039,3.941,6.295,3.805,6.852,3.816
			c1.519,0.032,3.039,0.011,4.559,0.011c5.379,0,10.759,0,16.137,0c6.827,0,13.654,0.01,20.48-0.016
			C48.737,3.81,48.955,4.008,48.884,4.703z"/>
	</g>
	<g>
		<path fill-rule="evenodd" clip-rule="evenodd" fill="#FFFFFF" d="M19.751,26.407c-0.289-1.185-0.496-2.346-0.437-3.531
			c0.028-0.567,0.099-1.145,0.246-1.692c0.45-1.673,1.663-2.359,3.355-1.943c1.309,0.322,2.415,1.025,3.454,1.846
			c0.365,0.288,0.711,0.601,1.055,0.893c0.49-0.406,0.963-0.826,1.465-1.208c0.939-0.715,1.947-1.31,3.119-1.576
			c1.528-0.347,2.649,0.261,3.171,1.728c0.333,0.939,0.411,1.916,0.321,2.897c-0.079,0.865-0.22,1.724-0.338,2.621
			c0.114,0.037,0.278,0.091,0.442,0.144c1.251,0.404,2.464,0.898,3.496,1.726c0.417,0.334,0.809,0.729,1.117,1.162
			c0.598,0.841,0.583,1.737,0.044,2.616c-0.381,0.621-0.92,1.09-1.514,1.5c-1.017,0.702-2.145,1.171-3.316,1.545
			c-0.078,0.025-0.157,0.052-0.26,0.085c0.08,0.415,0.17,0.825,0.235,1.24c0.212,1.338,0.272,2.673-0.119,3.994
			c-0.002,0.008-0.003,0.017-0.006,0.024c-0.524,1.697-1.749,2.375-3.479,1.916c-1.277-0.339-2.351-1.047-3.357-1.866
			c-0.33-0.268-0.643-0.555-0.986-0.852c-0.059,0.054-0.125,0.112-0.189,0.172c-1.07,0.977-2.219,1.837-3.595,2.348
			c-0.662,0.245-1.341,0.401-2.057,0.296c-0.773-0.114-1.337-0.527-1.719-1.194c-0.419-0.732-0.555-1.539-0.592-2.366
			c-0.053-1.152,0.108-2.283,0.367-3.403c0.017-0.072,0.03-0.145,0.05-0.241c-0.242-0.08-0.477-0.155-0.709-0.235
			c-1.286-0.441-2.518-0.995-3.529-1.92c-0.387-0.354-0.736-0.776-1.004-1.225c-0.436-0.73-0.401-1.505,0.009-2.254
			c0.322-0.589,0.795-1.042,1.328-1.438c1.112-0.824,2.375-1.332,3.69-1.728C19.588,26.462,19.665,26.435,19.751,26.407z
			 M27.397,34.996c0,0.025,0,0.052,0.001,0.077c0.733-0.026,1.468-0.046,2.2-0.087c0.119-0.007,0.285-0.082,0.342-0.178
			c0.751-1.271,1.488-2.55,2.218-3.834c0.05-0.087,0.052-0.251,0.002-0.338c-0.731-1.272-1.473-2.54-2.223-3.803
			c-0.052-0.088-0.191-0.177-0.291-0.178c-1.484-0.011-2.968-0.01-4.453-0.001c-0.09,0-0.213,0.065-0.264,0.14
			c-0.854,1.24-1.607,2.538-2.261,3.893c-0.037,0.075-0.036,0.197,0,0.272c0.655,1.354,1.419,2.647,2.269,3.89
			c0.05,0.073,0.17,0.139,0.258,0.141C25.93,35.001,26.664,34.996,27.397,34.996z M19.974,34.186
			c0.457-1.121,0.894-2.187,1.32-3.255c0.031-0.077,0.005-0.192-0.027-0.276c-0.382-0.998-0.771-1.994-1.159-2.99
			c-0.02-0.051-0.049-0.099-0.071-0.145c-1.155,0.224-2.914,1.047-3.777,1.789c-0.244,0.21-0.465,0.454-0.66,0.71
			c-0.375,0.491-0.39,1.019-0.026,1.521c0.208,0.287,0.444,0.563,0.71,0.797c0.727,0.64,1.583,1.07,2.48,1.421
			C19.172,33.916,19.592,34.051,19.974,34.186z M20.839,35.584c-0.011,0.032-0.026,0.069-0.036,0.108
			c-0.231,0.92-0.37,1.853-0.374,2.802c-0.003,0.648,0.051,1.293,0.294,1.905c0.307,0.774,0.704,1.027,1.536,0.977
			c0.165-0.01,0.332-0.038,0.492-0.079c1.149-0.29,2.112-0.922,3.022-1.646c0.31-0.246,0.6-0.516,0.865-0.744
			c-0.739-0.936-1.452-1.843-2.174-2.743c-0.051-0.064-0.165-0.1-0.253-0.11c-0.413-0.052-0.83-0.078-1.242-0.138
			C22.262,35.814,21.556,35.696,20.839,35.584z M34.075,35.542c-0.991,0.152-1.934,0.344-2.886,0.423
			c-0.54,0.045-0.854,0.254-1.154,0.682c-0.538,0.768-1.151,1.481-1.755,2.245c0.307,0.266,0.623,0.559,0.96,0.827
			c0.836,0.668,1.718,1.266,2.766,1.562c1.232,0.349,1.896-0.018,2.226-1.253C34.635,38.515,34.405,37.019,34.075,35.542z
			 M26.596,22.777c-0.952-0.892-2.001-1.715-3.268-2.221c-0.314-0.125-0.65-0.212-0.984-0.272c-0.794-0.142-1.278,0.13-1.585,0.875
			c-0.088,0.213-0.157,0.438-0.202,0.665c-0.199,1.007-0.133,2.015,0.029,3.02c0.069,0.43,0.168,0.855,0.245,1.242
			c1.175-0.168,2.304-0.328,3.432-0.494c0.066-0.01,0.144-0.048,0.184-0.099C25.161,24.597,25.87,23.696,26.596,22.777z
			 M34.003,26.136c0.298-1.231,0.467-2.458,0.352-3.71c-0.051-0.54-0.169-1.063-0.437-1.544c-0.268-0.48-0.679-0.698-1.223-0.641
			c-0.271,0.028-0.547,0.076-0.807,0.156c-0.913,0.282-1.704,0.791-2.449,1.371c-0.418,0.326-0.813,0.682-1.183,0.994
			c0.728,0.93,1.427,1.828,2.134,2.719c0.053,0.066,0.161,0.109,0.249,0.122c0.677,0.1,1.355,0.181,2.03,0.285
			C33.112,25.955,33.55,26.05,34.003,26.136z M34.908,34.125c1.436-0.468,2.852-1.016,3.971-2.114
			c0.192-0.188,0.35-0.422,0.488-0.655c0.221-0.371,0.23-0.772-0.016-1.13c-0.209-0.305-0.441-0.609-0.721-0.849
			c-1.104-0.944-2.436-1.439-3.818-1.861c-0.031,0.082-0.056,0.15-0.082,0.218c-0.366,0.933-0.722,1.87-1.104,2.795
			c-0.085,0.205-0.076,0.358,0.009,0.556C34.062,32.08,34.474,33.083,34.908,34.125z M31.297,34.857
			c0.85-0.145,1.645-0.28,2.483-0.424c-0.312-0.807-0.598-1.55-0.896-2.322C32.35,33.036,31.845,33.91,31.297,34.857z
			 M21.972,32.151c-0.292,0.795-0.566,1.544-0.856,2.334c0.843,0.135,1.626,0.26,2.444,0.39
			C23.024,33.957,22.514,33.081,21.972,32.151z M29.021,36.171c-1.077,0-2.084,0-3.161,0c0.553,0.657,1.067,1.267,1.608,1.907
			C28,37.426,28.495,36.817,29.021,36.171z M31.299,26.796c0.54,0.926,1.045,1.792,1.574,2.702c0.288-0.771,0.561-1.503,0.851-2.281
			C32.896,27.074,32.123,26.939,31.299,26.796z M27.435,23.591c-0.541,0.643-1.045,1.242-1.578,1.875c1.068,0,2.074,0,3.139,0
			C28.467,24.83,27.969,24.233,27.435,23.591z M23.533,26.793c-0.825,0.143-1.593,0.276-2.405,0.417
			c0.29,0.781,0.562,1.51,0.847,2.277C22.504,28.573,23,27.714,23.533,26.793z"/>
		<path fill-rule="evenodd" clip-rule="evenodd" fill="#FFFFFF" d="M29.78,30.81c0.003-1.299-1.042-2.359-2.332-2.366
			c-1.323-0.007-2.384,1.044-2.387,2.364c-0.002,1.283,1.061,2.338,2.358,2.342C28.714,33.153,29.777,32.099,29.78,30.81z"/>
		<path fill-rule="evenodd" clip-rule="evenodd" fill="#FFFFFF" d="M29.78,30.81c-0.003,1.289-1.066,2.344-2.36,2.34
			c-1.298-0.004-2.36-1.059-2.358-2.342c0.002-1.32,1.063-2.371,2.387-2.364C28.738,28.45,29.783,29.511,29.78,30.81z"/>
	</g>
</g>
</svg>
