<?xml version="1.0" encoding="utf-8"?>
<!-- Generator: Adobe Illustrator 16.0.3, SVG Export Plug-In . SVG Version: 6.00 Build 0)  -->
<!DOCTYPE svg PUBLIC "-//W3C//DTD SVG 1.1//EN" "http://www.w3.org/Graphics/SVG/1.1/DTD/svg11.dtd">
<svg version="1.1" id="Layer_1" xmlns="http://www.w3.org/2000/svg" xmlns:xlink="http://www.w3.org/1999/xlink" x="0px" y="0px"
	 width="55px" height="55px" viewBox="0 0 55 55" enable-background="new 0 0 55 55" xml:space="preserve">
<g>
	<g>
		<path fill-rule="evenodd" clip-rule="evenodd" fill="#7649BB" d="M27.551,2.016c7.337,0,14.676,0.011,22.014-0.017
			c0.763-0.002,0.997,0.211,0.921,0.958c-0.27,2.633-0.5,5.27-0.739,7.906c-0.176,1.946-0.338,3.894-0.514,5.84
			c-0.239,2.662-0.488,5.322-0.728,7.984c-0.178,1.972-0.341,3.944-0.519,5.916c-0.239,2.662-0.489,5.323-0.728,7.985
			c-0.179,1.997-0.348,3.996-0.518,5.994c-0.109,1.28-0.174,2.567-0.354,3.837c-0.037,0.257-0.474,0.571-0.782,0.658
			c-4.502,1.266-9.013,2.498-13.521,3.738c-1.37,0.377-2.737,0.768-4.114,1.119c-0.309,0.078-0.673,0.092-0.978,0.009
			c-5.909-1.61-11.811-3.242-17.717-4.858c-0.495-0.136-0.677-0.378-0.719-0.914c-0.212-2.716-0.49-5.426-0.732-8.14
			c-0.226-2.534-0.428-5.071-0.654-7.606c-0.238-2.662-0.496-5.322-0.737-7.984c-0.176-1.946-0.331-3.893-0.506-5.839
			c-0.242-2.688-0.498-5.374-0.74-8.061c-0.173-1.92-0.336-3.842-0.501-5.763C4.626,4.112,4.602,3.442,4.515,2.781
			C4.431,2.138,4.706,1.992,5.304,2.004c1.633,0.035,3.267,0.012,4.9,0.012C15.987,2.016,21.769,2.016,27.551,2.016z"/>
		<path opacity="0.2" fill-rule="evenodd" clip-rule="evenodd" fill="#FFFFFF" d="M45.155,12.383
			c0.176-2.15,0.348-4.301,0.547-6.448c0.061-0.654-0.125-0.84-0.729-0.837c-5.811,0.024-11.621,0.014-17.432,0.014
			c-0.013,0-0.027,0-0.041,0v7.271H45.155z"/>
		<path opacity="0.2" fill-rule="evenodd" clip-rule="evenodd" fill="#FFFFFF" d="M27.418,13.252l0.164,38.002
			c0.127-0.005,0.255-0.024,0.372-0.058c1.089-0.313,2.17-0.659,3.254-0.993c3.565-1.101,7.133-2.194,10.692-3.317
			c0.244-0.077,0.589-0.354,0.617-0.579c0.138-1.111,0.185-2.237,0.266-3.357c0.128-1.75,0.253-3.499,0.387-5.248
			c0.18-2.33,0.367-4.659,0.547-6.99c0.133-1.726,0.255-3.452,0.388-5.178c0.18-2.33,0.367-4.659,0.547-6.989
			c0.131-1.704,0.252-3.409,0.384-5.112c0.007-0.085,0.014-0.17,0.021-0.255L27.418,13.252z"/>
		<path fill-rule="evenodd" clip-rule="evenodd" fill="#FFFFFF" d="M48.781,2.923C41.704,2.95,34.627,2.939,27.55,2.939
			c-5.577,0-11.154,0-16.731,0c-1.575,0-3.151,0.022-4.726-0.011C5.516,2.916,5.25,3.057,5.332,3.677
			c0.083,0.638,0.107,1.284,0.163,1.926c0.159,1.853,0.316,3.706,0.483,5.558c0.234,2.592,0.481,5.183,0.714,7.775
			c0.169,1.876,0.318,3.755,0.488,5.632c0.232,2.568,0.481,5.133,0.71,7.701c0.218,2.444,0.413,4.892,0.631,7.337
			c0.233,2.616,0.502,5.23,0.707,7.851c0.04,0.517,0.216,0.75,0.693,0.881c5.697,1.56,11.389,3.133,17.087,4.686
			c0.294,0.08,0.646,0.067,0.943-0.009c1.328-0.339,2.646-0.715,3.968-1.078c4.35-1.197,8.699-2.385,13.041-3.606
			c0.298-0.084,0.719-0.387,0.755-0.635c0.174-1.225,0.236-2.466,0.342-3.7c0.164-1.928,0.326-3.855,0.499-5.782
			c0.229-2.566,0.472-5.133,0.702-7.701c0.171-1.901,0.328-3.803,0.499-5.705c0.231-2.567,0.472-5.134,0.703-7.701
			c0.169-1.877,0.325-3.756,0.495-5.633c0.23-2.542,0.453-5.085,0.713-7.625C49.743,3.126,49.518,2.921,48.781,2.923z M48.884,4.703
			c-0.25,2.449-0.465,4.903-0.688,7.355c-0.164,1.811-0.314,3.622-0.478,5.433c-0.223,2.476-0.455,4.951-0.678,7.428
			c-0.165,1.834-0.316,3.669-0.481,5.503c-0.223,2.477-0.456,4.952-0.678,7.429c-0.166,1.858-0.323,3.718-0.481,5.576
			c-0.102,1.191-0.161,2.388-0.33,3.569c-0.033,0.239-0.439,0.531-0.728,0.612c-4.188,1.179-8.384,2.324-12.578,3.478
			c-1.275,0.352-2.547,0.715-3.828,1.041c-0.287,0.073-0.626,0.086-0.91,0.009c-5.497-1.498-10.987-3.016-16.482-4.52
			c-0.46-0.126-0.63-0.352-0.669-0.851c-0.197-2.526-0.457-5.048-0.681-7.571c-0.21-2.358-0.398-4.719-0.609-7.077
			c-0.221-2.477-0.462-4.951-0.686-7.428c-0.164-1.81-0.308-3.622-0.471-5.432c-0.225-2.5-0.463-5-0.688-7.5
			C6.58,9.971,6.428,8.184,6.274,6.397c-0.053-0.62-0.077-1.243-0.157-1.859C6.039,3.941,6.295,3.805,6.852,3.816
			c1.519,0.032,3.039,0.011,4.559,0.011c5.379,0,10.759,0,16.137,0c6.827,0,13.654,0.01,20.48-0.016
			C48.737,3.81,48.955,4.008,48.884,4.703z"/>
		<g>
			<path fill="#FFFFFF" d="M19.42,6.88c0.132,0,0.246,0.046,0.342,0.139c0.096,0.093,0.145,0.203,0.145,0.33v1.809
				c0,0.13-0.049,0.241-0.145,0.332c-0.097,0.091-0.21,0.136-0.342,0.136h-0.084l0.753,1.198h-1.122l-0.753-1.198h-1.562v1.198
				h-0.958V6.88H19.42z M18.946,8.852V7.656h-2.293v1.196H18.946z"/>
			<path fill="#FFFFFF" d="M23.709,9.238h-2.291v0.809h3.252v0.775h-4.213V6.88h4.213v0.776h-3.252v0.806h2.291V9.238z"/>
			<path fill="#FFFFFF" d="M29.106,7.019c0.097,0.093,0.146,0.203,0.146,0.33v3.006c0,0.129-0.049,0.239-0.146,0.331
				c-0.096,0.091-0.21,0.137-0.342,0.137h-3.726V6.88h3.726C28.896,6.88,29.011,6.926,29.106,7.019z M25.997,7.656v2.391h2.294
				V7.656H25.997z"/>
			<path fill="#FFFFFF" d="M32.872,6.88h0.959v3.475c0,0.129-0.048,0.239-0.143,0.331s-0.209,0.137-0.342,0.137h-3.242
				c-0.133,0-0.247-0.046-0.342-0.137s-0.143-0.202-0.143-0.331V6.88h0.959v3.167h2.293V6.88z"/>
			<path fill="#FFFFFF" d="M34.226,6.88h1.077l1.019,1.282l1.035-1.282h1.079l-1.563,1.972l1.563,1.971h-1.079l-1.035-1.282
				l-1.019,1.282h-1.104l1.58-1.971L34.226,6.88z"/>
		</g>
	</g>
	<g>
		<path fill-rule="evenodd" clip-rule="evenodd" fill="#FFFFFF" d="M34.492,27.464c-0.417-0.108-0.833-0.199-1.234-0.333
			c-0.097-0.032-0.184-0.198-0.208-0.317c-0.289-1.432-0.839-2.743-1.792-3.87c-1.245-1.473-2.806-1.845-4.639-1.347
			c-2.11,0.575-3.312,2.063-3.927,4.02c-1.049,3.34-0.583,6.534,1.195,9.548c0.134,0.228,0.306,0.225,0.521,0.229
			c0.991,0.023,1.817,0.847,1.774,1.754c-0.045,0.958-0.847,1.707-1.799,1.681c-1.112-0.032-1.916-1.165-1.602-2.225
			c0.055-0.186,0.053-0.447-0.039-0.607c-1.004-1.735-1.733-3.572-1.934-5.568c-0.291-2.896,0.174-5.635,2.07-7.969
			c1.162-1.43,2.691-2.294,4.544-2.449c1.711-0.144,3.184,0.476,4.445,1.624C33.309,22.947,34.458,25.468,34.492,27.464z"/>
		<path fill-rule="evenodd" clip-rule="evenodd" fill="#FFFFFF" d="M30.432,42.688c0.433-0.368,0.777-0.682,1.146-0.965
			c0.088-0.066,0.27-0.073,0.383-0.035c1.009,0.338,2.037,0.496,3.104,0.466c2.162-0.06,4.127-1.665,4.522-3.771
			c0.207-1.103-0.037-2.151-0.521-3.158c-1.043-2.172-2.81-3.557-4.953-4.529c-1.81-0.82-3.714-1.158-5.696-1.037
			c-0.146,0.009-0.334,0.121-0.419,0.243c-0.48,0.684-1.143,0.983-1.877,0.811c-0.741-0.173-1.262-0.781-1.351-1.576
			c-0.065-0.59,0.408-1.356,1.006-1.626c0.687-0.311,1.496-0.187,1.958,0.382c0.241,0.296,0.488,0.355,0.833,0.349
			c2.967-0.058,5.733,0.616,8.175,2.344c1.808,1.277,3.269,2.848,3.938,5.02c0.342,1.109,0.397,2.232,0.169,3.37
			c-0.317,1.579-1.339,2.64-2.654,3.434c-1.979,1.196-4.111,1.354-6.317,0.75C31.417,43.031,30.969,42.863,30.432,42.688z"/>
		<path fill-rule="evenodd" clip-rule="evenodd" fill="#FFFFFF" d="M19.342,31.354c0.135,0.462,0.271,0.863,0.357,1.274
			c0.022,0.107-0.081,0.279-0.177,0.366c-1.119,1.021-1.969,2.207-2.282,3.711c-0.488,2.348,1.021,5.228,4.147,5.537
			c2.996,0.296,5.417-0.912,7.645-2.696c1.141-0.913,2.036-2.03,2.702-3.33c0.109-0.214,0.107-0.359-0.041-0.556
			c-0.474-0.625-0.49-1.387-0.073-1.989c0.416-0.602,1.137-0.873,1.843-0.696c0.71,0.18,1.232,0.784,1.317,1.522
			c0.084,0.732-0.442,1.527-1.197,1.763c-0.256,0.08-0.408,0.212-0.528,0.453c-1.971,3.937-5.21,6.161-9.526,6.853
			c-1.949,0.313-3.809-0.016-5.449-1.204c-1.234-0.894-1.854-2.151-2.072-3.607c-0.411-2.746,0.643-4.954,2.625-6.796
			C18.849,31.759,19.081,31.576,19.342,31.354z"/>
	</g>
</g>
</svg>
