<?xml version="1.0" encoding="utf-8"?>
<!-- Generator: Adobe Illustrator 16.0.3, SVG Export Plug-In . SVG Version: 6.00 Build 0)  -->
<!DOCTYPE svg PUBLIC "-//W3C//DTD SVG 1.1//EN" "http://www.w3.org/Graphics/SVG/1.1/DTD/svg11.dtd">
<svg version="1.1" id="Layer_1" xmlns="http://www.w3.org/2000/svg" xmlns:xlink="http://www.w3.org/1999/xlink" x="0px" y="0px"
	 width="55px" height="55px" viewBox="0 0 55 55" enable-background="new 0 0 55 55" xml:space="preserve">
<g>
	<g>
		<path fill-rule="evenodd" clip-rule="evenodd" fill="#CF649A" d="M27.551,2.016c7.337,0,14.675,0.011,22.013-0.017
			c0.764-0.002,0.998,0.211,0.922,0.958c-0.27,2.633-0.501,5.27-0.739,7.906c-0.177,1.946-0.339,3.894-0.514,5.84
			c-0.239,2.662-0.489,5.322-0.728,7.984c-0.178,1.972-0.341,3.944-0.519,5.916c-0.239,2.662-0.49,5.323-0.729,7.985
			c-0.179,1.997-0.347,3.996-0.518,5.994c-0.109,1.28-0.173,2.567-0.354,3.837c-0.037,0.257-0.474,0.571-0.783,0.658
			c-4.501,1.266-9.012,2.498-13.521,3.738c-1.37,0.377-2.737,0.768-4.114,1.119c-0.309,0.078-0.674,0.092-0.978,0.009
			c-5.908-1.61-11.811-3.242-17.717-4.858c-0.496-0.136-0.678-0.378-0.719-0.914c-0.212-2.716-0.491-5.426-0.732-8.14
			c-0.226-2.534-0.428-5.071-0.655-7.606c-0.237-2.662-0.496-5.322-0.736-7.984c-0.176-1.946-0.332-3.893-0.506-5.839
			c-0.242-2.688-0.498-5.374-0.741-8.061c-0.173-1.92-0.336-3.842-0.501-5.763C4.626,4.112,4.602,3.442,4.515,2.781
			C4.43,2.138,4.706,1.992,5.304,2.004c1.633,0.035,3.267,0.012,4.901,0.012C15.987,2.016,21.769,2.016,27.551,2.016z"/>
		<path opacity="0.2" fill-rule="evenodd" clip-rule="evenodd" fill="#FFFFFF" d="M45.155,12.383
			c0.175-2.15,0.348-4.301,0.547-6.448c0.061-0.654-0.125-0.84-0.729-0.837c-5.811,0.024-11.622,0.014-17.432,0.014
			c-0.014,0-0.027,0-0.041,0v7.271H45.155z"/>
		<path opacity="0.2" fill-rule="evenodd" clip-rule="evenodd" fill="#FFFFFF" d="M27.418,13.252l0.164,38.002
			c0.127-0.005,0.255-0.024,0.372-0.058c1.089-0.313,2.17-0.659,3.254-0.993c3.565-1.101,7.132-2.194,10.691-3.317
			c0.245-0.077,0.59-0.354,0.617-0.579c0.139-1.111,0.186-2.237,0.267-3.357c0.127-1.75,0.253-3.499,0.387-5.248
			c0.179-2.33,0.367-4.659,0.547-6.99c0.133-1.726,0.255-3.452,0.388-5.178c0.18-2.33,0.367-4.659,0.547-6.989
			c0.131-1.704,0.252-3.409,0.384-5.112c0.007-0.085,0.014-0.17,0.02-0.255L27.418,13.252z"/>
		<path fill-rule="evenodd" clip-rule="evenodd" fill="#FFFFFF" d="M48.781,2.923C41.704,2.95,34.627,2.939,27.549,2.939
			c-5.577,0-11.153,0-16.73,0c-1.576,0-3.152,0.022-4.727-0.011C5.516,2.916,5.25,3.057,5.332,3.677
			c0.083,0.638,0.107,1.284,0.163,1.926c0.159,1.853,0.316,3.706,0.484,5.558c0.234,2.592,0.48,5.183,0.714,7.775
			c0.169,1.876,0.319,3.755,0.488,5.632c0.232,2.568,0.481,5.133,0.71,7.701c0.218,2.444,0.414,4.892,0.631,7.337
			c0.234,2.616,0.502,5.23,0.707,7.851c0.04,0.517,0.216,0.75,0.693,0.881c5.697,1.56,11.39,3.133,17.088,4.686
			c0.293,0.08,0.646,0.067,0.943-0.009c1.328-0.339,2.646-0.715,3.968-1.078c4.349-1.197,8.699-2.385,13.041-3.606
			c0.298-0.084,0.719-0.387,0.754-0.635c0.175-1.225,0.236-2.466,0.342-3.7c0.165-1.928,0.327-3.855,0.499-5.782
			c0.23-2.566,0.472-5.133,0.703-7.701c0.171-1.901,0.328-3.803,0.499-5.705c0.231-2.567,0.472-5.134,0.703-7.701
			c0.169-1.877,0.324-3.756,0.494-5.633c0.23-2.542,0.454-5.085,0.714-7.625C49.743,3.126,49.518,2.921,48.781,2.923z M48.884,4.703
			c-0.251,2.449-0.466,4.903-0.688,7.355c-0.164,1.811-0.314,3.622-0.478,5.433c-0.224,2.476-0.455,4.951-0.678,7.428
			c-0.165,1.834-0.317,3.669-0.482,5.503c-0.222,2.477-0.455,4.952-0.677,7.429c-0.167,1.858-0.323,3.718-0.481,5.576
			c-0.102,1.191-0.161,2.388-0.33,3.569c-0.034,0.239-0.44,0.531-0.728,0.612c-4.188,1.179-8.384,2.324-12.578,3.478
			c-1.275,0.352-2.547,0.715-3.828,1.041c-0.288,0.073-0.626,0.086-0.91,0.009c-5.496-1.498-10.987-3.016-16.481-4.52
			c-0.461-0.126-0.63-0.352-0.669-0.851c-0.197-2.526-0.456-5.048-0.681-7.571c-0.21-2.358-0.398-4.719-0.609-7.077
			c-0.221-2.477-0.461-4.951-0.686-7.428c-0.164-1.81-0.308-3.622-0.471-5.432c-0.226-2.5-0.463-5-0.689-7.5
			C6.58,9.971,6.428,8.184,6.274,6.397c-0.053-0.62-0.076-1.243-0.157-1.859C6.038,3.941,6.295,3.805,6.852,3.816
			c1.519,0.032,3.039,0.011,4.559,0.011c5.379,0,10.758,0,16.137,0c6.827,0,13.653,0.01,20.479-0.016
			C48.737,3.81,48.954,4.008,48.884,4.703z"/>
		<g>
			<path fill="#FFFFFF" d="M9.868,6.659h3.003v0.668h-2.595v0.695h2.384c0.113,0,0.211,0.04,0.293,0.12
				c0.083,0.081,0.124,0.175,0.124,0.285v1.225c0,0.111-0.041,0.206-0.124,0.285c-0.083,0.079-0.18,0.118-0.293,0.118H9.448V9.387
				h2.801V8.69H9.868c-0.115,0-0.214-0.04-0.296-0.118C9.489,8.493,9.448,8.397,9.448,8.287V7.062c0-0.109,0.042-0.204,0.124-0.284
				C9.654,6.699,9.752,6.659,9.868,6.659z"/>
			<path fill="#FFFFFF" d="M13.812,6.659h2.794c0.113,0,0.211,0.04,0.294,0.119c0.082,0.08,0.124,0.174,0.124,0.284v2.993h-0.828
				V9.023h-1.973v1.032h-0.828V7.062c0-0.109,0.041-0.204,0.123-0.284C13.599,6.699,13.697,6.659,13.812,6.659z M16.195,8.357v-1.03
				h-1.973v1.03H16.195z"/>
			<path fill="#FFFFFF" d="M17.761,6.659h3.003v0.668h-2.595v0.695h2.384c0.113,0,0.211,0.04,0.293,0.12
				c0.083,0.081,0.124,0.175,0.124,0.285v1.225c0,0.111-0.041,0.206-0.124,0.285c-0.083,0.079-0.18,0.118-0.293,0.118h-3.212V9.387
				h2.801V8.69h-2.381c-0.115,0-0.214-0.04-0.296-0.118c-0.082-0.079-0.124-0.174-0.124-0.285V7.062
				c0-0.109,0.042-0.204,0.124-0.284C17.547,6.699,17.646,6.659,17.761,6.659z"/>
			<path fill="#FFFFFF" d="M21.707,6.659h3.003v0.668h-2.595v0.695h2.384c0.113,0,0.211,0.04,0.294,0.12
				c0.082,0.081,0.123,0.175,0.123,0.285v1.225c0,0.111-0.041,0.206-0.123,0.285c-0.083,0.079-0.181,0.118-0.294,0.118h-3.212V9.387
				h2.801V8.69h-2.381c-0.115,0-0.214-0.04-0.296-0.118c-0.082-0.079-0.124-0.174-0.124-0.285V7.062
				c0-0.109,0.042-0.204,0.124-0.284C21.493,6.699,21.592,6.659,21.707,6.659z"/>
			<path fill="#FFFFFF" d="M26.209,10.109l0.964-3.321H27.5l-0.962,3.321H26.209z"/>
			<path fill="#FFFFFF" d="M29.368,6.659h3.003v0.668h-2.595v0.695h2.384c0.114,0,0.212,0.04,0.294,0.12
				c0.082,0.081,0.124,0.175,0.124,0.285v1.225c0,0.111-0.042,0.206-0.124,0.285c-0.082,0.079-0.18,0.118-0.294,0.118h-3.212V9.387
				h2.802V8.69h-2.382c-0.114,0-0.213-0.04-0.296-0.118c-0.082-0.079-0.124-0.174-0.124-0.285V7.062
				c0-0.109,0.042-0.204,0.124-0.284C29.155,6.699,29.254,6.659,29.368,6.659z"/>
			<path fill="#FFFFFF" d="M33.313,6.659h3.21v0.668h-2.799v2.06h2.799v0.668h-3.21c-0.114,0-0.213-0.04-0.295-0.118
				c-0.081-0.079-0.122-0.174-0.122-0.285v-2.59c0-0.109,0.041-0.204,0.122-0.284C33.1,6.699,33.198,6.659,33.313,6.659z"/>
			<path fill="#FFFFFF" d="M37.26,6.659h3.002v0.668h-2.595v0.695h2.384c0.113,0,0.212,0.04,0.294,0.12
				c0.083,0.081,0.124,0.175,0.124,0.285v1.225c0,0.111-0.041,0.206-0.124,0.285c-0.082,0.079-0.181,0.118-0.294,0.118H36.84V9.387
				h2.801V8.69H37.26c-0.115,0-0.214-0.04-0.297-0.118c-0.082-0.079-0.123-0.174-0.123-0.285V7.062c0-0.109,0.041-0.204,0.123-0.284
				C37.046,6.699,37.145,6.659,37.26,6.659z"/>
			<path fill="#FFFFFF" d="M41.206,6.659h3.003v0.668h-2.595v0.695h2.384c0.113,0,0.211,0.04,0.293,0.12
				c0.083,0.081,0.124,0.175,0.124,0.285v1.225c0,0.111-0.041,0.206-0.124,0.285c-0.082,0.079-0.18,0.118-0.293,0.118h-3.212V9.387
				h2.801V8.69h-2.381c-0.115,0-0.214-0.04-0.296-0.118c-0.083-0.079-0.124-0.174-0.124-0.285V7.062
				c0-0.109,0.041-0.204,0.124-0.284C40.992,6.699,41.091,6.659,41.206,6.659z"/>
		</g>
	</g>
	<g>
		<path fill-rule="evenodd" clip-rule="evenodd" fill="#FFFFFF" d="M27.403,19.287c0.389,0.129,0.776,0.26,1.165,0.387
			c0.146,0.048,0.301,0.077,0.444,0.132c2.436,0.943,2.981,2.874,2.008,5.082c-1.082,2.456-3.094,3.804-5.646,4.415
			c-1.411,0.338-2.859,0.537-4.253,0.008c-0.547-0.207-0.993-0.694-1.462-1.081c-0.108-0.09-0.125-0.29-0.14-0.491
			c1.506,1.285,3.195,1.085,4.876,0.652c2.035-0.525,3.778-1.539,4.923-3.359c0.281-0.447,0.481-0.978,0.586-1.496
			c0.237-1.173-0.515-2.041-1.885-2.325c-1.407-0.291-2.791-0.164-4.158,0.198c-2.925,0.774-5.521,2.166-7.72,4.239
			c-0.784,0.739-1.353,1.633-1.455,2.762c-0.089,0.976,0.201,1.82,0.899,2.475c0.847,0.793,1.764,1.513,2.651,2.264
			c0.192,0.162,0.426,0.292,0.574,0.487c0.421,0.559,0.864,0.597,1.434,0.205c0.429-0.296,0.933-0.482,1.368-0.77
			c0.478-0.316,0.914-0.695,1.373-1.04c0.493-0.371,0.951-0.817,1.497-1.084c0.966-0.471,1.655,0.021,1.638,1.092
			c-0.002,0.17-0.033,0.339-0.057,0.57c0.129-0.024,0.213-0.044,0.298-0.056c0.544-0.076,0.769,0.164,0.638,0.691
			c-0.223,0.901-0.464,1.797-0.668,2.702c-0.068,0.301-0.045,0.622-0.064,0.934c0.068,0.018,0.137,0.034,0.206,0.052
			c0.292-0.575,0.603-1.141,0.87-1.727c0.608-1.337,1.196-2.683,1.788-4.026c0.093-0.212,0.173-0.431,0.24-0.652
			c0.228-0.751,0.618-1.006,1.406-0.895c0.388,0.056,0.592,0.185,0.413,0.655c-0.396,1.037-0.371,2.067,0.422,3.229
			c0.038-0.132,0.053-0.276,0.117-0.395c0.669-1.237,1.496-2.396,1.81-3.806c0.107-0.487,1.413-0.806,1.727-0.428
			c0.095,0.114,0.047,0.399-0.017,0.578c-0.367,1.047-0.29,2.036,0.233,3.024c0.209,0.394,0.39,0.402,0.771,0.26
			c1.656-0.622,3.301-0.69,4.876,0.264c0.65,0.396,1.114,0.953,1.394,1.663c0.045,0.112,0.136,0.208,0.206,0.312
			c0,0.349,0,0.698,0,1.047c-0.101,0.128-0.216,0.249-0.301,0.387c-0.321,0.521-0.802,0.858-1.225,0.844
			c1.374-1.134,1.224-2.675-0.414-3.511c-1.51-0.771-3.097-0.72-4.667-0.209c-0.018,0.093-0.036,0.133-0.03,0.168
			c0.021,0.113,0.039,0.229,0.08,0.337c0.315,0.828,0.102,1.546-0.556,2.085c-0.472,0.387-1.014,0.71-1.57,0.963
			c-0.253,0.115-0.751,0.111-0.896-0.052c-0.2-0.226-0.284-0.675-0.218-0.986c0.18-0.859,0.73-1.533,1.382-2.094
			c0.265-0.227,0.29-0.366,0.16-0.665c-0.221-0.512-0.376-1.051-0.564-1.576c-0.045-0.124-0.113-0.24-0.202-0.424
			c-0.628,1.007-1.206,1.913-1.754,2.837c-0.068,0.114,0.024,0.322,0.039,0.486c0.05,0.549,0.226,1.122,0.119,1.64
			c-0.223,1.09-1.593,1.935-2.947,1.907c-0.238-0.005-0.56-0.123-0.681-0.299c-0.083-0.121,0.058-0.475,0.194-0.651
			c0.543-0.703,1.133-1.372,1.685-2.069c0.12-0.151,0.261-0.408,0.209-0.551c-0.277-0.766-0.612-1.511-0.958-2.334
			c-0.099,0.142-0.196,0.248-0.256,0.372c-0.766,1.581-1.507,3.174-2.302,4.741c-0.202,0.398-0.526,0.766-0.873,1.055
			c-0.432,0.36-0.872,0.21-1.036-0.329c-0.105-0.345-0.095-0.723-0.137-1.086c-0.016-0.133-0.033-0.265-0.049-0.396
			c-0.41,0.551-0.691,1.116-0.983,1.677c-0.216,0.415-0.526,0.749-1.026,0.746c-0.499-0.002-0.797-0.339-1.022-0.753
			c-0.492-0.902-0.631-1.861-0.466-2.866c0.079-0.477,0.184-0.949,0.305-1.562c-0.565,0.324-0.99,0.586-1.433,0.816
			c-0.285,0.148-0.318,0.326-0.217,0.612c0.97,2.754-0.848,5.771-3.522,6.378c-0.073,0.017-0.126,0.117-0.189,0.178
			c-0.507,0-1.014,0-1.521,0c-0.234-0.144-0.492-0.26-0.697-0.438c-0.896-0.78-0.983-2.158-0.196-3.334
			c0.661-0.987,1.62-1.65,2.619-2.257c0.586-0.356,1.184-0.692,1.869-1.091c-0.573-0.412-1.054-0.759-1.537-1.104
			c-1.292-0.921-2.659-1.761-3.602-3.079c-0.338-0.474-0.61-0.994-0.913-1.493c0-0.388,0-0.775,0-1.163
			c0.099-0.191,0.216-0.375,0.294-0.574c0.638-1.615,1.768-2.849,3.121-3.882c2.586-1.974,5.439-3.39,8.677-3.966
			c0.11-0.019,0.205-0.122,0.308-0.186C25.688,19.287,26.546,19.287,27.403,19.287z M19.06,35.201
			c-1.042,0.78-2.075,1.434-2.947,2.256c-0.439,0.414-0.72,1.107-0.837,1.719c-0.172,0.894,0.252,1.196,1.16,1.013
			C18.453,39.778,19.815,37.363,19.06,35.201z M22.803,36.008c0.049,0.322,0.078,0.649,0.157,0.964
			c0.032,0.126,0.166,0.298,0.273,0.313c0.113,0.017,0.267-0.11,0.369-0.21c0.094-0.09,0.16-0.22,0.207-0.345
			c0.505-1.356,1.017-2.711,1.493-4.077c0.079-0.225-0.004-0.505-0.012-0.76c-0.284,0.084-0.582,0.138-0.846,0.263
			c-0.165,0.079-0.299,0.25-0.41,0.405C23.304,33.593,22.814,34.709,22.803,36.008z M34.939,34.193
			c-0.605,0.608-1.077,1.229-1.153,2.119C34.834,36.095,35.34,35.173,34.939,34.193z M29.458,37.312
			c0.872-0.149,1.539-0.928,1.447-1.67C30.418,36.203,29.965,36.727,29.458,37.312z"/>
	</g>
</g>
</svg>
