<?xml version="1.0" encoding="utf-8"?>
<!-- Generator: Adobe Illustrator 16.0.3, SVG Export Plug-In . SVG Version: 6.00 Build 0)  -->
<!DOCTYPE svg PUBLIC "-//W3C//DTD SVG 1.1//EN" "http://www.w3.org/Graphics/SVG/1.1/DTD/svg11.dtd">
<svg version="1.1" id="Layer_1" xmlns="http://www.w3.org/2000/svg" xmlns:xlink="http://www.w3.org/1999/xlink" x="0px" y="0px"
	 width="55px" height="55px" viewBox="0 0 55 55" enable-background="new 0 0 55 55" xml:space="preserve">
<g>
	<g>
		<g>
			<path fill-rule="evenodd" clip-rule="evenodd" fill="#C62ADD" d="M27.551,2.016c7.337,0,14.676,0.011,22.013-0.017
				c0.764-0.003,0.998,0.21,0.922,0.958c-0.269,2.633-0.5,5.27-0.739,7.906c-0.177,1.946-0.338,3.894-0.514,5.84
				c-0.239,2.662-0.489,5.323-0.728,7.985c-0.178,1.971-0.341,3.945-0.519,5.916c-0.239,2.662-0.489,5.323-0.729,7.985
				c-0.179,1.997-0.347,3.996-0.517,5.994c-0.109,1.28-0.174,2.567-0.354,3.837c-0.037,0.257-0.474,0.571-0.782,0.658
				c-4.501,1.266-9.013,2.498-13.521,3.738c-1.37,0.377-2.737,0.768-4.114,1.119c-0.309,0.078-0.674,0.092-0.978,0.009
				c-5.908-1.61-11.81-3.242-17.717-4.858c-0.495-0.136-0.677-0.378-0.719-0.914c-0.211-2.716-0.491-5.426-0.732-8.14
				c-0.227-2.534-0.429-5.071-0.655-7.606c-0.238-2.662-0.496-5.323-0.737-7.984c-0.176-1.946-0.331-3.894-0.506-5.839
				c-0.242-2.688-0.498-5.374-0.74-8.062C5.012,8.62,4.849,6.699,4.684,4.778C4.626,4.112,4.602,3.442,4.515,2.781
				c-0.084-0.643,0.191-0.789,0.79-0.776c1.633,0.034,3.267,0.012,4.9,0.012C15.987,2.016,21.769,2.016,27.551,2.016z"/>
			<path opacity="0.2" fill-rule="evenodd" clip-rule="evenodd" fill="#FFFFFF" d="M45.155,12.383
				c0.176-2.15,0.348-4.301,0.547-6.448c0.061-0.654-0.125-0.84-0.729-0.838c-5.811,0.024-11.621,0.015-17.432,0.015
				c-0.014,0-0.027,0-0.041,0v7.271H45.155z"/>
			<path opacity="0.2" fill-rule="evenodd" clip-rule="evenodd" fill="#FFFFFF" d="M27.418,13.251l0.164,38.002
				c0.127-0.005,0.255-0.024,0.372-0.058c1.089-0.313,2.17-0.659,3.254-0.993c3.565-1.101,7.132-2.194,10.692-3.317
				c0.244-0.077,0.589-0.354,0.617-0.579c0.138-1.111,0.185-2.237,0.266-3.357c0.128-1.75,0.254-3.499,0.387-5.248
				c0.18-2.33,0.367-4.659,0.547-6.989c0.133-1.726,0.255-3.453,0.388-5.179c0.18-2.33,0.367-4.66,0.547-6.99
				c0.131-1.704,0.252-3.408,0.384-5.112c0.007-0.085,0.014-0.17,0.021-0.255L27.418,13.251z"/>
			<path fill-rule="evenodd" clip-rule="evenodd" fill="#FFFFFF" d="M48.781,2.923C41.704,2.95,34.627,2.939,27.549,2.939
				c-5.577,0-11.153,0-16.73,0c-1.575,0-3.151,0.022-4.726-0.012C5.516,2.916,5.25,3.057,5.332,3.676
				c0.083,0.639,0.107,1.285,0.163,1.927c0.159,1.853,0.316,3.706,0.483,5.558c0.234,2.592,0.48,5.183,0.714,7.775
				c0.168,1.876,0.318,3.755,0.488,5.631c0.232,2.568,0.481,5.134,0.71,7.701c0.218,2.444,0.414,4.892,0.631,7.337
				c0.233,2.616,0.502,5.23,0.707,7.851c0.04,0.517,0.216,0.75,0.693,0.881c5.696,1.56,11.389,3.133,17.087,4.686
				c0.293,0.08,0.646,0.067,0.943-0.009c1.328-0.339,2.646-0.715,3.968-1.078c4.349-1.197,8.699-2.385,13.041-3.606
				c0.298-0.084,0.719-0.387,0.754-0.635c0.175-1.225,0.237-2.466,0.343-3.7c0.164-1.928,0.326-3.855,0.499-5.782
				c0.229-2.566,0.472-5.133,0.702-7.701c0.171-1.901,0.328-3.804,0.499-5.705c0.231-2.567,0.472-5.134,0.703-7.701
				c0.169-1.877,0.325-3.755,0.494-5.633c0.23-2.542,0.454-5.085,0.714-7.625C49.743,3.126,49.518,2.92,48.781,2.923z M48.884,4.703
				c-0.25,2.45-0.466,4.903-0.688,7.355c-0.164,1.811-0.314,3.623-0.478,5.433c-0.223,2.476-0.455,4.952-0.678,7.428
				c-0.165,1.834-0.316,3.669-0.482,5.503c-0.222,2.477-0.455,4.952-0.677,7.429c-0.166,1.858-0.323,3.718-0.481,5.576
				c-0.102,1.191-0.161,2.388-0.33,3.569c-0.033,0.239-0.439,0.531-0.728,0.612c-4.188,1.179-8.384,2.324-12.578,3.478
				c-1.275,0.352-2.547,0.715-3.827,1.041c-0.288,0.073-0.627,0.086-0.911,0.009c-5.496-1.498-10.987-3.016-16.481-4.52
				c-0.461-0.126-0.63-0.352-0.669-0.851c-0.197-2.526-0.457-5.048-0.682-7.571c-0.21-2.358-0.398-4.719-0.608-7.077
				c-0.221-2.477-0.462-4.952-0.686-7.428c-0.164-1.811-0.308-3.622-0.471-5.432c-0.226-2.5-0.463-5-0.688-7.5
				C6.58,9.971,6.428,8.184,6.274,6.397c-0.053-0.62-0.077-1.243-0.157-1.858C6.039,3.941,6.295,3.805,6.852,3.816
				c1.519,0.032,3.039,0.011,4.559,0.011c5.379,0,10.758,0,16.137,0c6.827,0,13.654,0.01,20.479-0.016
				C48.737,3.809,48.955,4.008,48.884,4.703z"/>
			<g>
				<path fill="#FFFFFF" d="M11.501,6.146h4.708v0.847h-4.067v0.88h3.737c0.178,0,0.331,0.051,0.46,0.153
					c0.129,0.102,0.194,0.222,0.194,0.361v1.552c0,0.141-0.064,0.261-0.194,0.361c-0.129,0.1-0.283,0.15-0.46,0.15h-5.035V9.603
					h4.391V8.72h-3.733c-0.18,0-0.335-0.05-0.464-0.15c-0.129-0.1-0.193-0.22-0.193-0.361V6.657c0-0.139,0.064-0.259,0.193-0.359
					C11.166,6.197,11.321,6.146,11.501,6.146z"/>
				<path fill="#FFFFFF" d="M17.685,6.146h5.031v0.847h-4.388v2.609h4.388v0.847h-5.031c-0.18,0-0.334-0.05-0.462-0.15
					c-0.128-0.1-0.192-0.22-0.192-0.361V6.657c0-0.139,0.064-0.259,0.192-0.359C17.35,6.197,17.504,6.146,17.685,6.146z"/>
				<path fill="#FFFFFF" d="M28.245,6.146c0.178,0,0.332,0.05,0.462,0.151c0.131,0.101,0.196,0.221,0.196,0.359v1.974
					c0,0.143-0.065,0.264-0.196,0.362c-0.13,0.099-0.284,0.148-0.462,0.148h-0.114l1.018,1.308h-1.515l-1.017-1.308h-2.109v1.308
					h-1.294V6.146H28.245z M27.605,8.298V6.993h-3.097v1.305H27.605z"/>
				<path fill="#FFFFFF" d="M34.038,6.146h1.294v3.792c0,0.141-0.064,0.261-0.192,0.361c-0.128,0.1-0.282,0.15-0.462,0.15h-4.377
					c-0.181,0-0.335-0.05-0.463-0.15c-0.128-0.1-0.191-0.22-0.191-0.361V6.146h1.294v3.456h3.098V6.146z"/>
				<path fill="#FFFFFF" d="M39.321,9.575l-1.518-1.524l-0.68,2.398H35.83l1.294-4.514l2.197,2.218l2.197-2.218l1.295,4.514h-1.295
					L40.84,8.051L39.321,9.575z"/>
			</g>
		</g>
	</g>
	<path fill-rule="evenodd" clip-rule="evenodd" fill="#FFFFFF" d="M36.717,45.102c-0.46-0.404-0.468-0.659-0.025-1.096
		c0.361-0.356,0.728-0.71,1.073-1.134c-0.103,0-0.205,0-0.308,0c-7.229,0.001-14.458,0-21.687,0.003c-0.28,0-0.507-0.07-0.627-0.338
		c-0.172-0.383,0.098-0.767,0.555-0.771c0.92-0.009,1.841-0.005,2.762-0.005c2.972,0,5.944,0.009,8.916-0.001
		c3.936-0.014,7.143-2.732,7.793-6.595c0.7-4.15-2.265-8.246-6.436-8.888c-4.266-0.657-8.121,1.958-8.999,6.135
		c-0.362,1.722-0.13,3.388,0.642,4.975c0.03,0.063,0.073,0.12,0.131,0.215c0.254-0.888,0.496-1.738,0.742-2.588
		c0.098-0.34,0.311-0.517,0.59-0.504c0.346,0.015,0.614,0.344,0.519,0.683c-0.368,1.316-0.746,2.631-1.132,3.941
		c-0.102,0.345-0.396,0.46-0.798,0.345c-1.085-0.309-2.168-0.622-3.253-0.934c-0.14-0.04-0.282-0.075-0.418-0.125
		c-0.309-0.11-0.461-0.397-0.372-0.689c0.088-0.289,0.378-0.452,0.693-0.366c0.77,0.212,1.538,0.434,2.303,0.65
		c-1.83-4.35-0.953-8.064,2.586-11.173c-2.801-1.64-3.154-5.357-1.009-7.538c2.152-2.188,6.024-2.024,7.874,0.864
		c0.096-0.473,0.182-0.923,0.281-1.37c0.059-0.257,0.282-0.434,0.525-0.442c0.237-0.009,0.485,0.149,0.542,0.378
		c0.031,0.127,0.027,0.271,0.003,0.401c-0.123,0.649-0.259,1.296-0.39,1.944c-0.047,0.23-0.089,0.462-0.139,0.692
		c-0.08,0.362-0.335,0.544-0.702,0.475c-0.921-0.174-1.841-0.358-2.759-0.546c-0.336-0.069-0.526-0.349-0.469-0.657
		c0.057-0.306,0.339-0.494,0.678-0.433c0.492,0.088,0.981,0.188,1.531,0.294c-0.071-0.12-0.114-0.201-0.165-0.278
		c-0.858-1.291-2.436-1.958-4.006-1.619c-1.584,0.342-2.611,1.315-2.983,2.901c-0.396,1.686,0.559,3.482,2.184,4.151
		c0.098,0.04,0.251,0.025,0.349-0.024c4.464-2.252,9.833-0.519,12.107,3.914c2.093,4.081,0.676,9.115-3.254,11.562
		c-0.104,0.064-0.207,0.131-0.368,0.233c2.031,0,3.992,0,6.02,0c-0.407-0.403-0.773-0.765-1.138-1.128
		c-0.071-0.069-0.145-0.14-0.201-0.221c-0.162-0.23-0.126-0.529,0.075-0.718c0.198-0.185,0.509-0.206,0.725-0.027
		c0.16,0.133,0.302,0.288,0.45,0.436c0.588,0.583,1.174,1.165,1.76,1.749c0.342,0.342,0.343,0.619,0.003,0.96
		c-0.689,0.687-1.378,1.373-2.07,2.056c-0.097,0.095-0.214,0.167-0.321,0.249C36.972,45.102,36.844,45.102,36.717,45.102z"/>
</g>
</svg>
