<?xml version="1.0" encoding="utf-8"?>
<!-- Generator: Adobe Illustrator 16.0.3, SVG Export Plug-In . SVG Version: 6.00 Build 0)  -->
<!DOCTYPE svg PUBLIC "-//W3C//DTD SVG 1.1//EN" "http://www.w3.org/Graphics/SVG/1.1/DTD/svg11.dtd">
<svg version="1.1" id="Layer_1" xmlns="http://www.w3.org/2000/svg" xmlns:xlink="http://www.w3.org/1999/xlink" x="0px" y="0px"
	 width="55px" height="55px" viewBox="0 0 55 55" enable-background="new 0 0 55 55" xml:space="preserve">
<g>
	<g>
		<g>
			<path fill-rule="evenodd" clip-rule="evenodd" fill="#78D4B6" d="M27.552,2.016c7.338,0,14.676,0.011,22.014-0.017
				c0.764-0.003,0.997,0.21,0.921,0.958c-0.269,2.633-0.5,5.27-0.739,7.906c-0.176,1.946-0.338,3.894-0.513,5.84
				c-0.239,2.662-0.489,5.323-0.729,7.985c-0.178,1.971-0.341,3.944-0.519,5.916c-0.239,2.662-0.489,5.323-0.728,7.985
				c-0.179,1.997-0.348,3.995-0.518,5.994c-0.109,1.28-0.174,2.566-0.354,3.837c-0.036,0.257-0.473,0.571-0.782,0.658
				c-4.501,1.266-9.013,2.498-13.521,3.738c-1.37,0.377-2.737,0.768-4.114,1.118c-0.309,0.079-0.674,0.093-0.978,0.009
				c-5.909-1.609-11.811-3.241-17.717-4.857c-0.495-0.136-0.677-0.378-0.719-0.914c-0.212-2.716-0.491-5.426-0.733-8.14
				c-0.226-2.534-0.428-5.072-0.654-7.606c-0.237-2.663-0.496-5.323-0.736-7.984c-0.176-1.946-0.331-3.894-0.507-5.84
				c-0.242-2.687-0.497-5.374-0.74-8.061C5.012,8.62,4.85,6.699,4.684,4.778C4.627,4.112,4.602,3.442,4.515,2.781
				C4.431,2.138,4.706,1.992,5.304,2.004c1.633,0.034,3.267,0.012,4.9,0.012C15.987,2.016,21.77,2.016,27.552,2.016z"/>
			<path opacity="0.2" fill-rule="evenodd" clip-rule="evenodd" fill="#FFFFFF" d="M45.155,12.383
				c0.176-2.15,0.349-4.301,0.547-6.448c0.061-0.654-0.125-0.84-0.729-0.838c-5.811,0.024-11.621,0.015-17.432,0.015
				c-0.014,0-0.027,0-0.041,0v7.271H45.155z"/>
			<path opacity="0.2" fill-rule="evenodd" clip-rule="evenodd" fill="#FFFFFF" d="M27.418,13.251l0.164,38.002
				c0.128-0.005,0.255-0.024,0.373-0.059c1.088-0.312,2.169-0.658,3.253-0.992c3.565-1.101,7.133-2.194,10.692-3.317
				c0.244-0.077,0.589-0.354,0.617-0.579c0.139-1.111,0.185-2.237,0.267-3.358c0.127-1.749,0.253-3.498,0.387-5.247
				c0.179-2.33,0.367-4.66,0.546-6.99c0.133-1.726,0.255-3.452,0.388-5.178c0.18-2.33,0.367-4.66,0.547-6.99
				c0.132-1.704,0.252-3.408,0.385-5.112c0.006-0.085,0.013-0.17,0.02-0.255L27.418,13.251z"/>
			<path fill-rule="evenodd" clip-rule="evenodd" fill="#FFFFFF" d="M48.781,2.923C41.704,2.95,34.627,2.939,27.55,2.939
				c-5.577,0-11.153,0-16.73,0c-1.576,0-3.152,0.022-4.727-0.012C5.516,2.916,5.25,3.057,5.332,3.676
				c0.083,0.639,0.107,1.285,0.163,1.927c0.16,1.853,0.316,3.706,0.484,5.558c0.234,2.592,0.48,5.183,0.714,7.775
				c0.169,1.876,0.319,3.755,0.488,5.631c0.232,2.568,0.481,5.133,0.71,7.701c0.218,2.444,0.413,4.892,0.631,7.336
				c0.234,2.617,0.502,5.231,0.707,7.851c0.04,0.517,0.216,0.751,0.693,0.882c5.697,1.56,11.39,3.133,17.087,4.686
				c0.294,0.08,0.646,0.066,0.944-0.009c1.328-0.339,2.647-0.716,3.967-1.079c4.35-1.196,8.7-2.385,13.041-3.605
				c0.299-0.084,0.72-0.388,0.755-0.635c0.175-1.225,0.236-2.466,0.342-3.7c0.164-1.928,0.326-3.855,0.499-5.782
				c0.23-2.567,0.472-5.134,0.702-7.701c0.171-1.901,0.329-3.804,0.5-5.705c0.23-2.567,0.472-5.134,0.702-7.701
				c0.169-1.877,0.325-3.755,0.495-5.633c0.23-2.542,0.453-5.085,0.713-7.625C49.743,3.126,49.518,2.92,48.781,2.923z M48.885,4.703
				c-0.251,2.45-0.466,4.903-0.688,7.355c-0.163,1.811-0.314,3.623-0.478,5.433c-0.223,2.476-0.454,4.952-0.678,7.428
				c-0.164,1.834-0.316,3.669-0.481,5.503c-0.223,2.477-0.456,4.952-0.678,7.429c-0.166,1.858-0.322,3.717-0.481,5.576
				c-0.102,1.191-0.161,2.388-0.329,3.569c-0.034,0.238-0.44,0.531-0.728,0.612c-4.188,1.178-8.385,2.324-12.579,3.478
				c-1.274,0.351-2.546,0.714-3.827,1.041c-0.287,0.073-0.626,0.085-0.91,0.009c-5.497-1.498-10.987-3.016-16.481-4.52
				c-0.461-0.126-0.63-0.352-0.669-0.851c-0.197-2.526-0.456-5.048-0.681-7.572c-0.21-2.357-0.398-4.718-0.609-7.076
				c-0.221-2.478-0.461-4.952-0.686-7.428c-0.164-1.811-0.308-3.622-0.471-5.432c-0.226-2.5-0.463-5-0.689-7.5
				C6.58,9.971,6.429,8.184,6.274,6.397c-0.053-0.62-0.076-1.243-0.157-1.858C6.039,3.941,6.295,3.805,6.852,3.816
				c1.519,0.032,3.039,0.011,4.559,0.011c5.379,0,10.758,0,16.137,0c6.827,0,13.653,0.01,20.479-0.016
				C48.737,3.809,48.955,4.008,48.885,4.703z"/>
			<g>
				<path fill="#FFFFFF" d="M14.691,6.477h4.122v0.917h-3.562v0.953h3.272c0.156,0,0.29,0.055,0.403,0.165
					c0.113,0.111,0.17,0.241,0.17,0.391v1.681c0,0.152-0.057,0.283-0.17,0.391c-0.113,0.108-0.247,0.162-0.403,0.162h-4.409v-0.917
					h3.845V9.264h-3.269c-0.158,0-0.293-0.054-0.406-0.162c-0.113-0.108-0.17-0.239-0.17-0.391V7.03c0-0.15,0.057-0.28,0.17-0.389
					C14.398,6.531,14.533,6.477,14.691,6.477z"/>
				<path fill="#FFFFFF" d="M20.666,6.477v3.744h3.845v0.917h-4.978V6.477H20.666z"/>
				<path fill="#FFFFFF" d="M25.52,6.477h3.835c0.156,0,0.29,0.055,0.403,0.164c0.113,0.109,0.17,0.239,0.17,0.389v4.108h-1.137
					V9.721h-2.708v1.417h-1.137V7.03c0-0.15,0.056-0.28,0.168-0.389C25.227,6.531,25.362,6.477,25.52,6.477z M28.792,8.807V7.394
					h-2.708v1.413H28.792z"/>
				<path fill="#FFFFFF" d="M30.938,6.477h4.405v0.917h-3.842v2.827h3.842v0.917h-4.405c-0.158,0-0.293-0.054-0.405-0.162
					c-0.112-0.108-0.168-0.239-0.168-0.391V7.03c0-0.15,0.056-0.28,0.168-0.389C30.645,6.531,30.779,6.477,30.938,6.477z"/>
				<path fill="#FFFFFF" d="M39.449,11.138l-1.861-1.895L36.915,9.83v1.308h-1.137V6.477h1.137v2.12l2.44-2.12h1.404l0.007,0.006
					L38.294,8.63l2.463,2.508H39.449z"/>
			</g>
		</g>
	</g>
	<path fill-rule="evenodd" clip-rule="evenodd" fill="#FFFFFF" d="M23.416,39.358c-0.764,0.309-1.495,0.597-2.221,0.896
		c-1.591,0.657-3.037-0.1-3.387-1.778c-0.2-0.957,0.459-2.074,1.448-2.462c0.719-0.283,1.431-0.585,2.155-0.854
		c0.247-0.092,0.251-0.186,0.16-0.409c-0.539-1.327-1.059-2.662-1.584-3.995c-0.17-0.43-0.315-0.483-0.742-0.304
		c-0.68,0.286-1.36,0.575-2.05,0.838c-0.844,0.321-1.862,0.023-2.463-0.693c-0.68-0.812-0.767-1.742-0.3-2.597
		c0.307-0.56,0.755-0.892,1.344-1.112c0.717-0.268,1.414-0.591,2.206-0.927c-0.151-0.4-0.308-0.814-0.465-1.229
		c-0.18-0.478-0.384-0.948-0.535-1.434c-0.381-1.219,0.674-2.699,1.953-2.763c1.277-0.064,2.073,0.503,2.501,1.74
		c0.199,0.575,0.453,1.131,0.685,1.695c0.121,0.294,0.332,0.196,0.536,0.115c1.159-0.462,2.317-0.925,3.476-1.386
		c0.237-0.094,0.477-0.184,0.718-0.269c0.235-0.082,0.3-0.2,0.19-0.449c-0.293-0.662-0.526-1.352-0.839-2.003
		c-0.538-1.118,0.151-2.427,1.135-2.908c1.281-0.627,2.562,0.091,2.98,0.96c0.354,0.739,0.658,1.503,0.952,2.269
		c0.104,0.271,0.229,0.276,0.453,0.182c0.72-0.303,1.446-0.591,2.166-0.895c0.984-0.416,2.237,0.05,2.792,1.015
		c0.722,1.257,0.298,2.88-1.524,3.487c-0.671,0.224-1.315,0.523-2,0.799c0.392,0.974,0.768,1.916,1.146,2.856
		c0.189,0.472,0.414,0.932,0.563,1.416c0.114,0.368,0.325,0.4,0.615,0.289c0.638-0.246,1.284-0.479,1.901-0.77
		c1.505-0.711,3.163,0.396,3.308,2.007c0.08,0.889-0.287,1.734-1.169,2.167c-0.743,0.364-1.523,0.659-2.3,0.953
		c-0.301,0.113-0.369,0.229-0.236,0.53c0.302,0.686,0.577,1.384,0.846,2.083c0.477,1.242-0.427,2.767-1.756,2.979
		c-1.164,0.185-2.188-0.425-2.6-1.52c-0.273-0.728-0.582-1.442-0.89-2.198C30.92,36.347,29.291,37,27.668,37.65
		c0.352,0.896,0.744,1.746,1.019,2.631c0.335,1.076-0.304,2.269-1.328,2.645c-1.16,0.426-2.358-0.009-2.87-1.085
		C24.112,41.048,23.79,40.229,23.416,39.358z M28.867,26.634c-0.198,0.08-0.344,0.138-0.489,0.197
		c-1.334,0.538-2.668,1.076-4.002,1.614c-0.179,0.072-0.344,0.121-0.232,0.395c0.601,1.467,1.185,2.941,1.789,4.449
		c1.606-0.656,3.193-1.305,4.832-1.975C30.124,29.735,29.504,28.204,28.867,26.634z"/>
</g>
</svg>
