<?xml version="1.0" encoding="utf-8"?>
<!-- Generator: Adobe Illustrator 16.0.3, SVG Export Plug-In . SVG Version: 6.00 Build 0)  -->
<!DOCTYPE svg PUBLIC "-//W3C//DTD SVG 1.1//EN" "http://www.w3.org/Graphics/SVG/1.1/DTD/svg11.dtd">
<svg version="1.1" id="Layer_1" xmlns="http://www.w3.org/2000/svg" xmlns:xlink="http://www.w3.org/1999/xlink" x="0px" y="0px"
	 width="55px" height="55px" viewBox="0 0 55 55" enable-background="new 0 0 55 55" xml:space="preserve">
<g>
	<g>
		<path fill-rule="evenodd" clip-rule="evenodd" fill="#7892A0" d="M27.551,2.016c7.337,0,14.676,0.011,22.014-0.017
			c0.763-0.002,0.997,0.211,0.921,0.958c-0.27,2.633-0.5,5.27-0.739,7.906c-0.176,1.946-0.338,3.894-0.514,5.84
			c-0.239,2.662-0.488,5.322-0.728,7.984c-0.178,1.971-0.341,3.945-0.519,5.916c-0.239,2.662-0.489,5.323-0.728,7.985
			c-0.179,1.998-0.348,3.996-0.518,5.994c-0.109,1.28-0.174,2.567-0.354,3.837c-0.037,0.257-0.474,0.571-0.782,0.658
			c-4.502,1.266-9.013,2.498-13.521,3.738c-1.37,0.377-2.737,0.768-4.114,1.119c-0.309,0.078-0.673,0.092-0.978,0.009
			c-5.909-1.61-11.811-3.242-17.717-4.858c-0.495-0.136-0.677-0.378-0.719-0.913c-0.212-2.716-0.49-5.427-0.732-8.141
			c-0.226-2.534-0.428-5.071-0.654-7.606c-0.238-2.662-0.496-5.323-0.737-7.984c-0.176-1.946-0.331-3.893-0.506-5.839
			c-0.242-2.688-0.498-5.374-0.74-8.061c-0.173-1.92-0.336-3.842-0.501-5.762C4.626,4.112,4.602,3.443,4.515,2.781
			C4.431,2.139,4.706,1.992,5.304,2.005c1.633,0.034,3.267,0.011,4.9,0.011C15.987,2.016,21.769,2.016,27.551,2.016z"/>
		<path opacity="0.2" fill-rule="evenodd" clip-rule="evenodd" fill="#FFFFFF" d="M45.155,12.383c0.176-2.15,0.348-4.3,0.547-6.448
			c0.061-0.653-0.125-0.84-0.729-0.837c-5.811,0.024-11.621,0.014-17.432,0.014c-0.013,0-0.027,0-0.041,0v7.271H45.155z"/>
		<path opacity="0.2" fill-rule="evenodd" clip-rule="evenodd" fill="#FFFFFF" d="M27.418,13.252l0.164,38.002
			c0.127-0.005,0.255-0.024,0.372-0.058c1.089-0.313,2.17-0.659,3.254-0.993c3.565-1.101,7.133-2.194,10.692-3.317
			c0.244-0.077,0.589-0.354,0.617-0.578c0.138-1.112,0.185-2.238,0.266-3.358c0.128-1.75,0.253-3.499,0.387-5.248
			c0.18-2.33,0.367-4.659,0.547-6.989c0.133-1.727,0.255-3.453,0.388-5.179c0.18-2.33,0.367-4.659,0.547-6.989
			c0.131-1.704,0.252-3.409,0.384-5.112c0.007-0.085,0.014-0.17,0.021-0.255L27.418,13.252z"/>
		<path fill-rule="evenodd" clip-rule="evenodd" fill="#FFFFFF" d="M48.781,2.924C41.704,2.951,34.627,2.94,27.55,2.94
			c-5.577,0-11.154,0-16.731,0c-1.575,0-3.151,0.022-4.726-0.012C5.516,2.916,5.25,3.058,5.332,3.677
			c0.083,0.638,0.107,1.284,0.163,1.926c0.159,1.853,0.316,3.706,0.483,5.558c0.234,2.592,0.481,5.183,0.714,7.775
			c0.169,1.876,0.318,3.755,0.488,5.632c0.232,2.567,0.481,5.133,0.71,7.701c0.218,2.444,0.413,4.893,0.631,7.337
			c0.233,2.617,0.502,5.231,0.707,7.851c0.04,0.517,0.216,0.75,0.693,0.881c5.697,1.56,11.389,3.133,17.087,4.686
			c0.294,0.08,0.646,0.067,0.943-0.009c1.328-0.339,2.646-0.715,3.968-1.078c4.35-1.196,8.699-2.385,13.041-3.606
			c0.298-0.084,0.719-0.387,0.755-0.635c0.174-1.225,0.236-2.466,0.342-3.7c0.164-1.928,0.326-3.855,0.499-5.781
			c0.229-2.567,0.472-5.134,0.702-7.702c0.171-1.901,0.328-3.804,0.499-5.705c0.231-2.567,0.472-5.134,0.703-7.701
			c0.169-1.877,0.325-3.756,0.495-5.633c0.23-2.542,0.453-5.085,0.713-7.625C49.743,3.127,49.518,2.921,48.781,2.924z M48.884,4.703
			c-0.25,2.45-0.465,4.903-0.688,7.355c-0.164,1.811-0.314,3.622-0.478,5.433c-0.223,2.476-0.455,4.951-0.678,7.428
			c-0.165,1.834-0.316,3.669-0.481,5.503c-0.223,2.477-0.456,4.952-0.678,7.429c-0.166,1.858-0.323,3.718-0.481,5.576
			c-0.102,1.191-0.161,2.389-0.33,3.57c-0.033,0.238-0.439,0.53-0.728,0.611c-4.188,1.179-8.384,2.324-12.578,3.479
			c-1.275,0.351-2.547,0.714-3.828,1.04c-0.287,0.073-0.626,0.086-0.91,0.009c-5.497-1.498-10.987-3.016-16.482-4.52
			c-0.46-0.126-0.63-0.352-0.669-0.85c-0.197-2.527-0.457-5.049-0.681-7.572c-0.21-2.358-0.398-4.719-0.609-7.077
			c-0.221-2.477-0.462-4.951-0.686-7.428c-0.164-1.81-0.308-3.622-0.471-5.432c-0.225-2.5-0.463-5-0.688-7.5
			C6.58,9.971,6.428,8.185,6.274,6.397c-0.053-0.62-0.077-1.243-0.157-1.859C6.039,3.941,6.295,3.805,6.852,3.817
			c1.519,0.032,3.039,0.011,4.559,0.011c5.379,0,10.759,0,16.137,0c6.827,0,13.654,0.011,20.48-0.016
			C48.737,3.81,48.955,4.008,48.884,4.703z"/>
		<g>
			<path fill="#FFFFFF" d="M19.155,6.327h4.57v1.017h-3.949v1.057h3.628c0.172,0,0.322,0.062,0.447,0.184
				c0.125,0.122,0.188,0.267,0.188,0.434v1.864c0,0.169-0.063,0.313-0.188,0.434c-0.125,0.12-0.274,0.18-0.447,0.18h-4.888v-1.017
				h4.263v-1.06h-3.625c-0.175,0-0.325-0.06-0.451-0.18s-0.188-0.265-0.188-0.434V6.94c0-0.167,0.063-0.311,0.188-0.432
				S18.98,6.327,19.155,6.327z"/>
			<path fill="#FFFFFF" d="M29.41,6.327c0.173,0,0.322,0.061,0.447,0.182c0.126,0.121,0.188,0.265,0.188,0.432v3.538h0.313v1.017
				h-5.198c-0.177,0-0.328-0.06-0.452-0.18c-0.124-0.12-0.187-0.265-0.187-0.434V6.94c0-0.167,0.063-0.311,0.187-0.432
				c0.125-0.121,0.275-0.182,0.452-0.182H29.41z M28.789,7.344h-3.006v3.134h3.006V7.344z"/>
			<path fill="#FFFFFF" d="M32.1,6.327v4.151h4.264v1.017h-5.521V6.327H32.1z"/>
		</g>
	</g>
	<g>
		<path fill-rule="evenodd" clip-rule="evenodd" fill="#FFFFFF" d="M26.579,17.996c0.768,0,1.536,0,2.303,0
			c0.063,0.013,0.124,0.031,0.187,0.036c1.472,0.111,2.937,0.263,4.368,0.646c1.128,0.302,2.228,0.672,3.17,1.39
			c0.53,0.404,0.887,0.907,0.886,1.605c-0.002,1.604,0.003,3.208-0.006,4.813c-0.001,0.207-0.045,0.421-0.112,0.618
			c-0.187,0.544-0.616,0.887-1.072,1.192c-0.774,0.518-1.642,0.834-2.53,1.084c-1.674,0.472-3.392,0.688-5.126,0.74
			c-2.25,0.067-4.483-0.092-6.671-0.669c-1.123-0.296-2.211-0.674-3.144-1.395c-0.516-0.398-0.862-0.891-0.862-1.571
			c0-1.604,0-3.208,0.001-4.813c0-0.496,0.177-0.918,0.521-1.277c0.44-0.458,0.976-0.772,1.547-1.029
			c1.663-0.746,3.431-1.06,5.23-1.239C25.706,18.083,26.142,18.04,26.579,17.996z M27.728,18.666
			c-0.702,0.043-1.404,0.069-2.104,0.133c-1.333,0.123-2.639,0.375-3.879,0.895c-0.524,0.219-1.023,0.489-1.42,0.906
			c-0.426,0.448-0.611,1.068-0.121,1.636c0.244,0.283,0.546,0.537,0.866,0.732c0.887,0.542,1.884,0.807,2.894,1.003
			c1.596,0.311,3.208,0.39,4.833,0.313c1.468-0.07,2.908-0.271,4.304-0.737c0.741-0.248,1.452-0.562,2.02-1.126
			c0.432-0.429,0.548-0.981,0.269-1.486c-0.191-0.346-0.497-0.594-0.827-0.804c-0.634-0.401-1.33-0.658-2.05-0.855
			C30.946,18.848,29.347,18.692,27.728,18.666z"/>
		<path fill-rule="evenodd" clip-rule="evenodd" fill="#FFFFFF" d="M28.882,44.547c-0.768,0-1.535,0-2.303,0
			c-0.062-0.013-0.124-0.029-0.186-0.035c-0.67-0.064-1.343-0.11-2.011-0.195c-1.084-0.139-2.153-0.354-3.194-0.695
			c-0.845-0.277-1.66-0.617-2.368-1.169c-0.555-0.433-0.866-0.977-0.857-1.706c0.019-1.548,0.005-3.095,0.007-4.643
			c0-0.089,0.013-0.177,0.02-0.266c0.343,0.728,0.932,1.186,1.622,1.508c0.639,0.298,1.295,0.576,1.968,0.784
			c1.573,0.486,3.201,0.682,4.84,0.766c1.648,0.084,3.295,0.02,4.928-0.218c1.419-0.206,2.818-0.513,4.126-1.13
			c0.815-0.385,1.582-0.833,1.988-1.764c0.014,0.134,0.028,0.216,0.028,0.297c0.001,1.583-0.001,3.166,0.002,4.749
			c0.001,0.536-0.188,0.985-0.569,1.365c-0.417,0.416-0.915,0.712-1.445,0.954c-1.69,0.772-3.493,1.092-5.329,1.269
			C29.727,44.459,29.304,44.504,28.882,44.547z"/>
		<path fill-rule="evenodd" clip-rule="evenodd" fill="#FFFFFF" d="M37.472,28.587c0.007,0.089,0.019,0.178,0.019,0.267
			c0.002,1.54-0.014,3.081,0.008,4.621c0.011,0.783-0.341,1.343-0.943,1.791c-0.803,0.598-1.72,0.948-2.668,1.226
			c-1.257,0.367-2.542,0.57-3.846,0.687c-1.276,0.112-2.553,0.142-3.83,0.063c-1.681-0.103-3.344-0.327-4.954-0.845
			c-0.935-0.301-1.838-0.671-2.591-1.327c-0.476-0.415-0.708-0.927-0.702-1.563c0.013-1.555,0.004-3.109,0.005-4.665
			c0-0.085,0.015-0.171,0.04-0.258c0.313,0.727,0.909,1.15,1.565,1.505c1.205,0.649,2.511,1.003,3.853,1.214
			c0.909,0.143,1.827,0.25,2.746,0.307c0.912,0.057,1.83,0.063,2.744,0.033c1.605-0.053,3.193-0.27,4.747-0.688
			c0.809-0.218,1.598-0.5,2.326-0.92C36.599,29.685,37.158,29.278,37.472,28.587z"/>
	</g>
</g>
</svg>
