<?xml version="1.0" encoding="utf-8"?>
<!-- Generator: Adobe Illustrator 16.0.3, SVG Export Plug-In . SVG Version: 6.00 Build 0)  -->
<!DOCTYPE svg PUBLIC "-//W3C//DTD SVG 1.1//EN" "http://www.w3.org/Graphics/SVG/1.1/DTD/svg11.dtd">
<svg version="1.1" id="Layer_1" xmlns="http://www.w3.org/2000/svg" xmlns:xlink="http://www.w3.org/1999/xlink" x="0px" y="0px"
	 width="55px" height="55px" viewBox="0 0 55 55" enable-background="new 0 0 55 55" xml:space="preserve">
<g>
	<g>
		<path fill-rule="evenodd" clip-rule="evenodd" fill="#216884" d="M27.551,2.016c7.337,0,14.676,0.011,22.013-0.017
			c0.764-0.003,0.998,0.21,0.922,0.958c-0.269,2.633-0.5,5.27-0.739,7.906c-0.177,1.946-0.338,3.894-0.514,5.84
			c-0.239,2.662-0.489,5.323-0.728,7.985c-0.178,1.971-0.341,3.944-0.519,5.916c-0.239,2.662-0.489,5.323-0.729,7.985
			c-0.178,1.997-0.347,3.995-0.517,5.994c-0.109,1.28-0.174,2.566-0.354,3.837c-0.037,0.257-0.474,0.571-0.782,0.658
			c-4.501,1.266-9.013,2.498-13.521,3.738c-1.37,0.377-2.737,0.768-4.114,1.118c-0.309,0.079-0.674,0.093-0.978,0.009
			c-5.908-1.609-11.811-3.241-17.717-4.857c-0.495-0.136-0.677-0.378-0.719-0.914c-0.211-2.716-0.49-5.426-0.732-8.14
			c-0.226-2.534-0.428-5.072-0.654-7.606c-0.238-2.663-0.496-5.323-0.737-7.984c-0.176-1.946-0.331-3.894-0.506-5.84
			c-0.242-2.687-0.498-5.374-0.74-8.061C5.012,8.62,4.849,6.699,4.684,4.778C4.626,4.112,4.602,3.442,4.515,2.781
			C4.431,2.138,4.706,1.992,5.304,2.004c1.633,0.034,3.267,0.012,4.9,0.012C15.987,2.016,21.769,2.016,27.551,2.016z"/>
		<path opacity="0.2" fill-rule="evenodd" clip-rule="evenodd" fill="#FFFFFF" d="M45.155,12.383
			c0.176-2.15,0.349-4.301,0.547-6.448c0.061-0.654-0.125-0.84-0.729-0.838c-5.811,0.024-11.621,0.015-17.432,0.015
			c-0.014,0-0.027,0-0.041,0v7.271H45.155z"/>
		<path opacity="0.2" fill-rule="evenodd" clip-rule="evenodd" fill="#FFFFFF" d="M27.418,13.251l0.165,38.002
			c0.127-0.005,0.254-0.024,0.372-0.059c1.089-0.312,2.17-0.658,3.254-0.992c3.565-1.101,7.133-2.194,10.692-3.317
			c0.244-0.077,0.589-0.354,0.617-0.579c0.138-1.111,0.185-2.237,0.266-3.358c0.128-1.749,0.254-3.498,0.387-5.247
			c0.18-2.33,0.367-4.66,0.547-6.99c0.133-1.726,0.255-3.452,0.388-5.178c0.18-2.33,0.367-4.66,0.547-6.99
			c0.131-1.704,0.252-3.408,0.384-5.112c0.007-0.085,0.014-0.17,0.021-0.255L27.418,13.251z"/>
		<path fill-rule="evenodd" clip-rule="evenodd" fill="#FFFFFF" d="M48.781,2.923C41.704,2.95,34.627,2.939,27.549,2.939
			c-5.577,0-11.153,0-16.73,0c-1.576,0-3.152,0.022-4.727-0.012C5.516,2.916,5.25,3.057,5.332,3.676
			c0.083,0.639,0.108,1.285,0.163,1.927c0.159,1.853,0.316,3.706,0.484,5.558c0.234,2.592,0.48,5.183,0.714,7.775
			c0.169,1.876,0.319,3.755,0.488,5.631c0.232,2.568,0.481,5.133,0.71,7.701c0.218,2.444,0.414,4.892,0.631,7.336
			c0.233,2.617,0.502,5.231,0.707,7.851c0.04,0.517,0.216,0.751,0.693,0.882c5.697,1.56,11.389,3.133,17.087,4.686
			c0.293,0.08,0.646,0.066,0.943-0.009c1.328-0.339,2.646-0.716,3.968-1.079c4.35-1.196,8.699-2.385,13.041-3.605
			c0.298-0.084,0.72-0.388,0.755-0.635c0.174-1.225,0.236-2.466,0.342-3.7c0.164-1.928,0.326-3.855,0.499-5.782
			c0.229-2.567,0.472-5.134,0.702-7.701c0.171-1.901,0.328-3.804,0.499-5.705c0.231-2.567,0.472-5.134,0.703-7.701
			c0.169-1.877,0.325-3.755,0.495-5.633c0.229-2.542,0.453-5.085,0.713-7.625C49.743,3.126,49.518,2.92,48.781,2.923z M48.884,4.703
			c-0.25,2.45-0.466,4.903-0.688,7.355c-0.164,1.811-0.314,3.623-0.478,5.433c-0.223,2.476-0.455,4.952-0.678,7.428
			c-0.165,1.834-0.316,3.669-0.481,5.503c-0.223,2.477-0.456,4.952-0.678,7.429c-0.166,1.858-0.323,3.717-0.481,5.576
			c-0.102,1.191-0.161,2.388-0.33,3.569c-0.033,0.238-0.439,0.531-0.728,0.612c-4.188,1.178-8.384,2.324-12.578,3.478
			c-1.275,0.351-2.547,0.714-3.827,1.041c-0.288,0.073-0.627,0.085-0.911,0.009c-5.496-1.498-10.987-3.016-16.481-4.52
			c-0.46-0.126-0.63-0.352-0.669-0.851c-0.197-2.526-0.457-5.048-0.681-7.572c-0.21-2.357-0.398-4.718-0.609-7.076
			c-0.221-2.478-0.462-4.952-0.686-7.428c-0.164-1.811-0.308-3.622-0.471-5.432c-0.225-2.5-0.463-5-0.688-7.5
			C6.58,9.971,6.428,8.184,6.274,6.397c-0.053-0.62-0.077-1.243-0.157-1.858C6.039,3.941,6.295,3.805,6.852,3.816
			c1.519,0.032,3.039,0.011,4.559,0.011c5.379,0,10.759,0,16.138,0c6.826,0,13.653,0.01,20.479-0.016
			C48.737,3.809,48.955,4.008,48.884,4.703z"/>
		<g>
			<path fill="#FFFFFF" d="M16.931,6.788v0.86h-1.803v3.514h-1.067V7.648h-1.803v-0.86H16.931z"/>
			<path fill="#FFFFFF" d="M21.474,6.788c0.146,0,0.272,0.051,0.38,0.153c0.107,0.103,0.161,0.225,0.161,0.366v2.007
				c0,0.145-0.054,0.268-0.161,0.368c-0.107,0.101-0.234,0.151-0.38,0.151H21.38l0.836,1.33h-1.245l-0.836-1.33h-1.733v1.33h-1.063
				V6.788H21.474z M20.948,8.975V7.648h-2.545v1.327H20.948z"/>
			<path fill="#FFFFFF" d="M26.234,9.404h-2.542v0.897H27.3v0.861h-4.675V6.788H27.3v0.86h-3.608v0.895h2.542V9.404z"/>
			<path fill="#FFFFFF" d="M28.773,6.788v3.514h3.608v0.861h-4.672V6.788H28.773z"/>
			<path fill="#FFFFFF" d="M33.854,6.788v3.514h3.608v0.861h-4.672V6.788H33.854z"/>
			<path fill="#FFFFFF" d="M42.01,6.788c0.146,0,0.271,0.051,0.378,0.153c0.106,0.103,0.159,0.225,0.159,0.366v3.336
				c0,0.143-0.053,0.266-0.159,0.367s-0.232,0.152-0.378,0.152h-3.598c-0.147,0-0.274-0.051-0.381-0.152s-0.159-0.224-0.159-0.367
				V7.307c0-0.141,0.053-0.263,0.159-0.366c0.106-0.103,0.233-0.153,0.381-0.153H42.01z M41.483,7.648h-2.545v2.653h2.545V7.648z"/>
		</g>
	</g>
	<path fill-rule="evenodd" clip-rule="evenodd" fill="#FFFFFF" d="M27.598,42.866c-3.863,0-7.727,0.001-11.589,0
		c-0.92,0-1.029-0.104-1.03-0.99c-0.001-7.753-0.001-15.505,0-23.257c0-0.863,0.12-0.988,0.961-0.989
		c7.82-0.001,15.64-0.001,23.46,0c0.838,0,0.959,0.126,0.959,0.99c0.001,7.752,0.001,15.505,0,23.257
		c0,0.887-0.108,0.989-1.031,0.989C35.418,42.867,31.508,42.866,27.598,42.866z M26.47,29.025c0-2.7,0.002-5.401-0.001-8.102
		c-0.001-1.01-0.213-1.216-1.242-1.217c-2.318-0.003-4.636-0.004-6.954,0c-0.987,0.002-1.205,0.213-1.206,1.182
		c-0.003,5.401-0.003,10.802,0,16.203c0.001,0.97,0.219,1.181,1.207,1.183c2.294,0.005,4.589,0.003,6.883,0.001
		c1.121-0.001,1.312-0.187,1.313-1.288C26.472,34.334,26.47,31.68,26.47,29.025z M38.269,25.359c0-1.513,0.006-3.026-0.003-4.538
		c-0.005-0.883-0.233-1.108-1.133-1.11c-2.387-0.007-4.774-0.007-7.162,0c-0.854,0.003-1.095,0.236-1.097,1.074
		c-0.009,3.002-0.009,6.004,0,9.006c0.002,0.839,0.242,1.071,1.097,1.074c2.387,0.009,4.774,0.008,7.161,0.001
		c0.9-0.003,1.129-0.228,1.134-1.109C38.274,28.291,38.269,26.825,38.269,25.359z"/>
</g>
</svg>
