<?xml version="1.0" encoding="utf-8"?>
<!-- Generator: Adobe Illustrator 16.0.3, SVG Export Plug-In . SVG Version: 6.00 Build 0)  -->
<!DOCTYPE svg PUBLIC "-//W3C//DTD SVG 1.1//EN" "http://www.w3.org/Graphics/SVG/1.1/DTD/svg11.dtd">
<svg version="1.1" id="Layer_1" xmlns="http://www.w3.org/2000/svg" xmlns:xlink="http://www.w3.org/1999/xlink" x="0px" y="0px"
	 width="55px" height="55px" viewBox="0 0 55 55" enable-background="new 0 0 55 55" xml:space="preserve">
<g>
	<g>
		<path fill-rule="evenodd" clip-rule="evenodd" fill="#FF3753" d="M27.551,2.016c7.337,0,14.676,0.011,22.014-0.017
			c0.764-0.003,0.997,0.21,0.921,0.958c-0.27,2.633-0.501,5.27-0.739,7.906c-0.176,1.946-0.338,3.894-0.514,5.84
			c-0.239,2.662-0.488,5.323-0.728,7.985c-0.178,1.971-0.341,3.944-0.519,5.916c-0.239,2.662-0.49,5.323-0.728,7.985
			c-0.179,1.997-0.348,3.995-0.518,5.994c-0.109,1.28-0.174,2.566-0.354,3.837c-0.037,0.257-0.474,0.571-0.782,0.658
			c-4.502,1.266-9.013,2.498-13.521,3.738c-1.37,0.377-2.737,0.768-4.114,1.118c-0.309,0.079-0.673,0.093-0.978,0.009
			c-5.909-1.609-11.811-3.241-17.717-4.857c-0.495-0.136-0.678-0.378-0.719-0.914c-0.212-2.716-0.491-5.426-0.732-8.14
			c-0.226-2.534-0.428-5.072-0.654-7.606c-0.238-2.663-0.496-5.323-0.737-7.984c-0.176-1.946-0.331-3.894-0.506-5.84
			c-0.242-2.687-0.498-5.374-0.741-8.061C5.012,8.62,4.849,6.699,4.684,4.778C4.626,4.112,4.602,3.442,4.515,2.781
			C4.43,2.138,4.706,1.992,5.304,2.004c1.633,0.034,3.267,0.012,4.9,0.012C15.987,2.016,21.769,2.016,27.551,2.016z"/>
		<path opacity="0.2" fill-rule="evenodd" clip-rule="evenodd" fill="#FFFFFF" d="M45.155,12.383
			c0.176-2.15,0.348-4.301,0.547-6.448c0.061-0.654-0.125-0.84-0.729-0.838c-5.811,0.024-11.621,0.015-17.432,0.015
			c-0.014,0-0.027,0-0.041,0v7.271H45.155z"/>
		<path opacity="0.2" fill-rule="evenodd" clip-rule="evenodd" fill="#FFFFFF" d="M27.418,13.251l0.164,38.002
			c0.128-0.005,0.255-0.024,0.372-0.059c1.089-0.312,2.17-0.658,3.254-0.992c3.565-1.101,7.133-2.194,10.692-3.317
			c0.244-0.077,0.589-0.354,0.616-0.579c0.139-1.111,0.186-2.237,0.267-3.358c0.128-1.749,0.253-3.498,0.388-5.247
			c0.178-2.33,0.367-4.66,0.546-6.99c0.133-1.726,0.255-3.452,0.388-5.178c0.18-2.33,0.367-4.66,0.547-6.99
			c0.131-1.704,0.252-3.408,0.384-5.112c0.007-0.085,0.014-0.17,0.021-0.255L27.418,13.251z"/>
		<path fill-rule="evenodd" clip-rule="evenodd" fill="#FFFFFF" d="M48.781,2.923C41.704,2.95,34.627,2.939,27.549,2.939
			c-5.577,0-11.153,0-16.73,0c-1.576,0-3.151,0.022-4.726-0.012C5.516,2.916,5.25,3.057,5.332,3.676
			c0.083,0.639,0.107,1.285,0.163,1.927c0.16,1.853,0.316,3.706,0.484,5.558c0.234,2.592,0.48,5.183,0.714,7.775
			c0.168,1.876,0.318,3.755,0.488,5.631c0.232,2.568,0.482,5.133,0.711,7.701c0.218,2.444,0.413,4.892,0.631,7.336
			c0.233,2.617,0.502,5.231,0.706,7.851c0.04,0.517,0.216,0.751,0.693,0.882c5.697,1.56,11.39,3.133,17.088,4.686
			c0.293,0.08,0.646,0.066,0.943-0.009c1.328-0.339,2.646-0.716,3.968-1.079c4.35-1.196,8.699-2.385,13.041-3.605
			c0.298-0.084,0.719-0.388,0.755-0.635c0.174-1.225,0.235-2.466,0.342-3.7c0.164-1.928,0.326-3.855,0.498-5.782
			c0.23-2.567,0.473-5.134,0.703-7.701c0.171-1.901,0.328-3.804,0.5-5.705c0.23-2.567,0.471-5.134,0.702-7.701
			c0.169-1.877,0.324-3.755,0.495-5.633c0.23-2.542,0.453-5.085,0.713-7.625C49.743,3.126,49.518,2.92,48.781,2.923z M48.884,4.703
			c-0.25,2.45-0.465,4.903-0.688,7.355c-0.164,1.811-0.314,3.623-0.478,5.433c-0.224,2.476-0.455,4.952-0.678,7.428
			c-0.165,1.834-0.316,3.669-0.481,5.503c-0.223,2.477-0.456,4.952-0.678,7.429c-0.166,1.858-0.323,3.717-0.481,5.576
			c-0.102,1.191-0.161,2.388-0.33,3.569c-0.034,0.238-0.439,0.531-0.728,0.612c-4.188,1.178-8.384,2.324-12.578,3.478
			c-1.275,0.351-2.547,0.714-3.828,1.041c-0.287,0.073-0.626,0.085-0.91,0.009c-5.496-1.498-10.987-3.016-16.481-4.52
			c-0.461-0.126-0.63-0.352-0.669-0.851c-0.197-2.526-0.456-5.048-0.681-7.572c-0.21-2.357-0.398-4.718-0.609-7.076
			C8.365,29.64,8.125,27.166,7.9,24.689c-0.164-1.811-0.308-3.622-0.471-5.432c-0.226-2.5-0.463-5-0.688-7.5
			C6.58,9.971,6.428,8.184,6.274,6.397c-0.053-0.62-0.076-1.243-0.157-1.858C6.039,3.941,6.295,3.805,6.852,3.816
			c1.519,0.032,3.039,0.011,4.559,0.011c5.379,0,10.758,0,16.137,0c6.827,0,13.654,0.01,20.48-0.016
			C48.737,3.809,48.955,4.008,48.884,4.703z"/>
		<g>
			<path fill="#FFFFFF" d="M19.096,6.651h1.064v3.859c0,0.143-0.053,0.265-0.158,0.367c-0.105,0.102-0.232,0.152-0.38,0.152h-3.6
				c-0.148,0-0.275-0.051-0.38-0.152c-0.105-0.102-0.158-0.224-0.158-0.367V6.651h1.064v3.517h2.547V6.651z"/>
			<path fill="#FFFFFF" d="M20.599,6.651h1.196l1.132,1.424l1.149-1.424h1.199L23.538,8.84l1.737,2.189h-1.199l-1.149-1.424
				l-1.132,1.424H20.57l1.754-2.189L20.599,6.651z"/>
			<path fill="#FFFFFF" d="M26.942,11.101l1.243-4.283h0.421l-1.24,4.283H26.942z"/>
			<path fill="#FFFFFF" d="M34.087,6.651h1.064v3.859c0,0.143-0.052,0.265-0.157,0.367c-0.105,0.102-0.232,0.152-0.381,0.152h-3.6
				c-0.148,0-0.275-0.051-0.381-0.152c-0.104-0.102-0.157-0.224-0.157-0.367V6.651h1.064v3.517h2.547V6.651z"/>
			<path fill="#FFFFFF" d="M35.562,11.03V6.651h1.064v4.379H35.562z"/>
		</g>
	</g>
	<g>
		<path fill-rule="evenodd" clip-rule="evenodd" d="M16.812,42.629c0.11,0.094,0.221,0.188,0.332,0.281
			c0.591-0.389,1.219-0.733,1.769-1.174c4.638-3.706,8.533-8.111,12.12-12.803c0.509-0.665,0.958-1.381,1.367-2.11
			c0.107-0.19,0.042-0.582-0.098-0.766c-0.093-0.123-0.478-0.105-0.695-0.036c-0.245,0.077-0.467,0.262-0.67,0.434
			c-5.206,4.398-9.694,9.441-13.599,15.003C17.096,41.803,16.984,42.236,16.812,42.629z M26.97,28.38
			c-0.885-0.761-1.651-1.395-2.388-2.059c-1.212-1.094-2.546-2.137-2.061-4.085c0.026-0.104-0.008-0.229-0.034-0.34
			c-0.479-2.041-3.049-3.239-4.71-2.066c0.416,0.443,0.817,0.88,1.231,1.307c0.536,0.554,0.606,1.165,0.078,1.717
			c-0.542,0.566-1.167,0.477-1.735-0.03c-0.444-0.396-0.881-0.799-1.491-1.352c-0.16,0.532-0.328,0.862-0.351,1.202
			c-0.146,2.175,1.77,3.951,4.002,3.609c0.728-0.112,1.137,0.087,1.586,0.562c1.171,1.238,2.373,2.447,3.504,3.607
			C25.42,29.735,26.072,29.165,26.97,28.38z M38.478,40.377c1.182-2.438-0.761-5.063-3.417-4.788
			c-0.839,0.087-1.384-0.128-1.904-0.714c-0.881-0.992-1.795-1.954-2.592-2.816c-0.902,0.735-1.572,1.28-2.526,2.059
			c1.254,1.125,2.389,2.088,3.447,3.129c0.26,0.255,0.404,0.773,0.369,1.149c-0.199,2.121,0.9,3.774,2.92,4.126
			c0.564,0.098,1.179-0.08,2.077-0.159c-0.665-0.766-1.054-1.225-1.454-1.672c-0.463-0.517-0.653-1.028-0.063-1.589
			c0.57-0.543,1.152-0.553,1.733-0.046C37.521,39.452,37.947,39.878,38.478,40.377z M39.959,20.394
			c-3.155-1.433-7.138,0.058-8.109,2.842c-0.375,1.076-0.057,2.039,0.89,2.686c0.917,0.626,2.054,0.615,2.8-0.269
			c0.563-0.666,1.036-1.528,1.205-2.371c0.239-1.188,0.873-1.889,1.903-2.352C39.02,20.763,39.402,20.621,39.959,20.394z"/>
		<path fill-rule="evenodd" clip-rule="evenodd" fill="#FFFFFF" d="M16.812,42.629c0.172-0.393,0.285-0.826,0.526-1.17
			c3.905-5.563,8.393-10.605,13.599-15.003c0.203-0.172,0.425-0.357,0.67-0.434c0.218-0.069,0.603-0.086,0.695,0.036
			c0.14,0.184,0.205,0.575,0.098,0.766c-0.409,0.729-0.858,1.445-1.367,2.11c-3.587,4.691-7.482,9.097-12.12,12.803
			c-0.55,0.44-1.178,0.785-1.769,1.174C17.033,42.816,16.922,42.723,16.812,42.629z"/>
		<path fill-rule="evenodd" clip-rule="evenodd" fill="#FFFFFF" d="M26.97,28.38c-0.898,0.785-1.55,1.355-2.368,2.072
			c-1.131-1.16-2.333-2.369-3.504-3.607c-0.449-0.475-0.858-0.674-1.586-0.562c-2.233,0.342-4.148-1.434-4.002-3.609
			c0.023-0.339,0.191-0.669,0.351-1.202c0.609,0.553,1.046,0.957,1.491,1.352c0.568,0.506,1.192,0.596,1.735,0.03
			c0.528-0.552,0.458-1.163-0.078-1.717c-0.414-0.427-0.815-0.864-1.231-1.307c1.662-1.173,4.232,0.025,4.71,2.066
			c0.026,0.111,0.06,0.235,0.034,0.34c-0.485,1.948,0.849,2.991,2.061,4.085C25.319,26.985,26.085,27.619,26.97,28.38z"/>
		<path fill-rule="evenodd" clip-rule="evenodd" fill="#FFFFFF" d="M38.478,40.377c-0.53-0.499-0.956-0.925-1.41-1.321
			c-0.581-0.507-1.163-0.497-1.733,0.046c-0.59,0.561-0.399,1.072,0.063,1.589c0.4,0.447,0.789,0.906,1.454,1.672
			c-0.898,0.079-1.513,0.257-2.077,0.159c-2.02-0.352-3.119-2.005-2.92-4.126c0.035-0.376-0.109-0.895-0.369-1.149
			c-1.059-1.041-2.193-2.004-3.447-3.129c0.954-0.778,1.624-1.323,2.526-2.059c0.797,0.862,1.711,1.824,2.592,2.816
			c0.521,0.586,1.065,0.801,1.904,0.714C37.717,35.314,39.659,37.938,38.478,40.377z"/>
		<path fill-rule="evenodd" clip-rule="evenodd" fill="#FFFFFF" d="M39.959,20.394c-0.557,0.227-0.939,0.369-1.312,0.536
			c-1.03,0.463-1.664,1.164-1.903,2.352c-0.169,0.843-0.643,1.705-1.205,2.371c-0.746,0.884-1.883,0.896-2.8,0.269
			c-0.946-0.646-1.265-1.609-0.89-2.686C32.821,20.452,36.804,18.961,39.959,20.394z"/>
	</g>
</g>
</svg>
