<?xml version="1.0" encoding="utf-8"?>
<!-- Generator: Adobe Illustrator 16.0.3, SVG Export Plug-In . SVG Version: 6.00 Build 0)  -->
<!DOCTYPE svg PUBLIC "-//W3C//DTD SVG 1.1//EN" "http://www.w3.org/Graphics/SVG/1.1/DTD/svg11.dtd">
<svg version="1.1" id="Layer_1" xmlns="http://www.w3.org/2000/svg" xmlns:xlink="http://www.w3.org/1999/xlink" x="0px" y="0px"
	 width="55px" height="55px" viewBox="0 0 55 55" enable-background="new 0 0 55 55" xml:space="preserve">
<g>
	<g>
		<path fill-rule="evenodd" clip-rule="evenodd" fill="#0179CB" d="M27.551,2.016c7.338,0,14.676,0.011,22.014-0.017
			c0.764-0.003,0.997,0.21,0.921,0.958c-0.269,2.633-0.5,5.27-0.739,7.906c-0.176,1.946-0.338,3.894-0.513,5.84
			c-0.24,2.662-0.489,5.323-0.729,7.985c-0.178,1.971-0.341,3.944-0.518,5.916c-0.24,2.662-0.49,5.323-0.729,7.985
			c-0.179,1.997-0.348,3.995-0.518,5.994c-0.109,1.28-0.174,2.566-0.354,3.837c-0.037,0.257-0.474,0.571-0.782,0.658
			c-4.501,1.266-9.012,2.498-13.521,3.738c-1.37,0.377-2.737,0.768-4.114,1.118c-0.309,0.079-0.674,0.093-0.978,0.009
			c-5.908-1.609-11.811-3.241-17.717-4.857c-0.496-0.136-0.678-0.378-0.72-0.914c-0.211-2.716-0.49-5.426-0.732-8.14
			c-0.226-2.534-0.428-5.072-0.655-7.606c-0.237-2.663-0.496-5.323-0.736-7.984c-0.176-1.946-0.332-3.894-0.506-5.84
			c-0.242-2.687-0.498-5.374-0.741-8.061C5.012,8.62,4.85,6.699,4.684,4.778C4.626,4.112,4.602,3.442,4.515,2.781
			C4.431,2.138,4.707,1.992,5.304,2.004c1.633,0.034,3.267,0.012,4.901,0.012C15.987,2.016,21.77,2.016,27.551,2.016z"/>
		<path opacity="0.2" fill-rule="evenodd" clip-rule="evenodd" fill="#FFFFFF" d="M45.155,12.383
			c0.176-2.15,0.349-4.301,0.547-6.448c0.061-0.654-0.125-0.84-0.729-0.838c-5.811,0.024-11.621,0.015-17.432,0.015
			c-0.013,0-0.027,0-0.041,0v7.271H45.155z"/>
		<path opacity="0.2" fill-rule="evenodd" clip-rule="evenodd" fill="#FFFFFF" d="M27.418,13.251l0.164,38.002
			c0.127-0.005,0.255-0.024,0.372-0.059c1.089-0.312,2.17-0.658,3.254-0.992c3.565-1.101,7.133-2.194,10.692-3.317
			c0.245-0.077,0.589-0.354,0.617-0.579c0.139-1.111,0.185-2.237,0.266-3.358c0.128-1.749,0.254-3.498,0.388-5.247
			c0.179-2.33,0.367-4.66,0.546-6.99c0.133-1.726,0.255-3.452,0.388-5.178c0.18-2.33,0.367-4.66,0.547-6.99
			c0.132-1.704,0.252-3.408,0.385-5.112c0.006-0.085,0.013-0.17,0.02-0.255L27.418,13.251z"/>
		<path fill-rule="evenodd" clip-rule="evenodd" fill="#FFFFFF" d="M48.781,2.923C41.704,2.95,34.627,2.939,27.55,2.939
			c-5.577,0-11.154,0-16.73,0c-1.576,0-3.152,0.022-4.726-0.012C5.516,2.916,5.25,3.057,5.332,3.676
			c0.083,0.639,0.107,1.285,0.163,1.927c0.159,1.853,0.316,3.706,0.484,5.558c0.234,2.592,0.48,5.183,0.714,7.775
			c0.169,1.876,0.319,3.755,0.488,5.631c0.232,2.568,0.481,5.133,0.71,7.701c0.218,2.444,0.414,4.892,0.631,7.336
			c0.234,2.617,0.502,5.231,0.707,7.851c0.04,0.517,0.216,0.751,0.693,0.882c5.697,1.56,11.389,3.133,17.088,4.686
			c0.293,0.08,0.646,0.066,0.943-0.009c1.328-0.339,2.646-0.716,3.968-1.079c4.35-1.196,8.699-2.385,13.041-3.605
			c0.298-0.084,0.72-0.388,0.755-0.635c0.174-1.225,0.236-2.466,0.342-3.7c0.165-1.928,0.326-3.855,0.499-5.782
			c0.229-2.567,0.472-5.134,0.702-7.701c0.171-1.901,0.329-3.804,0.5-5.705c0.23-2.567,0.471-5.134,0.702-7.701
			c0.169-1.877,0.325-3.755,0.495-5.633c0.23-2.542,0.453-5.085,0.713-7.625C49.744,3.126,49.518,2.92,48.781,2.923z M48.885,4.703
			c-0.251,2.45-0.466,4.903-0.688,7.355c-0.164,1.811-0.314,3.623-0.477,5.433c-0.224,2.476-0.456,4.952-0.679,7.428
			c-0.164,1.834-0.316,3.669-0.481,5.503c-0.223,2.477-0.456,4.952-0.678,7.429c-0.166,1.858-0.323,3.717-0.481,5.576
			c-0.102,1.191-0.161,2.388-0.33,3.569c-0.033,0.238-0.439,0.531-0.728,0.612c-4.188,1.178-8.384,2.324-12.578,3.478
			c-1.274,0.351-2.547,0.714-3.827,1.041c-0.288,0.073-0.627,0.085-0.91,0.009c-5.496-1.498-10.987-3.016-16.481-4.52
			c-0.461-0.126-0.63-0.352-0.669-0.851c-0.197-2.526-0.456-5.048-0.681-7.572c-0.21-2.357-0.398-4.718-0.609-7.076
			c-0.221-2.478-0.461-4.952-0.685-7.428c-0.164-1.811-0.309-3.622-0.471-5.432c-0.226-2.5-0.463-5-0.688-7.5
			C6.58,9.971,6.428,8.184,6.274,6.397c-0.053-0.62-0.076-1.243-0.157-1.858C6.039,3.941,6.295,3.805,6.852,3.816
			c1.519,0.032,3.039,0.011,4.559,0.011c5.379,0,10.758,0,16.137,0c6.826,0,13.653,0.01,20.479-0.016
			C48.737,3.809,48.955,4.008,48.885,4.703z"/>
		<g>
			<path fill="#FFFFFF" d="M10.199,7.05h0.777l0.836,1.64l0.838-1.64h0.777l-1.615,3.171L10.199,7.05z"/>
			<path fill="#FFFFFF" d="M13.71,10.073V7.05h0.735v3.023H13.71z"/>
			<path fill="#FFFFFF" d="M15.102,7.05h2.673v0.595h-2.31v0.619h2.122c0.101,0,0.188,0.036,0.262,0.107
				c0.073,0.072,0.11,0.156,0.11,0.253v1.09c0,0.099-0.037,0.184-0.11,0.254s-0.161,0.105-0.262,0.105h-2.859V9.478h2.494v-0.62
				h-2.12c-0.103,0-0.19-0.035-0.264-0.105s-0.11-0.155-0.11-0.254v-1.09c0-0.098,0.037-0.182,0.11-0.252
				C14.911,7.085,14.999,7.05,15.102,7.05z"/>
			<path fill="#FFFFFF" d="M20.735,7.05h0.735v2.664c0,0.099-0.036,0.184-0.109,0.254s-0.16,0.105-0.262,0.105h-2.486
				c-0.102,0-0.19-0.035-0.262-0.105c-0.073-0.07-0.109-0.155-0.109-0.254V7.05h0.735v2.428h1.758V7.05z"/>
			<path fill="#FFFFFF" d="M22.124,7.05h2.488c0.101,0,0.188,0.035,0.261,0.106c0.074,0.071,0.11,0.155,0.11,0.252v2.664h-0.737
				V9.154H22.49v0.918h-0.737V7.409c0-0.098,0.037-0.182,0.109-0.252C21.934,7.085,22.022,7.05,22.124,7.05z M24.246,8.562V7.645
				H22.49v0.917H24.246z"/>
			<path fill="#FFFFFF" d="M26.001,7.05v2.428h2.494v0.595h-3.229V7.05H26.001z"/>
			<path fill="#FFFFFF" d="M30.158,7.05h2.857v0.595h-2.492v1.833h2.492v0.595h-2.857c-0.103,0-0.189-0.035-0.263-0.105
				c-0.072-0.07-0.108-0.155-0.108-0.254V7.409c0-0.098,0.036-0.182,0.108-0.252C29.969,7.085,30.056,7.05,30.158,7.05z"/>
			<path fill="#FFFFFF" d="M36.157,7.05c0.101,0,0.188,0.035,0.262,0.106c0.073,0.071,0.11,0.155,0.11,0.252v2.305
				c0,0.099-0.037,0.184-0.11,0.254s-0.161,0.105-0.262,0.105h-2.485c-0.103,0-0.19-0.035-0.264-0.105s-0.11-0.155-0.11-0.254V7.409
				c0-0.098,0.037-0.182,0.11-0.252c0.073-0.071,0.161-0.106,0.264-0.106H36.157z M35.794,7.645h-1.759v1.833h1.759V7.645z"/>
			<path fill="#FFFFFF" d="M39.932,7.156c0.073,0.071,0.11,0.155,0.11,0.252v2.305c0,0.099-0.037,0.184-0.11,0.254
				c-0.074,0.07-0.162,0.105-0.264,0.105h-2.856V7.05h2.856C39.77,7.05,39.857,7.085,39.932,7.156z M37.546,7.645v1.833h1.76V7.645
				H37.546z"/>
			<path fill="#FFFFFF" d="M42.818,8.858h-1.757v0.62h2.494v0.595h-3.23V7.05h3.23v0.595h-2.494v0.619h1.757V8.858z"/>
		</g>
	</g>
	<path fill-rule="evenodd" clip-rule="evenodd" fill="#FFFFFF" d="M15.234,35.718c0-4.075,0-8.149,0-12.223
		c0.166-0.049,0.342-0.077,0.496-0.151c0.57-0.271,1.14-0.544,1.694-0.845c0.293-0.159,0.509-0.153,0.781,0.063
		c1.698,1.346,3.421,2.662,5.109,4.02c0.429,0.345,0.675,0.318,1.061-0.071c2.85-2.872,5.729-5.715,8.585-8.581
		c0.3-0.301,0.553-0.367,0.948-0.198c0.994,0.426,2.004,0.819,3.015,1.208c0.888,0.341,1.785,0.659,2.679,0.986
		c0,6.418,0,12.836,0,19.254c-1.876,0.755-3.759,1.492-5.62,2.277c-0.449,0.188-0.704,0.108-1.029-0.218
		c-2.87-2.879-5.76-5.738-8.632-8.615c-0.3-0.3-0.489-0.343-0.847-0.059c-1.698,1.347-3.436,2.645-5.131,3.994
		c-0.379,0.302-0.663,0.294-1.063,0.09C16.614,36.31,15.918,36.025,15.234,35.718z M33.183,34.084c0-3.049,0-5.934,0-8.958
		c-1.983,1.528-3.87,2.981-5.825,4.487C29.328,31.126,31.208,32.568,33.183,34.084z M18.056,32.521
		c1.088-0.983,2.081-1.879,2.95-2.664c-1.02-1.025-2.001-2.012-2.95-2.966C18.056,28.653,18.056,30.511,18.056,32.521z"/>
</g>
</svg>
