<?xml version="1.0" encoding="utf-8"?>
<!-- Generator: Adobe Illustrator 16.0.3, SVG Export Plug-In . SVG Version: 6.00 Build 0)  -->
<!DOCTYPE svg PUBLIC "-//W3C//DTD SVG 1.1//EN" "http://www.w3.org/Graphics/SVG/1.1/DTD/svg11.dtd">
<svg version="1.1" id="Layer_1" xmlns="http://www.w3.org/2000/svg" xmlns:xlink="http://www.w3.org/1999/xlink" x="0px" y="0px"
	 width="55px" height="55px" viewBox="0 0 55 55" enable-background="new 0 0 55 55" xml:space="preserve">
<g>
	<g>
		<g>
			<path fill-rule="evenodd" clip-rule="evenodd" fill="#8ED6FC" d="M27.551,2.016c7.337,0,14.676,0.011,22.014-0.017
				c0.763-0.003,0.997,0.21,0.921,0.958c-0.27,2.633-0.5,5.27-0.739,7.906c-0.176,1.946-0.338,3.894-0.514,5.84
				c-0.239,2.662-0.488,5.323-0.728,7.985c-0.178,1.971-0.341,3.944-0.519,5.916c-0.239,2.662-0.489,5.323-0.728,7.985
				c-0.179,1.997-0.348,3.996-0.518,5.994c-0.109,1.28-0.174,2.567-0.354,3.837c-0.037,0.257-0.474,0.571-0.782,0.658
				c-4.502,1.266-9.013,2.498-13.521,3.738c-1.37,0.377-2.737,0.768-4.114,1.119c-0.309,0.078-0.673,0.092-0.978,0.009
				c-5.909-1.61-11.811-3.242-17.717-4.858c-0.495-0.136-0.677-0.378-0.719-0.914c-0.212-2.716-0.49-5.426-0.732-8.14
				c-0.226-2.534-0.428-5.071-0.654-7.606c-0.238-2.662-0.496-5.323-0.737-7.984c-0.176-1.946-0.331-3.894-0.506-5.839
				c-0.242-2.688-0.498-5.374-0.74-8.062C5.012,8.62,4.849,6.699,4.684,4.778C4.626,4.112,4.602,3.442,4.515,2.781
				C4.431,2.138,4.706,1.992,5.304,2.004c1.633,0.034,3.267,0.012,4.9,0.012C15.987,2.016,21.769,2.016,27.551,2.016z"/>
			<path opacity="0.2" fill-rule="evenodd" clip-rule="evenodd" fill="#FFFFFF" d="M45.155,12.383
				c0.176-2.15,0.348-4.301,0.547-6.448c0.061-0.654-0.125-0.84-0.729-0.838c-5.811,0.024-11.621,0.015-17.432,0.015
				c-0.013,0-0.027,0-0.041,0v7.271H45.155z"/>
			<path opacity="0.2" fill-rule="evenodd" clip-rule="evenodd" fill="#FFFFFF" d="M27.418,13.251l0.164,38.002
				c0.127-0.005,0.255-0.024,0.372-0.058c1.089-0.313,2.17-0.659,3.254-0.993c3.565-1.101,7.133-2.194,10.692-3.317
				c0.244-0.077,0.589-0.354,0.617-0.579c0.138-1.111,0.185-2.237,0.266-3.357c0.128-1.75,0.253-3.499,0.387-5.248
				c0.18-2.33,0.367-4.659,0.547-6.99c0.133-1.726,0.255-3.452,0.388-5.178c0.18-2.33,0.367-4.66,0.547-6.99
				c0.131-1.704,0.252-3.408,0.384-5.112c0.007-0.085,0.014-0.17,0.021-0.255L27.418,13.251z"/>
			<g>
				<path fill="#FFFFFF" d="M13.258,7.368l1.198,1.202l0.536-1.892h1.021l-1.021,3.559l-1.734-1.75l-1.734,1.75l-1.021-3.559h1.021
					l0.536,1.892L13.258,7.368z"/>
				<path fill="#FFFFFF" d="M19.871,8.708H17.43v0.697h3.465v0.668h-4.489V6.678h4.489v0.668H17.43V8.04h2.441V8.708z"/>
				<path fill="#FFFFFF" d="M25.776,9.669c0,0.111-0.051,0.206-0.153,0.285c-0.102,0.079-0.223,0.119-0.363,0.119h-3.973V6.678
					h3.717c0.14,0,0.261,0.04,0.363,0.119s0.153,0.174,0.153,0.284V7.83c0,0.131-0.087,0.223-0.261,0.276
					c0.14,0,0.261,0.04,0.363,0.119s0.153,0.174,0.153,0.284V9.669z M24.497,7.346h-2.186V8.04h2.186V7.346z M24.752,8.708h-2.441
					v0.697h2.441V8.708z"/>
				<path fill="#FFFFFF" d="M30.139,6.678c0.142,0,0.264,0.04,0.365,0.119c0.103,0.08,0.153,0.174,0.153,0.284v1.557
					c0,0.112-0.051,0.208-0.153,0.286c-0.102,0.078-0.224,0.117-0.365,0.117h-2.946v1.032h-1.024V6.678H30.139z M27.192,7.346v1.029
					h2.44V7.346H27.192z"/>
				<path fill="#FFFFFF" d="M31.566,6.678h3.456c0.141,0,0.262,0.04,0.363,0.119s0.153,0.174,0.153,0.284v2.992h-1.024V9.041h-2.44
					v1.032H31.05V7.081c0-0.109,0.051-0.204,0.151-0.284C31.303,6.717,31.424,6.678,31.566,6.678z M34.515,8.375V7.346h-2.44v1.029
					H34.515z"/>
				<path fill="#FFFFFF" d="M36.447,6.678h3.97v0.668h-3.462v2.059h3.462v0.668h-3.97c-0.142,0-0.264-0.04-0.364-0.119
					c-0.102-0.079-0.151-0.174-0.151-0.285V7.081c0-0.109,0.05-0.204,0.151-0.284C36.184,6.717,36.306,6.678,36.447,6.678z"/>
				<path fill="#FFFFFF" d="M44.117,10.072l-1.678-1.38l-0.605,0.427v0.953H40.81V6.678h1.024v1.543l2.199-1.543h1.266l0.005,0.004
					l-2.227,1.564l2.219,1.827H44.117z"/>
			</g>
			<path fill-rule="evenodd" clip-rule="evenodd" fill="#FFFFFF" d="M48.781,2.923C41.704,2.95,34.627,2.939,27.55,2.939
				c-5.577,0-11.154,0-16.731,0c-1.575,0-3.151,0.022-4.726-0.012C5.516,2.916,5.25,3.057,5.332,3.676
				c0.083,0.639,0.107,1.285,0.163,1.927c0.159,1.853,0.316,3.706,0.483,5.558c0.234,2.592,0.481,5.183,0.714,7.775
				c0.169,1.876,0.318,3.755,0.488,5.631c0.232,2.568,0.481,5.134,0.71,7.701c0.218,2.444,0.413,4.892,0.631,7.337
				c0.233,2.616,0.502,5.23,0.707,7.851c0.04,0.517,0.216,0.75,0.693,0.881c5.697,1.56,11.389,3.133,17.087,4.686
				c0.294,0.08,0.646,0.067,0.943-0.009c1.328-0.339,2.646-0.715,3.968-1.078c4.35-1.197,8.699-2.385,13.041-3.606
				c0.298-0.084,0.719-0.387,0.755-0.635c0.174-1.225,0.236-2.466,0.342-3.7c0.164-1.928,0.326-3.855,0.499-5.782
				c0.229-2.566,0.472-5.133,0.702-7.701c0.171-1.901,0.328-3.804,0.499-5.705c0.231-2.567,0.472-5.134,0.703-7.701
				c0.169-1.877,0.325-3.755,0.495-5.633c0.23-2.542,0.453-5.085,0.713-7.625C49.743,3.126,49.518,2.92,48.781,2.923z M48.884,4.703
				c-0.25,2.45-0.465,4.903-0.688,7.355c-0.164,1.811-0.314,3.623-0.478,5.433c-0.223,2.476-0.455,4.952-0.678,7.428
				c-0.165,1.834-0.316,3.669-0.481,5.503c-0.223,2.477-0.456,4.952-0.678,7.429c-0.166,1.858-0.323,3.718-0.481,5.576
				c-0.102,1.191-0.161,2.388-0.33,3.569c-0.033,0.239-0.439,0.531-0.728,0.612c-4.188,1.179-8.384,2.324-12.578,3.478
				c-1.275,0.352-2.547,0.715-3.828,1.041c-0.287,0.073-0.626,0.086-0.91,0.009c-5.497-1.498-10.987-3.016-16.482-4.52
				c-0.46-0.126-0.63-0.352-0.669-0.851c-0.197-2.526-0.457-5.048-0.681-7.571c-0.21-2.358-0.398-4.719-0.609-7.077
				c-0.221-2.477-0.462-4.952-0.686-7.428c-0.164-1.811-0.308-3.622-0.471-5.432c-0.225-2.5-0.463-5-0.688-7.5
				C6.58,9.971,6.428,8.184,6.274,6.397c-0.053-0.62-0.077-1.243-0.157-1.858C6.039,3.941,6.295,3.805,6.852,3.816
				c1.519,0.032,3.039,0.011,4.559,0.011c5.379,0,10.759,0,16.137,0c6.827,0,13.654,0.01,20.48-0.016
				C48.737,3.809,48.955,4.008,48.884,4.703z"/>
		</g>
	</g>
	<g>
		<path fill-rule="evenodd" clip-rule="evenodd" fill="#FFFFFF" d="M13.538,24.439c0.743,0.417,1.488,0.831,2.229,1.252
			c0.733,0.417,1.464,0.841,2.189,1.273c0.073,0.043,0.146,0.159,0.146,0.242c0.008,3,0.007,5.999,0.001,8.999
			c0,0.077-0.063,0.187-0.13,0.227c-0.604,0.362-1.215,0.714-1.826,1.066c-0.837,0.483-1.675,0.965-2.514,1.446
			c-0.027,0.016-0.063,0.015-0.094,0.021C13.538,34.123,13.538,29.281,13.538,24.439z"/>
		<path fill-rule="evenodd" clip-rule="evenodd" fill="#FFFFFF" d="M41.299,38.965c-0.473-0.261-0.947-0.516-1.416-0.782
			c-0.82-0.467-1.637-0.94-2.454-1.412c-0.199-0.114-0.406-0.219-0.59-0.354c-0.066-0.049-0.104-0.176-0.104-0.268
			c-0.007-1.09-0.005-2.18-0.005-3.27c0-1.872,0.002-3.744-0.003-5.616c-0.001-0.17,0.052-0.253,0.208-0.34
			c0.818-0.453,1.624-0.929,2.436-1.393c0.642-0.367,1.286-0.728,1.929-1.091C41.299,29.281,41.299,34.123,41.299,38.965z"/>
		<path fill-rule="evenodd" clip-rule="evenodd" fill="#FFFFFF" d="M19.789,26.674c1.251-0.684,2.467-1.348,3.683-2.012
			c1.252-0.685,2.503-1.373,3.76-2.051c0.091-0.049,0.25-0.069,0.333-0.023c2.451,1.329,4.897,2.668,7.344,4.005
			c0.036,0.02,0.071,0.043,0.126,0.078c-0.053,0.042-0.091,0.081-0.137,0.107c-2.438,1.402-4.878,2.803-7.321,4.198
			c-0.074,0.042-0.213,0.049-0.285,0.008c-2.459-1.401-4.913-2.811-7.368-4.218C19.89,26.746,19.858,26.722,19.789,26.674z"/>
		<path fill-rule="evenodd" clip-rule="evenodd" fill="#FFFFFF" d="M26.86,40.061c-0.482-0.262-0.928-0.502-1.373-0.744
			c-2.014-1.101-4.027-2.202-6.044-3.298c-0.139-0.076-0.204-0.153-0.203-0.322c0.006-2.596,0.004-5.189,0.005-7.785
			c0-0.065,0.008-0.129,0.014-0.235c0.434,0.246,0.845,0.477,1.254,0.711c2.026,1.162,4.051,2.329,6.082,3.483
			c0.201,0.114,0.271,0.236,0.27,0.466c-0.009,2.461-0.005,4.923-0.005,7.384C26.86,39.819,26.86,39.917,26.86,40.061z"/>
		<path fill-rule="evenodd" clip-rule="evenodd" fill="#FFFFFF" d="M27.988,40.047c0-0.108,0-0.189,0-0.271c0-2.503,0-5.006,0-7.509
			c0-0.133-0.003-0.242,0.149-0.329c2.45-1.397,4.895-2.803,7.341-4.206c0.021-0.012,0.045-0.018,0.1-0.038
			c0.007,0.088,0.018,0.165,0.018,0.241c0.001,2.585,0,5.171,0.004,7.757c0,0.15-0.037,0.238-0.177,0.314
			c-2.427,1.319-4.851,2.645-7.275,3.967C28.104,39.998,28.061,40.015,27.988,40.047z"/>
		<path fill-rule="evenodd" clip-rule="evenodd" fill="#FFFFFF" d="M40.643,23.453c-0.648,0.372-1.237,0.71-1.828,1.048
			c-0.826,0.472-1.657,0.938-2.477,1.419c-0.119,0.07-0.173,0.05-0.28-0.009c-0.753-0.418-1.517-0.819-2.272-1.233
			c-1.29-0.706-2.575-1.418-3.864-2.125c-0.563-0.307-1.126-0.611-1.694-0.906c-0.166-0.086-0.238-0.188-0.236-0.384
			c0.008-1.622,0.004-3.243,0.004-4.915C32.213,18.718,36.405,21.073,40.643,23.453z"/>
		<path fill-rule="evenodd" clip-rule="evenodd" fill="#FFFFFF" d="M26.842,16.352c0,1.708,0.001,3.38-0.004,5.052
			c0,0.057-0.051,0.138-0.101,0.167c-0.696,0.386-1.398,0.764-2.097,1.146c-1.29,0.707-2.577,1.416-3.865,2.123
			c-0.67,0.367-1.339,0.735-2.015,1.094c-0.061,0.032-0.177,0.021-0.242-0.015c-0.625-0.345-1.247-0.696-1.866-1.051
			c-0.72-0.411-1.436-0.827-2.153-1.242c-0.085-0.049-0.167-0.104-0.284-0.178C18.424,21.083,22.615,18.729,26.842,16.352z"/>
		<path fill-rule="evenodd" clip-rule="evenodd" fill="#FFFFFF" d="M40.308,39.79c-4.104,2.306-8.191,4.602-12.313,6.917
			c0-0.124,0-0.211,0-0.298c0-1.556,0.004-3.109-0.004-4.664c-0.002-0.26,0.045-0.411,0.312-0.552
			c1.323-0.693,2.627-1.423,3.937-2.143c1.101-0.604,2.197-1.216,3.303-1.812c0.086-0.047,0.246-0.043,0.333,0.005
			c0.832,0.462,1.655,0.938,2.48,1.411c0.612,0.35,1.224,0.702,1.834,1.054C40.224,39.729,40.255,39.755,40.308,39.79z"/>
		<path fill-rule="evenodd" clip-rule="evenodd" fill="#FFFFFF" d="M14.53,39.784c0.598-0.348,1.17-0.684,1.745-1.015
			c0.859-0.494,1.724-0.981,2.581-1.481c0.19-0.111,0.346-0.122,0.542-0.012c0.75,0.425,1.506,0.838,2.262,1.251
			c1.188,0.651,2.377,1.3,3.566,1.949c0.497,0.272,0.995,0.543,1.486,0.825c0.062,0.035,0.125,0.134,0.126,0.203
			c0.007,1.721,0.005,3.441,0.005,5.198C22.732,44.394,18.645,42.097,14.53,39.784z"/>
	</g>
</g>
</svg>
