<?xml version="1.0" encoding="utf-8"?>
<!-- Generator: Adobe Illustrator 16.0.3, SVG Export Plug-In . SVG Version: 6.00 Build 0)  -->
<!DOCTYPE svg PUBLIC "-//W3C//DTD SVG 1.1//EN" "http://www.w3.org/Graphics/SVG/1.1/DTD/svg11.dtd">
<svg version="1.1" id="Layer_1" xmlns="http://www.w3.org/2000/svg" xmlns:xlink="http://www.w3.org/1999/xlink" x="0px" y="0px"
	 width="55px" height="55px" viewBox="0 0 55 55" enable-background="new 0 0 55 55" xml:space="preserve">
<g>
	<g>
		<path fill-rule="evenodd" clip-rule="evenodd" fill="#21759B" d="M27.551,2.016c7.337,0,14.675,0.011,22.013-0.017
			c0.764-0.002,0.998,0.211,0.922,0.958c-0.27,2.633-0.5,5.27-0.739,7.906c-0.177,1.946-0.339,3.894-0.514,5.84
			c-0.239,2.662-0.489,5.322-0.728,7.984c-0.178,1.972-0.341,3.944-0.519,5.916c-0.239,2.662-0.49,5.323-0.729,7.985
			c-0.179,1.997-0.347,3.996-0.518,5.994c-0.109,1.28-0.173,2.567-0.354,3.837c-0.037,0.257-0.474,0.571-0.783,0.658
			c-4.501,1.266-9.012,2.498-13.521,3.738c-1.37,0.377-2.737,0.768-4.114,1.119c-0.309,0.078-0.673,0.092-0.978,0.009
			c-5.909-1.61-11.811-3.242-17.717-4.858c-0.495-0.136-0.677-0.378-0.719-0.914c-0.212-2.716-0.491-5.426-0.732-8.14
			c-0.226-2.534-0.428-5.071-0.654-7.606c-0.238-2.662-0.496-5.322-0.737-7.984c-0.176-1.946-0.331-3.893-0.506-5.839
			c-0.242-2.688-0.498-5.374-0.741-8.061c-0.173-1.92-0.336-3.842-0.501-5.763C4.626,4.112,4.602,3.442,4.515,2.781
			c-0.084-0.643,0.191-0.789,0.79-0.776c1.633,0.035,3.267,0.012,4.9,0.012C15.987,2.016,21.769,2.016,27.551,2.016z"/>
		<path opacity="0.2" fill-rule="evenodd" clip-rule="evenodd" fill="#FFFFFF" d="M45.155,12.383
			c0.175-2.15,0.348-4.301,0.547-6.448c0.061-0.654-0.125-0.84-0.729-0.837c-5.811,0.024-11.621,0.014-17.432,0.014
			c-0.014,0-0.027,0-0.041,0v7.271H45.155z"/>
		<path opacity="0.2" fill-rule="evenodd" clip-rule="evenodd" fill="#FFFFFF" d="M27.418,13.252l0.164,38.002
			c0.127-0.005,0.255-0.024,0.372-0.058c1.089-0.313,2.17-0.659,3.254-0.993c3.565-1.101,7.132-2.194,10.691-3.317
			c0.245-0.077,0.59-0.354,0.618-0.579c0.138-1.111,0.185-2.237,0.266-3.357c0.127-1.75,0.253-3.499,0.387-5.248
			c0.18-2.33,0.367-4.659,0.547-6.99c0.133-1.726,0.255-3.452,0.388-5.178c0.18-2.33,0.367-4.659,0.547-6.989
			c0.131-1.704,0.252-3.409,0.384-5.112c0.007-0.085,0.013-0.17,0.02-0.255L27.418,13.252z"/>
		<path fill-rule="evenodd" clip-rule="evenodd" fill="#FFFFFF" d="M48.781,2.923C41.704,2.95,34.627,2.939,27.549,2.939
			c-5.577,0-11.153,0-16.73,0c-1.576,0-3.151,0.022-4.726-0.011C5.516,2.916,5.25,3.057,5.332,3.677
			c0.083,0.638,0.107,1.284,0.163,1.926c0.159,1.853,0.316,3.706,0.483,5.558c0.234,2.592,0.48,5.183,0.714,7.775
			c0.168,1.876,0.318,3.755,0.488,5.632c0.232,2.568,0.481,5.133,0.71,7.701c0.218,2.444,0.413,4.892,0.631,7.337
			c0.233,2.616,0.502,5.23,0.707,7.851c0.04,0.517,0.216,0.75,0.693,0.881c5.696,1.56,11.389,3.133,17.087,4.686
			c0.293,0.08,0.646,0.067,0.943-0.009c1.328-0.339,2.646-0.715,3.968-1.078c4.349-1.197,8.699-2.385,13.041-3.606
			c0.298-0.084,0.719-0.387,0.754-0.635c0.175-1.225,0.237-2.466,0.342-3.7c0.165-1.928,0.327-3.855,0.499-5.782
			c0.23-2.566,0.472-5.133,0.703-7.701c0.171-1.901,0.328-3.803,0.499-5.705c0.231-2.567,0.472-5.134,0.703-7.701
			c0.169-1.877,0.325-3.756,0.494-5.633c0.23-2.542,0.454-5.085,0.714-7.625C49.743,3.126,49.518,2.921,48.781,2.923z M48.884,4.703
			c-0.251,2.449-0.466,4.903-0.688,7.355c-0.164,1.811-0.314,3.622-0.478,5.433c-0.223,2.476-0.455,4.951-0.678,7.428
			c-0.165,1.834-0.317,3.669-0.482,5.503c-0.222,2.477-0.455,4.952-0.677,7.429c-0.167,1.858-0.323,3.718-0.481,5.576
			c-0.102,1.191-0.161,2.388-0.33,3.569c-0.034,0.239-0.44,0.531-0.728,0.612c-4.188,1.179-8.384,2.324-12.578,3.478
			c-1.275,0.352-2.547,0.715-3.828,1.041c-0.287,0.073-0.626,0.086-0.91,0.009c-5.497-1.498-10.987-3.016-16.482-4.52
			c-0.461-0.126-0.63-0.352-0.669-0.851c-0.197-2.526-0.457-5.048-0.682-7.571c-0.21-2.358-0.398-4.719-0.608-7.077
			c-0.221-2.477-0.462-4.951-0.686-7.428c-0.164-1.81-0.308-3.622-0.471-5.432c-0.226-2.5-0.463-5-0.688-7.5
			C6.58,9.971,6.428,8.184,6.274,6.397c-0.054-0.62-0.077-1.243-0.157-1.859C6.039,3.941,6.295,3.805,6.852,3.816
			c1.519,0.032,3.039,0.011,4.559,0.011c5.379,0,10.759,0,16.137,0c6.827,0,13.653,0.01,20.479-0.016
			C48.737,3.81,48.954,4.008,48.884,4.703z"/>
		<g>
			<path fill="#FFFFFF" d="M12.462,7.512l0.914,1.135l0.409-1.786h0.779l-0.779,3.359l-1.322-1.651l-1.322,1.651L10.361,6.86h0.779
				l0.409,1.786L12.462,7.512z"/>
			<path fill="#FFFFFF" d="M17.893,6.86c0.106,0,0.199,0.038,0.277,0.113s0.117,0.165,0.117,0.268v2.443
				c0,0.104-0.039,0.194-0.117,0.269c-0.078,0.075-0.17,0.112-0.277,0.112h-2.634c-0.108,0-0.202-0.037-0.28-0.112
				c-0.077-0.074-0.116-0.164-0.116-0.269V7.241c0-0.103,0.039-0.192,0.116-0.268c0.078-0.075,0.171-0.113,0.28-0.113H17.893z
				 M17.508,7.491h-1.864v1.943h1.864V7.491z"/>
			<path fill="#FFFFFF" d="M21.614,6.86c0.107,0,0.2,0.038,0.278,0.113s0.118,0.165,0.118,0.268v1.47
				c0,0.106-0.039,0.196-0.118,0.27c-0.079,0.074-0.171,0.11-0.278,0.11h-0.068l0.612,0.974h-0.912l-0.612-0.974h-1.269v0.974
				h-0.778V6.86H21.614z M21.229,8.462V7.491h-1.864v0.971H21.229z"/>
			<path fill="#FFFFFF" d="M25.763,6.973c0.079,0.075,0.118,0.165,0.118,0.268v2.443c0,0.104-0.039,0.194-0.118,0.269
				c-0.078,0.075-0.171,0.112-0.278,0.112h-3.028V6.86h3.028C25.592,6.86,25.685,6.898,25.763,6.973z M23.236,7.491v1.943H25.1
				V7.491H23.236z"/>
			<path fill="#FFFFFF" d="M29.208,6.86c0.108,0,0.201,0.038,0.279,0.113c0.077,0.075,0.116,0.165,0.116,0.268v1.47
				c0,0.106-0.039,0.196-0.116,0.27c-0.078,0.074-0.171,0.11-0.279,0.11h-2.247v0.974H26.18V6.86H29.208z M26.961,7.491v0.971h1.861
				V7.491H26.961z"/>
			<path fill="#FFFFFF" d="M32.931,6.86c0.107,0,0.2,0.038,0.278,0.113c0.079,0.075,0.118,0.165,0.118,0.268v1.47
				c0,0.106-0.039,0.196-0.118,0.27c-0.078,0.074-0.171,0.11-0.278,0.11h-0.068l0.612,0.974h-0.911l-0.612-0.974h-1.269v0.974
				h-0.779V6.86H32.931z M32.546,8.462V7.491h-1.863v0.971H32.546z"/>
			<path fill="#FFFFFF" d="M36.417,8.777h-1.861v0.657h2.643v0.63h-3.424V6.86h3.424v0.631h-2.643v0.655h1.861V8.777z"/>
			<path fill="#FFFFFF" d="M37.894,6.86h2.833v0.631h-2.448v0.655h2.249c0.107,0,0.199,0.038,0.277,0.114
				c0.077,0.076,0.116,0.166,0.116,0.269v1.156c0,0.104-0.039,0.194-0.116,0.269c-0.078,0.075-0.17,0.112-0.277,0.112h-3.03v-0.63
				h2.643V8.777h-2.246c-0.108,0-0.202-0.037-0.279-0.112c-0.078-0.075-0.117-0.164-0.117-0.269V7.241
				c0-0.103,0.039-0.192,0.117-0.268C37.691,6.898,37.785,6.86,37.894,6.86z"/>
			<path fill="#FFFFFF" d="M41.616,6.86h2.833v0.631h-2.447v0.655h2.249c0.106,0,0.199,0.038,0.276,0.114
				c0.078,0.076,0.117,0.166,0.117,0.269v1.156c0,0.104-0.039,0.194-0.117,0.269c-0.077,0.075-0.17,0.112-0.276,0.112h-3.03v-0.63
				h2.643V8.777h-2.247c-0.108,0-0.201-0.037-0.279-0.112c-0.077-0.075-0.116-0.164-0.116-0.269V7.241
				c0-0.103,0.039-0.192,0.116-0.268C41.415,6.898,41.508,6.86,41.616,6.86z"/>
		</g>
	</g>
	<path fill-rule="evenodd" clip-rule="evenodd" fill="#FFFFFF" d="M27.345,18.08c6.135-0.093,11.552,5.078,11.637,11.109
		c0.093,6.544-4.926,11.815-11.356,11.928c-6.244,0.108-11.552-4.977-11.765-11.038C15.642,23.854,20.569,18.196,27.345,18.08z
		 M24.791,35.726c0.094-0.122,0.146-0.164,0.163-0.218c0.685-2.02,1.373-4.039,2.036-6.065c0.067-0.207,0.021-0.48-0.053-0.695
		c-0.353-1.018-0.78-2.012-1.088-3.041c-0.201-0.67-0.511-1.031-1.25-1.034c-0.194-0.001-0.386-0.297-0.579-0.458
		c0.232-0.137,0.454-0.364,0.699-0.392c0.398-0.045,0.812,0.067,1.219,0.063c1.245-0.014,2.489-0.048,3.734-0.082
		c0.339-0.01,0.713-0.039,0.748,0.409c0.033,0.41-0.308,0.459-0.632,0.49c-0.273,0.025-0.546,0.074-0.893,0.123
		c1.227,3.626,2.424,7.168,3.661,10.83c0.107-0.201,0.155-0.265,0.178-0.336c0.511-1.712,1.033-3.421,1.522-5.14
		c0.295-1.034,0.186-2.062-0.263-3.032c-0.279-0.607-0.635-1.18-0.962-1.766c-0.386-0.691-0.678-1.402-0.391-2.205
		c0.26-0.725,0.831-1.104,1.585-1.271c-4.558-4.268-12.454-3.003-15.274,1.976c0.13,0.011,0.249,0.035,0.365,0.03
		c0.877-0.033,1.754-0.07,2.631-0.111c0.327-0.015,0.691,0.001,0.661,0.41c-0.014,0.175-0.332,0.385-0.554,0.471
		c-0.269,0.104-0.583,0.092-0.944,0.139C22.349,28.489,23.56,32.078,24.791,35.726z M27.689,30.8
		c-0.057,0.006-0.114,0.013-0.171,0.019c-0.991,2.869-1.983,5.738-2.972,8.601c1.354,0.688,5.113,0.61,6.232-0.2
		C29.751,36.419,28.721,33.609,27.689,30.8z M17.943,25.449c-1.196,2.966-1.151,5.753,0.096,8.517
		c0.953,2.11,3.375,4.503,4.756,4.717C21.192,34.311,19.595,29.956,17.943,25.449z M36.77,25.244
		c-0.224,1.108-0.358,2.381-0.745,3.573c-0.963,2.974-2.041,5.911-3.071,8.864c-0.07,0.202-0.125,0.409-0.201,0.662
		C37.056,36.542,39.262,28.941,36.77,25.244z"/>
</g>
</svg>
