<svg xmlns="http://www.w3.org/2000/svg" width="55" height="55"><path fill-rule="evenodd" clip-rule="evenodd" fill="#CB3837" d="M27.552 2.016c7.338 0 14.676.011 22.014-.017.764-.002.997.211.921.958-.27 2.633-.501 5.27-.739 7.906-.177 1.946-.339 3.894-.514 5.84-.238 2.662-.488 5.322-.728 7.984-.178 1.972-.342 3.944-.518 5.916-.24 2.662-.491 5.323-.729 7.985-.178 1.997-.348 3.996-.517 5.994-.108 1.28-.175 2.567-.354 3.837-.036.257-.473.571-.782.658-4.501 1.266-9.012 2.498-13.521 3.738-1.37.377-2.737.768-4.114 1.119-.31.078-.674.092-.978.009-5.908-1.61-11.811-3.242-17.717-4.858-.495-.136-.678-.378-.719-.914-.212-2.716-.491-5.426-.733-8.14-.226-2.534-.428-5.071-.655-7.606-.237-2.662-.496-5.322-.736-7.984-.176-1.946-.332-3.893-.507-5.839-.241-2.688-.497-5.374-.74-8.061-.173-1.92-.336-3.842-.501-5.763-.059-.666-.083-1.336-.17-1.997-.084-.643.191-.789.79-.776 1.633.035 3.267.012 4.9.012l17.347-.001z"/><path opacity=".2" fill-rule="evenodd" clip-rule="evenodd" fill="#FFF" d="M45.156 12.383c.175-2.15.347-4.301.546-6.448.061-.654-.124-.84-.729-.837-5.811.024-11.621.014-17.432.014H27.5v7.271h17.656zm-17.738.869l.164 38.002c.128-.005.255-.024.373-.058 1.088-.313 2.17-.659 3.253-.993 3.566-1.101 7.132-2.194 10.693-3.317.243-.077.587-.354.616-.579.139-1.111.186-2.237.267-3.357.126-1.75.252-3.499.387-5.248.178-2.33.366-4.659.546-6.99.133-1.726.256-3.452.387-5.178.18-2.33.368-4.659.548-6.989.132-1.704.253-3.409.384-5.112l.021-.255-17.639.074z"/><path fill-rule="evenodd" clip-rule="evenodd" fill="#FFF" d="M48.781 2.923c-7.077.027-14.154.016-21.232.016h-16.73c-1.576 0-3.151.022-4.727-.011-.576-.012-.842.129-.76.749.083.638.107 1.284.162 1.926.16 1.853.316 3.706.484 5.558.234 2.592.48 5.183.714 7.775.168 1.876.319 3.755.488 5.632.232 2.568.481 5.133.71 7.701.219 2.444.414 4.892.632 7.337.234 2.616.501 5.23.707 7.851.04.517.216.75.693.881 5.697 1.56 11.39 3.133 17.088 4.686.293.08.646.067.943-.009 1.328-.339 2.646-.715 3.968-1.078 4.349-1.197 8.699-2.385 13.041-3.606.297-.084.719-.387.753-.635.175-1.225.236-2.466.342-3.7.164-1.928.327-3.855.5-5.782.229-2.566.472-5.133.703-7.701.171-1.901.328-3.803.499-5.705.229-2.567.472-5.134.701-7.701.17-1.877.325-3.756.496-5.633.229-2.542.453-5.085.714-7.625.073-.723-.153-.928-.889-.926zm.104 1.78c-.251 2.449-.467 4.903-.688 7.355-.164 1.811-.314 3.622-.479 5.433-.224 2.476-.455 4.951-.678 7.428-.164 1.834-.316 3.669-.482 5.503-.223 2.477-.456 4.952-.677 7.429-.166 1.858-.323 3.718-.482 5.576-.1 1.191-.16 2.388-.328 3.569-.034.239-.44.531-.729.612-4.187 1.179-8.384 2.324-12.578 3.478-1.275.352-2.547.715-3.828 1.041a1.87 1.87 0 0 1-.91.009c-5.497-1.498-10.988-3.016-16.482-4.52-.46-.126-.63-.352-.668-.851-.198-2.526-.457-5.048-.682-7.571-.211-2.358-.398-4.719-.609-7.077-.221-2.477-.461-4.951-.685-7.428-.164-1.81-.308-3.622-.471-5.432-.226-2.5-.463-5-.689-7.5-.16-1.786-.312-3.573-.466-5.36-.054-.62-.077-1.243-.157-1.859-.078-.597.178-.733.735-.722 1.52.032 3.039.011 4.559.011h16.137c6.828 0 13.654.01 20.48-.016.709-.001.927.197.857.892z"/><path d="M21.073 8.628v2.343h-.994v-4.29l3.373 2.543V6.881h.995v4.288l-3.374-2.541zm7.621-1.747a.49.49 0 0 1 .355.144c.101.096.15.21.15.342v1.876c0 .136-.05.25-.15.344a.5.5 0 0 1-.355.142h-2.869v1.243h-.997v-4.09h3.866zm-2.868.805v1.24h2.376v-1.24h-2.376zm6.44 2.454l-1.168-1.449-.522 2.28h-.993l.993-4.291 1.69 2.108 1.688-2.108.993 4.291h-.993l-.521-2.28-1.167 1.449z" fill="#FFF"/><g fill-rule="evenodd" clip-rule="evenodd" fill="#FFF"><path d="M27.418 36.623h-6.275v-1.537c-.069-.017-.105-.032-.143-.032-2.567.002-5.134.006-7.701.01v-9.36h28.239v9.36c-.065-.005-.131-.013-.195-.013-4.54-.001-9.079-.001-13.619.001-.099 0-.198.02-.306.031v1.54zm6.304-3.124V28.87h1.534v4.618h1.607v-4.619h1.532v4.618h1.559v-6.213h-9.393v6.225h3.161zm-4.755.025v-6.247h-6.249v7.779h3.152v-1.532h3.097zm-9.404-.033h1.571v-6.22h-6.249v6.221h3.145v-4.624h1.533v4.623z"/><path d="M27.388 31.905h-1.504v-3.031h1.504v3.031z"/></g></svg>