<svg xmlns="http://www.w3.org/2000/svg" width="55" height="55"><path fill-rule="evenodd" clip-rule="evenodd" fill="#21759B" d="M27.551 2.016c7.337 0 14.675.011 22.013-.017.764-.002.998.211.922.958-.27 2.633-.5 5.27-.739 7.906-.177 1.946-.339 3.894-.514 5.84-.239 2.662-.489 5.322-.728 7.984-.178 1.972-.341 3.944-.519 5.916-.239 2.662-.49 5.323-.729 7.985-.179 1.997-.347 3.996-.518 5.994-.109 1.28-.173 2.567-.354 3.837-.037.257-.474.571-.783.658-4.501 1.266-9.012 2.498-13.521 3.738-1.37.377-2.737.768-4.114 1.119a2.011 2.011 0 0 1-.978.009c-5.909-1.61-11.811-3.242-17.717-4.858-.495-.136-.677-.378-.719-.914-.212-2.716-.491-5.426-.732-8.14-.226-2.534-.428-5.071-.654-7.606-.238-2.662-.496-5.322-.737-7.984-.176-1.946-.331-3.893-.506-5.839-.242-2.688-.498-5.374-.741-8.061-.173-1.92-.336-3.842-.501-5.763-.056-.666-.08-1.336-.167-1.997-.084-.643.191-.789.79-.776 1.633.035 3.267.012 4.9.012l17.346-.001z"/><path opacity=".2" fill-rule="evenodd" clip-rule="evenodd" fill="#FFF" d="M45.155 12.383c.175-2.15.348-4.301.547-6.448.061-.654-.125-.84-.729-.837-5.811.024-11.621.014-17.432.014H27.5v7.271h17.655zm-17.737.869l.164 38.002a1.57 1.57 0 0 0 .372-.058c1.089-.313 2.17-.659 3.254-.993 3.565-1.101 7.132-2.194 10.691-3.317.245-.077.59-.354.618-.579.138-1.111.185-2.237.266-3.357.127-1.75.253-3.499.387-5.248.18-2.33.367-4.659.547-6.99.133-1.726.255-3.452.388-5.178.18-2.33.367-4.659.547-6.989.131-1.704.252-3.409.384-5.112l.02-.255-17.638.074z"/><path fill-rule="evenodd" clip-rule="evenodd" fill="#FFF" d="M48.781 2.923c-7.077.027-14.154.016-21.232.016h-16.73c-1.576 0-3.151.022-4.726-.011-.577-.012-.843.129-.761.749.083.638.107 1.284.163 1.926.159 1.853.316 3.706.483 5.558.234 2.592.48 5.183.714 7.775.168 1.876.318 3.755.488 5.632.232 2.568.481 5.133.71 7.701.218 2.444.413 4.892.631 7.337.233 2.616.502 5.23.707 7.851.04.517.216.75.693.881 5.696 1.56 11.389 3.133 17.087 4.686.293.08.646.067.943-.009 1.328-.339 2.646-.715 3.968-1.078 4.349-1.197 8.699-2.385 13.041-3.606.298-.084.719-.387.754-.635.175-1.225.237-2.466.342-3.7.165-1.928.327-3.855.499-5.782.23-2.566.472-5.133.703-7.701.171-1.901.328-3.803.499-5.705.231-2.567.472-5.134.703-7.701.169-1.877.325-3.756.494-5.633.23-2.542.454-5.085.714-7.625.075-.723-.15-.928-.887-.926zm.103 1.78c-.251 2.449-.466 4.903-.688 7.355-.164 1.811-.314 3.622-.478 5.433-.223 2.476-.455 4.951-.678 7.428-.165 1.834-.317 3.669-.482 5.503-.222 2.477-.455 4.952-.677 7.429-.167 1.858-.323 3.718-.481 5.576-.102 1.191-.161 2.388-.33 3.569-.034.239-.44.531-.728.612-4.188 1.179-8.384 2.324-12.578 3.478-1.275.352-2.547.715-3.828 1.041a1.869 1.869 0 0 1-.91.009c-5.497-1.498-10.987-3.016-16.482-4.52-.461-.126-.63-.352-.669-.851-.197-2.526-.457-5.048-.682-7.571-.21-2.358-.398-4.719-.608-7.077-.221-2.477-.462-4.951-.686-7.428-.164-1.81-.308-3.622-.471-5.432-.226-2.5-.463-5-.688-7.5-.16-1.786-.312-3.573-.466-5.36-.054-.62-.077-1.243-.157-1.859-.078-.597.178-.733.735-.722 1.519.032 3.039.011 4.559.011h16.137c6.827 0 13.653.01 20.479-.016.71-.001.927.197.857.892z"/><path d="M12.462 7.512l.914 1.135.409-1.786h.779l-.779 3.359-1.322-1.651-1.322 1.651-.78-3.36h.779l.409 1.786.913-1.134zm5.431-.652c.106 0 .199.038.277.113s.117.165.117.268v2.443a.36.36 0 0 1-.117.269.385.385 0 0 1-.277.112h-2.634a.39.39 0 0 1-.28-.112.36.36 0 0 1-.116-.269V7.241c0-.103.039-.192.116-.268a.39.39 0 0 1 .28-.113h2.634zm-.385.631h-1.864v1.943h1.864V7.491zm4.106-.631c.107 0 .2.038.278.113s.118.165.118.268v1.47a.356.356 0 0 1-.118.27.391.391 0 0 1-.278.11h-.068l.612.974h-.912l-.612-.974h-1.269v.974h-.778V6.86h3.027zm-.385 1.602v-.971h-1.864v.971h1.864zm4.534-1.489a.358.358 0 0 1 .118.268v2.443a.358.358 0 0 1-.118.269.387.387 0 0 1-.278.112h-3.028V6.86h3.028c.107 0 .2.038.278.113zm-2.527.518v1.943H25.1V7.491h-1.864zm5.972-.631a.39.39 0 0 1 .279.113.363.363 0 0 1 .116.268v1.47a.36.36 0 0 1-.116.27.39.39 0 0 1-.279.11h-2.247v.974h-.781V6.86h3.028zm-2.247.631v.971h1.861v-.971h-1.861zm5.97-.631c.107 0 .2.038.278.113a.358.358 0 0 1 .118.268v1.47a.356.356 0 0 1-.118.27.39.39 0 0 1-.278.11h-.068l.612.974h-.911l-.612-.974h-1.269v.974h-.779V6.86h3.027zm-.385 1.602v-.971h-1.863v.971h1.863zm3.871.315h-1.861v.657h2.643v.63h-3.424V6.86h3.424v.631h-2.643v.655h1.861v.631zm1.477-1.917h2.833v.631h-2.448v.655h2.249c.107 0 .199.038.277.114a.367.367 0 0 1 .116.269v1.156a.363.363 0 0 1-.116.269.385.385 0 0 1-.277.112h-3.03v-.63h2.643v-.659h-2.246a.386.386 0 0 1-.279-.112.36.36 0 0 1-.117-.269V7.241c0-.103.039-.192.117-.268a.38.38 0 0 1 .278-.113zm3.722 0h2.833v.631h-2.447v.655h2.249a.38.38 0 0 1 .276.114.364.364 0 0 1 .117.269v1.156a.36.36 0 0 1-.117.269.383.383 0 0 1-.276.112h-3.03v-.63h2.643v-.659h-2.247a.388.388 0 0 1-.279-.112.362.362 0 0 1-.116-.269V7.241c0-.103.039-.192.116-.268a.385.385 0 0 1 .278-.113z" fill="#FFF"/><path fill-rule="evenodd" clip-rule="evenodd" fill="#FFF" d="M27.345 18.08c6.135-.093 11.552 5.078 11.637 11.109.093 6.544-4.926 11.815-11.356 11.928-6.244.108-11.552-4.977-11.765-11.038-.219-6.225 4.708-11.883 11.484-11.999zm-2.554 17.646c.094-.122.146-.164.163-.218.685-2.02 1.373-4.039 2.036-6.065.067-.207.021-.48-.053-.695-.353-1.018-.78-2.012-1.088-3.041-.201-.67-.511-1.031-1.25-1.034-.194-.001-.386-.297-.579-.458.232-.137.454-.364.699-.392.398-.045.812.067 1.219.063 1.245-.014 2.489-.048 3.734-.082.339-.01.713-.039.748.409.033.41-.308.459-.632.49-.273.025-.546.074-.893.123 1.227 3.626 2.424 7.168 3.661 10.83.107-.201.155-.265.178-.336.511-1.712 1.033-3.421 1.522-5.14.295-1.034.186-2.062-.263-3.032-.279-.607-.635-1.18-.962-1.766-.386-.691-.678-1.402-.391-2.205.26-.725.831-1.104 1.585-1.271-4.558-4.268-12.454-3.003-15.274 1.976.13.011.249.035.365.03.877-.033 1.754-.07 2.631-.111.327-.015.691.001.661.41-.014.175-.332.385-.554.471-.269.104-.583.092-.944.139l3.681 10.905zm2.898-4.926l-.171.019-2.972 8.601c1.354.688 5.113.61 6.232-.2-1.027-2.801-2.057-5.611-3.089-8.42zm-9.746-5.351c-1.196 2.966-1.151 5.753.096 8.517.953 2.11 3.375 4.503 4.756 4.717l-4.852-13.234zm18.827-.205c-.224 1.108-.358 2.381-.745 3.573-.963 2.974-2.041 5.911-3.071 8.864-.07.202-.125.409-.201.662 4.303-1.801 6.509-9.402 4.017-13.099z"/></svg>