<svg xmlns="http://www.w3.org/2000/svg" width="55" height="55"><path fill-rule="evenodd" clip-rule="evenodd" fill="#0C73B8" d="M27.551 2.016c7.337 0 14.676.011 22.013-.017.764-.003.998.21.922.958-.269 2.633-.5 5.27-.739 7.906-.177 1.946-.338 3.894-.514 5.84-.239 2.662-.489 5.323-.728 7.984-.178 1.972-.341 3.944-.519 5.916-.239 2.662-.489 5.323-.729 7.985-.179 1.997-.347 3.996-.517 5.994-.109 1.28-.174 2.566-.354 3.837-.037.257-.474.571-.782.658-4.501 1.267-9.013 2.498-13.521 3.738-1.37.377-2.737.768-4.114 1.119a2.011 2.011 0 0 1-.978.009c-5.908-1.61-11.81-3.241-17.717-4.858-.495-.136-.677-.378-.719-.914-.211-2.715-.491-5.426-.732-8.14-.227-2.535-.429-5.071-.655-7.606-.238-2.662-.496-5.323-.737-7.984-.176-1.946-.331-3.894-.506-5.839-.242-2.688-.498-5.374-.74-8.062-.173-1.92-.336-3.841-.501-5.762-.058-.666-.082-1.336-.169-1.998-.084-.642.191-.789.79-.776 1.633.034 3.267.012 4.9.012h17.346z"/><path opacity=".2" fill-rule="evenodd" clip-rule="evenodd" fill="#FFF" d="M45.155 12.382c.176-2.15.348-4.3.547-6.448.061-.653-.125-.84-.729-.837-5.811.024-11.621.014-17.432.014H27.5v7.271h17.655zm-17.737.869l.164 38.001c.127-.004.255-.023.372-.058 1.089-.312 2.17-.658 3.254-.992 3.565-1.101 7.132-2.194 10.692-3.317.244-.077.589-.354.617-.578.138-1.112.185-2.238.266-3.359.128-1.749.254-3.498.387-5.247.18-2.33.367-4.659.547-6.989.133-1.726.255-3.453.388-5.179.18-2.331.367-4.66.547-6.99.131-1.704.252-3.408.384-5.112l.021-.255-17.639.075z"/><path fill="#FFF" d="M39.015 41.006a4.122 4.122 0 0 1-1.104 2.295c-.596.636-1.237.953-1.935.953H16.249L15.5 38.87h18.391l.455-5.613H20.521l-.398-5.384H33.25l.363-5.596H13.196l-.748-5.383h24.9c.94 0 1.718.32 2.328.962.603.642.844 1.403.729 2.286l-.784 6.037c-.138 1.059-.755 1.8-1.847 2.224.838 0 1.519.321 2.039.962.51.642.698 1.403.569 2.286l-1.367 9.355zM15.971 6.565h5.031v.847h-4.388v2.609h4.388v.846h-5.031a.731.731 0 0 1-.462-.149.447.447 0 0 1-.192-.361V7.076c0-.139.064-.259.192-.359a.718.718 0 0 1 .462-.152zm6.187 0h4.708v.847h-4.067v.88h3.737c.178 0 .331.051.46.152.129.102.194.222.194.361v1.552a.442.442 0 0 1-.194.361.73.73 0 0 1-.46.149H21.5v-.846h4.391v-.883h-3.733a.735.735 0 0 1-.464-.15.444.444 0 0 1-.193-.361V7.076c0-.139.064-.259.193-.359a.725.725 0 0 1 .464-.152zm6.187 0h4.708v.847h-4.067v.88h3.737c.178 0 .331.051.46.152.129.102.194.222.194.361v1.552c0 .141-.065.261-.194.361a.727.727 0 0 1-.46.149h-5.035v-.846h4.392v-.883h-3.734c-.18 0-.334-.05-.463-.15s-.194-.22-.194-.361V7.076c0-.139.064-.259.194-.359a.718.718 0 0 1 .462-.152zm11.218 3.791a.444.444 0 0 1-.193.361.732.732 0 0 1-.461.149h-5.035v-.846h4.392v-.882h-3.094v-.846h2.771v-.88h-4.068v-.847h4.708c.178 0 .332.05.463.151.13.101.195.221.195.359v.949c0 .167-.11.283-.331.35.178 0 .331.051.461.151.129.101.193.221.193.359v1.472z"/><path fill-rule="evenodd" clip-rule="evenodd" fill="#FFF" d="M48.781 2.923c-7.077.027-14.154.016-21.232.016h-16.73c-1.575 0-3.151.022-4.726-.011-.577-.012-.843.129-.761.748.083.638.107 1.284.163 1.927.159 1.853.316 3.706.483 5.558.234 2.592.48 5.183.714 7.775.168 1.877.318 3.755.488 5.632.232 2.567.481 5.134.71 7.701.218 2.444.414 4.892.631 7.337.233 2.617.502 5.231.707 7.851.04.517.216.75.693.881 5.696 1.559 11.389 3.133 17.087 4.686.293.08.646.067.943-.009 1.328-.338 2.646-.715 3.968-1.079 4.349-1.195 8.699-2.384 13.041-3.605.298-.084.719-.387.754-.635.175-1.225.237-2.466.343-3.7.164-1.928.326-3.855.499-5.781.229-2.568.472-5.135.702-7.702.171-1.901.328-3.804.499-5.706.231-2.567.472-5.134.703-7.701.169-1.877.325-3.755.494-5.633.23-2.542.454-5.085.714-7.625.075-.722-.15-.928-.887-.925zm.103 1.78c-.25 2.45-.466 4.903-.688 7.355-.164 1.811-.314 3.623-.478 5.433-.223 2.476-.455 4.952-.678 7.428-.165 1.834-.316 3.669-.482 5.503-.222 2.477-.455 4.952-.677 7.429-.166 1.858-.323 3.718-.481 5.576-.102 1.191-.161 2.388-.33 3.569-.033.239-.439.531-.728.612-4.188 1.178-8.384 2.324-12.578 3.479-1.275.351-2.547.714-3.827 1.04a1.873 1.873 0 0 1-.911.009c-5.496-1.498-10.987-3.016-16.481-4.52-.461-.127-.63-.352-.669-.851-.197-2.526-.457-5.048-.682-7.572-.21-2.357-.398-4.718-.608-7.076-.221-2.477-.462-4.952-.686-7.428-.164-1.811-.308-3.622-.471-5.433-.226-2.5-.463-4.999-.688-7.5-.161-1.785-.313-3.572-.467-5.359-.053-.62-.077-1.243-.157-1.858-.078-.598.178-.734.735-.723 1.519.032 3.039.011 4.559.011h16.137c6.827 0 13.654.011 20.479-.015.71-.003.928.196.857.891z"/></svg>