<svg xmlns="http://www.w3.org/2000/svg" width="55" height="55"><path fill-rule="evenodd" clip-rule="evenodd" fill="#E55126" d="M27.551 2.016c7.337 0 14.676.011 22.013-.017.764-.003.998.21.922.958-.27 2.633-.501 5.27-.739 7.906-.177 1.946-.338 3.894-.514 5.84-.239 2.662-.489 5.323-.728 7.984-.178 1.972-.341 3.944-.519 5.916-.239 2.662-.49 5.323-.729 7.985-.179 1.997-.347 3.996-.517 5.994-.109 1.28-.174 2.566-.354 3.837-.037.257-.474.571-.782.658-4.502 1.267-9.013 2.498-13.521 3.738-1.37.377-2.737.768-4.114 1.119a2.011 2.011 0 0 1-.978.009c-5.908-1.61-11.811-3.241-17.717-4.858-.495-.136-.677-.378-.719-.914-.211-2.715-.49-5.426-.732-8.14-.226-2.535-.428-5.071-.654-7.606-.238-2.662-.496-5.323-.737-7.984-.176-1.946-.331-3.894-.506-5.839-.242-2.688-.498-5.374-.74-8.062-.174-1.92-.337-3.841-.502-5.762-.058-.666-.082-1.336-.169-1.998-.084-.642.191-.788.789-.776 1.633.034 3.267.012 4.9.012h17.347z"/><path opacity=".2" fill-rule="evenodd" clip-rule="evenodd" fill="#FFF" d="M45.155 12.382c.176-2.15.348-4.3.547-6.448.061-.653-.125-.84-.729-.837-5.811.024-11.621.014-17.432.014H27.5v7.271h17.655zm-17.737.869l.165 38.001c.127-.004.254-.023.372-.058 1.089-.312 2.17-.658 3.254-.992 3.565-1.101 7.133-2.194 10.692-3.317.244-.077.589-.354.617-.578.138-1.112.185-2.238.266-3.359.128-1.749.253-3.498.387-5.247.18-2.33.367-4.659.547-6.989.133-1.726.255-3.453.388-5.179.18-2.331.367-4.66.547-6.99.131-1.704.252-3.408.384-5.112l.021-.255-17.64.075z"/><path fill="#FFF" d="M12.45 16.894h28.36l-.699 5.383H19.693l.414 5.596h17.711c.841 0 1.526.324 2.05.971.514.647.701 1.412.572 2.295L39 41.006a4.12 4.12 0 0 1-1.103 2.295c-.597.636-1.239.953-1.935.953h-17.15c-.706 0-1.349-.317-1.934-.953a4.112 4.112 0 0 1-1.081-2.295l-.703-5.065h5.61l.217 2.93h12.972l.455-5.613H17.645c-.805 0-1.532-.317-2.188-.953a3.823 3.823 0 0 1-1.186-2.295L12.45 16.894zm3.569-7.756h-3.094v1.729h-1.294V6.565h1.294v1.727h3.094V6.565h1.298v4.302h-1.298V9.138zM23.5 6.565v.847h-2.194v3.456h-1.298V7.412h-2.194v-.847H23.5zm3.989 3.428l-1.518-1.524-.679 2.398h-1.294l1.294-4.513 2.197 2.218 2.198-2.218 1.294 4.513h-1.294l-.68-2.398-1.518 1.524zm5.284-3.428v3.456h4.392v.846h-5.686V6.565h1.294zm4.89 0h5.361v.847h-4.067v.88h3.737c.178 0 .331.051.46.152.13.102.194.222.194.361v1.552a.442.442 0 0 1-.194.361.727.727 0 0 1-.46.149h-4.377a.734.734 0 0 1-.463-.149.446.446 0 0 1-.191-.361V9.56h1.294v.461h3.098v-.883h-3.737c-.181 0-.335-.05-.463-.15s-.191-.22-.191-.361V6.565z"/><path fill-rule="evenodd" clip-rule="evenodd" fill="#FFF" d="M48.781 2.923c-7.077.027-14.154.016-21.232.016h-16.73c-1.576 0-3.152.022-4.727-.011-.576-.012-.842.129-.76.748.083.638.107 1.284.163 1.927.159 1.853.316 3.706.484 5.558.234 2.592.48 5.183.714 7.775.169 1.877.319 3.755.488 5.632.232 2.567.481 5.134.711 7.701.218 2.444.413 4.892.631 7.337.233 2.617.502 5.231.707 7.851.04.517.216.75.693.881 5.697 1.559 11.389 3.133 17.088 4.686.293.08.646.067.943-.009 1.328-.338 2.646-.715 3.968-1.079 4.35-1.195 8.699-2.384 13.041-3.605.298-.084.72-.387.755-.635.174-1.225.236-2.466.342-3.7.164-1.928.326-3.855.499-5.781.229-2.568.472-5.135.702-7.702.171-1.901.328-3.804.499-5.706.231-2.567.472-5.134.703-7.701.169-1.877.325-3.755.495-5.633.229-2.542.453-5.085.713-7.625.072-.722-.153-.928-.89-.925zm.103 1.78c-.25 2.45-.466 4.903-.688 7.355-.164 1.811-.314 3.623-.478 5.433-.223 2.476-.455 4.952-.678 7.428-.165 1.834-.316 3.669-.481 5.503-.223 2.477-.456 4.952-.678 7.429-.166 1.858-.323 3.718-.481 5.576-.102 1.191-.161 2.388-.33 3.569-.033.239-.439.531-.728.612-4.188 1.178-8.384 2.324-12.578 3.479-1.275.351-2.547.714-3.828 1.04a1.869 1.869 0 0 1-.91.009c-5.497-1.498-10.987-3.016-16.482-4.52-.46-.127-.63-.352-.669-.851-.197-2.526-.457-5.048-.681-7.572-.21-2.357-.398-4.718-.609-7.076-.221-2.477-.462-4.952-.686-7.428-.164-1.811-.308-3.622-.471-5.433-.225-2.5-.463-4.999-.688-7.5-.16-1.785-.312-3.572-.466-5.359-.053-.62-.077-1.243-.157-1.858-.078-.598.178-.734.735-.723 1.519.032 3.039.011 4.559.011h16.138c6.826 0 13.653.011 20.479-.015.709-.003.927.196.856.891z"/></svg>