<svg xmlns="http://www.w3.org/2000/svg" width="55" height="55"><path fill-rule="evenodd" clip-rule="evenodd" fill="#498AFF" d="M27.551 2.016c7.337 0 14.676.011 22.013-.017.764-.003.998.21.922.957-.269 2.633-.5 5.27-.739 7.906-.177 1.946-.338 3.894-.514 5.84-.239 2.662-.489 5.322-.728 7.984-.178 1.971-.341 3.944-.519 5.916-.239 2.662-.489 5.323-.729 7.985-.179 1.997-.347 3.995-.517 5.994-.109 1.28-.174 2.566-.354 3.837-.037.257-.474.571-.782.658-4.501 1.266-9.013 2.498-13.521 3.738-1.37.377-2.737.768-4.114 1.118a1.987 1.987 0 0 1-.978.009c-5.908-1.609-11.81-3.241-17.717-4.857-.495-.136-.677-.378-.719-.914-.211-2.716-.491-5.426-.732-8.14-.227-2.534-.429-5.072-.655-7.606-.238-2.663-.496-5.323-.737-7.985-.176-1.946-.331-3.894-.506-5.839-.242-2.688-.498-5.374-.74-8.061-.173-1.919-.336-3.84-.501-5.761-.058-.666-.082-1.336-.169-1.998-.084-.643.191-.789.79-.776 1.633.035 3.267.012 4.9.012h17.346z"/><path opacity=".2" fill-rule="evenodd" clip-rule="evenodd" fill="#FFF" d="M45.155 12.382c.176-2.15.348-4.301.547-6.448.061-.653-.125-.84-.729-.837-5.811.024-11.621.014-17.432.014H27.5v7.271h17.655zm-17.737.869l.164 38.002c.127-.005.255-.024.372-.059 1.089-.312 2.17-.658 3.254-.992 3.565-1.101 7.132-2.194 10.692-3.317.244-.077.589-.354.617-.579.138-1.111.185-2.237.266-3.358.128-1.749.254-3.498.387-5.247.18-2.33.367-4.66.547-6.99.133-1.726.255-3.452.388-5.178.18-2.33.367-4.659.547-6.99.131-1.704.252-3.408.384-5.112l.021-.255-17.639.075z"/><path fill-rule="evenodd" clip-rule="evenodd" fill="#FFF" d="M48.781 2.923c-7.077.027-14.154.016-21.232.016h-16.73c-1.575 0-3.151.022-4.726-.011-.577-.012-.843.129-.761.748.083.638.107 1.284.163 1.927.159 1.853.316 3.706.483 5.558.234 2.592.48 5.183.714 7.775.168 1.876.318 3.755.488 5.632.232 2.567.481 5.133.71 7.701.218 2.444.414 4.892.631 7.336.233 2.617.502 5.231.707 7.851.04.517.216.751.693.882 5.696 1.56 11.389 3.133 17.087 4.686.293.08.646.066.943-.009 1.328-.339 2.646-.716 3.968-1.079 4.349-1.196 8.699-2.385 13.041-3.605.298-.084.719-.388.754-.635.175-1.226.237-2.466.343-3.7.164-1.928.326-3.855.499-5.782.229-2.567.472-5.134.702-7.701.171-1.901.328-3.804.499-5.706.231-2.567.472-5.134.703-7.701.169-1.877.325-3.756.494-5.633.23-2.542.454-5.085.714-7.625.075-.722-.15-.928-.887-.925zm.103 1.78c-.25 2.449-.466 4.903-.688 7.355-.164 1.811-.314 3.622-.478 5.433-.223 2.476-.455 4.951-.678 7.428-.165 1.834-.316 3.669-.482 5.503-.222 2.477-.455 4.952-.677 7.429-.166 1.858-.323 3.717-.481 5.576-.102 1.191-.161 2.388-.33 3.569-.033.238-.439.531-.728.612-4.188 1.178-8.384 2.324-12.578 3.478-1.275.351-2.547.714-3.827 1.041a1.885 1.885 0 0 1-.911.009c-5.496-1.498-10.987-3.016-16.481-4.52-.461-.126-.63-.352-.669-.851-.197-2.526-.457-5.048-.682-7.572-.21-2.357-.398-4.718-.608-7.076-.221-2.478-.462-4.952-.686-7.428-.164-1.811-.308-3.622-.471-5.432-.226-2.5-.463-5-.688-7.5-.161-1.786-.313-3.573-.467-5.36-.053-.62-.077-1.243-.157-1.859-.078-.597.178-.733.735-.722 1.519.032 3.039.011 4.559.011h16.137c6.827 0 13.654.01 20.479-.015.71-.003.928.196.857.891z"/><path d="M16.904 11.417V6.232h1.261v5.186h-1.261zm6.65-5.185c.173 0 .323.061.449.182a.585.585 0 0 1 .188.433v3.955a.585.585 0 0 1-.188.435.625.625 0 0 1-.449.181H19.29c-.175 0-.326-.06-.452-.181s-.189-.266-.189-.435V6.847c0-.167.063-.312.189-.433s.276-.182.452-.182h4.264zm-.623 1.02h-3.017v3.145h3.017V7.252zm3.006 1.194v2.971h-1.26v-5.44l4.278 3.225v-2.97h1.261v5.437l-4.279-3.223zm4.762 2.971V6.232h1.261v5.186h-1.261zm2.383-5.185h4.901v1.02h-4.274v3.145h4.274v1.021h-4.901c-.175 0-.325-.06-.45-.181s-.187-.266-.187-.435V6.847c0-.167.062-.312.187-.433s.275-.182.45-.182z" fill="#FFF"/><g fill-rule="evenodd" clip-rule="evenodd" fill="#FFF"><path d="M37.922 26.833c2.3 6.467-.706 11.585-4.586 13.921a11.31 11.31 0 0 1-13.576-1.395 11.171 11.171 0 0 1-2.078-13.722c1.138-2.017 2.783-3.543 4.892-4.534 3.232-1.517 6.5-1.441 9.716-.073l1.383-1.792C28.2 16.187 20.562 17.509 16.26 23.52c-4.101 5.73-2.854 13.792 2.8 18.291 5.611 4.465 13.647 3.733 18.575-1.688 3.602-3.964 4.703-11.763 2.069-14.428l-1.782 1.138zm-10.454-1.765c-3.328-.002-6.138 2.766-6.161 6.07-.023 3.355 2.784 6.172 6.153 6.174 3.328.002 6.137-2.767 6.161-6.069.024-3.356-2.784-6.174-6.153-6.175zm8.954.383c1.533-.018 2.766-1.256 2.757-2.77-.009-1.415-1.32-2.744-2.71-2.744-1.528 0-2.831 1.321-2.809 2.846.023 1.429 1.321 2.685 2.762 2.668z"/><path d="M37.922 26.833l1.781-1.138c2.634 2.666 1.532 10.464-2.069 14.428-4.928 5.421-12.963 6.152-18.575 1.688-5.654-4.499-6.901-12.561-2.8-18.291 4.302-6.01 11.94-7.333 17.413-4.282-.443.576-.886 1.148-1.383 1.792-3.216-1.368-6.484-1.444-9.716.073a10.768 10.768 0 0 0-4.892 4.534 11.172 11.172 0 0 0 2.078 13.722 11.31 11.31 0 0 0 13.576 1.395c3.881-2.336 6.887-7.454 4.587-13.921z"/><path d="M27.468 25.068c3.369.001 6.176 2.819 6.153 6.174-.023 3.303-2.833 6.071-6.161 6.069-3.369-.002-6.176-2.818-6.153-6.174.024-3.303 2.834-6.071 6.161-6.069zm8.954.383c-1.44.017-2.739-1.238-2.762-2.667-.022-1.525 1.28-2.846 2.809-2.846 1.39 0 2.701 1.329 2.71 2.744.009 1.513-1.224 2.751-2.757 2.769z"/></g></svg>