<svg xmlns="http://www.w3.org/2000/svg" width="55" height="55"><path fill-rule="evenodd" clip-rule="evenodd" fill="#FCA511" d="M27.551 2.016c7.337 0 14.676.011 22.014-.017.763-.003.997.21.921.958-.27 2.633-.5 5.27-.739 7.906-.176 1.946-.338 3.894-.514 5.84-.239 2.662-.488 5.323-.728 7.985-.178 1.971-.341 3.944-.519 5.916-.239 2.662-.489 5.323-.728 7.985-.179 1.997-.348 3.995-.518 5.994-.109 1.28-.174 2.566-.354 3.837-.037.257-.474.571-.782.658-4.502 1.266-9.013 2.498-13.521 3.738-1.37.377-2.737.768-4.114 1.118a1.987 1.987 0 0 1-.978.009c-5.909-1.609-11.811-3.241-17.717-4.857-.495-.136-.677-.378-.719-.914-.212-2.716-.49-5.426-.732-8.14-.226-2.534-.428-5.072-.654-7.606-.238-2.663-.496-5.323-.737-7.984-.176-1.946-.331-3.894-.506-5.84-.242-2.687-.498-5.374-.74-8.061-.174-1.921-.337-3.842-.502-5.763-.058-.666-.082-1.336-.169-1.997-.084-.643.191-.789.789-.777 1.633.034 3.267.012 4.9.012h17.347z"/><path opacity=".2" fill-rule="evenodd" clip-rule="evenodd" fill="#FFF" d="M45.155 12.383c.176-2.15.348-4.301.547-6.448.061-.654-.125-.84-.729-.838-5.811.024-11.621.015-17.432.015H27.5v7.271h17.655zm-17.737.868l.164 38.002c.127-.005.255-.024.372-.059 1.089-.312 2.17-.658 3.254-.992 3.565-1.101 7.133-2.194 10.692-3.317.244-.077.589-.354.617-.579.138-1.111.185-2.237.266-3.358.128-1.749.253-3.498.387-5.247.18-2.33.367-4.66.547-6.99.133-1.726.255-3.452.388-5.178.18-2.33.367-4.66.547-6.99.131-1.704.252-3.408.384-5.112l.021-.255-17.639.075z"/><path fill-rule="evenodd" clip-rule="evenodd" fill="#FFF" d="M48.781 2.923c-7.077.027-14.154.016-21.231.016H10.819c-1.575 0-3.151.022-4.726-.012-.577-.011-.843.13-.761.749.083.639.107 1.285.163 1.927.159 1.853.316 3.706.483 5.558.234 2.592.481 5.183.714 7.775.169 1.876.318 3.755.488 5.631.232 2.568.481 5.133.71 7.701.218 2.444.413 4.892.631 7.336.233 2.617.502 5.231.707 7.851.04.517.216.751.693.882 5.697 1.56 11.389 3.133 17.087 4.686.294.08.646.066.943-.009 1.328-.339 2.646-.716 3.968-1.079 4.35-1.196 8.699-2.385 13.041-3.605.298-.084.719-.388.755-.635.174-1.225.236-2.466.342-3.7.164-1.928.326-3.855.499-5.782.229-2.567.472-5.134.702-7.701.171-1.901.328-3.804.499-5.705.231-2.567.472-5.134.703-7.701.169-1.877.325-3.755.495-5.633.23-2.542.453-5.085.713-7.625.075-.722-.15-.928-.887-.925zm.103 1.78c-.25 2.45-.465 4.903-.688 7.355-.164 1.811-.314 3.623-.478 5.433-.223 2.476-.455 4.952-.678 7.428-.165 1.834-.316 3.669-.481 5.503-.223 2.477-.456 4.952-.678 7.429-.166 1.858-.323 3.717-.481 5.576-.102 1.191-.161 2.388-.33 3.569-.033.238-.439.531-.728.612-4.188 1.178-8.384 2.324-12.578 3.478-1.275.351-2.547.714-3.828 1.041a1.881 1.881 0 0 1-.91.009c-5.497-1.498-10.987-3.016-16.482-4.52-.46-.126-.63-.352-.669-.851-.197-2.526-.457-5.048-.681-7.572-.21-2.357-.398-4.718-.609-7.076-.221-2.478-.462-4.952-.686-7.428-.164-1.811-.308-3.622-.471-5.432-.225-2.5-.463-5-.688-7.5-.16-1.786-.312-3.573-.466-5.36-.053-.62-.077-1.243-.157-1.858-.078-.598.178-.734.735-.723 1.519.032 3.039.011 4.559.011h16.137c6.827 0 13.654.01 20.48-.016.709-.002.927.197.856.892z"/><path d="M15.708 9.148h-1.976v1.365h-.828V7.117h3.629v.668h-2.801v.695h1.976v.668zm1.142 1.365V7.117h.826v3.396h-.826zm4.353-3.396c.113 0 .211.04.294.119a.38.38 0 0 1 .125.284v1.557a.374.374 0 0 1-.125.286.415.415 0 0 1-.294.117h-.073l.648 1.032h-.966l-.649-1.032h-1.345v1.032h-.825V7.117h3.21zm-.409 1.698v-1.03h-1.976v1.03h1.976zm4.103.333h-1.973v.697h2.801v.668h-3.629V7.117h3.629v.668h-2.801v.695h1.973v.668zm4.775.962a.379.379 0 0 1-.124.285.408.408 0 0 1-.293.118h-3.212V7.117h3.005c.113 0 .212.04.294.119a.38.38 0 0 1 .124.284v.749c0 .132-.07.224-.211.276.113 0 .211.04.293.119a.38.38 0 0 1 .124.284v1.162zm-1.034-2.325h-1.767v.695h1.767v-.695zm.206 1.363h-1.973v.697h1.973v-.697zm1.562-2.031h2.795c.113 0 .211.04.294.119.082.08.123.174.123.284v2.992h-.827V9.481h-1.974v1.032h-.828V7.521c0-.11.041-.205.123-.284.081-.08.18-.12.294-.12zm2.385 1.698v-1.03h-1.974v1.03h1.974zm1.564-1.698h3.003v.668h-2.595v.695h2.384a.41.41 0 0 1 .294.12.386.386 0 0 1 .123.285v1.225a.382.382 0 0 1-.123.285.412.412 0 0 1-.294.118h-3.212v-.668h2.802v-.697h-2.382a.416.416 0 0 1-.296-.118.383.383 0 0 1-.124-.285V7.521c0-.11.042-.205.124-.284s.181-.12.296-.12zm6.329 2.031H38.71v.697h2.802v.668h-3.629V7.117h3.629v.668H38.71v.695h1.974v.668z" fill="#FFF"/><g fill="#FFF"><path d="M16.85 39.435l.176-.244 8.309-15.677.018-.166-3.663-6.841c-.307-.573-1.171-.428-1.271.213L16.85 39.435z"/><path d="M28.022 28.521l2.728-2.777-2.729-5.178c-.258-.49-.981-.492-1.238 0l-1.458 2.764v.235l2.697 4.956z"/><path d="M28.363 44.746l9.623-5.336-2.748-16.827a.659.659 0 0 0-1.115-.357L16.85 39.435l9.567 5.312a2.007 2.007 0 0 0 1.946-.001"/></g></svg>