<svg xmlns="http://www.w3.org/2000/svg" width="55" height="55"><path fill-rule="evenodd" clip-rule="evenodd" fill="#F41414" d="M27.551 2.016c7.337 0 14.676.011 22.013-.017.764-.003.998.21.922.958-.269 2.633-.5 5.27-.739 7.906-.177 1.946-.338 3.894-.514 5.84-.239 2.662-.489 5.323-.728 7.985-.178 1.971-.341 3.944-.519 5.916-.239 2.662-.489 5.323-.729 7.985-.179 1.997-.347 3.996-.517 5.994-.109 1.28-.174 2.567-.354 3.837-.037.257-.474.571-.782.658-4.501 1.266-9.013 2.498-13.521 3.738-1.37.377-2.737.768-4.114 1.119a2.011 2.011 0 0 1-.978.009c-5.908-1.61-11.81-3.242-17.717-4.858-.495-.136-.677-.378-.719-.914-.211-2.716-.491-5.426-.732-8.14-.227-2.534-.429-5.071-.655-7.606-.238-2.662-.496-5.323-.737-7.984-.176-1.946-.331-3.894-.506-5.839-.242-2.688-.498-5.374-.74-8.062-.173-1.921-.336-3.842-.501-5.763-.058-.666-.082-1.336-.169-1.998-.084-.642.191-.789.79-.776 1.633.035 3.267.012 4.9.012h17.346z"/><path opacity=".2" fill-rule="evenodd" clip-rule="evenodd" fill="#FFF" d="M45.155 12.382c.176-2.15.348-4.3.547-6.448.061-.653-.125-.84-.729-.837-5.811.024-11.621.015-17.432.015H27.5v7.271h17.655zm-17.737.869l.164 38.002a1.57 1.57 0 0 0 .372-.058c1.089-.313 2.17-.659 3.254-.993 3.565-1.101 7.132-2.194 10.692-3.317.244-.077.589-.354.617-.578.138-1.112.185-2.238.266-3.358.128-1.75.254-3.499.387-5.248.18-2.33.367-4.659.547-6.989.133-1.727.255-3.453.388-5.179.18-2.33.367-4.66.547-6.99.131-1.704.252-3.408.384-5.112l.021-.256-17.639.076z"/><path d="M11.899 7.116h3.253c.132 0 .246.038.342.112s.144.164.144.267v2.816h-.964V9.34h-2.297v.971h-.964V7.495c0-.104.047-.192.143-.267a.534.534 0 0 1 .343-.112zm2.775 1.597v-.969h-2.297v.969h2.297zm2.295-.233v1.831h-.961V6.959l3.261 1.987v-1.83h.961v3.35L16.969 8.48zm4.116-1.364h3.497v.628h-3.021v1.938h2.3v-.656h-.964v-.628h1.925v1.534c0 .104-.048.194-.144.268s-.21.111-.342.111h-3.25a.54.54 0 0 1-.343-.111.33.33 0 0 1-.142-.268V7.495c0-.104.047-.192.142-.267a.533.533 0 0 1 .342-.112zm7.368 0h.962v2.816a.332.332 0 0 1-.143.268.546.546 0 0 1-.344.111h-3.251a.54.54 0 0 1-.343-.111.332.332 0 0 1-.143-.268V7.116h.961v2.566h2.3V7.116zm2.292 0v2.566h3.262v.629h-4.223V7.116h.961zm4.117 0h3.253c.133 0 .246.038.342.112.097.075.145.164.145.267v2.816h-.964V9.34H35.34v.971h-.963V7.495c0-.104.047-.192.142-.267a.538.538 0 0 1 .343-.112zm2.776 1.597v-.969H35.34v.969h2.298zm5.069-1.597c.133 0 .247.038.344.112s.146.164.146.267V8.96a.328.328 0 0 1-.146.269.549.549 0 0 1-.344.11h-.084l.755.971h-1.125l-.755-.97h-1.565v.971h-.962V7.116h3.736zm-.475 1.597v-.969h-2.3v.969h2.3z" fill="#FFF"/><path fill-rule="evenodd" clip-rule="evenodd" fill="#FFF" d="M48.781 2.923c-7.077.027-14.154.016-21.232.016h-16.73c-1.575 0-3.151.022-4.726-.012-.577-.011-.843.13-.761.749.083.639.107 1.285.163 1.927.159 1.853.316 3.706.483 5.558.234 2.592.48 5.183.714 7.775.168 1.876.318 3.755.488 5.632.232 2.567.481 5.133.71 7.701.218 2.444.414 4.892.631 7.337.233 2.616.502 5.23.707 7.851.04.517.216.75.693.881 5.696 1.56 11.389 3.133 17.087 4.686.293.08.646.067.943-.009 1.328-.339 2.646-.715 3.968-1.078 4.349-1.197 8.699-2.385 13.041-3.606.298-.084.719-.387.754-.635.175-1.225.237-2.466.343-3.7.164-1.928.326-3.854.499-5.781.229-2.567.472-5.134.702-7.702.171-1.901.328-3.804.499-5.705.231-2.567.472-5.134.703-7.701.169-1.877.325-3.755.494-5.633.23-2.542.454-5.085.714-7.625.075-.723-.15-.929-.887-.926zm.103 1.78c-.25 2.45-.466 4.903-.688 7.355-.164 1.811-.314 3.623-.478 5.433-.223 2.476-.455 4.952-.678 7.428-.165 1.834-.316 3.669-.482 5.503-.222 2.477-.455 4.952-.677 7.429-.166 1.858-.323 3.718-.481 5.576-.102 1.191-.161 2.388-.33 3.569-.033.239-.439.531-.728.612-4.188 1.179-8.384 2.324-12.578 3.478-1.275.352-2.547.715-3.827 1.041a1.873 1.873 0 0 1-.911.009c-5.496-1.498-10.987-3.016-16.481-4.52-.461-.126-.63-.352-.669-.851-.197-2.525-.457-5.048-.682-7.571-.21-2.358-.398-4.719-.608-7.077-.221-2.477-.462-4.952-.686-7.428-.164-1.811-.308-3.622-.471-5.433-.226-2.5-.463-4.999-.688-7.499-.161-1.786-.313-3.573-.467-5.36-.053-.62-.077-1.243-.157-1.858-.078-.598.178-.734.735-.723 1.519.032 3.039.011 4.559.011h16.137c6.827 0 13.654.01 20.479-.016.71-.002.928.197.857.892z"/><path fill="#FFF" d="M22.889 34.324l-2.731 8.223h-3.511l8.933-26.144h4.096l8.973 26.144h-3.628l-2.809-8.223h-9.323zm8.622-2.637l-2.575-7.525c-.585-1.707-.975-3.258-1.365-4.771h-.078a77.906 77.906 0 0 1-1.327 4.732l-2.575 7.564h7.92z"/></svg>