<svg xmlns="http://www.w3.org/2000/svg" width="55" height="55"><path fill-rule="evenodd" clip-rule="evenodd" fill="#FA0F0B" d="M27.552 2.016c7.338 0 14.676.011 22.014-.017.764-.003.997.21.921.958-.269 2.633-.5 5.27-.739 7.906-.176 1.946-.338 3.894-.513 5.84-.239 2.662-.489 5.323-.729 7.985-.178 1.971-.341 3.944-.519 5.916-.239 2.662-.489 5.323-.728 7.985-.179 1.997-.348 3.995-.518 5.994-.109 1.28-.174 2.566-.354 3.837-.036.257-.473.571-.782.658-4.502 1.266-9.013 2.498-13.521 3.738-1.37.377-2.737.768-4.114 1.118a1.987 1.987 0 0 1-.978.009c-5.908-1.609-11.811-3.241-17.717-4.857-.495-.136-.677-.378-.719-.914-.211-2.716-.49-5.426-.732-8.14-.226-2.534-.428-5.072-.654-7.606-.238-2.663-.496-5.323-.737-7.984-.176-1.946-.331-3.894-.506-5.84-.242-2.687-.497-5.374-.74-8.061-.175-1.921-.338-3.842-.503-5.763-.058-.666-.082-1.336-.169-1.997-.084-.643.191-.789.789-.777 1.633.034 3.267.012 4.9.012h17.348z"/><path opacity=".2" fill-rule="evenodd" clip-rule="evenodd" fill="#FFF" d="M45.155 12.383c.176-2.15.348-4.301.547-6.448.061-.654-.125-.84-.729-.838-5.811.024-11.621.015-17.432.015H27.5v7.271h17.655zm-17.737.868l.164 38.002c.128-.005.255-.024.372-.059 1.089-.312 2.17-.658 3.254-.992 3.565-1.101 7.133-2.194 10.692-3.317.244-.077.589-.354.617-.579.139-1.111.185-2.237.267-3.358.127-1.749.252-3.498.387-5.247.179-2.33.367-4.66.546-6.99.133-1.726.255-3.452.388-5.178.18-2.33.367-4.66.547-6.99.132-1.704.252-3.408.385-5.112l.02-.255-17.639.075z"/><path fill-rule="evenodd" clip-rule="evenodd" fill="#FFF" d="M48.781 2.923c-7.077.027-14.154.016-21.231.016H10.82c-1.576 0-3.152.022-4.727-.012-.577-.011-.843.13-.761.749.083.639.108 1.285.163 1.927.159 1.853.316 3.706.484 5.558.234 2.592.48 5.183.714 7.775.169 1.876.319 3.755.488 5.631.232 2.568.481 5.133.71 7.701.218 2.444.414 4.892.631 7.336.233 2.617.502 5.231.707 7.851.04.517.216.751.693.882 5.697 1.56 11.389 3.133 17.087 4.686.294.08.646.066.944-.009 1.328-.339 2.647-.716 3.967-1.079 4.35-1.196 8.7-2.385 13.041-3.605.299-.084.719-.388.755-.635.175-1.225.236-2.466.342-3.7.164-1.928.326-3.855.499-5.782.229-2.567.472-5.134.702-7.701.171-1.901.329-3.804.5-5.705.23-2.567.472-5.134.702-7.701.169-1.877.325-3.755.495-5.633.23-2.542.453-5.085.713-7.625.074-.722-.151-.928-.888-.925zm.104 1.78c-.251 2.45-.466 4.903-.688 7.355-.164 1.811-.314 3.623-.478 5.433-.223 2.476-.455 4.952-.678 7.428-.164 1.834-.316 3.669-.481 5.503-.223 2.477-.456 4.952-.678 7.429-.166 1.858-.322 3.717-.481 5.576-.102 1.191-.161 2.388-.329 3.569-.034.238-.44.531-.728.612-4.188 1.178-8.385 2.324-12.579 3.478-1.274.351-2.546.714-3.828 1.041a1.881 1.881 0 0 1-.91.009c-5.496-1.498-10.987-3.016-16.482-4.52-.46-.126-.63-.352-.669-.851-.197-2.526-.456-5.048-.681-7.572-.21-2.357-.398-4.718-.609-7.076-.221-2.478-.462-4.952-.686-7.428-.164-1.811-.308-3.622-.471-5.432-.226-2.5-.463-5-.689-7.5-.16-1.786-.312-3.573-.466-5.36-.053-.62-.077-1.243-.157-1.858-.078-.598.178-.734.735-.723 1.52.032 3.04.011 4.559.011h16.137c6.828 0 13.654.01 20.48-.016.709-.002.927.197.857.892z"/><path d="M20.771 6.597h1.015v3.67c0 .136-.05.252-.151.349s-.221.145-.36.145h-3.424a.505.505 0 0 1-.363-.145.463.463 0 0 1-.152-.349v-1.18h1.015v.854h2.42V6.597zm1.917 0h3.427c.139 0 .259.049.36.146s.152.213.152.348v3.67h-1.016V9.496h-2.42v1.266h-1.015v-3.67c0-.134.05-.25.15-.348s.221-.147.362-.147zm2.923 2.082V7.416h-2.42v1.263h2.42zm1.405-2.082h1.071l1.152 2.26 1.154-2.26h1.07l-2.225 4.369-2.222-4.369zm5.349 0h3.427c.14 0 .26.049.361.146a.467.467 0 0 1 .151.348v3.67h-1.016V9.496h-2.42v1.266h-1.016v-3.67c0-.134.05-.25.15-.348a.506.506 0 0 1 .363-.147zm2.924 2.082V7.416h-2.42v1.263h2.42z" fill="#FFF"/><g fill-rule="evenodd" clip-rule="evenodd" fill="#FFF"><path d="M27.255 44.074c-.198-.023-.395-.057-.593-.068-1.56-.087-3.111-.243-4.647-.53-.128-.024-.253-.062-.343-.083.4 0 .833-.005 1.265 0 1.939.024 3.88.094 5.819.064a53.991 53.991 0 0 0 4.741-.27c1.35-.138 2.643-.557 3.849-1.194.305-.161.585-.369.907-.575a2.226 2.226 0 0 1-.616.919c-.702.641-1.563.97-2.474 1.131-1.124.198-2.261.326-3.395.467-.559.068-1.121.095-1.683.14l-2.83-.001zm-.186-13.459c-.393-.377-.799-.742-1.175-1.136-.614-.642-1.151-1.344-1.541-2.146-.412-.847-.616-1.733-.331-2.655.218-.705.644-1.305 1.125-1.864.715-.832 1.607-1.453 2.483-2.097.62-.455 1.236-.917 1.826-1.41.459-.384.71-.918.911-1.473.293-.808.381-1.64.338-2.515.121.242.26.477.358.728.412 1.057.475 2.124.026 3.188a4.424 4.424 0 0 1-1.057 1.527c-.758.708-1.553 1.376-2.331 2.064-.467.413-.938.822-1.395 1.247-.667.623-.746 1.395-.598 2.249.247 1.42.728 2.758 1.34 4.056.028.061.048.125.072.188a.59.59 0 0 1-.051.049z"/><path d="M20.905 39.693c-.391.107-.787.203-1.172.329-.248.08-.494.183-.717.315-.324.194-.324.417.024.538.521.182 1.062.328 1.605.425 1.715.308 3.45.416 5.189.454 2.16.048 4.313-.064 6.45-.368 1.145-.163 2.275-.422 3.409-.65.24-.049.473-.146.701-.237.294-.118.378-.264.386-.609.335.209.368.651.034.895a4.108 4.108 0 0 1-.899.512c-1.33.521-2.727.778-4.137.978-2.728.385-5.471.376-8.214.313-1.368-.032-2.733-.131-4.083-.365-.691-.12-1.386-.264-1.972-.688a1.15 1.15 0 0 1-.327-.377c-.175-.329-.061-.666.304-.848.273-.137.566-.263.865-.317.841-.153 1.688-.267 2.534-.396l.02.096zm2.953-8.582c-.325.09-.657.161-.972.277-.403.148-.794.33-1.187.505a.484.484 0 0 0-.173.149c-.123.158-.087.305.109.349.428.096.859.203 1.295.236 2.301.176 4.603.132 6.902-.023 1.173-.079 2.339-.207 3.487-.47.028-.006.06-.007.09-.01l.026.055c-.301.163-.593.349-.905.486-1.589.696-3.268 1.009-4.989 1.126-1.808.122-3.615.121-5.414-.111-.788-.102-1.576-.247-2.259-.697-.247-.163-.449-.371-.421-.691.03-.343.28-.543.572-.631.566-.171 1.142-.335 1.725-.424.693-.106 1.398-.131 2.098-.191l.016.065z"/><path d="M29.123 31.709c.101-.29.184-.551.279-.808.285-.764.107-1.408-.432-2.014-.741-.833-1.18-1.801-1.214-2.939-.02-.655.237-1.181.643-1.652.767-.89 1.751-1.497 2.778-2.036.604-.317 1.227-.601 1.841-.9l.042.068c-.256.208-.512.415-.766.625-.826.682-1.662 1.356-2.304 2.223-.666.901-.646 1.603-.003 2.536.261.378.498.778.694 1.193.363.77.261 1.521-.179 2.239a5.45 5.45 0 0 1-1.207 1.354c-.042.038-.096.063-.172.111zm3.088 7.298c-.666.184-1.325.397-1.999.545-2.118.465-4.238.377-6.348-.064-.443-.094-.882-.241-1.232-.556-.418-.375-.377-.883.124-1.129.288-.142.621-.191.974-.294-.138.45-.096.546.31.63 1.592.328 3.193.466 4.811.196.586-.097 1.172-.199 1.759-.293a.363.363 0 0 1 .222.025c.438.257.871.524 1.306.789.024.015.044.039.065.06l.008.091zm-9.398-4.431c-.04.045-.081.089-.118.136-.159.2-.114.447.129.519.375.11.76.211 1.147.255 2.018.229 4.025.115 6.021-.243.471-.085.938-.188 1.407-.276.063-.012.146-.009.195.023.362.245.719.499 1.133.79-.517.103-.976.191-1.433.285-1.774.363-3.563.62-5.376.619-1.114 0-2.221-.135-3.289-.476a3.407 3.407 0 0 1-.843-.42c-.381-.255-.369-.605.03-.84.301-.177.636-.296.956-.44l.041.068zm11.723-3.4c.7-.334 1.405-.595 2.188-.486.813.111 1.314.589 1.592 1.332.235.629.292 1.256-.038 1.873-.249.464-.619.821-1.048 1.115-.922.631-1.946 1.025-3.026 1.289-.02.005-.042.001-.072.001.468-.378.942-.731 1.382-1.122.582-.516 1.157-1.049 1.467-1.785.296-.705.046-1.363-.632-1.738-.495-.273-1.032-.4-1.591-.454l-.222-.025z"/></g></svg>