<svg xmlns="http://www.w3.org/2000/svg" width="55" height="55"><path fill-rule="evenodd" clip-rule="evenodd" fill="#8ED6FC" d="M27.551 2.016c7.337 0 14.676.011 22.014-.017.763-.003.997.21.921.958-.27 2.633-.5 5.27-.739 7.906-.176 1.946-.338 3.894-.514 5.84-.239 2.662-.488 5.323-.728 7.985-.178 1.971-.341 3.944-.519 5.916-.239 2.662-.489 5.323-.728 7.985-.179 1.997-.348 3.996-.518 5.994-.109 1.28-.174 2.567-.354 3.837-.037.257-.474.571-.782.658-4.502 1.266-9.013 2.498-13.521 3.738-1.37.377-2.737.768-4.114 1.119a2.011 2.011 0 0 1-.978.009c-5.909-1.61-11.811-3.242-17.717-4.858-.495-.136-.677-.378-.719-.914-.212-2.716-.49-5.426-.732-8.14-.226-2.534-.428-5.071-.654-7.606-.238-2.662-.496-5.323-.737-7.984-.176-1.946-.331-3.894-.506-5.839-.242-2.688-.498-5.374-.74-8.062-.174-1.921-.337-3.842-.502-5.763-.058-.666-.082-1.336-.169-1.997-.084-.643.191-.789.789-.777 1.633.034 3.267.012 4.9.012h17.347z"/><path opacity=".2" fill-rule="evenodd" clip-rule="evenodd" fill="#FFF" d="M45.155 12.383c.176-2.15.348-4.301.547-6.448.061-.654-.125-.84-.729-.838-5.811.024-11.621.015-17.432.015H27.5v7.271h17.655zm-17.737.868l.164 38.002a1.57 1.57 0 0 0 .372-.058c1.089-.313 2.17-.659 3.254-.993 3.565-1.101 7.133-2.194 10.692-3.317.244-.077.589-.354.617-.579.138-1.111.185-2.237.266-3.357.128-1.75.253-3.499.387-5.248.18-2.33.367-4.659.547-6.99.133-1.726.255-3.452.388-5.178.18-2.33.367-4.66.547-6.99.131-1.704.252-3.408.384-5.112l.021-.255-17.639.075z"/><path d="M13.258 7.368l1.198 1.202.536-1.892h1.021l-1.021 3.559-1.734-1.75-1.734 1.75-1.021-3.559h1.021l.536 1.892 1.198-1.202zm6.613 1.34H17.43v.697h3.465v.668h-4.489V6.678h4.489v.668H17.43v.694h2.441v.668zm5.905.961a.351.351 0 0 1-.153.285.576.576 0 0 1-.363.119h-3.973V6.678h3.717c.14 0 .261.04.363.119s.153.174.153.284v.749c0 .131-.087.223-.261.276.14 0 .261.04.363.119s.153.174.153.284v1.16zm-1.279-2.323h-2.186v.694h2.186v-.694zm.255 1.362h-2.441v.697h2.441v-.697zm5.387-2.03c.142 0 .264.04.365.119.103.08.153.174.153.284v1.557a.35.35 0 0 1-.153.286.584.584 0 0 1-.365.117h-2.946v1.032h-1.024V6.678h3.97zm-2.947.668v1.029h2.44V7.346h-2.44zm4.374-.668h3.456c.141 0 .262.04.363.119s.153.174.153.284v2.992h-1.024V9.041h-2.44v1.032H31.05V7.081c0-.109.051-.204.151-.284a.572.572 0 0 1 .365-.119zm2.949 1.697V7.346h-2.44v1.029h2.44zm1.932-1.697h3.97v.668h-3.462v2.059h3.462v.668h-3.97a.57.57 0 0 1-.364-.119.349.349 0 0 1-.151-.285V7.081c0-.109.05-.204.151-.284a.569.569 0 0 1 .364-.119zm7.67 3.394l-1.678-1.38-.605.427v.953H40.81V6.678h1.024v1.543l2.199-1.543h1.266l.005.004-2.227 1.564 2.219 1.827h-1.179z" fill="#FFF"/><path fill-rule="evenodd" clip-rule="evenodd" fill="#FFF" d="M48.781 2.923c-7.077.027-14.154.016-21.231.016H10.819c-1.575 0-3.151.022-4.726-.012-.577-.011-.843.13-.761.749.083.639.107 1.285.163 1.927.159 1.853.316 3.706.483 5.558.234 2.592.481 5.183.714 7.775.169 1.876.318 3.755.488 5.631.232 2.568.481 5.134.71 7.701.218 2.444.413 4.892.631 7.337.233 2.616.502 5.23.707 7.851.04.517.216.75.693.881 5.697 1.56 11.389 3.133 17.087 4.686.294.08.646.067.943-.009 1.328-.339 2.646-.715 3.968-1.078 4.35-1.197 8.699-2.385 13.041-3.606.298-.084.719-.387.755-.635.174-1.225.236-2.466.342-3.7.164-1.928.326-3.855.499-5.782.229-2.566.472-5.133.702-7.701.171-1.901.328-3.804.499-5.705.231-2.567.472-5.134.703-7.701.169-1.877.325-3.755.495-5.633.23-2.542.453-5.085.713-7.625.075-.722-.15-.928-.887-.925zm.103 1.78c-.25 2.45-.465 4.903-.688 7.355-.164 1.811-.314 3.623-.478 5.433-.223 2.476-.455 4.952-.678 7.428-.165 1.834-.316 3.669-.481 5.503-.223 2.477-.456 4.952-.678 7.429-.166 1.858-.323 3.718-.481 5.576-.102 1.191-.161 2.388-.33 3.569-.033.239-.439.531-.728.612-4.188 1.179-8.384 2.324-12.578 3.478-1.275.352-2.547.715-3.828 1.041a1.869 1.869 0 0 1-.91.009c-5.497-1.498-10.987-3.016-16.482-4.52-.46-.126-.63-.352-.669-.851-.197-2.526-.457-5.048-.681-7.571-.21-2.358-.398-4.719-.609-7.077-.221-2.477-.462-4.952-.686-7.428-.164-1.811-.308-3.622-.471-5.432-.225-2.5-.463-5-.688-7.5-.16-1.786-.312-3.573-.466-5.36-.053-.62-.077-1.243-.157-1.858-.078-.598.178-.734.735-.723 1.519.032 3.039.011 4.559.011h16.137c6.827 0 13.654.01 20.48-.016.709-.002.927.197.856.892z"/><path d="M13.538 24.439c.743.417 1.488.831 2.229 1.252.733.417 1.464.841 2.189 1.273a.336.336 0 0 1 .146.242c.008 3 .007 5.999.001 8.999a.312.312 0 0 1-.13.227c-.604.362-1.215.714-1.826 1.066-.837.483-1.675.965-2.514 1.446-.027.016-.063.015-.094.021l-.001-14.526zm27.761 14.526c-.473-.261-.947-.516-1.416-.782-.82-.467-1.637-.94-2.454-1.412-.199-.114-.406-.219-.59-.354-.066-.049-.104-.176-.104-.268-.007-1.09-.005-2.18-.005-3.27 0-1.872.002-3.744-.003-5.616-.001-.17.052-.253.208-.34.818-.453 1.624-.929 2.436-1.393.642-.367 1.286-.728 1.929-1.091l-.001 14.526zm-21.51-12.291l3.683-2.012c1.252-.685 2.503-1.373 3.76-2.051.091-.049.25-.069.333-.023 2.451 1.329 4.897 2.668 7.344 4.005.036.02.071.043.126.078-.053.042-.091.081-.137.107a2773.476 2773.476 0 0 1-7.321 4.198c-.074.042-.213.049-.285.008-2.459-1.401-4.913-2.811-7.368-4.218-.034-.02-.066-.044-.135-.092zm7.071 13.387l-1.373-.744c-2.014-1.101-4.027-2.202-6.044-3.298-.139-.076-.204-.153-.203-.322.006-2.596.004-5.189.005-7.785 0-.065.008-.129.014-.235.434.246.845.477 1.254.711 2.026 1.162 4.051 2.329 6.082 3.483.201.114.271.236.27.466-.009 2.461-.005 4.923-.005 7.384v.34zm1.128-.014v-7.78c0-.133-.003-.242.149-.329 2.45-1.397 4.895-2.803 7.341-4.206.021-.012.045-.018.1-.038.007.088.018.165.018.241.001 2.585 0 5.171.004 7.757 0 .15-.037.238-.177.314-2.427 1.319-4.851 2.645-7.275 3.967-.044.025-.087.042-.16.074zm12.655-16.594l-1.828 1.048c-.826.472-1.657.938-2.477 1.419-.119.07-.173.05-.28-.009-.753-.418-1.517-.819-2.272-1.233-1.29-.706-2.575-1.418-3.864-2.125a95.07 95.07 0 0 0-1.694-.906c-.166-.086-.238-.188-.236-.384.008-1.622.004-3.243.004-4.915l12.647 7.105zm-13.801-7.101c0 1.708.001 3.38-.004 5.052a.232.232 0 0 1-.101.167c-.696.386-1.398.764-2.097 1.146-1.29.707-2.577 1.416-3.865 2.123-.67.367-1.339.735-2.015 1.094-.061.032-.177.021-.242-.015a131.15 131.15 0 0 1-1.866-1.051c-.72-.411-1.436-.827-2.153-1.242-.085-.049-.167-.104-.284-.178 4.209-2.365 8.4-4.719 12.627-7.096zM40.308 39.79l-12.313 6.917v-.298c0-1.556.004-3.109-.004-4.664-.002-.26.045-.411.312-.552 1.323-.693 2.627-1.423 3.937-2.143 1.101-.604 2.197-1.216 3.303-1.812a.407.407 0 0 1 .333.005c.832.462 1.655.938 2.48 1.411.612.35 1.224.702 1.834 1.054.034.021.065.047.118.082zm-25.778-.006c.598-.348 1.17-.684 1.745-1.015.859-.494 1.724-.981 2.581-1.481.19-.111.346-.122.542-.012.75.425 1.506.838 2.262 1.251 1.188.651 2.377 1.3 3.566 1.949.497.272.995.543 1.486.825a.286.286 0 0 1 .126.203c.007 1.721.005 3.441.005 5.198-4.111-2.308-8.198-4.605-12.313-6.918z" fill-rule="evenodd" clip-rule="evenodd" fill="#FFF"/></svg>