<svg xmlns="http://www.w3.org/2000/svg" width="55" height="55"><path fill-rule="evenodd" clip-rule="evenodd" fill="#216884" d="M27.551 2.016c7.337 0 14.676.011 22.013-.017.764-.003.998.21.922.958-.269 2.633-.5 5.27-.739 7.906-.177 1.946-.338 3.894-.514 5.84-.239 2.662-.489 5.323-.728 7.985-.178 1.971-.341 3.944-.519 5.916-.239 2.662-.489 5.323-.729 7.985-.178 1.997-.347 3.995-.517 5.994-.109 1.28-.174 2.566-.354 3.837-.037.257-.474.571-.782.658-4.501 1.266-9.013 2.498-13.521 3.738-1.37.377-2.737.768-4.114 1.118a1.987 1.987 0 0 1-.978.009c-5.908-1.609-11.811-3.241-17.717-4.857-.495-.136-.677-.378-.719-.914-.211-2.716-.49-5.426-.732-8.14-.226-2.534-.428-5.072-.654-7.606-.238-2.663-.496-5.323-.737-7.984-.176-1.946-.331-3.894-.506-5.84-.242-2.687-.498-5.374-.74-8.061-.174-1.921-.337-3.842-.502-5.763-.058-.666-.082-1.336-.169-1.997-.084-.643.191-.789.789-.777 1.633.034 3.267.012 4.9.012h17.347z"/><path opacity=".2" fill-rule="evenodd" clip-rule="evenodd" fill="#FFF" d="M45.155 12.383c.176-2.15.349-4.301.547-6.448.061-.654-.125-.84-.729-.838-5.811.024-11.621.015-17.432.015H27.5v7.271h17.655zm-17.737.868l.165 38.002a1.53 1.53 0 0 0 .372-.059c1.089-.312 2.17-.658 3.254-.992 3.565-1.101 7.133-2.194 10.692-3.317.244-.077.589-.354.617-.579.138-1.111.185-2.237.266-3.358.128-1.749.254-3.498.387-5.247.18-2.33.367-4.66.547-6.99.133-1.726.255-3.452.388-5.178.18-2.33.367-4.66.547-6.99.131-1.704.252-3.408.384-5.112l.021-.255-17.64.075z"/><path fill-rule="evenodd" clip-rule="evenodd" fill="#FFF" d="M48.781 2.923c-7.077.027-14.154.016-21.232.016h-16.73c-1.576 0-3.152.022-4.727-.012-.576-.011-.842.13-.76.749.083.639.108 1.285.163 1.927.159 1.853.316 3.706.484 5.558.234 2.592.48 5.183.714 7.775.169 1.876.319 3.755.488 5.631.232 2.568.481 5.133.71 7.701.218 2.444.414 4.892.631 7.336.233 2.617.502 5.231.707 7.851.04.517.216.751.693.882 5.697 1.56 11.389 3.133 17.087 4.686.293.08.646.066.943-.009 1.328-.339 2.646-.716 3.968-1.079 4.35-1.196 8.699-2.385 13.041-3.605.298-.084.72-.388.755-.635.174-1.225.236-2.466.342-3.7.164-1.928.326-3.855.499-5.782.229-2.567.472-5.134.702-7.701.171-1.901.328-3.804.499-5.705.231-2.567.472-5.134.703-7.701.169-1.877.325-3.755.495-5.633.229-2.542.453-5.085.713-7.625.074-.722-.151-.928-.888-.925zm.103 1.78c-.25 2.45-.466 4.903-.688 7.355-.164 1.811-.314 3.623-.478 5.433-.223 2.476-.455 4.952-.678 7.428-.165 1.834-.316 3.669-.481 5.503-.223 2.477-.456 4.952-.678 7.429-.166 1.858-.323 3.717-.481 5.576-.102 1.191-.161 2.388-.33 3.569-.033.238-.439.531-.728.612-4.188 1.178-8.384 2.324-12.578 3.478-1.275.351-2.547.714-3.827 1.041a1.885 1.885 0 0 1-.911.009c-5.496-1.498-10.987-3.016-16.481-4.52-.46-.126-.63-.352-.669-.851-.197-2.526-.457-5.048-.681-7.572-.21-2.357-.398-4.718-.609-7.076-.221-2.478-.462-4.952-.686-7.428-.164-1.811-.308-3.622-.471-5.432-.225-2.5-.463-5-.688-7.5-.161-1.786-.313-3.573-.467-5.36-.053-.62-.077-1.243-.157-1.858-.078-.598.178-.734.735-.723 1.519.032 3.039.011 4.559.011h16.138c6.826 0 13.653.01 20.479-.016.709-.002.927.197.856.892z"/><path d="M16.931 6.788v.86h-1.803v3.514h-1.067V7.648h-1.803v-.86h4.673zm4.543 0c.146 0 .272.051.38.153a.492.492 0 0 1 .161.366v2.007a.485.485 0 0 1-.161.368.535.535 0 0 1-.38.151h-.094l.836 1.33h-1.245l-.836-1.33h-1.733v1.33h-1.063V6.788h4.135zm-.526 2.187V7.648h-2.545v1.327h2.545zm5.286.429h-2.542v.897H27.3v.861h-4.675V6.788H27.3v.86h-3.608v.895h2.542v.861zm2.539-2.616v3.514h3.608v.861h-4.672V6.788h1.064zm5.081 0v3.514h3.608v.861H32.79V6.788h1.064zm8.156 0c.146 0 .271.051.378.153a.493.493 0 0 1 .159.366v3.336c0 .143-.053.266-.159.367s-.232.152-.378.152h-3.598c-.147 0-.274-.051-.381-.152s-.159-.224-.159-.367V7.307c0-.141.053-.263.159-.366a.526.526 0 0 1 .381-.153h3.598zm-.527.86h-2.545v2.653h2.545V7.648z" fill="#FFF"/><path fill-rule="evenodd" clip-rule="evenodd" fill="#FFF" d="M27.598 42.866H16.009c-.92 0-1.029-.104-1.03-.99V18.619c0-.863.12-.988.961-.989H39.4c.838 0 .959.126.959.99v23.257c0 .887-.108.989-1.031.989h-11.73zM26.47 29.025c0-2.7.002-5.401-.001-8.102-.001-1.01-.213-1.216-1.242-1.217-2.318-.003-4.636-.004-6.954 0-.987.002-1.205.213-1.206 1.182-.003 5.401-.003 10.802 0 16.203.001.97.219 1.181 1.207 1.183 2.294.005 4.589.003 6.883.001 1.121-.001 1.312-.187 1.313-1.288.002-2.653 0-5.307 0-7.962zm11.799-3.666c0-1.513.006-3.026-.003-4.538-.005-.883-.233-1.108-1.133-1.11-2.387-.007-4.774-.007-7.162 0-.854.003-1.095.236-1.097 1.074-.009 3.002-.009 6.004 0 9.006.002.839.242 1.071 1.097 1.074 2.387.009 4.774.008 7.161.001.9-.003 1.129-.228 1.134-1.109.008-1.466.003-2.932.003-4.398z"/></svg>