<svg xmlns="http://www.w3.org/2000/svg" width="55" height="55"><path fill-rule="evenodd" clip-rule="evenodd" fill="#463014" d="M27.551 2.016c7.337 0 14.676.011 22.014-.017.763-.003.997.21.921.958-.27 2.633-.5 5.27-.739 7.906-.176 1.946-.338 3.894-.514 5.84-.239 2.662-.488 5.323-.728 7.985-.178 1.971-.341 3.944-.519 5.916-.239 2.662-.489 5.323-.728 7.985-.179 1.997-.348 3.995-.518 5.994-.109 1.28-.174 2.566-.354 3.837-.037.257-.474.571-.782.658-4.502 1.266-9.013 2.498-13.521 3.738-1.37.377-2.737.768-4.114 1.118a1.987 1.987 0 0 1-.978.009c-5.909-1.609-11.811-3.241-17.717-4.857-.495-.136-.677-.378-.719-.914-.212-2.716-.49-5.426-.732-8.14-.226-2.534-.428-5.072-.654-7.606-.238-2.663-.496-5.323-.737-7.984-.176-1.946-.331-3.894-.506-5.84-.242-2.687-.498-5.374-.74-8.061-.174-1.921-.337-3.842-.502-5.763-.058-.666-.082-1.336-.169-1.997-.084-.643.191-.789.789-.777 1.633.034 3.267.012 4.9.012h17.347z"/><path opacity=".2" fill-rule="evenodd" clip-rule="evenodd" fill="#FFF" d="M45.155 12.383c.176-2.15.348-4.301.547-6.448.061-.654-.125-.84-.729-.838-5.811.024-11.621.015-17.432.015H27.5v7.271h17.655zm-17.737.868l.164 38.002c.127-.005.255-.024.372-.059 1.089-.312 2.17-.658 3.254-.992 3.565-1.101 7.133-2.194 10.692-3.317.244-.077.589-.354.617-.579.138-1.111.185-2.237.266-3.358.128-1.749.253-3.498.387-5.247.18-2.33.367-4.66.547-6.99.133-1.726.255-3.452.388-5.178.18-2.33.367-4.66.547-6.99.131-1.704.252-3.408.384-5.112l.021-.255-17.639.075z"/><path fill-rule="evenodd" clip-rule="evenodd" fill="#FFF" d="M48.781 2.923c-7.077.027-14.154.016-21.231.016H10.819c-1.575 0-3.151.022-4.726-.012-.577-.011-.843.13-.761.749.083.639.107 1.285.163 1.927.159 1.853.316 3.706.483 5.558.234 2.592.481 5.183.714 7.775.169 1.876.318 3.755.488 5.631.232 2.568.481 5.133.71 7.701.218 2.444.413 4.892.631 7.336.233 2.617.502 5.231.707 7.851.04.517.216.751.693.882 5.697 1.56 11.389 3.133 17.087 4.686.294.08.646.066.943-.009 1.328-.339 2.646-.716 3.968-1.079 4.35-1.196 8.699-2.385 13.041-3.605.298-.084.719-.388.755-.635.174-1.225.236-2.466.342-3.7.164-1.928.326-3.855.499-5.782.229-2.567.472-5.134.702-7.701.171-1.901.328-3.804.499-5.705.231-2.567.472-5.134.703-7.701.169-1.877.325-3.755.495-5.633.23-2.542.453-5.085.713-7.625.075-.722-.15-.928-.887-.925zm.103 1.78c-.25 2.45-.465 4.903-.688 7.355-.164 1.811-.314 3.623-.478 5.433-.223 2.476-.455 4.952-.678 7.428-.165 1.834-.316 3.669-.481 5.503-.223 2.477-.456 4.952-.678 7.429-.166 1.858-.323 3.717-.481 5.576-.102 1.191-.161 2.388-.33 3.569-.033.238-.439.531-.728.612-4.188 1.178-8.384 2.324-12.578 3.478-1.275.351-2.547.714-3.828 1.041a1.881 1.881 0 0 1-.91.009c-5.497-1.498-10.987-3.016-16.482-4.52-.46-.126-.63-.352-.669-.851-.197-2.526-.457-5.048-.681-7.572-.21-2.357-.398-4.718-.609-7.076-.221-2.478-.462-4.952-.686-7.428-.164-1.811-.308-3.622-.471-5.432-.225-2.5-.463-5-.688-7.5-.16-1.786-.312-3.573-.466-5.36-.053-.62-.077-1.243-.157-1.858-.078-.598.178-.734.735-.723 1.519.032 3.039.011 4.559.011h16.137c6.827 0 13.654.01 20.48-.016.709-.002.927.197.856.892z"/><path d="M18.044 6.659h3.003v.668h-2.595v2.059h1.975V8.69H19.6v-.669h1.653v1.63a.379.379 0 0 1-.124.285.41.41 0 0 1-.293.118h-2.792a.413.413 0 0 1-.295-.118.382.382 0 0 1-.123-.285V7.062c0-.109.041-.204.123-.284a.41.41 0 0 1 .295-.119zm6.736 0c.114 0 .212.04.295.119s.125.175.125.284V8.62a.379.379 0 0 1-.125.286.412.412 0 0 1-.295.117h-.072l.648 1.032h-.966l-.648-1.032h-1.345v1.032h-.825V6.659h3.208zm-.407 1.698v-1.03h-1.976v1.03h1.976zm4.103-1.698h.825v2.992a.382.382 0 0 1-.123.285.407.407 0 0 1-.295.118h-2.792a.413.413 0 0 1-.417-.403V6.659h.826v2.727h1.976V6.659zm1.967 1.45v1.946h-.825V6.492l2.801 2.112V6.659h.826v3.56l-2.802-2.11zm6.746-1.45v.668H35.79v2.728h-.828V7.327h-1.399v-.668h3.626z" fill="#FFF"/><g fill-rule="evenodd" clip-rule="evenodd" fill="#FFF"><path d="M26.587 48.186c-.247-.1-.486-.243-.743-.29-.843-.153-1.592-.495-2.298-.971-.216-.146-.519-.175-.786-.232-1.667-.364-2.817-1.375-3.628-2.829a.99.99 0 0 0-.443-.396c-1.787-.75-2.836-2.35-2.874-4.292-.021-1.091.192-2.09.817-2.991.112-.16.255-.3.441-.516.171.937.58 1.683 1.171 2.321.127.139.345.193.521.287.06-.158.16-.313.172-.475.08-1.056.19-2.112.194-3.169.004-1.346-.21-1.938-1.551-2.656a9.715 9.715 0 0 1-1.794-1.21c-.962-.839-.921-2.272.226-3.036.497-.331.753-.799.72-1.41a6.71 6.71 0 0 1 .003-.65c.024-.551.003-1.076-.373-1.548-.188-.236-.257-.563-.387-.847-.461-1.008.203-2.111 1.365-2.389.241-.058.488-.087.751-.133.202-.785.347-1.639-.36-2.185-.602-.465-1.393-.688-2.093-1.014.653-1.083 2.622-1.641 3.802-1.44 1.687.287 2.88 1.295 3.951 2.523.111.128.362.224.519.193.114-.022.246-.277.256-.435.059-.913.672-1.991 1.596-2.657.043.192.081.35.115.508.062.286.103.578.189.856.033.105.166.178.254.266.088-.104.23-.194.257-.312.24-1.059 1.029-1.605 1.912-2.068.038-.019.097.002.152.005.054.575.074 1.149.168 1.711.097.579.223.576.691.245.459-.324.982-.558 1.521-.786-.318.855-.619 1.67-.396 2.521.554.341.884.116 1.243-.29.861-.971 1.826-1.783 3.135-2.167 1.568-.46 3.685.252 4.401 1.387-.501.18-1.018.325-1.497.548-1 .465-1.408 1.396-1.029 2.393.063.166.42.27.657.312 1.031.184 1.8 1.07 1.604 2.018-.105.515-.422.984-.628 1.48-.104.25-.236.514-.241.774-.012.559 0 1.129.104 1.675.057.293.261.65.507.799 1.198.723 1.489 2.419-.078 3.537-.561.399-1.156.76-1.77 1.073-.75.384-1.101.979-1.091 1.785.016 1.245.062 2.489.107 3.734.006.175.083.348.126.52.667-.099 1.579-1.444 1.721-2.56.672.525.999 1.243 1.14 1.986.349 1.851.154 3.593-1.384 4.938-.186.162-.372.367-.595.436-.797.243-1.221.837-1.655 1.486-.828 1.235-2.025 1.955-3.495 2.231-.174.032-.363.076-.503.176-.87.617-1.83.962-2.896 1.033-.074.006-.14.127-.21.193-.57.004-1.14.004-1.711.004zm3.955-13.448l.16-.049c.07.146.151.289.21.44.482 1.235.973 2.468 1.434 3.711.146.393.34.621.793.545.493-.083.989-.145 1.483-.219.714-.108.731-.192.685-.907-.09-1.41-.17-2.824-.168-4.236.001-1.113.558-1.941 1.572-2.471a12.245 12.245 0 0 0 1.65-1.02c.734-.546.738-1.803.064-2.316-.223-.169-.36-.199-.436.22-.718-1.617-.977-3.17-.484-4.854l.095.503.154.037c.18-.413.396-.814.531-1.241.164-.517-.055-.985-.574-1.088a5.527 5.527 0 0 0-1.683-.068c-1.457.173-2.733.828-3.938 1.627-.605.402-1.195.829-1.792 1.245.871-1.417 2.122-2.415 3.62-3.247-.236-.218-.389-.433-.598-.538a18.621 18.621 0 0 0-1.764-.797c-1.787-.685-3.654-.818-5.527-.568-1.097.147-2.181.452-3.242.779-.633.195-1.259.505-1.682 1.152 1.483.807 2.725 1.815 3.627 3.196-.173-.067-.314-.172-.461-.269-.881-.572-1.736-1.189-2.651-1.701-1.181-.66-2.463-1.017-3.838-.939-.678.038-1.21.453-1.106.964.107.528.37 1.026.564 1.537l.169-.051.055-.541c.564 1.438.207 3.787-.382 4.603-.253.017-.414-.022-.498.04-.58.429-.695 1.547-.165 2.051.403.384.862.751 1.363.983 1.511.703 2.234 1.811 2.1 3.486-.103 1.276-.131 2.558-.213 3.835-.018.286.057.447.342.495.624.105 1.249.204 1.871.317.412.075.607-.125.739-.481.305-.825.632-1.642.945-2.463.112-.294.199-.598.321-.888.119-.283.266-.555.401-.831l.162.06-1.491 5.458h9.06l-1.477-5.501zm2.702 7.753c.015-.871-.203-1.161-.872-1.322a2.959 2.959 0 0 0-.689-.102 1806.65 1806.65 0 0 0-8.394 0c-.197 0-.398.039-.591.086-.792.19-1.115.576-.931 1.365.353 1.511.982 2.899 2.312 3.833 2.093 1.471 5.961 1.441 7.868-.981.711-.905 1.065-1.965 1.297-2.879zm.83.621c1.341.194 3.254-.75 3.871-2.015.601-1.229.683-2.509.194-3.808-.9 2.236-2.833 2.74-4.965 2.961.332.495.726.886.869 1.352.143.461.031.999.031 1.51zm-17.22-5.793c-.395 1.397-.458 2.772.401 4.01.872 1.254 2.161 1.747 3.767 1.782-.478-1.161.046-2.007.828-2.837-2.183-.236-4.09-.744-4.996-2.955zm15.62-18.048l.793.414c.073-.099.123-.163.17-.228.849-1.183 1.93-1.901 3.466-1.805.277.018.568-.17.941-.292-1.913-.991-4.098-.239-5.37 1.911zm-9.934.005c-1.363-2.213-3.522-2.889-5.283-1.889.347.125.704.25 1.063.257.924.019 1.749.272 2.423.909.357.338.672.721 1.028 1.108l.769-.385zm-3.817-.941c.106.505.215 1.014.317 1.524.042.21.056.427.102.636.11.503.611.573.901.478.312-.103.715-.505.735-.8.061-.923-1.135-1.902-2.055-1.838zm17.533-.002c-.732-.019-1.337.356-1.785 1.138-.382.667-.358.698.122 1.275.209.251.396.28.688.208.301-.074.535-.176.595-.507l.38-2.114zM22.072 45.648c-.275-1.304-.663-1.623-1.939-1.631a4.048 4.048 0 0 0 1.939 1.631zm10.817-.131l.113.093c.788-.305 1.354-.868 1.892-1.626-.373.039-.649.056-.92.102-.154.026-.373.059-.437.163-.243.405-.436.842-.648 1.268z"/><path d="M26.216 26.273c.925.919 1.728.91 2.537 0h-2.537zm4.407 15.82c-.401 0-.804-.021-1.202.006-.381.025-.584.337-.4.61.266.395.547.785.87 1.134.402.435.926.451 1.378.059.299-.259.592-.544.81-.868a.889.889 0 0 0 .087-.691c-.045-.129-.345-.216-.541-.238-.33-.041-.668-.012-1.002-.012zm-6.17 2.13c.189-.101.429-.168.58-.321a8.4 8.4 0 0 0 .813-.999c.103-.145.22-.4.158-.51-.083-.148-.329-.28-.511-.289a33.784 33.784 0 0 0-2.159-.007c-.55.012-.768.377-.446.835.279.397.658.729 1.02 1.063.124.112.328.141.545.228zm11.954-18.224l-.716.296c.541.58.454 1.179.131 1.878l-.251-.723c-.19.468-.331.896-.533 1.295-.558 1.099-1.542 1.516-2.71 1.545-.313.008-.667-.118-.939-.285-.362-.222-.502-.085-.548.238-.063.453-.078.913-.176 1.424l-.683-1.734c-.525-.133-1.126-.334-1.217-1.193.719.227 1.403.24 1.981-.224.411-.329.746-.75 1.146-1.097 1.385-1.205 2.453-1.545 4.515-1.42zm-5.118 3.332c.618.55 1.854.507 2.535-.078.565-.484.753-1.543.378-2.324-1.107.646-2.174 1.322-2.913 2.402zm-6.994 2.384l-.191-1.986c-1.084.762-2.037.673-3.006.168-.986-.515-1.354-1.422-1.651-2.565l-.247.735c-.409-.521-.376-1.166.115-1.771l-.603-.245c1.334-.325 3.111.181 4.223 1.212.351.326.681.673 1.023 1.008.647.634 1.412.764 2.303.458-.087.64-.446.978-.973 1.121-.276.075-.387.152-.451.465-.096.465-.341.903-.542 1.4zm-3.452-4.813c-.423.783-.226 1.936.349 2.417.584.489 1.725.6 2.365.204.076-.047.119-.307.063-.372a5.152 5.152 0 0 0-.745-.724c-.664-.518-1.346-1.012-2.032-1.525z"/><path d="M26.216 26.273h2.537c-.81.91-1.612.92-2.537 0zm4.407 15.82c.334 0 .672-.028 1.001.011.196.022.496.109.541.238a.888.888 0 0 1-.087.691c-.218.324-.511.609-.81.868-.452.393-.976.376-1.378-.059a9.313 9.313 0 0 1-.87-1.134c-.184-.273.02-.585.4-.61.399-.026.802-.005 1.203-.005zm-6.17 2.13c-.217-.087-.421-.115-.545-.229-.361-.333-.741-.665-1.02-1.063-.322-.458-.104-.823.446-.835.719-.016 1.44-.024 2.159.007.182.009.427.141.511.289.062.109-.056.365-.158.51-.248.35-.513.692-.813.999-.151.154-.391.221-.58.322z"/></g></svg>