<svg xmlns="http://www.w3.org/2000/svg" width="55" height="55"><path fill-rule="evenodd" clip-rule="evenodd" fill="#755996" d="M27.551 2.016c7.337 0 14.676.011 22.014-.017.763-.003.997.21.921.957-.27 2.633-.5 5.27-.739 7.906-.176 1.946-.338 3.894-.514 5.84-.239 2.662-.488 5.322-.728 7.984-.178 1.972-.341 3.944-.519 5.916-.239 2.662-.489 5.323-.728 7.985-.179 1.997-.348 3.995-.518 5.994-.109 1.28-.174 2.566-.354 3.837-.037.257-.474.571-.782.658-4.502 1.266-9.013 2.498-13.521 3.738-1.37.377-2.737.768-4.114 1.118a1.987 1.987 0 0 1-.978.009C21.082 52.332 15.18 50.7 9.274 49.084c-.495-.136-.677-.378-.719-.914-.212-2.716-.49-5.426-.732-8.14-.226-2.534-.428-5.072-.654-7.606-.238-2.663-.496-5.323-.737-7.985-.176-1.946-.331-3.893-.506-5.839-.242-2.688-.498-5.374-.74-8.061-.174-1.919-.337-3.84-.502-5.761-.058-.666-.082-1.336-.169-1.998-.084-.642.191-.788.789-.776 1.633.035 3.267.012 4.9.012h17.347z"/><path opacity=".2" fill-rule="evenodd" clip-rule="evenodd" fill="#FFF" d="M45.155 12.382c.176-2.15.348-4.301.547-6.448.061-.653-.125-.84-.729-.837-5.811.024-11.621.014-17.432.014H27.5v7.271h17.655zm-17.737.869l.164 38.002c.127-.005.255-.024.372-.059 1.089-.312 2.17-.658 3.254-.992 3.565-1.101 7.133-2.194 10.692-3.317.244-.077.589-.354.617-.579.138-1.111.185-2.237.266-3.358.128-1.749.253-3.498.387-5.247.18-2.33.367-4.66.547-6.99.133-1.726.255-3.452.388-5.178.18-2.33.367-4.659.547-6.989.131-1.704.252-3.409.384-5.112l.021-.255-17.639.074z"/><path fill-rule="evenodd" clip-rule="evenodd" fill="#FFF" d="M48.781 2.923c-7.077.027-14.154.016-21.231.016H10.819c-1.575 0-3.151.022-4.726-.011-.577-.012-.843.129-.761.748.083.638.107 1.284.163 1.927.159 1.853.316 3.706.483 5.558.234 2.592.481 5.183.714 7.775.169 1.876.318 3.755.488 5.632.232 2.568.481 5.133.71 7.701.218 2.444.413 4.892.631 7.336.233 2.617.502 5.231.707 7.851.04.517.216.751.693.882 5.697 1.56 11.389 3.133 17.087 4.686.294.08.646.066.943-.009 1.328-.339 2.646-.716 3.968-1.079 4.35-1.196 8.699-2.385 13.041-3.605.298-.084.719-.388.755-.635.174-1.226.236-2.466.342-3.7.164-1.928.326-3.855.499-5.782.229-2.567.472-5.134.702-7.701.171-1.901.328-3.804.499-5.706.231-2.567.472-5.134.703-7.701.169-1.877.325-3.756.495-5.633.23-2.542.453-5.085.713-7.625.075-.722-.15-.928-.887-.925zm.103 1.78c-.25 2.449-.465 4.903-.688 7.355-.164 1.811-.314 3.622-.478 5.433-.223 2.476-.455 4.951-.678 7.428-.165 1.834-.316 3.669-.481 5.503-.223 2.477-.456 4.952-.678 7.429-.166 1.858-.323 3.717-.481 5.576-.102 1.191-.161 2.388-.33 3.569-.033.238-.439.531-.728.612-4.188 1.178-8.384 2.324-12.578 3.478-1.275.351-2.547.714-3.828 1.041a1.881 1.881 0 0 1-.91.009c-5.497-1.498-10.987-3.016-16.482-4.52-.46-.126-.63-.352-.669-.851-.197-2.526-.457-5.048-.681-7.572-.21-2.357-.398-4.718-.609-7.076-.221-2.478-.462-4.952-.686-7.428-.164-1.81-.308-3.622-.471-5.432-.225-2.5-.463-5-.688-7.5-.16-1.786-.312-3.573-.466-5.36-.053-.62-.077-1.243-.157-1.859-.078-.597.178-.733.735-.722 1.519.032 3.039.011 4.559.011h16.137c6.827 0 13.654.01 20.48-.015.709-.003.927.196.856.891z"/><path d="M13.077 9.651a.383.383 0 0 1-.124.285.413.413 0 0 1-.294.119H9.448V6.659h3.005c.113 0 .211.04.293.12.082.08.124.174.124.284v.749c0 .131-.07.224-.211.276a.41.41 0 0 1 .294.12c.082.08.124.174.124.284v1.159zm-1.034-2.324h-1.767v.694h1.767v-.694zm.207 1.362h-1.974v.697h1.974v-.697zm4.356-2.03c.113 0 .211.04.293.12s.124.174.124.284v2.589a.379.379 0 0 1-.124.285.41.41 0 0 1-.293.119h-2.792a.412.412 0 0 1-.296-.119.381.381 0 0 1-.124-.285v-2.59c0-.11.042-.204.124-.284a.41.41 0 0 1 .296-.12h2.792zm-.408.668h-1.975v2.059h1.975V7.327zm4.355-.668a.41.41 0 0 1 .294.12c.082.08.124.174.124.284v2.589a.383.383 0 0 1-.124.285.413.413 0 0 1-.294.119h-2.792a.414.414 0 0 1-.296-.119.377.377 0 0 1-.124-.285v-2.59c0-.11.041-.204.124-.284s.181-.12.296-.12h2.792zm-.408.668h-1.976v2.059h1.976V7.327zm4.77-.668v.668h-1.399v2.728h-.828V7.327h-1.399v-.668h3.626zm.736 0h3.003v.668H26.06v.694h2.384c.113 0 .211.04.294.121.082.08.123.175.123.285v1.225a.382.382 0 0 1-.123.285.413.413 0 0 1-.294.119h-3.211v-.67h2.801v-.697h-2.382a.413.413 0 0 1-.296-.118.379.379 0 0 1-.124-.285V7.062c0-.11.041-.204.124-.284s.181-.119.295-.119zm7.154 0v.668h-1.399v2.728h-.828V7.327h-1.399v-.668h3.626zm3.527 0c.113 0 .211.04.295.12a.38.38 0 0 1 .124.284V8.62a.378.378 0 0 1-.124.286.42.42 0 0 1-.295.117h-.073l.649 1.032h-.967l-.648-1.032h-1.345v1.032h-.826V6.659h3.21zm-.408 1.697V7.327h-1.976v1.029h1.976zm1.719-1.697h2.795c.113 0 .211.04.293.12a.38.38 0 0 1 .124.284v2.993h-.828V9.022h-1.973v1.032h-.828V7.062c0-.11.041-.204.122-.284a.41.41 0 0 1 .295-.119zm2.383 1.697V7.327h-1.973v1.029h1.973zm4.355-1.697a.41.41 0 0 1 .296.12.38.38 0 0 1 .124.284V8.62a.378.378 0 0 1-.124.286.415.415 0 0 1-.296.117H42v1.032h-.828V6.659h3.209zM42 7.327v1.029h1.973V7.327H42z" fill="#FFF"/><g fill-rule="evenodd" clip-rule="evenodd"><path fill="#FFF" d="M40.353 29.814c0-3.091.003-6.183-.005-9.273-.001-.229-.063-.46-.115-.685-.186-.791-.641-1.406-1.255-1.927-.671-.569-1.436-.889-2.313-.889-5.968-.006-11.936-.006-17.903.002-.386 0-.778.05-1.157.125-1.762.35-2.954 2.001-2.956 3.705-.005 5.985-.004 11.971.001 17.956a3.5 3.5 0 0 0 .569 1.926c.798 1.227 1.927 1.85 3.422 1.847 6.009-.013 12.019-.004 18.027-.009.253 0 .509-.046.759-.096.926-.188 1.637-.718 2.194-1.448.473-.62.733-1.323.732-2.117-.003-3.038 0-6.077 0-9.117z"/><path fill="#FFF" d="M40.353 29.814c0 3.039-.003 6.078.002 9.117.001.794-.26 1.497-.732 2.117-.558.73-1.269 1.261-2.194 1.448-.25.05-.506.096-.759.096-6.009.005-12.019-.004-18.027.009-1.495.003-2.624-.62-3.422-1.847a3.498 3.498 0 0 1-.569-1.926c-.006-5.985-.006-11.971-.001-17.956.001-1.704 1.194-3.355 2.956-3.705a5.93 5.93 0 0 1 1.157-.125c5.967-.008 11.935-.009 17.903-.002.878 0 1.643.32 2.313.889.614.521 1.069 1.137 1.255 1.927.053.225.114.456.115.685.005 3.091.003 6.182.003 9.273zm-9.206-.335c.566-.283 1.038-.631 1.385-1.132.6-.866.638-1.819.41-2.799-.22-.944-.819-1.585-1.688-2.002-.792-.381-1.641-.472-2.494-.481-2.089-.022-4.179-.008-6.268-.009h-.337v13.895h.359c2.183 0 4.366-.002 6.548.001 1.019.001 1.976-.235 2.854-.747.82-.479 1.4-1.148 1.641-2.09.173-.672.168-1.347.044-2.014a3.303 3.303 0 0 0-.943-1.792c-.428-.42-.952-.625-1.511-.83z"/><path fill="#755996" d="M33.601 32.102a3.303 3.303 0 0 0-.943-1.792c-.427-.421-.951-.626-1.51-.83.566-.283 1.038-.631 1.385-1.132.6-.866.638-1.819.41-2.799-.22-.944-.819-1.585-1.688-2.002-.792-.381-1.641-.472-2.494-.481-2.089-.022-4.179-.008-6.268-.009h-.337v13.895h.359c2.183 0 4.366-.002 6.548.001 1.019.001 1.976-.235 2.854-.747.82-.479 1.4-1.148 1.641-2.09a4.644 4.644 0 0 0 .043-2.014zm-8.957-6.938c1.476 0 2.938-.006 4.399.002.676.004 1.233.454 1.422 1.147.188.685.128 1.335-.328 1.921a1.444 1.444 0 0 1-1.112.578c-1.421.048-2.844.051-4.266.07-.03.001-.059-.009-.115-.019v-3.699zm6.514 7.933c-.053.468-.196.913-.573 1.25-.375.337-.818.541-1.309.549-1.507.022-3.014.009-4.521.008-.03 0-.06-.009-.112-.019v-4.199h.752c1.185 0 2.37-.007 3.555.002.62.006 1.211.134 1.669.592.506.504.615 1.145.539 1.817z"/><path fill="#FFF" d="M24.644 34.885v-4.199h.752c1.185 0 2.37-.007 3.555.002.62.006 1.211.134 1.669.592.505.505.614 1.146.538 1.817-.053.468-.196.913-.573 1.25-.375.337-.818.541-1.309.549-1.507.022-3.014.009-4.521.008-.029-.001-.059-.009-.111-.019zm0-6.02v-3.701c1.476 0 2.938-.006 4.399.002.676.004 1.233.454 1.422 1.147.188.685.128 1.335-.328 1.921a1.444 1.444 0 0 1-1.112.578c-1.421.048-2.844.051-4.266.07-.03.003-.06-.007-.115-.017z"/></g></svg>