<svg xmlns="http://www.w3.org/2000/svg" width="55" height="55"><path fill-rule="evenodd" clip-rule="evenodd" fill="#A4C639" d="M27.551 2.016c7.337 0 14.675.011 22.013-.017.764-.003.998.21.922.958-.27 2.633-.501 5.27-.739 7.906-.177 1.946-.339 3.894-.514 5.84-.239 2.662-.489 5.323-.728 7.985-.178 1.971-.341 3.944-.519 5.916-.239 2.662-.49 5.323-.729 7.985-.179 1.997-.347 3.995-.518 5.994-.109 1.28-.173 2.566-.354 3.837-.037.257-.474.571-.783.658-4.501 1.266-9.012 2.498-13.521 3.738-1.37.377-2.737.768-4.114 1.118a1.987 1.987 0 0 1-.978.009c-5.908-1.609-11.811-3.241-17.717-4.857-.496-.136-.678-.378-.719-.914-.212-2.716-.491-5.426-.732-8.14-.226-2.534-.428-5.072-.655-7.606-.237-2.663-.496-5.323-.736-7.984-.176-1.946-.332-3.894-.506-5.84-.242-2.687-.498-5.374-.741-8.061-.171-1.921-.334-3.842-.499-5.763-.058-.666-.082-1.336-.169-1.997-.085-.643.191-.789.789-.777 1.633.034 3.267.012 4.901.012h17.346z"/><path opacity=".2" fill-rule="evenodd" clip-rule="evenodd" fill="#FFF" d="M45.155 12.383c.175-2.15.348-4.301.547-6.448.061-.654-.125-.84-.729-.838-5.811.024-11.622.015-17.432.015H27.5v7.271h17.655zm-17.737.868l.164 38.002c.127-.005.255-.024.372-.059 1.089-.312 2.17-.658 3.254-.992 3.565-1.101 7.132-2.194 10.691-3.317.245-.077.59-.354.617-.579.139-1.111.186-2.237.267-3.358.127-1.749.253-3.498.387-5.247.179-2.33.367-4.66.547-6.99.133-1.726.255-3.452.388-5.178.18-2.33.367-4.66.547-6.99.131-1.704.252-3.408.384-5.112l.02-.255-17.638.075z"/><path fill-rule="evenodd" clip-rule="evenodd" fill="#FFF" d="M48.781 2.923c-7.077.027-14.154.016-21.232.016h-16.73c-1.576 0-3.152.022-4.727-.012-.576-.011-.842.13-.76.749.083.639.107 1.285.163 1.927.159 1.853.316 3.706.484 5.558.234 2.592.48 5.183.714 7.775.169 1.876.319 3.755.488 5.631.232 2.568.481 5.133.71 7.701.218 2.444.414 4.892.631 7.336.234 2.617.502 5.231.707 7.851.04.517.216.751.693.882 5.697 1.56 11.39 3.133 17.088 4.686.293.08.646.066.943-.009 1.328-.339 2.646-.716 3.968-1.079 4.349-1.196 8.699-2.385 13.041-3.605.298-.084.719-.388.754-.635.175-1.225.236-2.466.342-3.7.165-1.928.327-3.855.499-5.782.23-2.567.472-5.134.703-7.701.171-1.901.328-3.804.499-5.705.231-2.567.472-5.134.703-7.701.169-1.877.324-3.755.494-5.633.23-2.542.454-5.085.714-7.625.073-.722-.152-.928-.889-.925zm.103 1.78c-.251 2.45-.466 4.903-.688 7.355-.164 1.811-.314 3.623-.478 5.433-.224 2.476-.455 4.952-.678 7.428-.165 1.834-.317 3.669-.482 5.503-.222 2.477-.455 4.952-.677 7.429-.167 1.858-.323 3.717-.481 5.576-.102 1.191-.161 2.388-.33 3.569-.034.238-.44.531-.728.612-4.188 1.178-8.384 2.324-12.578 3.478-1.275.351-2.547.714-3.828 1.041a1.881 1.881 0 0 1-.91.009c-5.496-1.498-10.987-3.016-16.481-4.52-.461-.126-.63-.352-.669-.851-.197-2.526-.456-5.048-.681-7.572-.21-2.357-.398-4.718-.609-7.076-.221-2.477-.461-4.951-.686-7.428-.164-1.811-.308-3.622-.471-5.432-.226-2.5-.463-5-.689-7.5-.16-1.786-.312-3.573-.466-5.36-.053-.62-.076-1.243-.157-1.858-.079-.598.178-.734.735-.723 1.519.032 3.039.011 4.559.011h16.137c6.827 0 13.653.01 20.479-.016.71-.002.927.197.857.892z"/><path d="M13.864 6.52h3.195c.13 0 .242.045.336.137a.436.436 0 0 1 .141.324v3.422h-.946v-1.18h-2.256v1.18h-.946V6.981c0-.125.046-.233.14-.324a.46.46 0 0 1 .336-.137zm2.726 1.941V7.284h-2.256v1.177h2.256zm2.253-.283v2.225h-.944V6.33l3.203 2.415V6.52h.944v4.071l-3.203-2.413zm7.573-1.521a.434.434 0 0 1 .143.324v2.961c0 .127-.047.235-.143.326s-.208.135-.337.135H22.41V6.52h3.669a.47.47 0 0 1 .337.137zm-3.063.627v2.354h2.259V7.284h-2.259zm7.238-.764c.13 0 .242.045.337.137a.434.434 0 0 1 .143.324v1.781c0 .128-.048.237-.143.327s-.207.134-.337.134h-.083l.741 1.18h-1.104l-.741-1.18h-1.538v1.18h-.944V6.52h3.669zm-.467 1.941V7.284h-2.259v1.177h2.259zm5.16-1.941c.13 0 .242.045.336.137a.437.437 0 0 1 .142.324v2.961c0 .127-.048.235-.142.326s-.206.135-.336.135h-3.192a.472.472 0 0 1-.338-.135.433.433 0 0 1-.142-.326V6.981c0-.125.047-.233.142-.324a.47.47 0 0 1 .338-.137h3.192zm-.467.764h-2.259v2.354h2.259V7.284zm1.308 3.119V6.52h.943v3.883h-.943zm5.313-3.746a.434.434 0 0 1 .143.324v2.961a.435.435 0 0 1-.143.326.477.477 0 0 1-.338.135h-3.669V6.52H41.1c.13 0 .243.045.338.137zm-3.063.627v2.354h2.26V7.284h-2.26z" fill="#FFF"/><g fill-rule="evenodd" clip-rule="evenodd" fill="#FFF"><path d="M19.984 31.692h-.002v-2.921a1.8 1.8 0 0 0-.273-.971c-.403-.649-1.304-.829-1.92-.377-.483.354-.648.847-.648 1.417v5.744c0 .442.138.831.43 1.17a1.326 1.326 0 0 0 1.774.185c.465-.356.638-.841.638-1.404l.001-2.843zm14.869-.04c0 .973.001 1.946-.001 2.92 0 .44.127.831.419 1.172.438.513 1.265.601 1.79.19.462-.362.634-.844.634-1.406-.001-1.914.005-3.829-.008-5.743a2.113 2.113 0 0 0-.149-.749 1.35 1.35 0 0 0-2.313-.358c-.283.34-.375.738-.373 1.169.002.935 0 1.87.001 2.805zM24.615 43.45c-.164-.075-.34-.132-.489-.229a1.413 1.413 0 0 1-.672-1.202c-.022-1.038-.015-2.076-.02-3.114-.002-.478.032-.413-.416-.417-.324-.003-.649.002-.973.001a1.277 1.277 0 0 1-1.282-1.236c-.003-.091-.001-.181-.001-.271v-9.308c0-.293 0-.295.294-.295h12.533c.486 0 .486 0 .486.492.002 3.063-.001 6.128.01 9.191.002.522-.182.922-.603 1.228a1.076 1.076 0 0 1-.656.196c-.396.002-.792.009-1.188-.004-.175-.005-.221.056-.22.222.006 1.007.005 2.013.001 3.019-.001.413-.068.805-.332 1.148a1.513 1.513 0 0 1-.746.526c-.041.014-.08.035-.12.053h-.467c-.022-.014-.042-.031-.065-.039-.703-.238-1.055-.689-1.104-1.423a4.52 4.52 0 0 1-.011-.329c-.001-.948 0-1.896-.003-2.844 0-.319-.003-.319-.314-.319H26.72c-.452 0-.453 0-.453.46-.001.961-.004 1.921 0 2.882.002.512-.15.96-.557 1.282-.182.145-.417.222-.627.33h-.468zm7.046-24.231c-.009.095.011.206-.031.283-.314.563-.64 1.12-.966 1.676-.079.133-.067.208.081.285a6.34 6.34 0 0 1 2.16 1.82 5.566 5.566 0 0 1 1.09 2.775c.004.038.005.077.009.116.054.476.069.433-.387.433H21.068c-.261 0-.265-.013-.248-.28a5.597 5.597 0 0 1 1.046-2.949 6.215 6.215 0 0 1 2.023-1.803c.391-.222.389-.217.166-.597a73.725 73.725 0 0 1-.858-1.492c-.04-.072-.017-.178-.023-.268h.156c.371.641.744 1.279 1.112 1.922.064.113.134.084.226.048.624-.243 1.264-.429 1.933-.493 1.233-.117 2.431.03 3.583.501.107.044.165.024.22-.072a33.4 33.4 0 0 1 .438-.752c.232-.386.469-.77.703-1.154l.116.001zm-.47 4.616a.63.63 0 0 0-.624-.629.617.617 0 0 0-.628.642c.005.318.311.602.642.596.312-.005.611-.304.61-.609zm-6.29.001a.624.624 0 0 0-.602-.63.646.646 0 0 0-.655.644c.003.292.321.594.628.595a.64.64 0 0 0 .629-.609z"/><path d="M19.984 31.692v2.843c0 .563-.172 1.048-.638 1.404a1.326 1.326 0 0 1-1.774-.185 1.73 1.73 0 0 1-.43-1.17V28.84c0-.57.165-1.064.648-1.417a1.35 1.35 0 0 1 1.92.377c.187.3.273.622.273.971v2.921h.001zm14.869-.04c-.001-.936.002-1.87-.002-2.805-.002-.432.09-.829.373-1.169.673-.806 1.927-.619 2.313.358.093.233.148.498.149.749.013 1.914.007 3.829.008 5.743 0 .563-.172 1.044-.634 1.406-.525.41-1.352.322-1.79-.19a1.731 1.731 0 0 1-.419-1.172c.003-.973.002-1.947.002-2.92z"/></g></svg>