<svg xmlns="http://www.w3.org/2000/svg" width="55" height="55"><path fill-rule="evenodd" clip-rule="evenodd" fill="#0F73AA" d="M27.551 2.016c7.337 0 14.676.011 22.014-.017.763-.003.997.21.921.957-.27 2.634-.5 5.271-.739 7.907-.177 1.946-.338 3.894-.514 5.84-.239 2.662-.488 5.323-.728 7.985-.178 1.972-.341 3.945-.519 5.916-.239 2.662-.49 5.323-.728 7.985-.179 1.997-.348 3.996-.518 5.994-.109 1.28-.174 2.567-.354 3.837-.037.257-.474.571-.782.658-4.502 1.266-9.013 2.498-13.521 3.738-1.37.377-2.737.768-4.114 1.119a2.011 2.011 0 0 1-.978.009c-5.909-1.61-11.811-3.242-17.717-4.858-.495-.136-.677-.377-.719-.913-.212-2.716-.491-5.427-.732-8.141-.226-2.534-.428-5.071-.654-7.606-.238-2.662-.496-5.323-.737-7.984-.176-1.946-.331-3.893-.506-5.839-.242-2.688-.498-5.374-.74-8.062-.174-1.921-.337-3.842-.502-5.763-.058-.666-.082-1.336-.169-1.997-.084-.643.191-.789.79-.776 1.633.034 3.267.012 4.9.012l17.346-.001z"/><path opacity=".2" fill-rule="evenodd" clip-rule="evenodd" fill="#FFF" d="M45.155 12.382c.176-2.15.348-4.3.547-6.448.061-.653-.125-.84-.729-.838-5.811.024-11.621.014-17.432.014H27.5v7.271h17.655zm-17.737.869l.164 38.002a1.57 1.57 0 0 0 .372-.058c1.089-.313 2.17-.659 3.254-.993 3.565-1.101 7.132-2.194 10.692-3.317.244-.077.589-.354.617-.579.138-1.111.185-2.237.266-3.357.128-1.75.253-3.499.387-5.248.18-2.33.367-4.659.547-6.989.133-1.726.255-3.453.388-5.179.18-2.33.367-4.659.547-6.989.131-1.704.252-3.409.384-5.113l.021-.255-17.639.075z"/><path fill-rule="evenodd" clip-rule="evenodd" fill="#FFF" d="M48.781 2.923c-7.077.027-14.154.016-21.232.016h-16.73c-1.576 0-3.151.022-4.726-.012-.577-.011-.843.13-.761.749.083.638.107 1.285.163 1.927.159 1.853.316 3.706.483 5.558.234 2.592.481 5.183.714 7.775.168 1.876.318 3.755.488 5.632.232 2.567.481 5.133.71 7.701.218 2.444.413 4.892.631 7.337.233 2.616.502 5.231.706 7.85.041.518.216.751.694.882 5.696 1.56 11.389 3.133 17.087 4.686.293.08.646.067.943-.009 1.328-.339 2.646-.715 3.968-1.078 4.349-1.197 8.699-2.385 13.041-3.606.298-.084.719-.387.754-.635.175-1.225.236-2.466.343-3.7.164-1.928.326-3.855.498-5.781.23-2.567.473-5.134.703-7.702.171-1.901.328-3.804.499-5.705.231-2.567.472-5.134.703-7.701.169-1.877.325-3.755.495-5.632.229-2.543.453-5.086.713-7.625.075-.724-.15-.93-.887-.927zm.103 1.78c-.25 2.45-.466 4.903-.688 7.355-.164 1.811-.314 3.623-.478 5.433-.223 2.476-.455 4.952-.678 7.428-.165 1.834-.316 3.669-.482 5.503-.222 2.477-.455 4.952-.677 7.429-.167 1.858-.323 3.718-.481 5.576-.102 1.191-.161 2.389-.33 3.569-.034.239-.439.531-.728.612-4.188 1.179-8.384 2.324-12.578 3.478-1.275.352-2.547.715-3.828 1.041a1.869 1.869 0 0 1-.91.009c-5.496-1.498-10.987-3.016-16.481-4.52-.461-.126-.63-.352-.669-.851-.197-2.526-.457-5.048-.682-7.571-.21-2.358-.398-4.719-.608-7.077-.221-2.477-.462-4.951-.686-7.428-.164-1.811-.308-3.622-.471-5.432-.226-2.5-.463-5-.688-7.5-.161-1.786-.313-3.573-.467-5.36-.054-.62-.077-1.243-.157-1.858-.078-.598.178-.734.735-.722 1.519.032 3.039.011 4.559.011h16.137c6.827 0 13.654.01 20.479-.015.71-.004.928.195.857.89z"/><path d="M12.657 6.659c.115 0 .214.04.296.119.082.08.124.174.124.284V8.62a.38.38 0 0 1-.124.286.416.416 0 0 1-.296.117h-2.381v1.032h-.828V6.659h3.209zm-2.381.668v1.03h1.973v-1.03h-1.973zm5.917 1.363H14.22v1.365h-.826V6.659h.826v1.363h1.973V6.659h.828v3.396h-.828V8.69zm4.357-2.031c.113 0 .211.04.294.119.082.08.123.174.123.284v2.589a.382.382 0 0 1-.123.285.412.412 0 0 1-.294.118h-2.792a.417.417 0 0 1-.296-.118.382.382 0 0 1-.123-.285V7.063c0-.11.041-.205.123-.284a.412.412 0 0 1 .296-.119h2.792zm-.408.668h-1.976v2.06h1.976v-2.06zm4.77-.668v.668h-1.399v2.728h-.828V7.327h-1.399v-.668h3.626zm3.529 0c.113 0 .211.04.294.119.082.08.123.174.123.284v2.589a.382.382 0 0 1-.123.285.412.412 0 0 1-.294.118h-2.792c-.115 0-.213-.04-.296-.118s-.124-.174-.124-.285V7.063c0-.11.041-.205.124-.284s.181-.119.296-.119h2.792zm-.408.668h-1.976v2.06h1.976v-2.06zm1.563-.668h3.003v.668h-2.595v.695h2.384a.41.41 0 0 1 .294.12.386.386 0 0 1 .123.285v1.225a.382.382 0 0 1-.123.285.412.412 0 0 1-.294.118h-3.212v-.668h2.802V8.69h-2.382a.416.416 0 0 1-.296-.118.379.379 0 0 1-.124-.285V7.063c0-.11.041-.205.124-.284.082-.08.18-.12.296-.12zm6.325 2.031h-1.973v1.365h-.826V6.659h.826v1.363h1.973V6.659h.828v3.396h-.828V8.69zm4.357-2.031c.113 0 .211.04.294.119.082.08.123.174.123.284v2.589a.382.382 0 0 1-.123.285.412.412 0 0 1-.294.118h-2.792a.416.416 0 0 1-.296-.118.379.379 0 0 1-.124-.285V7.063c0-.11.041-.205.124-.284a.408.408 0 0 1 .296-.119h2.792zm-.408.668h-1.976v2.06h1.976v-2.06zm4.353-.668c.114 0 .213.04.296.119.082.08.123.174.123.284V8.62a.38.38 0 0 1-.123.286.418.418 0 0 1-.296.117h-2.382v1.032h-.827V6.659h3.209zm-2.382.668v1.03h1.974v-1.03h-1.974z" fill="#FFF"/><g fill-rule="evenodd" clip-rule="evenodd" fill="#FFF"><path d="M16.578 19.144h21.844v21.36H16.578v-21.36zm1.738 1.701v17.959h18.368V20.845H18.316z"/><path d="M21.883 25.171c1.071 0 2.128-.022 3.184.012.365.012.738.127 1.083.258.794.299 1.301.883 1.5 1.702.239.981.133 1.919-.525 2.726-.535.655-1.253 1.028-2.094 1.141-.376.051-.758.064-1.138.076-.155.005-.208.043-.206.205.008.799.004 1.599.004 2.398v.206h-1.808v-8.724zm1.821 4.391c.227 0 .449.011.669-.002.928-.053 1.449-.517 1.552-1.373.073-.604-.222-1.21-.729-1.479-.472-.25-.979-.193-1.492-.184v3.038zm9.073-.593c-.482-.145-.942-.31-1.415-.414-.219-.048-.468-.004-.693.044-.201.042-.326.194-.35.412a.432.432 0 0 0 .249.461c.257.129.528.232.79.354.316.147.645.276.94.457.5.305.776.772.82 1.353.092 1.2-.615 1.916-1.595 2.185a3.876 3.876 0 0 1-.999.136c-.687.007-1.306-.199-1.91-.482-.052-.023-.12-.084-.122-.129-.009-.442-.005-.886-.005-1.305.433.146.851.321 1.287.422.298.069.628.08.93.033.509-.078.661-.564.339-.969-.197-.246-.473-.362-.754-.479-.378-.157-.761-.309-1.118-.505-.405-.223-.712-.556-.759-1.038-.077-.797.22-1.434.887-1.891.402-.276.859-.408 1.34-.454a3.698 3.698 0 0 1 2.006.362c.055.026.125.094.126.144.01.443.006.888.006 1.303z"/></g></svg>