<svg xmlns="http://www.w3.org/2000/svg" width="55" height="55"><path fill-rule="evenodd" clip-rule="evenodd" fill="#8B8B8C" d="M27.551 2.016c7.337 0 14.677.012 22.013-.016.764-.003.998.21.922.957-.27 2.632-.5 5.27-.74 7.906-.174 1.946-.338 3.894-.512 5.839-.24 2.663-.49 5.323-.729 7.985-.178 1.971-.342 3.944-.52 5.916-.238 2.662-.488 5.323-.727 7.984-.18 1.998-.348 3.996-.518 5.996-.109 1.278-.174 2.565-.355 3.836-.037.256-.473.57-.783.658-4.5 1.267-9.012 2.499-13.52 3.738-1.371.377-2.738.768-4.114 1.118-.31.079-.674.093-.979.009-5.909-1.61-11.811-3.241-17.716-4.857-.496-.137-.678-.378-.721-.915-.212-2.715-.49-5.426-.731-8.14-.228-2.534-.429-5.07-.655-7.606-.237-2.661-.496-5.322-.736-7.983-.176-1.946-.331-3.894-.506-5.84-.242-2.688-.498-5.374-.74-8.061-.173-1.92-.334-3.841-.5-5.762-.058-.666-.082-1.336-.17-1.998-.084-.641.193-.788.79-.776 1.633.034 3.267.011 4.9.011l17.347.001z"/><path opacity=".5" fill-rule="evenodd" clip-rule="evenodd" fill="#B5B5B6" d="M45.154 12.383c.176-2.15.348-4.301.547-6.449.061-.653-.125-.84-.729-.837-5.811.024-11.621.014-17.434.014h-.039v7.272h17.655zm-17.737.868l.165 38.002c.127-.004.254-.023.371-.058 1.089-.313 2.171-.657 3.253-.992 3.566-1.1 7.133-2.194 10.691-3.317.246-.077.592-.354.617-.578.141-1.112.186-2.239.268-3.358.127-1.75.254-3.499.387-5.248.18-2.331.367-4.659.547-6.99.133-1.726.254-3.452.389-5.178.18-2.33.365-4.659.547-6.989.129-1.704.25-3.408.383-5.112l.02-.256-17.638.074z"/><path fill-rule="evenodd" clip-rule="evenodd" fill="#FFF" d="M48.781 2.923c-7.078.027-14.154.016-21.233.016h-16.73c-1.574 0-3.151.022-4.726-.011-.577-.012-.842.129-.76.749.083.638.107 1.284.162 1.926.159 1.853.316 3.706.483 5.558.234 2.591.481 5.182.715 7.775.169 1.876.318 3.755.488 5.631.232 2.567.481 5.133.711 7.702.218 2.443.412 4.89.632 7.335.233 2.618.5 5.231.705 7.852.04.517.216.75.693.88 5.697 1.56 11.391 3.134 17.088 4.687.295.08.646.067.943-.01 1.329-.338 2.647-.715 3.969-1.078 4.348-1.196 8.699-2.384 13.039-3.605.299-.085.719-.387.756-.636.174-1.225.236-2.464.342-3.7.162-1.926.326-3.854.498-5.78.23-2.568.471-5.135.703-7.702.17-1.901.328-3.804.498-5.706.232-2.567.473-5.133.703-7.7.17-1.877.326-3.755.496-5.633.229-2.542.453-5.085.713-7.625.073-.722-.151-.928-.888-.925zm.104 1.78c-.252 2.449-.467 4.902-.689 7.355-.162 1.81-.313 3.622-.477 5.433-.223 2.476-.455 4.952-.678 7.428-.164 1.834-.316 3.669-.482 5.502-.221 2.479-.455 4.953-.678 7.429-.166 1.858-.322 3.719-.48 5.576-.102 1.191-.162 2.389-.33 3.57-.033.238-.439.531-.729.612-4.188 1.178-8.385 2.325-12.578 3.478-1.275.352-2.547.715-3.827 1.042a1.893 1.893 0 0 1-.91.007c-5.497-1.497-10.987-3.016-16.481-4.52-.461-.126-.63-.351-.67-.85-.196-2.525-.455-5.048-.68-7.572-.211-2.357-.399-4.719-.61-7.076-.22-2.477-.461-4.951-.686-7.429-.162-1.81-.308-3.622-.471-5.432-.226-2.5-.464-4.999-.688-7.5-.161-1.785-.314-3.572-.467-5.359-.053-.62-.076-1.243-.156-1.858-.079-.599.176-.734.733-.723 1.519.033 3.039.011 4.56.011h16.136c6.827 0 13.653.011 20.481-.015.708-.003.927.195.857.891z"/><path fill="#FFF" d="M40.889 17.921l-1.231 5.768-8.388 5.458 6.041 5.543-1.233 5.781-8.691-8.377-8.69 8.377-1.233-5.781 6.04-5.543-8.387-5.458-1.261-5.909 13.531 8.461 13.502-8.32z"/><text transform="translate(14.218 10.776)" fill="#FFF" font-family="'CafeNeroM54'" font-size="4.58">NO IMAGE</text></svg>