<svg xmlns="http://www.w3.org/2000/svg" width="55" height="55"><path fill-rule="evenodd" clip-rule="evenodd" fill="#FF3753" d="M27.551 2.016c7.337 0 14.676.011 22.014-.017.764-.003.997.21.921.958-.27 2.633-.501 5.27-.739 7.906-.176 1.946-.338 3.894-.514 5.84-.239 2.662-.488 5.323-.728 7.985-.178 1.971-.341 3.944-.519 5.916-.239 2.662-.49 5.323-.728 7.985-.179 1.997-.348 3.995-.518 5.994-.109 1.28-.174 2.566-.354 3.837-.037.257-.474.571-.782.658-4.502 1.266-9.013 2.498-13.521 3.738-1.37.377-2.737.768-4.114 1.118a1.987 1.987 0 0 1-.978.009c-5.909-1.609-11.811-3.241-17.717-4.857-.495-.136-.678-.378-.719-.914-.212-2.716-.491-5.426-.732-8.14-.226-2.534-.428-5.072-.654-7.606-.238-2.663-.496-5.323-.737-7.984-.176-1.946-.331-3.894-.506-5.84-.242-2.687-.498-5.374-.741-8.061-.173-1.921-.336-3.842-.501-5.763-.058-.666-.082-1.336-.169-1.997-.085-.643.191-.789.789-.777 1.633.034 3.267.012 4.9.012h17.347z"/><path opacity=".2" fill-rule="evenodd" clip-rule="evenodd" fill="#FFF" d="M45.155 12.383c.176-2.15.348-4.301.547-6.448.061-.654-.125-.84-.729-.838-5.811.024-11.621.015-17.432.015H27.5v7.271h17.655zm-17.737.868l.164 38.002c.128-.005.255-.024.372-.059 1.089-.312 2.17-.658 3.254-.992 3.565-1.101 7.133-2.194 10.692-3.317.244-.077.589-.354.616-.579.139-1.111.186-2.237.267-3.358.128-1.749.253-3.498.388-5.247.178-2.33.367-4.66.546-6.99.133-1.726.255-3.452.388-5.178.18-2.33.367-4.66.547-6.99.131-1.704.252-3.408.384-5.112l.021-.255-17.639.075z"/><path fill-rule="evenodd" clip-rule="evenodd" fill="#FFF" d="M48.781 2.923c-7.077.027-14.154.016-21.232.016h-16.73c-1.576 0-3.151.022-4.726-.012-.577-.011-.843.13-.761.749.083.639.107 1.285.163 1.927.16 1.853.316 3.706.484 5.558.234 2.592.48 5.183.714 7.775.168 1.876.318 3.755.488 5.631.232 2.568.482 5.133.711 7.701.218 2.444.413 4.892.631 7.336.233 2.617.502 5.231.706 7.851.04.517.216.751.693.882 5.697 1.56 11.39 3.133 17.088 4.686.293.08.646.066.943-.009 1.328-.339 2.646-.716 3.968-1.079 4.35-1.196 8.699-2.385 13.041-3.605.298-.084.719-.388.755-.635.174-1.225.235-2.466.342-3.7.164-1.928.326-3.855.498-5.782.23-2.567.473-5.134.703-7.701.171-1.901.328-3.804.5-5.705.23-2.567.471-5.134.702-7.701.169-1.877.324-3.755.495-5.633.23-2.542.453-5.085.713-7.625.073-.722-.152-.928-.889-.925zm.103 1.78c-.25 2.45-.465 4.903-.688 7.355-.164 1.811-.314 3.623-.478 5.433-.224 2.476-.455 4.952-.678 7.428-.165 1.834-.316 3.669-.481 5.503-.223 2.477-.456 4.952-.678 7.429-.166 1.858-.323 3.717-.481 5.576-.102 1.191-.161 2.388-.33 3.569-.034.238-.439.531-.728.612-4.188 1.178-8.384 2.324-12.578 3.478-1.275.351-2.547.714-3.828 1.041a1.881 1.881 0 0 1-.91.009c-5.496-1.498-10.987-3.016-16.481-4.52-.461-.126-.63-.352-.669-.851-.197-2.526-.456-5.048-.681-7.572-.21-2.357-.398-4.718-.609-7.076-.221-2.477-.461-4.951-.686-7.428-.164-1.811-.308-3.622-.471-5.432-.226-2.5-.463-5-.688-7.5-.161-1.786-.313-3.573-.467-5.36-.053-.62-.076-1.243-.157-1.858-.078-.598.178-.734.735-.723 1.519.032 3.039.011 4.559.011h16.137c6.827 0 13.654.01 20.48-.016.709-.002.927.197.856.892z"/><path d="M19.096 6.651h1.064v3.859a.493.493 0 0 1-.158.367.525.525 0 0 1-.38.152h-3.6a.53.53 0 0 1-.38-.152.493.493 0 0 1-.158-.367V6.651h1.064v3.517h2.547V6.651zm1.503 0h1.196l1.132 1.424 1.149-1.424h1.199L23.538 8.84l1.737 2.189h-1.199l-1.149-1.424-1.132 1.424H20.57l1.754-2.189-1.725-2.189zm6.343 4.45l1.243-4.283h.421l-1.24 4.283h-.424zm7.145-4.45h1.064v3.859a.493.493 0 0 1-.157.367.526.526 0 0 1-.381.152h-3.6a.533.533 0 0 1-.381-.152.496.496 0 0 1-.157-.367V6.651h1.064v3.517h2.547V6.651zm1.475 4.379V6.651h1.064v4.379h-1.064z" fill="#FFF"/><g fill-rule="evenodd" clip-rule="evenodd"><path d="M16.812 42.629l.332.281c.591-.389 1.219-.733 1.769-1.174 4.638-3.706 8.533-8.111 12.12-12.803.509-.665.958-1.381 1.367-2.11.107-.19.042-.582-.098-.766-.093-.123-.478-.105-.695-.036-.245.077-.467.262-.67.434-5.206 4.398-9.694 9.441-13.599 15.003-.242.345-.354.778-.526 1.171zM26.97 28.38c-.885-.761-1.651-1.395-2.388-2.059-1.212-1.094-2.546-2.137-2.061-4.085.026-.104-.008-.229-.034-.34-.479-2.041-3.049-3.239-4.71-2.066.416.443.817.88 1.231 1.307.536.554.606 1.165.078 1.717-.542.566-1.167.477-1.735-.03-.444-.396-.881-.799-1.491-1.352-.16.532-.328.862-.351 1.202-.146 2.175 1.77 3.951 4.002 3.609.728-.112 1.137.087 1.586.562 1.171 1.238 2.373 2.447 3.504 3.607l2.369-2.072zm11.508 11.997c1.182-2.438-.761-5.063-3.417-4.788-.839.087-1.384-.128-1.904-.714-.881-.992-1.795-1.954-2.592-2.816-.902.735-1.572 1.28-2.526 2.059 1.254 1.125 2.389 2.088 3.447 3.129.26.255.404.773.369 1.149-.199 2.121.9 3.774 2.92 4.126.564.098 1.179-.08 2.077-.159-.665-.766-1.054-1.225-1.454-1.672-.463-.517-.653-1.028-.063-1.589.57-.543 1.152-.553 1.733-.046.453.396.879.822 1.41 1.321zm1.481-19.983c-3.155-1.433-7.138.058-8.109 2.842-.375 1.076-.057 2.039.89 2.686.917.626 2.054.615 2.8-.269.563-.666 1.036-1.528 1.205-2.371.239-1.188.873-1.889 1.903-2.352.372-.167.754-.309 1.311-.536z"/><path fill="#FFF" d="M16.812 42.629c.172-.393.285-.826.526-1.17 3.905-5.563 8.393-10.605 13.599-15.003.203-.172.425-.357.67-.434.218-.069.603-.086.695.036.14.184.205.575.098.766a17.769 17.769 0 0 1-1.367 2.11c-3.587 4.691-7.482 9.097-12.12 12.803-.55.44-1.178.785-1.769 1.174l-.332-.282zM26.97 28.38l-2.368 2.072c-1.131-1.16-2.333-2.369-3.504-3.607-.449-.475-.858-.674-1.586-.562-2.233.342-4.148-1.434-4.002-3.609.023-.339.191-.669.351-1.202.609.553 1.046.957 1.491 1.352.568.506 1.192.596 1.735.03.528-.552.458-1.163-.078-1.717-.414-.427-.815-.864-1.231-1.307 1.662-1.173 4.232.025 4.71 2.066.026.111.06.235.034.34-.485 1.948.849 2.991 2.061 4.085.736.664 1.502 1.298 2.387 2.059zm11.508 11.997c-.53-.499-.956-.925-1.41-1.321-.581-.507-1.163-.497-1.733.046-.59.561-.399 1.072.063 1.589.4.447.789.906 1.454 1.672-.898.079-1.513.257-2.077.159-2.02-.352-3.119-2.005-2.92-4.126.035-.376-.109-.895-.369-1.149-1.059-1.041-2.193-2.004-3.447-3.129l2.526-2.059c.797.862 1.711 1.824 2.592 2.816.521.586 1.065.801 1.904.714 2.656-.275 4.598 2.349 3.417 4.788zm1.481-19.983c-.557.227-.939.369-1.312.536-1.03.463-1.664 1.164-1.903 2.352-.169.843-.643 1.705-1.205 2.371-.746.884-1.883.896-2.8.269-.946-.646-1.265-1.609-.89-2.686.972-2.784 4.955-4.275 8.11-2.842z"/></g></svg>