<?xml version="1.0" encoding="utf-8"?>
<!-- Generator: Adobe Illustrator 16.0.3, SVG Export Plug-In . SVG Version: 6.00 Build 0)  -->
<!DOCTYPE svg PUBLIC "-//W3C//DTD SVG 1.1//EN" "http://www.w3.org/Graphics/SVG/1.1/DTD/svg11.dtd">
<svg fill="#424242" version="1.1" id="about" xmlns="http://www.w3.org/2000/svg" xmlns:xlink="http://www.w3.org/1999/xlink" x="0px" y="0px"
	 width="128px" height="128px" viewBox="0 0 128 128" enable-background="new 0 0 128 128" xml:space="preserve">
<g>
	<path d="M114.883,91.967c-0.807-5.443-5.012-8.633-10.141-10.717c-6.75-2.743-13.287-6.004-20.021-8.791
		c-1.367-0.566-3.199-0.02-4.816,0.016c0.632,1.635,0.798,4.135,1.968,4.76c6.137,3.283,12.383,6.466,18.868,8.961
		c6.9,2.656,9.029,4.753,9.58,12.19c0.174,2.321-0.065,4.675,0.139,6.99c0.34,3.845-1.21,6.05-4.841,7.563
		c-25.274,10.521-50.797,10.973-76.49,1.953c-10.369-3.641-11.483-6.082-9.684-17.108c0.054-0.327,0.193-0.644,0.227-0.974
		c0.586-5.586,3.541-8.67,8.998-10.558c6.546-2.263,12.767-5.552,18.917-8.797c1.252-0.661,1.566-3.101,2.313-4.722
		c-1.693-0.096-3.621-0.768-5.038-0.189c-6.742,2.752-13.258,6.059-20.021,8.749c-5.801,2.308-9.508,6.36-10.503,12.288
		c-0.845,5.029-0.782,10.24-0.806,15.372c-0.018,3.812,2.006,6.31,5.578,8.04c14.367,6.966,29.538,10.033,45.411,10.044
		c17.502,0.017,34.086-3.589,46.736-10.515c1.844-1.01,4.299-3.098,4.366-4.772C115.887,105.167,115.846,98.469,114.883,91.967z"/>
	<path d="M62.691,70.061c10.87,0.084,18.95-5.203,22.797-15.23c3.794-9.887,4.381-20.119,1.99-30.38
		C84.729,12.636,75.46,5.712,63.108,5.729C50.606,5.744,41.212,12.966,38.662,25.01c-2.142,10.115-1.579,20.177,2.195,29.896
		C44.631,64.626,52.462,69.982,62.691,70.061z M44.348,27.042c0.859-8.979,7.948-14.844,16.437-15.282
		c11.302-0.584,18.371,3.841,20.855,13.662c2.291,9.062,1.868,18.187-1.395,26.985c-2.979,8.035-8.66,11.691-17.247,11.674
		c-9.275-0.018-15.977-4.875-17.828-14.819C43.825,42.036,43.647,34.375,44.348,27.042z"/>
</g>
</svg>
