<svg xmlns="http://www.w3.org/2000/svg" width="55" height="55" fill="#1cb3ff"><path fill-rule="evenodd" clip-rule="evenodd" d="M27.334 30.944c-.278.359-.438.62-.649.831C20.346 38.086 14 44.389 7.663 50.701c-.573.57-1.193.977-2.036.942-.994-.042-1.724-.513-2.124-1.407-.385-.862-.279-1.711.316-2.465.169-.215.376-.4.571-.594C10.695 40.904 17 34.63 23.313 28.364c.208-.207.496-.333.747-.497a41.128 41.128 0 0 0-.011-.351c-.25-.168-.535-.3-.744-.509-6.348-6.336-12.687-12.682-19.034-19.02-.724-.721-1.112-1.528-.821-2.56.479-1.702 2.453-2.34 3.835-1.237.233.186.439.408.651.62 6.254 6.254 12.507 12.508 18.759 18.765.211.211.4.444.657.73.27-.254.483-.446.687-.648C34.31 17.42 40.581 11.183 46.846 4.94c.589-.586 1.218-1.025 2.094-.987.93.042 1.623.469 2.058 1.279.44.818.39 1.641-.13 2.409-.194.286-.448.535-.695.781-6.234 6.204-12.47 12.405-18.71 18.603-.192.192-.434.336-.717.553.306.324.498.538.701.742 6.306 6.308 12.61 12.617 18.922 18.919.569.568.989 1.181.966 2.026-.027.996-.484 1.729-1.37 2.15s-1.753.304-2.535-.295c-.216-.166-.4-.376-.595-.57-6.271-6.271-12.543-12.543-18.813-18.816-.195-.196-.363-.415-.688-.79z"/></svg>