<?xml version="1.0" encoding="utf-8"?>
<!-- Generator: Adobe Illustrator 16.0.3, SVG Export Plug-In . SVG Version: 6.00 Build 0)  -->
<!DOCTYPE svg PUBLIC "-//W3C//DTD SVG 1.1//EN" "http://www.w3.org/Graphics/SVG/1.1/DTD/svg11.dtd">
<svg  fill="#dadada" version="1.1" id="Layer_1" xmlns="http://www.w3.org/2000/svg" xmlns:xlink="http://www.w3.org/1999/xlink" x="0px" y="0px"
	 width="128px" height="128px" viewBox="0 0 128 128" enable-background="new 0 0 128 128" xml:space="preserve">
<g>
	<path fill-rule="evenodd" clip-rule="evenodd" d="M112.397,48.529c-6.956-1.609-11.391-12.761-7.352-18.481
		c5.461-7.733,2.922-16.874-5.77-20.782C91.925,5.958,85.282,7.463,79.05,12.14c-5.682,4.264-13.429,2.49-17.335-3.35
		c-1.21-1.808-3.902-3.333-6.106-3.644c-8.555-1.21-19.645,5.245-22.562,13.411c-0.974,2.727-1.042,7.251,0.584,9.051
		c1.912,2.117,6.407,3.458,9.257,2.814c4.558-1.028,8.707-3.923,12.983-6.119c3.063-1.573,6.051-3.292,9.456-5.155
		c3.75,1.734,8.525,2.421,9.342,4.596c2.803,7.456,8.262,10.386,15.263,11.94c3.667,0.815,10.096,12.599,7.991,15.518
		c-1.961,2.72-5.724,6.591-7.968,6.163c-5.093-0.974-12.299,1.585-14.795-6.214c-1.709-5.341-5.377-9.075-10.831-10.584
		c-8.544-2.365-18.305,2.805-21.978,11.394c-3.669,8.581-0.86,18.868,6.382,23.368c7.607,4.726,16.798,2.917,23.017-5.661
		c4.341-5.988,9.189-1.946,13.772-1.987c3.486-0.029,5.895,1.861,6.835,5.76c1.714,7.103,6.423,11.549,13.713,12.609
		c10.728,1.56,18.938-4.56,20.674-15.047C128.398,60.995,121.834,50.711,112.397,48.529z"/>
	<path fill-rule="evenodd" clip-rule="evenodd" d="M81.477,89.848c-6.753-2.329-14.115-0.027-18.733,5.857
		c-4.398,5.604-14.653,4.598-17.746-1.76c-2.575-5.293-6.095-9.53-12.213-10.734c-7.142-1.405-11.086-10.723-8.506-17.59
		c2.118-5.636,3.317-11.911,3.345-17.909c0.013-2.874-3.167-7.502-5.739-8.188c-2.945-0.784-7.761,0.976-10.114,3.301
		c-6.461,6.383-8.421,14.819-7.011,23.696c0.723,4.552,2.832,8.64,8.697,8.438c0.849-0.03,2.334,0.349,2.484,0.849
		c1.604,5.357,6.058,9.791,3.877,16.383c-2.957,8.944,1.013,18.889,8.642,24.125c6.497,4.458,12.143,3.149,16.375-3.366
		c1.144-1.762,3.758-4.196,5.12-3.875c3.71,0.873,8.6-1.183,10.829,4.526c3.459,8.857,10.987,12.973,18.734,11.213
		c7.674-1.741,13.767-9.711,13.853-18.121C93.452,98.688,89.058,92.463,81.477,89.848z"/>
</g>
</svg>
