<?xml version="1.0" encoding="utf-8"?>
<!-- Generator: Adobe Illustrator 16.0.3, SVG Export Plug-In . SVG Version: 6.00 Build 0)  -->
<!DOCTYPE svg PUBLIC "-//W3C//DTD SVG 1.1//EN" "http://www.w3.org/Graphics/SVG/1.1/DTD/svg11.dtd">
<svg fill="#dadada" version="1.1" id="Layer_1" xmlns="http://www.w3.org/2000/svg" xmlns:xlink="http://www.w3.org/1999/xlink" x="0px" y="0px"
	 width="128px" height="128px" viewBox="0 0 128 128" enable-background="new 0 0 128 128" xml:space="preserve">
<g>
	<path fill-rule="evenodd" clip-rule="evenodd" d="M67.274,126.029c-2.259,0-4.519,0-6.776,0
		c-0.388-0.08-0.773-0.18-1.163-0.232c-2.667-0.366-5.372-0.554-7.996-1.113c-13.679-2.917-25.137-9.682-34.287-20.254
		C9.226,95.391,4.4,84.925,2.662,73.072c-0.273-1.864-0.483-3.735-0.722-5.603c0-2.257,0-4.516,0-6.773
		c0.079-0.389,0.176-0.774,0.23-1.165c0.379-2.705,0.582-5.447,1.149-8.112c2.913-13.687,9.726-25.12,20.308-34.25
		c9.021-7.785,19.456-12.58,31.27-14.31c1.862-0.273,3.734-0.483,5.602-0.722c2.258,0,4.518,0,6.776,0
		c0.388,0.079,0.772,0.181,1.166,0.229c2.232,0.284,4.492,0.422,6.697,0.849c14.256,2.757,26.181,9.626,35.661,20.616
		c7.811,9.051,12.616,19.526,14.321,31.387c0.264,1.822,0.476,3.651,0.713,5.478c0,2.258,0,4.517,0,6.773
		c-0.079,0.39-0.18,0.771-0.234,1.162c-0.38,2.706-0.583,5.446-1.149,8.111c-2.898,13.6-9.645,24.979-20.129,34.09
		c-9.057,7.875-19.553,12.722-31.448,14.472C71.01,125.58,69.14,125.788,67.274,126.029z M52.512,87.817
		c-2.9-0.602-5.674-1.037-8.375-1.761c-6.788-1.818-12.406-5.321-15.918-11.647c-2.332-4.204-3.283-8.788-3.663-13.525
		c-0.584-7.277,0.596-14.052,5.512-19.811c0.293-0.342,0.397-1.051,0.278-1.508c-1.06-4.104-1.213-8.223-0.054-12.299
		c1.148-4.04,0.474-4.052,5.133-3.163c4.413,0.841,8.268,3.073,12.073,5.362c0.468,0.282,1.129,0.467,1.657,0.391
		c2.864-0.411,5.701-1.044,8.573-1.368c6.938-0.785,13.838-0.519,20.62,1.284c0.789,0.21,1.338,0.038,2.014-0.318
		c2.88-1.517,5.723-3.142,8.726-4.364c1.935-0.787,4.117-0.995,6.21-1.338c0.387-0.064,1.127,0.362,1.272,0.731
		c1.872,4.81,2.519,9.728,0.895,14.748c-0.219,0.68-0.134,1.08,0.308,1.606c2.205,2.628,3.717,5.62,4.634,8.931
		c1.313,4.729,1.098,9.504,0.388,14.267c-0.922,6.175-3.222,11.709-8.031,15.942c-3.92,3.449-8.623,5.257-13.646,6.331
		c-1.907,0.408-3.844,0.687-5.805,1.031c3.264,4.399,4.039,6.792,4.039,12.366c0.002,3.872,0,7.742,0,11.614
		c0,1.892,0,3.782,0,5.695c19.934-5.483,41.445-26.827,38.475-57.255c-2.678-27.419-26.191-48.902-54.121-48.72
		C34.955,11.229,11.411,33.384,9.752,62.283c-1.625,28.294,18.28,48.969,38.594,54.34c0-3.697,0-7.381,0-10.866
		c-2.67,0.143-5.287,0.512-7.876,0.369c-6.025-0.326-10.548-3.013-12.994-8.801c-1.574-3.729-3.805-7.003-7.357-9.195
		c-0.607-0.374-1.162-0.884-1.626-1.429c-0.667-0.783-0.483-1.525,0.5-1.733c1.001-0.211,2.094-0.332,3.091-0.168
		c3.775,0.631,6.488,2.835,8.485,6.028c4.208,6.729,10.712,8.043,17.539,5.292c0.33-0.135,0.708-0.566,0.76-0.901
		C49.304,92.395,50.317,89.868,52.512,87.817z"/>
</g>
</svg>
