<?xml version="1.0" encoding="utf-8"?>
<!-- Generator: Adobe Illustrator 16.0.3, SVG Export Plug-In . SVG Version: 6.00 Build 0)  -->
<!DOCTYPE svg PUBLIC "-//W3C//DTD SVG 1.1//EN" "http://www.w3.org/Graphics/SVG/1.1/DTD/svg11.dtd">
<svg fill="#424242" version="1.1" class="home" xmlns="http://www.w3.org/2000/svg" xmlns:xlink="http://www.w3.org/1999/xlink" x="0px" y="0px"
	 width="128px" height="128px" viewBox="0 0 128 128" enable-background="new 0 0 128 128" xml:space="preserve">

<g>
	<path fill-rule="evenodd" clip-rule="evenodd" fill="#424242" d="M0,66.938c15.565-15.712,31.146-31.409,46.687-47.145
		c5.593-5.663,11.092-11.42,16.793-17.3c8.144,8.071,15.825,15.627,23.444,23.247c12.122,12.121,24.206,24.278,36.292,36.435
		c1.17,1.177,2.543,2.304,3.25,3.736c0.469,0.948-0.08,2.401-0.176,3.628c-1.205-0.113-2.787,0.222-3.547-0.419
		c-2.791-2.354-5.34-4.999-7.92-7.593C98.626,45.247,82.447,28.95,66.251,12.669c-0.681-0.683-1.47-1.258-2.648-2.256
		c-9.865,9.946-19.55,19.735-29.265,29.495c-9.274,9.316-18.62,18.562-27.843,27.927C4.199,70.167,2.216,70.889,0,67.938
		C0,67.604,0,67.271,0,66.938z"/>
	<path fill-rule="evenodd" clip-rule="evenodd" fill="#424242" d="M110.08,125.795c-12.062,0-23.503,0-35.59,0
		c0-11.35,0-22.59,0-34.108c-7.379,0-14.112,0-21.265,0c0,11.464,0,22.564,0,33.992c-11.826,0-23.236,0-35.122,0
		c-0.119-1.342-0.352-2.761-0.354-4.182c-0.015-16.326,0.002-32.653,0.019-48.979c0.001-0.998-0.189-2.103,0.171-2.964
		c0.393-0.938,1.279-2.242,2.034-2.301c0.792-0.061,2.12,1.007,2.433,1.866c0.491,1.348,0.421,2.934,0.423,4.419
		c0.025,13.662,0.014,27.323,0.014,40.984c0,1.786,0,3.571,0,5.657c8.545,0,16.476,0,24.921,0c0-11.438,0-22.69,0-34.628
		c10.253,0,20.011-0.082,29.76,0.163c0.74,0.019,2.009,2.339,2.035,3.61c0.175,8.326,0.075,16.658,0.065,24.988
		c-0.002,1.801,0,3.601,0,5.786c8.558,0,16.625,0,25.244,0c0-6.068,0-12.024,0-17.981c0-9.996-0.131-19.995,0.125-29.984
		c0.045-1.706,1.74-3.369,2.672-5.053c0.805,1.569,2.295,3.132,2.311,4.708C110.141,89.6,110.08,107.412,110.08,125.795z"/>
	<path fill-rule="evenodd" clip-rule="evenodd" fill="#424242" d="M104.682,19.081c-5.657,0-10.954,0.197-16.221-0.116
		c-1.645-0.098-3.208-1.571-4.808-2.414c1.55-1.131,3.053-3.156,4.657-3.239c6.959-0.361,13.948-0.155,21.688-0.155
		c0,8.127,0.08,16.034-0.109,23.934c-0.021,0.88-1.566,1.725-2.404,2.585c-0.855-1.087-2.381-2.134-2.449-3.269
		c-0.295-4.812-0.154-9.651-0.184-14.48C104.848,21.266,104.775,20.606,104.682,19.081z"/>
</g>
</svg>
