<?xml version="1.0" encoding="utf-8"?>
<!-- Generator: Adobe Illustrator 16.0.3, SVG Export Plug-In . SVG Version: 6.00 Build 0)  -->
<!DOCTYPE svg PUBLIC "-//W3C//DTD SVG 1.1//EN" "http://www.w3.org/Graphics/SVG/1.1/DTD/svg11.dtd">
<svg version="1.1" id="logo" xmlns="http://www.w3.org/2000/svg" xmlns:xlink="http://www.w3.org/1999/xlink" x="0px" y="0px"
	 width="242px" height="275px" viewBox="0 0 242 275" enable-background="new 0 0 242 275" xml:space="preserve">
<polygon fill="#0E6495" points="-1102.886,-449.361 -1200.86,-462.813 -1252.749,-328.517 -1215.712,-290.479 -1168.983,-411.409 
	-1113.318,-400.411 "/>
<g>
	<polygon fill="#28B2E2" points="-1424.431,-664.04 -1424.431,-446.993 -1281.791,-581.689 	"/>
	<polygon fill="#8DD6EC" points="-1281.791,-581.689 -1424.431,-446.993 -1281.791,-446.993 	"/>
	<polygon fill="#B8E4F2" points="-1424.431,-446.993 -1281.791,-312.3 -1281.791,-446.993 	"/>
	<polygon fill="#3EC4E8" points="-1424.431,-229.933 -1281.791,-312.3 -1424.431,-446.993 	"/>
	<polygon fill="none" points="-1236.462,-772.561 -1236.462,-772.561 -1236.462,-772.561 	"/>
	<polygon fill="#189DD8" points="-1424.431,-664.04 -1281.791,-581.689 -1236.462,-772.561 	"/>
	<polygon fill="#005685" points="-1236.462,-772.561 -1048.489,-716.382 -1048.489,-881.084 	"/>
	<polygon fill="none" points="-856.411,-770.189 -856.411,-770.189 -856.411,-770.187 	"/>
	<polygon fill="#393B3D" points="-1048.489,-881.084 -1048.489,-716.382 -856.411,-770.189 	"/>
	<polygon fill="#727477" points="-856.411,-770.187 -815.19,-581.689 -672.55,-664.04 	"/>
	<polygon fill="#808285" points="-815.19,-581.689 -672.55,-446.993 -672.55,-664.04 	"/>
	<polygon fill="#A2A1A2" points="-672.55,-229.933 -672.55,-446.993 -815.19,-312.3 	"/>
	<polygon fill="#1D8BCA" points="-1281.791,-581.689 -1165.141,-649.034 -1236.462,-772.561 	"/>
	<polygon fill="#0E6495" points="-1236.462,-772.561 -1165.141,-649.034 -1048.489,-716.382 	"/>
	<polygon fill="none" points="-856.411,-123.795 -856.411,-123.795 -856.411,-123.795 	"/>
	<polygon fill="#DCDBDB" points="-1048.489,-12.906 -856.411,-123.795 -1048.489,-177.599 	"/>
	<polygon fill="#ABABAB" points="-672.55,-229.933 -815.19,-312.3 -856.411,-123.795 	"/>
	<polygon fill="#BABABA" points="-931.833,-244.954 -856.411,-123.795 -815.19,-312.3 	"/>
	<polygon fill="#C4C5C5" points="-1048.489,-177.599 -856.411,-123.795 -856.411,-123.795 -931.833,-244.954 	"/>
	<polygon fill="none" points="-1236.462,-121.419 -1236.462,-121.419 -1236.462,-121.419 	"/>
	<polygon fill="#CAEBFB" points="-1048.489,-177.599 -1236.462,-121.419 -1048.489,-12.906 	"/>
	<polygon fill="#6ECEEB" points="-1424.431,-229.933 -1236.462,-121.419 -1281.791,-312.3 	"/>
	<polygon fill="#8ED7F2" points="-1281.791,-312.3 -1236.462,-121.419 -1165.141,-244.954 	"/>
	<polygon fill="#AEE0F1" points="-1165.141,-244.954 -1236.462,-121.419 -1048.489,-177.599 	"/>
	<polygon fill="#BABABA" points="-815.19,-581.689 -815.19,-446.993 -672.55,-446.993 	"/>
	<polygon fill="#929293" points="-672.55,-446.993 -815.19,-446.993 -815.19,-312.3 	"/>
	<polygon fill="#4C4E51" points="-856.411,-770.189 -1048.489,-716.382 -931.833,-649.034 -856.411,-770.187 	"/>
	<polygon fill="#595D61" points="-856.411,-770.187 -931.833,-649.034 -815.19,-581.689 	"/>
</g>
<polygon fill="#1D8BCA" points="-1269.048,-577.994 -1269.048,-320.198 -1215.528,-290.383 -1215.528,-522.538 -1117.499,-568.3 
	-1117.499,-232.238 -1049.547,-191.933 -1049.547,-702.127 "/>
<path fill="none" stroke="#1F8BC8" stroke-width="3" stroke-miterlimit="10" d="M-1046.396-191.899"/>
<polygon fill="#727477" points="-1046.396,-702.091 -1046.396,-191.899 -826.893,-316.034 -826.893,-320.164 -826.893,-403.183 
	-852.361,-402.559 -880.415,-401.671 -880.415,-371.484 -978.44,-325.723 -978.44,-568.261 -880.415,-522.503 -880.415,-492.318 
	-852.361,-491.559 -826.893,-490.807 -826.893,-573.826 -826.893,-577.957 "/>
<polygon fill="#0E6495" points="-948.544,456.897 -1046.518,443.445 -1098.406,577.741 -1061.369,615.779 -1014.64,494.85 
	-958.976,505.848 "/>
<g>
	<polygon fill="#28B2E2" points="-1270.088,245.219 -1270.088,462.266 -1127.448,327.569 	"/>
	<polygon fill="#8DD6EC" points="-1127.448,327.569 -1270.088,462.266 -1127.448,462.266 	"/>
	<polygon fill="#B8E4F2" points="-1270.088,462.266 -1127.448,596.958 -1127.448,462.266 	"/>
	<polygon fill="#3EC4E8" points="-1270.088,679.325 -1127.448,596.958 -1270.088,462.266 	"/>
	<polygon fill="none" points="-1082.119,136.697 -1082.119,136.697 -1082.119,136.697 	"/>
	<polygon fill="#189DD8" points="-1270.088,245.219 -1127.448,327.569 -1082.119,136.697 	"/>
	<polygon fill="#005685" points="-1082.119,136.697 -894.146,192.876 -894.146,28.174 	"/>
	<polygon fill="none" points="-702.068,139.069 -702.068,139.069 -702.068,139.072 	"/>
	<polygon fill="#393B3D" points="-894.146,28.174 -894.146,192.876 -702.068,139.069 	"/>
	<polygon fill="#727477" points="-702.068,139.072 -660.848,327.569 -518.207,245.219 	"/>
	<polygon fill="#808285" points="-660.848,327.569 -518.207,462.266 -518.207,245.219 	"/>
	<polygon fill="#A2A1A2" points="-518.207,679.325 -518.207,462.266 -660.848,596.958 	"/>
	<polygon fill="#1D8BCA" points="-1127.448,327.569 -1010.798,260.225 -1082.119,136.697 	"/>
	<polygon fill="#0E6495" points="-1082.119,136.697 -1010.798,260.225 -894.146,192.876 	"/>
	<polygon fill="none" points="-702.068,785.463 -702.068,785.463 -702.068,785.463 	"/>
	<polygon fill="#DCDBDB" points="-894.146,896.353 -702.068,785.463 -894.146,731.659 	"/>
	<polygon fill="#ABABAB" points="-518.207,679.325 -660.848,596.958 -702.068,785.463 	"/>
	<polygon fill="#BABABA" points="-777.49,664.305 -702.068,785.463 -660.848,596.958 	"/>
	<polygon fill="#C4C5C5" points="-894.146,731.659 -702.068,785.463 -702.068,785.463 -777.49,664.305 	"/>
	<polygon fill="none" points="-1082.119,787.839 -1082.119,787.839 -1082.119,787.839 	"/>
	<polygon fill="#CAEBFB" points="-894.146,731.659 -1082.119,787.839 -894.146,896.353 	"/>
	<polygon fill="#6ECEEB" points="-1270.088,679.325 -1082.119,787.839 -1127.448,596.958 	"/>
	<polygon fill="#8ED7F2" points="-1127.448,596.958 -1082.119,787.839 -1010.798,664.305 	"/>
	<polygon fill="#AEE0F1" points="-1010.798,664.305 -1082.119,787.839 -894.146,731.659 	"/>
	<polygon fill="#BABABA" points="-660.848,327.569 -660.848,462.266 -518.207,462.266 	"/>
	<polygon fill="#929293" points="-518.207,462.266 -660.848,462.266 -660.848,596.958 	"/>
	<polygon fill="#4C4E51" points="-702.068,139.069 -894.146,192.876 -777.49,260.225 -702.068,139.072 	"/>
	<polygon fill="#595D61" points="-702.068,139.072 -777.49,260.225 -660.848,327.569 	"/>
</g>
<polygon fill="#1D8BCA" points="-1114.706,331.265 -1114.706,589.061 -1061.186,618.875 -1061.186,386.721 -963.156,340.958 
	-963.156,677.021 -895.204,717.325 -895.204,207.131 "/>
<path fill="none" stroke="#1F8BC8" stroke-width="3" stroke-miterlimit="10" d="M-892.053,717.359"/>
<polygon fill="#727477" points="-892.053,207.168 -892.053,717.359 -672.55,593.225 -672.55,589.095 -672.55,506.075 
	-698.019,491.21 -726.072,507.587 -726.072,537.774 -824.098,583.535 -824.098,340.998 -726.072,386.755 -726.072,416.939 
	-698.019,433.317 -672.55,418.451 -672.55,335.432 -672.55,331.301 "/>
<path fill="#727477" d="M-978.44-568.261"/>
<polygon fill="#0E6495" points="1123.573,495.878 1025.6,482.427 973.711,616.722 1010.748,654.761 1057.477,533.831 
	1113.141,544.829 "/>
<g>
	<polygon fill="#28B2E2" points="802.028,281.199 802.028,498.247 944.669,363.551 	"/>
	<polygon fill="#8DD6EC" points="944.669,363.551 802.028,498.247 944.669,498.247 	"/>
	<polygon fill="#B8E4F2" points="802.028,498.247 944.669,632.938 944.669,498.247 	"/>
	<polygon fill="#3EC4E8" points="802.028,715.306 944.669,632.938 802.028,498.247 	"/>
	<polygon fill="none" points="989.998,172.679 989.998,172.679 989.998,172.679 	"/>
	<polygon fill="#189DD8" points="802.028,281.199 944.669,363.551 989.998,172.679 	"/>
	<polygon fill="#005685" points="989.998,172.679 1177.971,228.857 1177.971,64.155 	"/>
	<polygon fill="none" points="1370.048,175.051 1370.048,175.051 1370.048,175.053 	"/>
	<polygon fill="#393B3D" points="1177.971,64.155 1177.971,228.857 1370.048,175.051 	"/>
	<polygon fill="#727477" points="1370.048,175.053 1411.269,363.551 1553.909,281.199 	"/>
	<polygon fill="#808285" points="1411.269,363.551 1553.909,498.247 1553.909,281.199 	"/>
	<polygon fill="#A2A1A2" points="1553.909,715.306 1553.909,498.247 1411.269,632.938 	"/>
	<polygon fill="#1D8BCA" points="944.669,363.551 1061.318,296.205 989.998,172.679 	"/>
	<polygon fill="#0E6495" points="989.998,172.679 1061.318,296.205 1177.971,228.857 	"/>
	<polygon fill="none" points="1370.048,821.444 1370.048,821.444 1370.048,821.444 	"/>
	<polygon fill="#DCDBDB" points="1177.971,932.333 1370.048,821.444 1177.971,767.64 	"/>
	<polygon fill="#ABABAB" points="1553.909,715.306 1411.269,632.938 1370.048,821.444 	"/>
	<polygon fill="#BABABA" points="1294.626,700.286 1370.048,821.444 1411.269,632.938 	"/>
	<polygon fill="#C4C5C5" points="1177.971,767.64 1370.048,821.444 1370.048,821.444 1294.626,700.286 	"/>
	<polygon fill="none" points="989.998,823.819 989.998,823.819 989.998,823.819 	"/>
	<polygon fill="#CAEBFB" points="1177.971,767.64 989.998,823.819 1177.971,932.333 	"/>
	<polygon fill="#6ECEEB" points="802.028,715.306 989.998,823.819 944.669,632.938 	"/>
	<polygon fill="#8ED7F2" points="944.669,632.938 989.998,823.819 1061.318,700.286 	"/>
	<polygon fill="#AEE0F1" points="1061.318,700.286 989.998,823.819 1177.971,767.64 	"/>
	<polygon fill="#BABABA" points="1411.269,363.551 1411.269,498.247 1553.909,498.247 	"/>
	<polygon fill="#929293" points="1553.909,498.247 1411.269,498.247 1411.269,632.938 	"/>
	<polygon fill="#4C4E51" points="1370.048,175.051 1177.971,228.857 1294.626,296.205 1370.048,175.053 	"/>
	<polygon fill="#595D61" points="1370.048,175.053 1294.626,296.205 1411.269,363.551 	"/>
</g>
<polygon fill="#1D8BCA" points="957.411,367.246 957.411,625.042 1010.932,654.856 1010.932,422.702 1108.961,376.939 
	1108.961,713.001 1176.912,753.306 1176.912,243.111 "/>
<path fill="none" stroke="#1F8BC8" stroke-width="3" stroke-miterlimit="10" d="M1180.064,753.341"/>
<polygon fill="#727477" points="1180.064,243.148 1180.064,753.341 1399.567,629.206 1399.567,625.075 1399.567,542.056 
	1374.099,542.681 1346.044,543.567 1346.044,573.755 1248.019,619.517 1248.019,376.979 1346.044,422.735 1346.044,452.921 
	1374.099,453.681 1399.567,454.433 1399.567,371.413 1399.567,367.282 "/>
<path fill="#727477" d="M1248.019,376.979"/>
<polygon fill="#727477" points="1180.064,243.148 1180.064,753.341 1399.567,629.206 1399.567,625.075 1399.567,542.056 
	1374.099,542.681 1346.044,543.567 1346.044,573.755 1248.019,619.517 1248.019,376.979 1346.044,422.735 1346.044,452.921 
	1374.099,453.681 1399.567,454.433 1399.567,371.413 1399.567,367.282 "/>
<g>
	<polygon fill="#FFFFFF" points="121.455,37.481 208.84,88.27 208.84,189.872 120.545,240.67 32.861,189.872 32.861,88.271 	"/>
	<path fill="#FFFFFF" stroke="#FFFFFF" stroke-width="16" stroke-miterlimit="10" d="M176.332,45.716L176.332,45.716l-55.48-32.033
		L66.556,45.03L12.261,76.376v62.694v62.697l54.295,31.344l54.296,31.344l55.48-32.03l53.108-30.657V139.07V76.376L176.332,45.716z
		 M188.239,139.07v38.905l-33.692,19.453l-33.695,19.455l-33.695-19.455l-33.694-19.453V139.07v-38.907L87.156,80.71l33.695-19.454
		l33.695,19.454l33.692,19.453V139.07z"/>
	<polygon fill="#0E6495" points="105.139,138.386 76.839,134.501 61.851,173.292 72.549,184.278 86.046,149.349 102.125,152.525 	
		"/>
	<g>
		<polygon fill="#28B2E2" points="12.261,76.376 12.261,139.07 53.462,100.163 		"/>
		<polygon fill="#8DD6EC" points="53.462,100.163 12.261,139.07 53.462,139.07 		"/>
		<polygon fill="#B8E4F2" points="12.261,139.07 53.462,177.976 53.462,139.07 		"/>
		<polygon fill="#3EC4E8" points="12.261,201.768 53.462,177.976 12.261,139.07 		"/>
		<polygon fill="none" points="66.556,45.03 66.556,45.03 66.556,45.03 		"/>
		<polygon fill="#189DD8" points="12.261,76.376 53.462,100.163 66.556,45.03 		"/>
		<polygon fill="#005685" points="66.556,45.03 120.852,61.257 120.852,13.683 		"/>
		<polygon fill="none" points="176.332,45.715 176.332,45.715 176.332,45.716 		"/>
		<polygon fill="#393B3D" points="120.852,13.683 120.852,61.257 176.332,45.715 		"/>
		<polygon fill="#727477" points="176.332,45.716 188.239,100.163 229.44,76.376 		"/>
		<polygon fill="#808285" points="188.239,100.163 229.44,139.07 229.44,76.376 		"/>
		<polygon fill="#A2A1A2" points="229.44,201.768 229.44,139.07 188.239,177.976 		"/>
		<polygon fill="#1D8BCA" points="53.462,100.163 87.156,80.71 66.556,45.03 		"/>
		<polygon fill="#0E6495" points="66.556,45.03 87.156,80.71 120.852,61.257 		"/>
		<polygon fill="none" points="176.332,232.425 176.332,232.425 176.332,232.425 		"/>
		<polygon fill="#DCDBDB" points="120.852,264.455 176.332,232.425 120.852,216.884 		"/>
		<polygon fill="#ABABAB" points="229.44,201.768 188.239,177.976 176.332,232.425 		"/>
		<polygon fill="#BABABA" points="154.547,197.429 176.332,232.425 188.239,177.976 		"/>
		<polygon fill="#C4C5C5" points="120.852,216.884 176.332,232.425 176.332,232.425 154.547,197.429 		"/>
		<polygon fill="none" points="66.556,233.111 66.556,233.111 66.556,233.111 		"/>
		<polygon fill="#CAEBFB" points="120.852,216.884 66.556,233.111 120.852,264.455 		"/>
		<polygon fill="#6ECEEB" points="12.261,201.768 66.556,233.111 53.462,177.976 		"/>
		<polygon fill="#8ED7F2" points="53.462,177.976 66.556,233.111 87.156,197.429 		"/>
		<polygon fill="#AEE0F1" points="87.156,197.429 66.556,233.111 120.852,216.884 		"/>
		<polygon fill="#BABABA" points="188.239,100.163 188.239,139.07 229.44,139.07 		"/>
		<polygon fill="#929293" points="229.44,139.07 188.239,139.07 188.239,177.976 		"/>
		<polygon fill="#4C4E51" points="176.332,45.715 120.852,61.257 154.547,80.71 176.332,45.716 		"/>
		<polygon fill="#595D61" points="176.332,45.716 154.547,80.71 188.239,100.163 		"/>
	</g>
	<polygon fill="#1D8BCA" points="57.143,101.23 57.143,175.694 72.602,184.307 72.602,117.249 100.917,104.031 100.917,201.102 
		120.545,212.743 120.545,65.375 	"/>
	<path fill="none" stroke="#1F8BC8" stroke-width="3" stroke-miterlimit="10" d="M121.455,212.754"/>
	<polygon fill="#727477" points="121.455,65.385 121.455,212.754 184.859,176.897 184.859,175.704 184.859,151.725 177.503,151.905 
		169.398,152.161 169.398,160.88 141.084,174.099 141.084,104.042 169.398,117.259 169.398,125.978 177.503,126.197 
		184.859,126.414 184.859,102.435 184.859,101.241 	"/>
	<path fill="#727477" d="M141.084,104.042"/>
	<polygon fill="#727477" points="121.455,65.385 121.455,212.754 184.859,176.897 184.859,175.704 184.859,151.725 177.503,151.905 
		169.398,152.161 169.398,160.88 141.084,174.099 141.084,104.042 169.398,117.259 169.398,125.978 177.503,126.197 
		184.859,126.414 184.859,102.435 184.859,101.241 	"/>
</g>
</svg>
