<?xml version="1.0" encoding="utf-8"?>
<!-- Generator: Adobe Illustrator 16.0.3, SVG Export Plug-In . SVG Version: 6.00 Build 0)  -->
<!DOCTYPE svg PUBLIC "-//W3C//DTD SVG 1.1//EN" "http://www.w3.org/Graphics/SVG/1.1/DTD/svg11.dtd">
<svg fill="#424242" version="1.1" id="Layer_1" xmlns="http://www.w3.org/2000/svg" xmlns:xlink="http://www.w3.org/1999/xlink" x="0px" y="0px"
	 width="128px" height="128px" viewBox="0 0 128 128" enable-background="new 0 0 128 128" xml:space="preserve">
<g>
	<path fill-rule="evenodd" clip-rule="evenodd" d="M127.064,50.944c-8.816,8.826-17.566,17.72-26.492,26.434
		c-2.475,2.417-3.467,4.563-2.701,8.263c2.291,11.053,4.02,22.226,5.814,33.376c0.234,1.451,0.078,3.713-0.814,4.391
		c-0.924,0.701-3.193,0.381-4.482-0.27c-9.936-5.012-19.85-10.077-29.605-15.426c-3.443-1.887-6.185-2.002-9.684-0.03
		c-9.542,5.376-19.279,10.409-29.028,15.404c-1.436,0.735-3.981,1.291-4.883,0.551c-1.016-0.832-1.227-3.302-0.967-4.928
		c1.705-10.662,3.542-21.307,5.536-31.918c0.702-3.733,0.193-6.511-2.833-9.291C18.96,70.182,11.308,62.52,3.673,54.853
		c-1.277-1.282-1.843-3.271-2.737-4.934c1.664-0.812,3.253-2.077,5.002-2.359c10.988-1.771,21.998-3.416,33.03-4.889
		c3.178-0.424,4.89-1.824,6.25-4.738c4.71-10.093,9.668-20.073,14.73-29.995c0.804-1.575,2.627-2.63,3.979-3.925
		c1.161,1.28,2.663,2.387,3.426,3.872c4.926,9.584,9.969,19.126,14.375,28.951c1.867,4.164,4.523,5.464,8.656,5.963
		c10.549,1.275,21.061,2.865,31.568,4.446c1.75,0.263,3.41,1.118,5.111,1.699C127.064,49.611,127.064,50.277,127.064,50.944z
		 M96.898,115.759c-0.266-2.747-0.318-4.357-0.59-5.931c-1.42-8.182-2.754-16.384-4.408-24.519
		c-0.869-4.272-0.256-7.461,3.252-10.574c6.34-5.627,12.205-11.795,18.189-17.814c1.146-1.152,1.934-2.66,3.254-4.521
		c-10.68-1.563-20.346-3.186-30.068-4.307c-4.242-0.489-6.836-1.977-8.648-6.055c-3.633-8.174-7.854-16.087-11.885-24.08
		c-0.553-1.094-1.416-2.03-2.562-3.64c-1.122,2.113-1.92,3.525-2.636,4.978c-3.97,8.051-7.722,16.22-12.013,24.095
		c-1.087,1.996-3.687,3.944-5.904,4.402c-6.982,1.442-14.119,2.124-21.184,3.185c-3.479,0.522-6.93,1.232-10.795,1.93
		c6.445,6.67,11.753,13.415,18.3,18.596c6.995,5.534,7.791,11.461,5.714,19.452c-2.008,7.727-2.686,15.799-4.182,25.187
		c7.286-3.799,13.709-6.288,19.139-10.167c9.716-6.939,18.504-7.228,28.26,0.055C83.441,109.992,90.008,112.27,96.898,115.759z"/>
</g>
</svg>
