<svg xmlns="http://www.w3.org/2000/svg" width="55" height="55"><path fill-rule="evenodd" clip-rule="evenodd" fill="#5FAA43" d="M27.551 2.016c7.337 0 14.676.011 22.014-.017.763-.003.997.21.921.958-.27 2.633-.5 5.27-.739 7.906-.176 1.946-.338 3.894-.514 5.84-.239 2.662-.488 5.323-.728 7.985-.178 1.971-.341 3.944-.519 5.916-.239 2.662-.489 5.323-.728 7.985-.179 1.997-.348 3.996-.518 5.994-.109 1.28-.174 2.567-.354 3.837-.037.257-.474.571-.782.658-4.502 1.266-9.013 2.498-13.521 3.738-1.37.377-2.737.768-4.114 1.119a2.011 2.011 0 0 1-.978.009c-5.909-1.61-11.811-3.242-17.717-4.858-.495-.136-.677-.378-.719-.914-.212-2.716-.49-5.426-.732-8.14-.226-2.534-.428-5.071-.654-7.606-.238-2.662-.496-5.323-.737-7.984-.176-1.946-.331-3.894-.506-5.839-.242-2.688-.498-5.374-.74-8.062-.174-1.921-.337-3.842-.502-5.763-.058-.666-.082-1.336-.169-1.998-.084-.642.191-.788.789-.776 1.633.035 3.267.012 4.9.012h17.347z"/><path opacity=".2" fill-rule="evenodd" clip-rule="evenodd" fill="#FFF" d="M45.155 12.382c.176-2.15.348-4.3.547-6.448.061-.653-.125-.84-.729-.837-5.811.024-11.621.015-17.432.015H27.5v7.271h17.655zm-17.737.869l.164 38.002a1.57 1.57 0 0 0 .372-.058c1.089-.313 2.17-.659 3.254-.993 3.565-1.101 7.133-2.194 10.692-3.317.244-.077.589-.354.617-.579.138-1.111.185-2.237.266-3.357.128-1.75.253-3.499.387-5.248.18-2.33.367-4.659.547-6.989.133-1.727.255-3.453.388-5.179.18-2.33.367-4.66.547-6.99.131-1.704.252-3.408.384-5.112l.021-.256-17.639.076z"/><path d="M15.671 8.475v2.68h-1.407V6.248l4.774 2.909v-2.68h1.407v4.904l-4.774-2.906zM26.46 6.477c.193 0 .36.055.5.165s.211.24.211.391V10.6c0 .153-.07.284-.211.393a.798.798 0 0 1-.5.163h-4.759a.801.801 0 0 1-.504-.163.484.484 0 0 1-.21-.393V7.032c0-.151.07-.281.21-.391a.795.795 0 0 1 .504-.165h4.759zm-.696.92h-3.367v2.836h3.367V7.397zm7.921-.755c.142.11.213.24.213.391V10.6c0 .153-.071.284-.213.393a.809.809 0 0 1-.503.163h-5.469V6.477h5.469c.193 0 .361.055.503.165zm-4.566.755v2.836h3.367V7.397h-3.367zm10.094 1.877H35.85v.959h4.773v.921h-6.185V6.477h6.185v.92H35.85v.957h3.363v.92z" fill="#FFF"/><path fill-rule="evenodd" clip-rule="evenodd" fill="#FFF" d="M48.781 2.923c-7.077.027-14.154.016-21.231.016H10.819c-1.575 0-3.151.022-4.726-.012-.577-.011-.843.13-.761.749.083.639.107 1.285.163 1.927.159 1.853.316 3.706.483 5.558.234 2.592.481 5.183.714 7.775.169 1.876.318 3.755.488 5.632.232 2.567.481 5.133.71 7.701.218 2.444.413 4.892.631 7.337.233 2.616.502 5.23.707 7.851.04.517.216.75.693.881 5.697 1.56 11.389 3.133 17.087 4.686.294.08.646.067.943-.009 1.328-.339 2.646-.715 3.968-1.078 4.35-1.197 8.699-2.385 13.041-3.606.298-.084.719-.387.755-.635.174-1.225.236-2.466.342-3.7.164-1.928.326-3.854.499-5.781.229-2.567.472-5.134.702-7.702.171-1.901.328-3.804.499-5.705.231-2.567.472-5.134.703-7.701.169-1.877.325-3.755.495-5.633.23-2.542.453-5.085.713-7.625.075-.723-.15-.929-.887-.926zm.103 1.78c-.25 2.45-.465 4.903-.688 7.355-.164 1.811-.314 3.623-.478 5.433-.223 2.476-.455 4.952-.678 7.428-.165 1.834-.316 3.669-.481 5.503-.223 2.477-.456 4.952-.678 7.429-.166 1.858-.323 3.718-.481 5.576-.102 1.191-.161 2.388-.33 3.569-.033.239-.439.531-.728.612-4.188 1.179-8.384 2.324-12.578 3.478-1.275.352-2.547.715-3.828 1.041a1.869 1.869 0 0 1-.91.009c-5.497-1.498-10.987-3.016-16.482-4.52-.46-.126-.63-.352-.669-.851-.197-2.526-.457-5.048-.681-7.571-.21-2.358-.398-4.719-.609-7.077-.221-2.477-.462-4.952-.686-7.428-.164-1.811-.308-3.622-.471-5.433-.225-2.5-.463-4.999-.688-7.499-.16-1.786-.312-3.573-.466-5.36-.053-.62-.077-1.243-.157-1.858-.078-.598.178-.734.735-.723 1.519.032 3.039.011 4.559.011h16.137c6.827 0 13.654.01 20.48-.016.709-.002.927.197.856.892z"/><g fill-rule="evenodd" clip-rule="evenodd" fill="#FFF"><path d="M27.221 45.842c-1.563-.857-3.125-1.716-4.822-2.648.711-.348 1.239-.633 1.792-.858.138-.057.375.041.53.13a59.38 59.38 0 0 1 2.142 1.282c.378.239.71.236 1.098.011 3.313-1.927 6.627-3.852 9.956-5.749.524-.299.715-.641.711-1.244-.028-3.8-.025-7.601-.003-11.4.004-.547-.161-.877-.643-1.152a1484.294 1484.294 0 0 1-10.012-5.781c-.382-.222-.692-.242-1.087-.011a1458.878 1458.878 0 0 1-10.063 5.822c-.43.247-.608.528-.606 1.036.021 3.888.018 7.775.003 11.663-.002.445.126.734.525.95.924.502 1.811 1.073 2.749 1.545 1.5.755 2.636.039 2.637-1.627.003-3.778.018-7.557-.015-11.335-.005-.674.247-.81.844-.777.527.028.954-.053.946.746-.041 3.953-.04 7.906-.012 11.859.017 2.517-1.815 3.761-4.227 2.997-1.557-.492-2.991-1.436-4.386-2.322-.425-.271-.75-1.024-.758-1.562-.061-4.214-.037-8.43-.032-12.646.001-.873.471-1.472 1.2-1.895 2.769-1.601 5.533-3.208 8.311-4.793 1.058-.604 2.147-1.156 3.222-1.731h.396c.335.148.688.268 1.003.449 3.514 2.02 7.021 4.048 10.529 6.076.807.466 1.212 1.144 1.209 2.092-.014 4.084-.014 8.168 0 12.252.003.949-.401 1.634-1.209 2.092-3.843 2.18-7.688 4.353-11.532 6.527-.133.002-.264.002-.396.002z"/><path d="M30.68 37.146c-1.506-.016-2.986-.153-4.252-1.082-.851-.624-1.253-1.502-1.245-2.54.001-.159.258-.398.441-.453.263-.078.576-.066.847-.004.194.045.486.214.511.363.237 1.436 1.29 1.864 2.513 1.948.997.067 2.009-.047 3.013-.107.231-.015.463-.124.683-.218.647-.277.895-.825.887-1.475-.008-.647-.482-.991-1.04-1.106-1.133-.233-2.283-.378-3.424-.574-.646-.111-1.303-.197-1.925-.39-1.501-.467-2.114-1.225-2.147-2.53-.039-1.572.624-2.63 2.061-3.142 1.926-.686 3.884-.641 5.793.032 1.347.476 1.985 1.578 2.194 2.943a.498.498 0 0 1-.05.313c-.184.301-1.698.216-1.782-.12-.338-1.359-1.334-1.834-2.587-1.895-.781-.038-1.571.052-2.354.122-.229.021-.459.149-.665.268-.5.287-.745.734-.703 1.307.043.577.48.822.961.937.743.176 1.503.283 2.254.426 1.072.203 2.155.363 3.211.632 1.171.297 2.005.986 2.12 2.279.133 1.481-.363 2.663-1.742 3.372-1.119.574-2.331.718-3.573.694z"/></g></svg>