<svg xmlns="http://www.w3.org/2000/svg" width="55" height="55"><path fill-rule="evenodd" clip-rule="evenodd" fill="#911CA5" d="M27.551 2.016c7.337 0 14.676.011 22.013-.017.764-.002.998.211.922.958-.269 2.633-.5 5.27-.739 7.906-.177 1.946-.338 3.894-.514 5.84-.239 2.662-.489 5.322-.728 7.984-.178 1.971-.341 3.945-.519 5.916-.239 2.662-.489 5.323-.729 7.985-.179 1.998-.347 3.996-.517 5.994-.109 1.28-.174 2.567-.354 3.837-.037.257-.474.571-.782.658-4.501 1.266-9.013 2.498-13.521 3.738-1.37.377-2.737.768-4.114 1.119a2.011 2.011 0 0 1-.978.009c-5.908-1.61-11.81-3.242-17.717-4.858-.495-.136-.677-.378-.719-.913-.211-2.716-.491-5.427-.732-8.141-.227-2.534-.429-5.071-.655-7.606-.238-2.662-.496-5.323-.737-7.984-.176-1.946-.331-3.893-.506-5.839-.242-2.688-.498-5.374-.74-8.061-.173-1.92-.336-3.842-.501-5.762-.058-.667-.082-1.336-.169-1.998-.084-.642.191-.789.79-.776 1.633.034 3.267.011 4.9.011h17.346z"/><path opacity=".2" fill-rule="evenodd" clip-rule="evenodd" fill="#FFF" d="M45.155 12.383c.176-2.15.348-4.3.547-6.448.061-.653-.125-.84-.729-.837-5.811.024-11.621.014-17.432.014H27.5v7.271h17.655zm-17.737.869l.164 38.002a1.57 1.57 0 0 0 .372-.058c1.089-.313 2.17-.659 3.254-.993 3.565-1.101 7.132-2.194 10.692-3.317.244-.077.589-.354.617-.578.138-1.112.185-2.238.266-3.358.128-1.75.254-3.499.387-5.248.18-2.33.367-4.659.547-6.989.133-1.726.255-3.453.388-5.179.18-2.33.367-4.659.547-6.989.131-1.704.252-3.409.384-5.112l.021-.255-17.639.074z"/><path fill-rule="evenodd" clip-rule="evenodd" fill="#FFF" d="M48.781 2.924c-7.077.027-14.154.016-21.232.016h-16.73c-1.575 0-3.151.022-4.726-.012-.577-.012-.843.13-.761.749.083.638.107 1.284.163 1.926.159 1.853.316 3.706.483 5.558.234 2.592.48 5.183.714 7.775.168 1.876.318 3.755.488 5.632.232 2.567.481 5.133.71 7.701.218 2.444.414 4.893.631 7.337.233 2.617.502 5.231.707 7.851.04.517.216.75.693.881 5.696 1.56 11.389 3.133 17.087 4.686.293.08.646.067.943-.009 1.328-.339 2.646-.715 3.968-1.078 4.349-1.196 8.699-2.385 13.041-3.606.298-.084.719-.387.754-.635.175-1.225.237-2.466.343-3.7.164-1.928.326-3.855.499-5.781.229-2.567.472-5.134.702-7.701.171-1.902.328-3.805.499-5.706.231-2.567.472-5.134.703-7.701.169-1.877.325-3.756.494-5.633.23-2.542.454-5.085.714-7.625.075-.722-.15-.928-.887-.925zm.103 1.779c-.25 2.45-.466 4.903-.688 7.355-.164 1.811-.314 3.622-.478 5.433-.223 2.476-.455 4.951-.678 7.428-.165 1.834-.316 3.669-.482 5.503-.222 2.477-.455 4.952-.677 7.429-.166 1.858-.323 3.718-.481 5.576-.102 1.191-.161 2.389-.33 3.57-.033.238-.439.53-.728.611-4.188 1.179-8.384 2.324-12.578 3.479-1.275.351-2.547.714-3.827 1.04a1.873 1.873 0 0 1-.911.009c-5.496-1.498-10.987-3.016-16.481-4.52-.461-.126-.63-.352-.669-.85-.197-2.527-.457-5.049-.682-7.572-.21-2.358-.398-4.719-.608-7.077-.221-2.477-.462-4.951-.686-7.428-.164-1.81-.308-3.622-.471-5.432-.226-2.5-.463-5-.688-7.5-.161-1.786-.313-3.572-.467-5.36-.053-.62-.077-1.243-.157-1.859-.078-.597.178-.733.735-.721 1.519.032 3.039.011 4.559.011h16.137c6.827 0 13.654.011 20.479-.016.71-.002.928.196.857.891z"/><path d="M12.157 6.803h4.215v.709h-3.676v2.186h3.676v.709h-4.215a.612.612 0 0 1-.388-.126.372.372 0 0 1-.161-.302V7.23c0-.116.054-.217.161-.301a.612.612 0 0 1 .388-.126zm4.68 2.295v-.586h1.208v.586h-1.208zm1.153-.038v-.515h-1.104v.515h1.104zm-1.056-.039v-.438h1.007v.438h-1.007zm1.919-2.218h3.944v.709h-3.408v.737h3.131a.6.6 0 0 1 .386.128c.108.085.163.186.163.302v1.3c0 .118-.054.218-.163.302a.61.61 0 0 1-.386.126h-4.218v-.709h3.679v-.74h-3.128a.623.623 0 0 1-.389-.125.373.373 0 0 1-.162-.302v-1.3c0-.116.054-.217.162-.301a.61.61 0 0 1 .389-.127zm8.308 2.155h-2.592v1.449h-1.084V6.803h1.084v1.446h2.592V6.803h1.087v3.604h-1.087V8.958zm2.052-2.155h3.67c.149 0 .277.042.386.127.107.084.162.185.162.301v3.177h-1.087V9.312h-2.592v1.095h-1.087V7.23c0-.116.054-.217.16-.301a.612.612 0 0 1 .388-.126zm3.131 1.802V7.512h-2.592v1.093h2.592zm5.719-1.802c.149 0 .278.042.388.127.108.084.163.185.163.301v1.654c0 .119-.055.22-.163.303a.622.622 0 0 1-.388.125h-.096l.853 1.095h-1.269l-.853-1.095h-1.767v1.095h-1.084V6.803h4.216zm-.537 1.802V7.512h-2.595v1.093h2.595zm5.925-1.802c.15 0 .28.042.389.127.108.084.162.185.162.301v1.654c0 .119-.054.22-.162.303s-.238.125-.389.125h-3.128v1.095h-1.087V6.803h4.215zm-3.128.709v1.093h2.592V7.512h-2.592z" fill="#FFF"/><path fill-rule="evenodd" clip-rule="evenodd" fill="#FFF" d="M40.055 25.558v11.484c-.01.026-.025.053-.028.08-.097.987-.658 1.621-1.508 2.091a1551.85 1551.85 0 0 0-9.683 5.407c-.958.539-1.882.545-2.836 0-1.348-.771-2.708-1.518-4.063-2.275l-5.842-3.266c-.668-.374-1.088-.932-1.247-1.68-.028-.132-.044-.267-.065-.4V25.601c.011-.048.027-.096.032-.144.092-.903.565-1.542 1.352-1.981 3.283-1.831 6.566-3.662 9.844-5.503.948-.533 1.869-.537 2.815 0 1.67.946 3.35 1.875 5.025 2.811 1.612.901 3.223 1.806 4.838 2.703.689.383 1.136.941 1.3 1.714.025.117.043.237.066.357zm-9.521 2.919l2.615-1.507c-1.674-2.284-4.863-3.487-7.943-2.5a7.181 7.181 0 0 0-4.989 7.348c.214 3.246 2.672 5.963 5.958 6.55 3.031.54 5.736-.957 6.961-2.748l-2.602-1.497a4.244 4.244 0 0 1-6.2.012 4.171 4.171 0 0 1 0-5.67 4.244 4.244 0 0 1 6.2.012zm1.699 2.229h1.169v1.192h-1.167v1.205h1.189v1.167h1.217v-1.158h1.191v1.161h1.211v-1.178h1.18v-1.204h-1.166v-1.189h1.169v-1.205h-1.188v-1.168h-1.219v1.157h-1.19v-1.161h-1.218v1.185h-1.178v1.196z"/></svg>