<svg xmlns="http://www.w3.org/2000/svg" width="55" height="55"><path fill-rule="evenodd" clip-rule="evenodd" fill="#38A525" d="M27.551 2.016c7.337 0 14.676.011 22.013-.017.764-.002.998.211.922.958-.269 2.633-.5 5.27-.739 7.906-.177 1.946-.338 3.894-.514 5.84-.239 2.662-.489 5.322-.728 7.984-.178 1.972-.341 3.945-.519 5.916-.239 2.662-.489 5.323-.729 7.985-.179 1.998-.347 3.996-.517 5.994-.109 1.28-.174 2.567-.354 3.837-.037.257-.474.571-.782.658-4.501 1.266-9.013 2.498-13.521 3.738-1.37.377-2.737.768-4.114 1.119a2.011 2.011 0 0 1-.978.009c-5.908-1.61-11.81-3.242-17.717-4.858-.495-.136-.677-.377-.719-.913-.211-2.716-.491-5.427-.732-8.141-.227-2.534-.429-5.071-.655-7.606-.238-2.662-.496-5.322-.737-7.984-.176-1.946-.331-3.893-.506-5.839-.242-2.688-.498-5.374-.74-8.061-.173-1.92-.336-3.842-.501-5.763-.058-.666-.082-1.336-.169-1.997-.084-.643.191-.789.79-.776 1.633.035 3.267.012 4.9.012l17.346-.001z"/><path opacity=".2" fill-rule="evenodd" clip-rule="evenodd" fill="#FFF" d="M45.155 12.383c.176-2.15.348-4.301.547-6.448.061-.654-.125-.84-.729-.837-5.811.024-11.621.014-17.432.014H27.5v7.271h17.655zm-17.737.869l.164 38.002a1.57 1.57 0 0 0 .372-.058c1.089-.313 2.17-.659 3.254-.993 3.565-1.101 7.132-2.194 10.692-3.317.244-.077.589-.354.617-.578.138-1.112.185-2.238.266-3.358.128-1.75.254-3.499.387-5.248.18-2.33.367-4.659.547-6.989.133-1.726.255-3.453.388-5.179.18-2.33.367-4.659.547-6.989.131-1.704.252-3.409.384-5.112l.021-.255-17.639.074z"/><path fill-rule="evenodd" clip-rule="evenodd" fill="#FFF" d="M48.781 2.923c-7.077.027-14.154.016-21.232.016h-16.73c-1.575 0-3.151.022-4.726-.011-.577-.012-.843.129-.761.749.083.638.107 1.284.163 1.926.159 1.853.316 3.706.483 5.558.234 2.592.48 5.183.714 7.775.168 1.876.318 3.755.488 5.632.232 2.568.481 5.133.71 7.701.218 2.444.414 4.893.631 7.337.233 2.617.502 5.231.707 7.851.04.517.216.751.693.881 5.696 1.56 11.389 3.133 17.087 4.686.293.08.646.067.943-.009 1.328-.339 2.646-.715 3.968-1.078 4.349-1.197 8.699-2.385 13.041-3.606.298-.084.719-.387.754-.635.175-1.225.237-2.465.343-3.7.164-1.928.326-3.854.499-5.781.229-2.567.472-5.134.702-7.702.171-1.901.328-3.803.499-5.705.231-2.567.472-5.134.703-7.701.169-1.877.325-3.756.494-5.633.23-2.542.454-5.085.714-7.625.075-.723-.15-.928-.887-.926zm.103 1.78c-.25 2.449-.466 4.903-.688 7.355-.164 1.811-.314 3.622-.478 5.433-.223 2.476-.455 4.951-.678 7.428-.165 1.834-.316 3.669-.482 5.503-.222 2.477-.455 4.952-.677 7.429-.166 1.858-.323 3.718-.481 5.577-.102 1.19-.161 2.388-.33 3.569-.033.238-.439.531-.728.611-4.188 1.179-8.384 2.324-12.578 3.478-1.275.352-2.547.715-3.827 1.041a1.873 1.873 0 0 1-.911.009c-5.496-1.498-10.987-3.016-16.481-4.52-.461-.126-.63-.352-.669-.85-.197-2.526-.457-5.049-.682-7.572-.21-2.358-.398-4.719-.608-7.077-.221-2.477-.462-4.951-.686-7.428-.164-1.81-.308-3.622-.471-5.432-.226-2.5-.463-5-.688-7.5-.161-1.786-.313-3.573-.467-5.36-.053-.62-.077-1.243-.157-1.859-.078-.597.178-.733.735-.722 1.519.032 3.039.011 4.559.011h16.137c6.827 0 13.654.01 20.479-.016.71-.001.928.197.857.892z"/><path d="M12.722 9.748l-1.175-1.18-.525 1.856H10.02l1.001-3.494 1.701 1.717 1.701-1.717 1.001 3.494h-1.001l-.525-1.856-1.176 1.18zm6.985-2.654c.138 0 .256.04.356.117.1.078.15.171.15.278v2.54c0 .109-.05.202-.15.279a.562.562 0 0 1-.356.116h-3.388a.572.572 0 0 1-.359-.116.343.343 0 0 1-.15-.279v-2.54c0-.107.05-.2.15-.278.1-.078.22-.117.359-.117h3.388zm-.496.656h-2.397v2.02h2.397V7.75zm2.39.766v1.908h-1.002V6.931l3.399 2.071V7.094H25v3.492l-3.399-2.07zm4.29-1.422h3.645v.656h-3.149v2.02h2.397v-.684h-1.005V8.43h2.007v1.599c0 .109-.05.202-.15.279a.562.562 0 0 1-.356.116h-3.388a.564.564 0 0 1-.357-.116.343.343 0 0 1-.148-.279v-2.54c0-.107.049-.2.148-.278a.554.554 0 0 1 .356-.117zm8.177 0c.138 0 .257.04.356.117.101.078.15.171.15.278v2.54c0 .109-.05.202-.15.279a.562.562 0 0 1-.356.116H30.68a.568.568 0 0 1-.359-.116.34.34 0 0 1-.15-.279v-2.54c0-.107.05-.2.15-.278.1-.078.22-.117.359-.117h3.388zm-.495.656h-2.397v2.02h2.397V7.75zm5.639-.539c.102.078.151.171.151.278v2.54c0 .109-.05.202-.151.279a.566.566 0 0 1-.357.116H34.96v-3.33h3.895c.137 0 .256.039.357.117zm-3.25.539v2.02h2.397V7.75h-2.397zm8.19 2.279c0 .109-.05.202-.15.279a.562.562 0 0 1-.356.116H39.75v-3.33h3.646c.138 0 .256.04.356.117.1.078.15.171.15.278v.735c0 .129-.085.219-.257.271.138 0 .257.039.356.117.101.078.15.171.15.278v1.139zM42.897 7.75h-2.144v.68h2.144v-.68zm.25 1.336h-2.394v.683h2.394v-.683z" fill="#FFF"/><path d="M26.751 44.286c-7.8-5.24-9.915-19.148.56-27.628.856 1.021 1.689 2.057 2.567 3.054 4.991 5.665 6.43 13.901 2.657 20.127-1.077 1.776-2.393 3.335-4.344 4.603l-.589-15.898-.45.002c-.548 5.176-.298 10.389-.401 15.74zm1.126.792v3.159l-.339.059c-.123-.963-.272-1.925-.346-2.892-.013-.166.298-.355.459-.533l.226.207z" fill-rule="evenodd" clip-rule="evenodd" fill="#FFF"/></svg>