<svg xmlns="http://www.w3.org/2000/svg" width="55" height="55"><path fill-rule="evenodd" clip-rule="evenodd" fill="#F05033" d="M27.551 2.016c7.337 0 14.676.011 22.014-.017.763-.003.997.21.921.957-.27 2.634-.5 5.27-.739 7.906-.176 1.946-.338 3.894-.514 5.84-.239 2.662-.488 5.322-.728 7.984-.178 1.972-.341 3.944-.519 5.916-.239 2.662-.489 5.323-.728 7.985-.179 1.997-.348 3.996-.518 5.994-.109 1.28-.174 2.567-.354 3.837-.037.257-.474.571-.782.658-4.502 1.266-9.013 2.498-13.521 3.738-1.37.377-2.737.768-4.114 1.119a2.011 2.011 0 0 1-.978.009c-5.909-1.61-11.811-3.242-17.717-4.858-.495-.136-.677-.378-.719-.914-.212-2.716-.49-5.426-.732-8.14-.226-2.534-.428-5.071-.654-7.606-.238-2.662-.496-5.323-.737-7.984-.176-1.946-.331-3.894-.506-5.839-.242-2.688-.498-5.374-.74-8.062-.174-1.919-.337-3.84-.502-5.761-.058-.666-.082-1.336-.169-1.998-.084-.642.191-.788.789-.776 1.633.035 3.267.012 4.9.012h17.347z"/><path opacity=".2" fill-rule="evenodd" clip-rule="evenodd" fill="#FFF" d="M45.155 12.382c.176-2.15.348-4.3.547-6.448.061-.653-.125-.84-.729-.837-5.811.024-11.621.014-17.432.014H27.5v7.271h17.655zm-17.737.869l.164 38.002a1.57 1.57 0 0 0 .372-.058c1.089-.313 2.17-.659 3.254-.993 3.565-1.101 7.133-2.194 10.692-3.317.244-.077.589-.354.617-.579.138-1.111.185-2.237.266-3.358.128-1.749.253-3.498.387-5.247.18-2.33.367-4.659.547-6.99.133-1.726.255-3.452.388-5.178.18-2.33.367-4.659.547-6.989.131-1.704.252-3.409.384-5.112l.021-.255-17.639.074z"/><path fill-rule="evenodd" clip-rule="evenodd" fill="#FFF" d="M48.781 2.923c-7.077.027-14.154.016-21.231.016H10.819c-1.575 0-3.151.022-4.726-.011-.577-.012-.843.129-.761.748.083.638.107 1.284.163 1.927.159 1.853.316 3.706.483 5.558.234 2.592.481 5.183.714 7.775.169 1.876.318 3.755.488 5.632.232 2.568.481 5.134.71 7.701.218 2.444.413 4.892.631 7.337.233 2.616.502 5.23.707 7.85.04.518.216.751.693.882 5.697 1.56 11.389 3.133 17.087 4.686.294.08.646.067.943-.009 1.328-.339 2.646-.715 3.968-1.078 4.35-1.197 8.699-2.385 13.041-3.606.298-.084.719-.387.755-.635.174-1.225.236-2.466.342-3.7.164-1.928.326-3.855.499-5.782.229-2.566.472-5.133.702-7.701.171-1.901.328-3.804.499-5.706.231-2.567.472-5.133.703-7.701.169-1.877.325-3.756.495-5.633.23-2.542.453-5.085.713-7.625.075-.722-.15-.928-.887-.925zm.103 1.78c-.25 2.449-.465 4.903-.688 7.355-.164 1.811-.314 3.622-.478 5.433-.223 2.476-.455 4.951-.678 7.428-.165 1.834-.316 3.669-.481 5.503-.223 2.477-.456 4.952-.678 7.429-.166 1.858-.323 3.718-.481 5.576-.102 1.191-.161 2.388-.33 3.569-.033.239-.439.531-.728.612-4.188 1.179-8.384 2.324-12.578 3.478-1.275.352-2.547.715-3.828 1.041a1.869 1.869 0 0 1-.91.009c-5.497-1.498-10.987-3.016-16.482-4.52-.46-.126-.63-.352-.669-.851-.197-2.526-.457-5.048-.681-7.571-.21-2.358-.398-4.719-.609-7.077-.221-2.477-.462-4.952-.686-7.428-.164-1.81-.308-3.622-.471-5.432-.225-2.5-.463-5-.688-7.5-.16-1.786-.312-3.573-.466-5.36-.053-.62-.077-1.243-.157-1.859-.078-.597.178-.733.735-.722 1.519.032 3.039.011 4.559.011h16.137c6.827 0 13.654.01 20.48-.015.709-.003.927.196.856.891z"/><path d="M20.338 6.135h5.357v.963h-4.629v2.969h3.524V9.063h-1.477v-.964h2.95v2.35c0 .16-.074.297-.221.411s-.322.17-.524.17h-4.981a.833.833 0 0 1-.526-.17.505.505 0 0 1-.218-.411V6.716c0-.158.072-.294.218-.409a.828.828 0 0 1 .527-.172zm6.292 4.895V6.135h1.472v4.896H26.63zm8.51-4.895v.963h-2.497v3.932h-1.477V7.098H28.67v-.963h6.47z" fill="#FFF"/><path fill-rule="evenodd" clip-rule="evenodd" fill="#FFF" d="M13.09 32.686v-.912c.281-.688.843-1.152 1.351-1.658 2.558-2.544 5.116-5.086 7.672-7.632.088-.088.153-.201.229-.303.101.073.146.097.18.131 1.01 1.002 2.023 2.001 3.02 3.016.085.087.109.292.078.423-.234 1.005.134 1.991 1 2.499.248.146.318.297.317.566-.01 2.394-.01 4.787.001 7.181.001.285-.076.446-.333.598-.868.513-1.245 1.528-.972 2.502.258.92 1.12 1.579 2.091 1.597 1.034.02 1.897-.584 2.204-1.543a2.182 2.182 0 0 0-.866-2.505c-.205-.137-.28-.274-.279-.519.01-2.381.005-4.762.007-7.144 0-.106.014-.213.025-.37.124.114.21.187.289.266.82.814 1.634 1.635 2.463 2.44.176.17.219.312.155.554-.218.844.004 1.586.646 2.175.628.577 1.374.749 2.195.489 1.129-.357 1.783-1.517 1.505-2.639-.292-1.176-1.405-1.878-2.616-1.674-.157.026-.388-.019-.495-.122a160.223 160.223 0 0 1-2.866-2.846.497.497 0 0 1-.106-.383c.311-1.671-1.004-2.994-2.685-2.705a.599.599 0 0 1-.445-.146c-.966-.938-1.917-1.892-2.871-2.842-.087-.087-.169-.18-.289-.307.409-.394.793-.78 1.196-1.146.763-.692 1.356-1.581 2.342-2.017h.917c.672.261 1.129.791 1.619 1.279 3.709 3.688 7.418 7.375 11.125 11.063.552.55 1.162 1.054 1.475 1.797v.836c-.237.666-.749 1.121-1.233 1.602-3.794 3.768-7.586 7.538-11.376 11.311-.482.481-.94.99-1.609 1.227h-.841c-.724-.3-1.208-.893-1.746-1.42-.39-.382-.781-.762-1.168-1.146l-10.019-9.962c-.49-.488-1.026-.941-1.287-1.611z"/></svg>