<svg xmlns="http://www.w3.org/2000/svg" width="55" height="55"><path fill-rule="evenodd" clip-rule="evenodd" fill="#2E167E" d="M27.551 2.016c7.337 0 14.676.011 22.014-.017.763-.003.997.21.921.958-.27 2.633-.5 5.27-.739 7.906-.176 1.946-.338 3.894-.514 5.84-.239 2.662-.488 5.323-.728 7.985-.178 1.971-.341 3.944-.519 5.916-.239 2.662-.489 5.323-.728 7.985-.179 1.997-.348 3.995-.518 5.994-.109 1.28-.174 2.566-.354 3.837-.037.257-.474.571-.782.658-4.502 1.266-9.013 2.498-13.521 3.738-1.37.377-2.737.768-4.114 1.118a1.987 1.987 0 0 1-.978.009c-5.909-1.609-11.811-3.241-17.717-4.857-.495-.136-.677-.378-.719-.914-.212-2.716-.49-5.426-.732-8.14-.226-2.534-.428-5.072-.654-7.606-.238-2.663-.496-5.323-.737-7.984-.176-1.946-.331-3.894-.506-5.84-.242-2.687-.498-5.374-.74-8.061-.174-1.921-.337-3.842-.502-5.763-.058-.666-.082-1.336-.169-1.997-.084-.643.191-.789.789-.777 1.633.034 3.267.012 4.9.012h17.347z"/><path opacity=".2" fill-rule="evenodd" clip-rule="evenodd" fill="#FFF" d="M45.155 12.383c.176-2.15.348-4.301.547-6.448.061-.654-.125-.84-.729-.838-5.811.024-11.621.015-17.432.015H27.5v7.271h17.655zm-17.737.868l.164 38.002c.127-.005.255-.024.372-.059 1.089-.312 2.17-.658 3.254-.992 3.565-1.101 7.133-2.194 10.692-3.317.244-.077.589-.354.617-.579.138-1.111.185-2.237.266-3.358.128-1.749.253-3.498.387-5.247.18-2.33.367-4.66.547-6.99.133-1.726.255-3.452.388-5.178.18-2.33.367-4.66.547-6.99.131-1.704.252-3.408.384-5.112l.021-.255-17.639.075z"/><path fill-rule="evenodd" clip-rule="evenodd" fill="#FFF" d="M48.781 2.923c-7.077.027-14.154.016-21.231.016H10.819c-1.575 0-3.151.022-4.726-.012-.577-.011-.843.13-.761.749.083.639.107 1.285.163 1.927.159 1.853.316 3.706.483 5.558.234 2.592.481 5.183.714 7.775.169 1.876.318 3.755.488 5.631.232 2.568.481 5.133.71 7.701.218 2.444.413 4.892.631 7.336.233 2.617.502 5.231.707 7.851.04.517.216.751.693.882 5.697 1.56 11.389 3.133 17.087 4.686.294.08.646.066.943-.009 1.328-.339 2.646-.716 3.968-1.079 4.35-1.196 8.699-2.385 13.041-3.605.298-.084.719-.388.755-.635.174-1.225.236-2.466.342-3.7.164-1.928.326-3.855.499-5.782.229-2.567.472-5.134.702-7.701.171-1.901.328-3.804.499-5.705.231-2.567.472-5.134.703-7.701.169-1.877.325-3.755.495-5.633.23-2.542.453-5.085.713-7.625.075-.722-.15-.928-.887-.925zm.103 1.78c-.25 2.45-.465 4.903-.688 7.355-.164 1.811-.314 3.623-.478 5.433-.223 2.476-.455 4.952-.678 7.428-.165 1.834-.316 3.669-.481 5.503-.223 2.477-.456 4.952-.678 7.429-.166 1.858-.323 3.717-.481 5.576-.102 1.191-.161 2.388-.33 3.569-.033.238-.439.531-.728.612-4.188 1.178-8.384 2.324-12.578 3.478-1.275.351-2.547.714-3.828 1.041a1.881 1.881 0 0 1-.91.009c-5.497-1.498-10.987-3.016-16.482-4.52-.46-.126-.63-.352-.669-.851-.197-2.526-.457-5.048-.681-7.572-.21-2.357-.398-4.718-.609-7.076-.221-2.478-.462-4.952-.686-7.428-.164-1.811-.308-3.622-.471-5.432-.225-2.5-.463-5-.688-7.5-.16-1.786-.312-3.573-.466-5.36-.053-.62-.077-1.243-.157-1.858-.078-.598.178-.734.735-.723 1.519.032 3.039.011 4.559.011h16.137c6.827 0 13.654.01 20.48-.016.709-.002.927.197.856.892z"/><path d="M16.742 8.69h-1.973v.696h2.801v.668h-3.629V6.659h3.629v.668h-2.801v.694h1.973v.669zm1.168-2.031h.927l.878 1.104.892-1.104h.93L20.19 8.357l1.347 1.698h-.93l-.892-1.105-.878 1.104h-.95l1.361-1.698-1.338-1.697zm7.153 0c.115 0 .213.04.296.119s.124.174.124.284V8.62a.378.378 0 0 1-.124.286.412.412 0 0 1-.296.117h-2.381v1.032h-.828V6.659h3.209zm-2.381.668v1.03h1.973v-1.03h-1.973zm6.328-.668c.113 0 .212.04.295.119s.125.174.125.284V8.62a.379.379 0 0 1-.125.286.413.413 0 0 1-.295.117h-.072l.648 1.032h-.966l-.649-1.032h-1.345v1.032h-.825V6.659h3.209zm-.408 1.698v-1.03h-1.976v1.03h1.976zm4.102.333h-1.973v.696h2.801v.668h-3.629V6.659h3.629v.668h-2.801v.694h1.973v.669zm1.566-2.031h3.003v.668h-2.595v.694h2.384c.113 0 .211.04.294.121.082.08.123.175.123.285v1.225a.382.382 0 0 1-.123.285.412.412 0 0 1-.294.118H33.85v-.669h2.802V8.69H34.27a.412.412 0 0 1-.296-.119.379.379 0 0 1-.124-.285V7.062c0-.109.041-.204.124-.284a.41.41 0 0 1 .296-.119zm3.946 0h3.003v.668h-2.595v.694h2.384c.113 0 .211.04.294.121.082.08.123.175.123.285v1.225a.382.382 0 0 1-.123.285.412.412 0 0 1-.294.118h-3.212v-.669h2.802V8.69h-2.382a.414.414 0 0 1-.296-.119.383.383 0 0 1-.124-.285V7.062c0-.109.042-.204.124-.284s.182-.119.296-.119z" fill="#FFF"/><g fill-rule="evenodd" clip-rule="evenodd" fill="#FFF"><path d="M27.418 46.11l-4.823-2.649c.711-.348 1.239-.633 1.792-.858.138-.057.375.041.53.13.722.414 1.438.839 2.142 1.283.378.238.71.235 1.098.01 3.313-1.927 6.627-3.852 9.956-5.749.524-.299.715-.641.71-1.244-.028-3.8-.024-7.601-.002-11.4.003-.547-.161-.877-.643-1.152a1555.16 1555.16 0 0 1-10.013-5.78c-.382-.222-.692-.242-1.087-.011a1459.006 1459.006 0 0 1-10.063 5.823c-.43.247-.609.528-.606 1.036.021 3.887.018 7.775.002 11.663-.001.446.126.734.526.951.924.501 1.811 1.072 2.748 1.544 1.5.755 2.636.039 2.637-1.627.003-3.778.018-7.557-.014-11.334-.006-.674.246-.81.844-.777.526.028.954-.053.946.746-.04 3.953-.039 7.906-.012 11.859.017 2.517-1.815 3.761-4.227 2.997-1.556-.492-2.99-1.435-4.385-2.321-.425-.271-.75-1.025-.758-1.563-.061-4.214-.037-8.43-.032-12.645.001-.873.471-1.473 1.201-1.895 2.768-1.601 5.533-3.208 8.31-4.793 1.059-.604 2.147-1.156 3.222-1.731h.395c.335.148.688.267 1.003.449 3.514 2.019 7.021 4.048 10.529 6.076.807.466 1.212 1.144 1.209 2.092-.014 4.084-.014 8.168 0 12.252.003.949-.401 1.634-1.21 2.092-3.842 2.18-7.688 4.353-11.532 6.528-.13-.002-.261-.002-.393-.002z"/><path d="M30.877 37.413c-1.506-.016-2.986-.153-4.252-1.082-.851-.623-1.253-1.501-1.245-2.54.001-.159.258-.398.441-.452.262-.079.576-.067.847-.005.195.045.486.214.511.363.238 1.436 1.29 1.865 2.513 1.948.998.067 2.01-.047 3.013-.107.232-.015.464-.124.684-.218.647-.276.895-.825.887-1.474-.008-.647-.482-.992-1.04-1.106-1.133-.234-2.283-.379-3.425-.575-.646-.111-1.303-.197-1.924-.39-1.501-.467-2.114-1.225-2.147-2.529-.04-1.572.624-2.63 2.061-3.143 1.926-.686 3.883-.642 5.792.032 1.348.476 1.986 1.578 2.194 2.943a.499.499 0 0 1-.049.313c-.184.301-1.698.215-1.782-.12-.338-1.36-1.334-1.835-2.587-1.896-.781-.038-1.571.052-2.354.123-.229.021-.459.149-.665.268-.5.287-.745.735-.703 1.307.042.577.48.823.961.937.743.176 1.502.283 2.254.427 1.072.203 2.155.363 3.211.631 1.171.297 2.005.986 2.12 2.279.133 1.482-.363 2.663-1.742 3.372-1.12.575-2.332.719-3.574.694z"/></g></svg>