<svg xmlns="http://www.w3.org/2000/svg" width="55" height="55"><path fill-rule="evenodd" clip-rule="evenodd" fill="#C62ADD" d="M27.551 2.016c7.337 0 14.676.011 22.013-.017.764-.003.998.21.922.958-.269 2.633-.5 5.27-.739 7.906-.177 1.946-.338 3.894-.514 5.84-.239 2.662-.489 5.323-.728 7.985-.178 1.971-.341 3.945-.519 5.916-.239 2.662-.489 5.323-.729 7.985-.179 1.997-.347 3.996-.517 5.994-.109 1.28-.174 2.567-.354 3.837-.037.257-.474.571-.782.658-4.501 1.266-9.013 2.498-13.521 3.738-1.37.377-2.737.768-4.114 1.119a2.011 2.011 0 0 1-.978.009c-5.908-1.61-11.81-3.242-17.717-4.858-.495-.136-.677-.378-.719-.914-.211-2.716-.491-5.426-.732-8.14-.227-2.534-.429-5.071-.655-7.606-.238-2.662-.496-5.323-.737-7.984-.176-1.946-.331-3.894-.506-5.839-.242-2.688-.498-5.374-.74-8.062-.173-1.921-.336-3.842-.501-5.763-.058-.666-.082-1.336-.169-1.997-.084-.643.191-.789.79-.776 1.633.034 3.267.012 4.9.012l17.346-.001z"/><path opacity=".2" fill-rule="evenodd" clip-rule="evenodd" fill="#FFF" d="M45.155 12.383c.176-2.15.348-4.301.547-6.448.061-.654-.125-.84-.729-.838-5.811.024-11.621.015-17.432.015H27.5v7.271h17.655zm-17.737.868l.164 38.002a1.57 1.57 0 0 0 .372-.058c1.089-.313 2.17-.659 3.254-.993 3.565-1.101 7.132-2.194 10.692-3.317.244-.077.589-.354.617-.579.138-1.111.185-2.237.266-3.357.128-1.75.254-3.499.387-5.248.18-2.33.367-4.659.547-6.989.133-1.726.255-3.453.388-5.179.18-2.33.367-4.66.547-6.99.131-1.704.252-3.408.384-5.112l.021-.255-17.639.075z"/><path fill-rule="evenodd" clip-rule="evenodd" fill="#FFF" d="M48.781 2.923c-7.077.027-14.154.016-21.232.016h-16.73c-1.575 0-3.151.022-4.726-.012-.577-.011-.843.13-.761.749.083.639.107 1.285.163 1.927.159 1.853.316 3.706.483 5.558.234 2.592.48 5.183.714 7.775.168 1.876.318 3.755.488 5.631.232 2.568.481 5.134.71 7.701.218 2.444.414 4.892.631 7.337.233 2.616.502 5.23.707 7.851.04.517.216.75.693.881 5.696 1.56 11.389 3.133 17.087 4.686.293.08.646.067.943-.009 1.328-.339 2.646-.715 3.968-1.078 4.349-1.197 8.699-2.385 13.041-3.606.298-.084.719-.387.754-.635.175-1.225.237-2.466.343-3.7.164-1.928.326-3.855.499-5.782.229-2.566.472-5.133.702-7.701.171-1.901.328-3.804.499-5.705.231-2.567.472-5.134.703-7.701.169-1.877.325-3.755.494-5.633.23-2.542.454-5.085.714-7.625.075-.722-.15-.928-.887-.925zm.103 1.78c-.25 2.45-.466 4.903-.688 7.355-.164 1.811-.314 3.623-.478 5.433-.223 2.476-.455 4.952-.678 7.428-.165 1.834-.316 3.669-.482 5.503-.222 2.477-.455 4.952-.677 7.429-.166 1.858-.323 3.718-.481 5.576-.102 1.191-.161 2.388-.33 3.569-.033.239-.439.531-.728.612-4.188 1.179-8.384 2.324-12.578 3.478-1.275.352-2.547.715-3.827 1.041a1.873 1.873 0 0 1-.911.009c-5.496-1.498-10.987-3.016-16.481-4.52-.461-.126-.63-.352-.669-.851-.197-2.526-.457-5.048-.682-7.571-.21-2.358-.398-4.719-.608-7.077-.221-2.477-.462-4.952-.686-7.428-.164-1.811-.308-3.622-.471-5.432-.226-2.5-.463-5-.688-7.5-.161-1.786-.313-3.573-.467-5.36-.053-.62-.077-1.243-.157-1.858-.078-.598.178-.734.735-.723 1.519.032 3.039.011 4.559.011h16.137c6.827 0 13.654.01 20.479-.016.71-.002.928.197.857.892z"/><path d="M11.501 6.146h4.708v.847h-4.067v.88h3.737c.178 0 .331.051.46.153.129.102.194.222.194.361v1.552a.442.442 0 0 1-.194.361.73.73 0 0 1-.46.15h-5.035v-.847h4.391V8.72h-3.733a.735.735 0 0 1-.464-.15.444.444 0 0 1-.193-.361V6.657c0-.139.064-.259.193-.359a.726.726 0 0 1 .463-.152zm6.184 0h5.031v.847h-4.388v2.609h4.388v.847h-5.031a.728.728 0 0 1-.462-.15.445.445 0 0 1-.192-.361V6.657c0-.139.064-.259.192-.359a.72.72 0 0 1 .462-.152zm10.56 0a.73.73 0 0 1 .462.151c.131.101.196.221.196.359V8.63a.438.438 0 0 1-.196.362.74.74 0 0 1-.462.148h-.114l1.018 1.308h-1.515L26.617 9.14h-2.109v1.308h-1.294V6.146h5.031zm-.64 2.152V6.993h-3.097v1.305h3.097zm6.433-2.152h1.294v3.792a.445.445 0 0 1-.192.361.728.728 0 0 1-.462.15h-4.377a.729.729 0 0 1-.463-.15.444.444 0 0 1-.191-.361V6.146h1.294v3.456h3.098V6.146zm5.283 3.429l-1.518-1.524-.68 2.398H35.83l1.294-4.514 2.197 2.218 2.197-2.218 1.295 4.514h-1.295l-.678-2.398-1.519 1.524z" fill="#FFF"/><path fill-rule="evenodd" clip-rule="evenodd" fill="#FFF" d="M36.717 45.102c-.46-.404-.468-.659-.025-1.096.361-.356.728-.71 1.073-1.134h-.308c-7.229.001-14.458 0-21.687.003-.28 0-.507-.07-.627-.338-.172-.383.098-.767.555-.771.92-.009 1.841-.005 2.762-.005 2.972 0 5.944.009 8.916-.001 3.936-.014 7.143-2.732 7.793-6.595.7-4.15-2.265-8.246-6.436-8.888-4.266-.657-8.121 1.958-8.999 6.135-.362 1.722-.13 3.388.642 4.975.03.063.073.12.131.215.254-.888.496-1.738.742-2.588.098-.34.311-.517.59-.504.346.015.614.344.519.683a295.637 295.637 0 0 1-1.132 3.941c-.102.345-.396.46-.798.345-1.085-.309-2.168-.622-3.253-.934-.14-.04-.282-.075-.418-.125-.309-.11-.461-.397-.372-.689.088-.289.378-.452.693-.366.77.212 1.538.434 2.303.65-1.83-4.35-.953-8.064 2.586-11.173-2.801-1.64-3.154-5.357-1.009-7.538 2.152-2.188 6.024-2.024 7.874.864.096-.473.182-.923.281-1.37a.566.566 0 0 1 .525-.442c.237-.009.485.149.542.378a.985.985 0 0 1 .003.401c-.123.649-.259 1.296-.39 1.944-.047.23-.089.462-.139.692-.08.362-.335.544-.702.475-.921-.174-1.841-.358-2.759-.546-.336-.069-.526-.349-.469-.657.057-.306.339-.494.678-.433.492.088.981.188 1.531.294-.071-.12-.114-.201-.165-.278a3.833 3.833 0 0 0-4.006-1.619c-1.584.342-2.611 1.315-2.983 2.901-.396 1.686.559 3.482 2.184 4.151.098.04.251.025.349-.024 4.464-2.252 9.833-.519 12.107 3.914 2.093 4.081.676 9.115-3.254 11.562-.104.064-.207.131-.368.233h6.02l-1.138-1.128c-.071-.069-.145-.14-.201-.221a.544.544 0 0 1 .075-.718.55.55 0 0 1 .725-.027c.16.133.302.288.45.436.588.583 1.174 1.165 1.76 1.749.342.342.343.619.003.96-.689.687-1.378 1.373-2.07 2.056-.097.095-.214.167-.321.249-.128.002-.256.002-.383.002z"/></svg>