<svg xmlns="http://www.w3.org/2000/svg" width="55" height="55"><path fill-rule="evenodd" clip-rule="evenodd" fill="#FE6531" d="M27.551 2.016c7.337 0 14.676.011 22.014-.017.763-.003.997.21.921.958-.27 2.633-.5 5.27-.739 7.906-.176 1.946-.338 3.894-.514 5.84-.239 2.662-.488 5.323-.728 7.985-.178 1.971-.341 3.944-.519 5.916-.239 2.662-.489 5.323-.728 7.985-.179 1.997-.348 3.995-.518 5.994-.109 1.28-.174 2.566-.354 3.837-.037.257-.474.571-.782.658-4.502 1.266-9.013 2.498-13.521 3.738-1.37.377-2.737.768-4.114 1.118a1.987 1.987 0 0 1-.978.009c-5.909-1.609-11.811-3.241-17.717-4.857-.495-.136-.677-.378-.719-.914-.212-2.716-.49-5.426-.732-8.14-.226-2.534-.428-5.072-.654-7.606-.238-2.663-.496-5.323-.737-7.984-.176-1.946-.331-3.894-.506-5.84-.242-2.687-.498-5.374-.74-8.061-.174-1.921-.337-3.842-.502-5.763-.058-.666-.082-1.336-.169-1.997-.084-.643.191-.789.789-.777 1.633.034 3.267.012 4.9.012h17.347z"/><path opacity=".2" fill-rule="evenodd" clip-rule="evenodd" fill="#FFF" d="M45.155 12.383c.176-2.15.348-4.301.547-6.448.061-.654-.125-.84-.729-.838-5.811.024-11.621.015-17.432.015H27.5v7.271h17.655zm-17.737.868l.164 38.002c.127-.005.255-.024.372-.059 1.089-.312 2.17-.658 3.254-.992 3.565-1.101 7.133-2.194 10.692-3.317.244-.077.589-.354.617-.579.138-1.111.185-2.237.266-3.358.128-1.749.253-3.498.387-5.247.18-2.33.367-4.66.547-6.99.133-1.726.255-3.452.388-5.178.18-2.33.367-4.66.547-6.99.131-1.704.252-3.408.384-5.112l.021-.255-17.639.075z"/><path fill-rule="evenodd" clip-rule="evenodd" fill="#FFF" d="M48.781 2.923c-7.077.027-14.154.016-21.231.016H10.819c-1.575 0-3.151.022-4.726-.012-.577-.011-.843.13-.761.749.083.639.107 1.285.163 1.927.159 1.853.316 3.706.483 5.558.234 2.592.481 5.183.714 7.775.169 1.876.318 3.755.488 5.631.232 2.568.481 5.133.71 7.701.218 2.444.413 4.892.631 7.336.233 2.617.502 5.231.707 7.851.04.517.216.751.693.882 5.697 1.56 11.389 3.133 17.087 4.686.294.08.646.066.943-.009 1.328-.339 2.646-.716 3.968-1.079 4.35-1.196 8.699-2.385 13.041-3.605.298-.084.719-.388.755-.635.174-1.225.236-2.466.342-3.7.164-1.928.326-3.855.499-5.782.229-2.567.472-5.134.702-7.701.171-1.901.328-3.804.499-5.705.231-2.567.472-5.134.703-7.701.169-1.877.325-3.755.495-5.633.23-2.542.453-5.085.713-7.625.075-.722-.15-.928-.887-.925zm.103 1.78c-.25 2.45-.465 4.903-.688 7.355-.164 1.811-.314 3.623-.478 5.433-.223 2.476-.455 4.952-.678 7.428-.165 1.834-.316 3.669-.481 5.503-.223 2.477-.456 4.952-.678 7.429-.166 1.858-.323 3.717-.481 5.576-.102 1.191-.161 2.388-.33 3.569-.033.238-.439.531-.728.612-4.188 1.178-8.384 2.324-12.578 3.478-1.275.351-2.547.714-3.828 1.041a1.881 1.881 0 0 1-.91.009c-5.497-1.498-10.987-3.016-16.482-4.52-.46-.126-.63-.352-.669-.851-.197-2.526-.457-5.048-.681-7.572-.21-2.357-.398-4.718-.609-7.076-.221-2.478-.462-4.952-.686-7.428-.164-1.811-.308-3.622-.471-5.432-.225-2.5-.463-5-.688-7.5-.16-1.786-.312-3.573-.466-5.36-.053-.62-.077-1.243-.157-1.858-.078-.598.178-.734.735-.723 1.519.032 3.039.011 4.559.011h16.137c6.827 0 13.654.01 20.48-.016.709-.002.927.197.856.892z"/><path d="M16.707 7.084h3.821v.851h-3.302v.884h3.034c.144 0 .269.051.374.153a.49.49 0 0 1 .158.363v1.558a.481.481 0 0 1-.158.362.518.518 0 0 1-.374.151h-4.087v-.851h3.564v-.886h-3.03a.525.525 0 0 1-.377-.151.485.485 0 0 1-.157-.362V7.598c0-.139.053-.26.157-.361a.52.52 0 0 1 .377-.153zm7.321.879l1.233 1.531.551-2.409h1.05l-1.05 4.531-1.784-2.228-1.784 2.228-1.05-4.531h1.05l.552 2.409 1.232-1.531zm3.239 3.443V7.084h1.051v4.322h-1.051zm5.022-1.737h-2.515v1.737h-1.053V7.084h4.617v.851h-3.564v.884h2.515v.85zm6.069-2.585v.851h-1.781v3.471h-1.053V7.935h-1.781v-.851h4.615z" fill="#FFF"/><path fill-rule="evenodd" clip-rule="evenodd" fill="#FFF" d="M13.027 32.712c.169.242.245.362.333.474 1.389 1.763 3.146 3.108 4.983 4.365 2.561 1.753 5.347 2.88 8.494 2.939 2.321.044 4.493-.412 6.316-1.984.57-.493 1.301-.552 1.992-.345.601.18 1.186.457 1.728.775.558.329 1.055.759 1.619 1.174.043-.257.095-.474.113-.694.164-1.889-.375-3.563-1.62-4.994-.271-.312-.363-.573-.228-.973.422-1.24.521-2.529.379-3.821-.57-5.186-3.471-8.959-7.471-12.06 1.06 1.833 1.92 3.739 2.263 5.838.351 2.148.176 4.226-.948 6.346-2.12-1.629-4.206-3.182-6.236-4.804-2.027-1.62-4-3.309-5.996-4.967l-.123.098 6.108 7.928c-3.237-1.787-5.974-4.266-8.896-6.498 3.109 4.793 7.156 8.723 11.577 12.508-5.099 2.371-9.714 1.083-14.387-1.305z"/></svg>