<svg xmlns="http://www.w3.org/2000/svg" width="55" height="55"><path fill-rule="evenodd" clip-rule="evenodd" fill="#474747" d="M27.551 2.017c7.337 0 14.676.011 22.014-.017.763-.003.997.21.921.957-.27 2.633-.5 5.27-.739 7.906-.176 1.946-.338 3.894-.514 5.84-.239 2.662-.488 5.323-.728 7.985-.178 1.971-.341 3.945-.519 5.916-.239 2.662-.489 5.323-.728 7.985-.179 1.998-.348 3.996-.518 5.994-.109 1.28-.174 2.567-.354 3.837-.037.257-.474.571-.782.658-4.502 1.267-9.013 2.498-13.521 3.738-1.37.378-2.737.769-4.114 1.119a2.011 2.011 0 0 1-.978.009c-5.909-1.61-11.811-3.241-17.717-4.858-.495-.136-.677-.377-.719-.913-.212-2.716-.49-5.427-.732-8.141-.226-2.534-.428-5.071-.654-7.606-.238-2.662-.496-5.323-.737-7.984-.176-1.946-.331-3.894-.506-5.839-.242-2.688-.498-5.374-.74-8.062-.174-1.921-.337-3.842-.502-5.763-.058-.666-.082-1.336-.169-1.997-.084-.643.191-.789.789-.777 1.633.034 3.267.012 4.9.012l17.347.001z"/><path opacity=".2" fill-rule="evenodd" clip-rule="evenodd" fill="#FFF" d="M45.155 12.383c.176-2.15.348-4.301.547-6.448.061-.653-.125-.84-.729-.838-5.811.024-11.621.015-17.432.015H27.5v7.271h17.655zm-17.737.868l.164 38.002a1.57 1.57 0 0 0 .372-.058c1.089-.312 2.17-.658 3.254-.993 3.565-1.101 7.133-2.194 10.692-3.317.244-.077.589-.354.617-.578.138-1.112.185-2.238.266-3.358.128-1.75.253-3.499.387-5.248.18-2.33.367-4.659.547-6.989.133-1.726.255-3.453.388-5.179.18-2.33.367-4.66.547-6.99.131-1.704.252-3.408.384-5.112l.021-.256-17.639.076z"/><path fill-rule="evenodd" clip-rule="evenodd" fill="#FFF" d="M48.781 2.923c-7.077.027-14.154.016-21.231.016H10.819c-1.575 0-3.151.022-4.726-.012-.577-.011-.843.13-.761.749.083.639.107 1.285.163 1.927.159 1.852.316 3.706.483 5.557.234 2.592.481 5.183.714 7.775.169 1.876.318 3.755.488 5.632.232 2.567.481 5.133.71 7.701.218 2.444.413 4.893.631 7.337.233 2.617.502 5.231.707 7.851.04.517.216.751.693.881 5.697 1.56 11.389 3.133 17.087 4.686.294.08.646.067.943-.009 1.328-.338 2.646-.715 3.968-1.078 4.35-1.196 8.699-2.385 13.041-3.606.298-.084.719-.387.755-.635.174-1.225.236-2.466.342-3.7.164-1.928.326-3.855.499-5.781.229-2.567.472-5.134.702-7.702.171-1.901.328-3.804.499-5.705.231-2.567.472-5.134.703-7.701.169-1.877.325-3.755.495-5.632.23-2.542.453-5.086.713-7.625.075-.723-.15-.929-.887-.926zm.103 1.78c-.25 2.45-.465 4.903-.688 7.355-.164 1.811-.314 3.623-.478 5.433-.223 2.476-.455 4.952-.678 7.428-.165 1.834-.316 3.669-.481 5.503-.223 2.477-.456 4.952-.678 7.429-.166 1.858-.323 3.718-.481 5.576-.102 1.191-.161 2.389-.33 3.57-.033.238-.439.53-.728.611-4.188 1.179-8.384 2.325-12.578 3.479-1.275.351-2.547.714-3.828 1.04a1.869 1.869 0 0 1-.91.009c-5.497-1.497-10.987-3.016-16.482-4.52-.46-.126-.63-.352-.669-.85-.197-2.526-.457-5.049-.681-7.572-.21-2.358-.398-4.719-.609-7.077-.221-2.477-.462-4.951-.686-7.428-.164-1.811-.308-3.622-.471-5.432-.225-2.5-.463-5-.688-7.5-.16-1.785-.312-3.573-.466-5.36-.053-.62-.077-1.243-.157-1.858-.078-.598.178-.734.735-.722 1.519.032 3.039.011 4.559.011h16.137c6.827 0 13.654.01 20.48-.015.709-.004.927.195.856.89z"/><path d="M21.21 6.817h1.058v3.823a.487.487 0 0 1-.158.364.522.522 0 0 1-.375.151h-3.566a.529.529 0 0 1-.378-.151.487.487 0 0 1-.158-.364V9.411h1.057v.89h2.521V6.817zm1.999 0h3.836v.853H23.73v.887h3.045a.52.52 0 0 1 .375.154.493.493 0 0 1 .158.364v1.565a.487.487 0 0 1-.158.364.522.522 0 0 1-.375.151h-4.103v-.854h3.578v-.89h-3.042a.533.533 0 0 1-.378-.151.487.487 0 0 1-.158-.364V7.332c0-.14.053-.261.158-.362a.53.53 0 0 1 .379-.153zm8.607 0c.145 0 .27.051.375.152s.158.223.158.362v3.308a.487.487 0 0 1-.158.364.522.522 0 0 1-.375.151H28.25a.527.527 0 0 1-.378-.151.487.487 0 0 1-.158-.364V7.332c0-.14.052-.261.158-.362a.522.522 0 0 1 .378-.152h3.566zm-.521.853h-2.523v2.63h2.523V7.67zm2.515.999v2.485h-1.055v-4.55l3.578 2.698V6.817h1.055v4.547L33.81 8.669zM15.917 29.618c.942-.019 1.71-.217 2.304-.595a2.707 2.707 0 0 0 1.184-1.555c.196-.659.299-1.786.312-3.382.012-1.596.049-2.646.11-3.153.11-.803.315-1.447.615-1.935s.67-.876 1.111-1.168c.44-.292 1.003-.514 1.689-.667.465-.096 1.224-.144 2.276-.144h1.028v2.25h-.569c-1.273 0-2.118.179-2.534.538s-.624 1.159-.624 2.401c0 2.503-.067 4.084-.202 4.743-.221 1.023-.597 1.811-1.129 2.365-.532.554-1.368 1.046-2.506 1.477 1.346.438 2.322 1.11 2.928 2.013.606.903.909 2.382.909 4.436 0 1.863.024 2.972.073 3.325.098.649.346 1.104.744 1.361.398.259 1.178.388 2.341.388h.569v2.25h-1.028c-1.2 0-2.069-.077-2.607-.229-.783-.22-1.432-.575-1.946-1.067s-.848-1.116-1-1.871c-.153-.754-.236-1.992-.248-3.712-.013-1.72-.116-2.909-.312-3.568s-.591-1.18-1.184-1.562c-.594-.383-1.362-.583-2.304-.603v-2.336zm23.003 0v2.336c-.942.02-1.711.22-2.304.603-.594.382-.989.9-1.185 1.555-.196.654-.3 1.779-.312 3.375-.013 1.596-.05 2.646-.11 3.152-.11.813-.315 1.46-.615 1.942s-.67.869-1.11 1.161c-.441.291-1.004.514-1.689.666-.465.105-1.224.158-2.276.158H28.29v-2.25h.569c1.272 0 2.117-.18 2.533-.538s.624-1.163.624-2.414c0-2.389.056-3.903.166-4.544.195-1.061.587-1.908 1.175-2.544.587-.635 1.419-1.13 2.497-1.482-1.408-.525-2.399-1.221-2.975-2.086-.575-.864-.863-2.324-.863-4.378 0-1.863-.03-2.976-.092-3.339-.086-.64-.327-1.087-.725-1.34-.398-.253-1.179-.38-2.341-.38h-.568v-2.25h1.028c1.199 0 2.068.077 2.606.229.783.21 1.433.564 1.946 1.061.515.497.848 1.123 1.001 1.877.152.755.235 1.992.248 3.712.012 1.72.115 2.907.312 3.562.195.654.591 1.172 1.185 1.555.593.381 1.362.583 2.304.601z" fill="#FFF"/></svg>