<svg xmlns="http://www.w3.org/2000/svg" width="55" height="55"><path fill-rule="evenodd" clip-rule="evenodd" fill="#7649BB" d="M27.551 2.016c7.337 0 14.676.011 22.014-.017.763-.002.997.211.921.958-.27 2.633-.5 5.27-.739 7.906-.176 1.946-.338 3.894-.514 5.84-.239 2.662-.488 5.322-.728 7.984-.178 1.972-.341 3.944-.519 5.916-.239 2.662-.489 5.323-.728 7.985-.179 1.997-.348 3.996-.518 5.994-.109 1.28-.174 2.567-.354 3.837-.037.257-.474.571-.782.658-4.502 1.266-9.013 2.498-13.521 3.738-1.37.377-2.737.768-4.114 1.119a2.011 2.011 0 0 1-.978.009c-5.909-1.61-11.811-3.242-17.717-4.858-.495-.136-.677-.378-.719-.914-.212-2.716-.49-5.426-.732-8.14-.226-2.534-.428-5.071-.654-7.606-.238-2.662-.496-5.322-.737-7.984-.176-1.946-.331-3.893-.506-5.839-.242-2.688-.498-5.374-.74-8.061-.173-1.92-.336-3.842-.501-5.763-.059-.666-.083-1.336-.17-1.997-.084-.643.191-.789.789-.777 1.633.035 3.267.012 4.9.012h17.347z"/><path opacity=".2" fill-rule="evenodd" clip-rule="evenodd" fill="#FFF" d="M45.155 12.383c.176-2.15.348-4.301.547-6.448.061-.654-.125-.84-.729-.837-5.811.024-11.621.014-17.432.014H27.5v7.271h17.655zm-17.737.869l.164 38.002a1.57 1.57 0 0 0 .372-.058c1.089-.313 2.17-.659 3.254-.993 3.565-1.101 7.133-2.194 10.692-3.317.244-.077.589-.354.617-.579.138-1.111.185-2.237.266-3.357.128-1.75.253-3.499.387-5.248.18-2.33.367-4.659.547-6.99.133-1.726.255-3.452.388-5.178.18-2.33.367-4.659.547-6.989.131-1.704.252-3.409.384-5.112l.021-.255-17.639.074z"/><path fill-rule="evenodd" clip-rule="evenodd" fill="#FFF" d="M48.781 2.923c-7.077.027-14.154.016-21.231.016H10.819c-1.575 0-3.151.022-4.726-.011-.577-.012-.843.129-.761.749.083.638.107 1.284.163 1.926.159 1.853.316 3.706.483 5.558.234 2.592.481 5.183.714 7.775.169 1.876.318 3.755.488 5.632.232 2.568.481 5.133.71 7.701.218 2.444.413 4.892.631 7.337.233 2.616.502 5.23.707 7.851.04.517.216.75.693.881 5.697 1.56 11.389 3.133 17.087 4.686.294.08.646.067.943-.009 1.328-.339 2.646-.715 3.968-1.078 4.35-1.197 8.699-2.385 13.041-3.606.298-.084.719-.387.755-.635.174-1.225.236-2.466.342-3.7.164-1.928.326-3.855.499-5.782.229-2.566.472-5.133.702-7.701.171-1.901.328-3.803.499-5.705.231-2.567.472-5.134.703-7.701.169-1.877.325-3.756.495-5.633.23-2.542.453-5.085.713-7.625.075-.723-.15-.928-.887-.926zm.103 1.78c-.25 2.449-.465 4.903-.688 7.355-.164 1.811-.314 3.622-.478 5.433-.223 2.476-.455 4.951-.678 7.428-.165 1.834-.316 3.669-.481 5.503-.223 2.477-.456 4.952-.678 7.429-.166 1.858-.323 3.718-.481 5.576-.102 1.191-.161 2.388-.33 3.569-.033.239-.439.531-.728.612-4.188 1.179-8.384 2.324-12.578 3.478-1.275.352-2.547.715-3.828 1.041a1.869 1.869 0 0 1-.91.009c-5.497-1.498-10.987-3.016-16.482-4.52-.46-.126-.63-.352-.669-.851-.197-2.526-.457-5.048-.681-7.571-.21-2.358-.398-4.719-.609-7.077-.221-2.477-.462-4.951-.686-7.428-.164-1.81-.308-3.622-.471-5.432-.225-2.5-.463-5-.688-7.5-.16-1.786-.312-3.573-.466-5.36-.053-.62-.077-1.243-.157-1.859-.078-.597.178-.733.735-.722 1.519.032 3.039.011 4.559.011h16.137c6.827 0 13.654.01 20.48-.016.709-.001.927.197.856.892z"/><path d="M19.42 6.88c.132 0 .246.046.342.139a.445.445 0 0 1 .145.33v1.809c0 .13-.049.241-.145.332a.481.481 0 0 1-.342.136h-.084l.753 1.198h-1.122l-.753-1.198h-1.562v1.198h-.958V6.88h3.726zm-.474 1.972V7.656h-2.293v1.196h2.293zm4.763.386h-2.291v.809h3.252v.775h-4.213V6.88h4.213v.776h-3.252v.806h2.291v.776zm5.397-2.219a.443.443 0 0 1 .146.33v3.006a.44.44 0 0 1-.146.331.48.48 0 0 1-.342.137h-3.726V6.88h3.726c.132 0 .247.046.342.139zm-3.109.637v2.391h2.294V7.656h-2.294zm6.875-.776h.959v3.475c0 .129-.048.239-.143.331s-.209.137-.342.137h-3.242c-.133 0-.247-.046-.342-.137s-.143-.202-.143-.331V6.88h.959v3.167h2.293V6.88zm1.354 0h1.077l1.019 1.282 1.035-1.282h1.079l-1.563 1.972 1.563 1.971h-1.079l-1.035-1.282-1.019 1.282h-1.104l1.58-1.971-1.553-1.972z" fill="#FFF"/><g fill-rule="evenodd" clip-rule="evenodd" fill="#FFF"><path d="M34.492 27.464c-.417-.108-.833-.199-1.234-.333-.097-.032-.184-.198-.208-.317-.289-1.432-.839-2.743-1.792-3.87-1.245-1.473-2.806-1.845-4.639-1.347-2.11.575-3.312 2.063-3.927 4.02-1.049 3.34-.583 6.534 1.195 9.548.134.228.306.225.521.229.991.023 1.817.847 1.774 1.754a1.76 1.76 0 0 1-1.799 1.681c-1.112-.032-1.916-1.165-1.602-2.225.055-.186.053-.447-.039-.607-1.004-1.735-1.733-3.572-1.934-5.568-.291-2.896.174-5.635 2.07-7.969 1.162-1.43 2.691-2.294 4.544-2.449 1.711-.144 3.184.476 4.445 1.624 1.442 1.312 2.591 3.833 2.625 5.829z"/><path d="M30.432 42.688c.433-.368.777-.682 1.146-.965.088-.066.27-.073.383-.035a8.885 8.885 0 0 0 3.104.466c2.162-.06 4.127-1.665 4.522-3.771.207-1.103-.037-2.151-.521-3.158-1.043-2.172-2.81-3.557-4.953-4.529a11.86 11.86 0 0 0-5.696-1.037.633.633 0 0 0-.419.243c-.48.684-1.143.983-1.877.811-.741-.173-1.262-.781-1.351-1.576-.065-.59.408-1.356 1.006-1.626.687-.311 1.496-.187 1.958.382.241.296.488.355.833.349 2.967-.058 5.733.616 8.175 2.344 1.808 1.277 3.269 2.848 3.938 5.02a6.757 6.757 0 0 1 .169 3.37c-.317 1.579-1.339 2.64-2.654 3.434-1.979 1.196-4.111 1.354-6.317.75-.461-.129-.909-.297-1.446-.472z"/><path d="M19.342 31.354c.135.462.271.863.357 1.274.022.107-.081.279-.177.366-1.119 1.021-1.969 2.207-2.282 3.711-.488 2.348 1.021 5.228 4.147 5.537 2.996.296 5.417-.912 7.645-2.696a10.12 10.12 0 0 0 2.702-3.33c.109-.214.107-.359-.041-.556-.474-.625-.49-1.387-.073-1.989a1.712 1.712 0 0 1 1.843-.696c.71.18 1.232.784 1.317 1.522.084.732-.442 1.527-1.197 1.763a.805.805 0 0 0-.528.453c-1.971 3.937-5.21 6.161-9.526 6.853-1.949.313-3.809-.016-5.449-1.204-1.234-.894-1.854-2.151-2.072-3.607-.411-2.746.643-4.954 2.625-6.796.216-.2.448-.383.709-.605z"/></g></svg>