<svg xmlns="http://www.w3.org/2000/svg" width="55" height="55"><path fill-rule="evenodd" clip-rule="evenodd" fill="#E5A228" d="M27.551 2.016c7.337 0 14.676.011 22.014-.017.763-.003.997.21.921.958-.27 2.633-.5 5.27-.739 7.906-.176 1.946-.338 3.894-.514 5.84-.239 2.662-.488 5.323-.728 7.984-.178 1.972-.341 3.944-.519 5.916-.239 2.662-.489 5.323-.728 7.985-.179 1.997-.348 3.996-.518 5.994-.109 1.28-.174 2.566-.354 3.837-.037.257-.474.571-.782.658-4.502 1.267-9.013 2.498-13.521 3.738-1.37.377-2.737.768-4.114 1.119a2.011 2.011 0 0 1-.978.009c-5.909-1.61-11.811-3.241-17.717-4.858-.495-.136-.677-.378-.719-.914-.212-2.715-.49-5.426-.732-8.14-.226-2.535-.428-5.071-.654-7.606-.238-2.662-.496-5.323-.737-7.984-.176-1.946-.331-3.894-.506-5.839-.242-2.688-.498-5.374-.74-8.062-.174-1.92-.337-3.841-.502-5.762-.058-.666-.082-1.336-.169-1.998-.084-.642.191-.788.789-.776 1.633.034 3.267.012 4.9.012h17.347z"/><path opacity=".2" fill-rule="evenodd" clip-rule="evenodd" fill="#FFF" d="M45.155 12.382c.176-2.15.348-4.3.547-6.448.061-.653-.125-.84-.729-.837-5.811.024-11.621.014-17.432.014H27.5v7.271h17.655zm-17.737.869l.164 38.001c.127-.004.255-.023.372-.058 1.089-.312 2.17-.658 3.254-.992 3.565-1.101 7.133-2.194 10.692-3.317.244-.077.589-.354.617-.578.138-1.112.185-2.238.266-3.359.128-1.749.253-3.498.387-5.247.18-2.33.367-4.659.547-6.989.133-1.726.255-3.453.388-5.179.18-2.331.367-4.66.547-6.99.131-1.704.252-3.408.384-5.112l.021-.255-17.639.075z"/><path d="M12.637 6.571h.77v3.658c0 .136-.038.252-.115.348s-.168.145-.273.145h-2.597c-.106 0-.198-.048-.275-.145s-.115-.212-.115-.348V9.053h.77v.852h1.835V6.571zm1.453 0h2.599c.105 0 .196.049.273.146a.541.541 0 0 1 .115.347v3.658h-.77V9.46h-1.835v1.261h-.77V7.063c0-.134.038-.25.114-.347a.34.34 0 0 1 .274-.145zm2.217 2.075V7.388h-1.835v1.258h1.835zm1.065-2.075h.813l.873 2.252.875-2.252h.812l-1.688 4.354-1.685-4.354zm4.056 0h2.599c.105 0 .196.049.273.146s.115.213.115.347v3.658h-.77V9.46H21.81v1.261h-.77V7.063c0-.134.038-.25.114-.347a.34.34 0 0 1 .274-.145zm2.218 2.075V7.388H21.81v1.258h1.836zm1.455-2.075h2.792v.817H25.48v.849h2.217c.105 0 .196.049.273.147s.115.214.115.348v1.497c0 .136-.038.252-.115.348s-.167.145-.273.145H24.71v-.817h2.605v-.852h-2.214a.34.34 0 0 1-.275-.145.538.538 0 0 1-.115-.348V7.063c0-.134.038-.25.115-.347a.342.342 0 0 1 .275-.145zm3.668 0h2.984v.817H29.15v2.517h2.603v.816h-2.984a.336.336 0 0 1-.273-.145.543.543 0 0 1-.114-.348V7.063c0-.134.038-.25.114-.347a.336.336 0 0 1 .273-.145zm6.264 0c.105 0 .197.049.274.146s.116.213.116.347v1.904a.54.54 0 0 1-.116.35.346.346 0 0 1-.274.142h-.067l.604 1.261h-.898l-.605-1.261h-1.251v1.261h-.768v-4.15h2.985zm-.379 2.075V7.388h-1.838v1.258h1.838zm1.21 2.075v-4.15h.769v4.15h-.769zm4.048-4.15a.34.34 0 0 1 .275.146.541.541 0 0 1 .115.347v1.904a.54.54 0 0 1-.115.35.343.343 0 0 1-.275.142h-2.215v1.261h-.77v-4.15h2.985zm-2.215.817v1.258h1.836V7.388h-1.836zm6.274-.817v.817h-1.302v3.333h-.77V7.388h-1.302v-.817h3.374z" fill="#FFF"/><path fill-rule="evenodd" clip-rule="evenodd" fill="#FFF" d="M48.781 2.923c-7.077.027-14.154.016-21.231.016H10.819c-1.575 0-3.151.022-4.726-.011-.577-.012-.843.129-.761.748.083.638.107 1.284.163 1.927.159 1.853.316 3.706.483 5.558.234 2.592.481 5.183.714 7.775.169 1.877.318 3.755.488 5.632.232 2.567.481 5.134.71 7.701.218 2.444.413 4.892.631 7.337.233 2.617.502 5.231.707 7.851.04.517.216.75.693.881 5.697 1.559 11.389 3.133 17.087 4.686.294.08.646.067.943-.009 1.328-.338 2.646-.715 3.968-1.079 4.35-1.195 8.699-2.384 13.041-3.605.298-.084.719-.387.755-.635.174-1.225.236-2.466.342-3.7.164-1.928.326-3.855.499-5.781.229-2.568.472-5.135.702-7.702.171-1.901.328-3.804.499-5.706.231-2.567.472-5.134.703-7.701.169-1.877.325-3.755.495-5.633.23-2.542.453-5.085.713-7.625.075-.722-.15-.928-.887-.925zm.103 1.78c-.25 2.45-.465 4.903-.688 7.355-.164 1.811-.314 3.623-.478 5.433-.223 2.476-.455 4.952-.678 7.428-.165 1.834-.316 3.669-.481 5.503-.223 2.477-.456 4.952-.678 7.429-.166 1.858-.323 3.718-.481 5.576-.102 1.191-.161 2.388-.33 3.569-.033.239-.439.531-.728.612-4.188 1.178-8.384 2.324-12.578 3.479-1.275.351-2.547.714-3.828 1.04a1.869 1.869 0 0 1-.91.009c-5.497-1.498-10.987-3.016-16.482-4.52-.46-.127-.63-.352-.669-.851-.197-2.526-.457-5.048-.681-7.572-.21-2.357-.398-4.718-.609-7.076-.221-2.477-.462-4.952-.686-7.428-.164-1.811-.308-3.622-.471-5.433-.225-2.5-.463-4.999-.688-7.5-.16-1.785-.312-3.572-.466-5.359-.053-.62-.077-1.243-.157-1.858-.078-.598.178-.734.735-.723 1.519.032 3.039.011 4.559.011h16.137c6.827 0 13.654.011 20.48-.015.709-.003.927.196.856.891z"/><path fill="#FFF" d="M9.333 16.909l17.469.098v23.962c0 .889-.117 1.649-.341 2.28-.213.632-.465.947-.766.947h-7.409c-.305 0-.691-.315-1.17-.947-.491-.631-.93-1.392-1.309-2.28l-1.804-7.7h1.715l1.893 5.578h6.475l-1.048-16.708-12.14.114-1.565-5.344zm20.891-.073h13.878L42.49 22.22H31.72l-.405 5.596h8.729c.415 0 .677.323.777.971.092.647-.006 1.412-.286 2.295l-3.131 9.867c-.283.895-.624 1.659-1.014 2.295-.381.636-.693.953-.946.953h-7.159v-5.384h7.563l1.375-5.613h-7.6c-.366 0-.676-.317-.934-.953-.268-.636-.404-1.4-.404-2.295v-9.867c0-.882.184-1.644.56-2.286.385-.642.847-.963 1.379-.963z"/></svg>