<svg xmlns="http://www.w3.org/2000/svg" width="55" height="55"><path fill-rule="evenodd" clip-rule="evenodd" fill="#CF649A" d="M27.551 2.016c7.337 0 14.675.011 22.013-.017.764-.002.998.211.922.958-.27 2.633-.501 5.27-.739 7.906-.177 1.946-.339 3.894-.514 5.84-.239 2.662-.489 5.322-.728 7.984-.178 1.972-.341 3.944-.519 5.916-.239 2.662-.49 5.323-.729 7.985-.179 1.997-.347 3.996-.518 5.994-.109 1.28-.173 2.567-.354 3.837-.037.257-.474.571-.783.658-4.501 1.266-9.012 2.498-13.521 3.738-1.37.377-2.737.768-4.114 1.119a2.011 2.011 0 0 1-.978.009c-5.908-1.61-11.811-3.242-17.717-4.858-.496-.136-.678-.378-.719-.914-.212-2.716-.491-5.426-.732-8.14-.226-2.534-.428-5.071-.655-7.606-.237-2.662-.496-5.322-.736-7.984-.176-1.946-.332-3.893-.506-5.839-.242-2.688-.498-5.374-.741-8.061-.173-1.92-.336-3.842-.501-5.763-.056-.666-.08-1.336-.167-1.997-.085-.643.191-.789.789-.777 1.633.035 3.267.012 4.901.012h17.346z"/><path opacity=".2" fill-rule="evenodd" clip-rule="evenodd" fill="#FFF" d="M45.155 12.383c.175-2.15.348-4.301.547-6.448.061-.654-.125-.84-.729-.837-5.811.024-11.622.014-17.432.014H27.5v7.271h17.655zm-17.737.869l.164 38.002a1.57 1.57 0 0 0 .372-.058c1.089-.313 2.17-.659 3.254-.993 3.565-1.101 7.132-2.194 10.691-3.317.245-.077.59-.354.617-.579.139-1.111.186-2.237.267-3.357.127-1.75.253-3.499.387-5.248.179-2.33.367-4.659.547-6.99.133-1.726.255-3.452.388-5.178.18-2.33.367-4.659.547-6.989.131-1.704.252-3.409.384-5.112l.02-.255-17.638.074z"/><path fill-rule="evenodd" clip-rule="evenodd" fill="#FFF" d="M48.781 2.923c-7.077.027-14.154.016-21.232.016h-16.73c-1.576 0-3.152.022-4.727-.011-.576-.012-.842.129-.76.749.083.638.107 1.284.163 1.926.159 1.853.316 3.706.484 5.558.234 2.592.48 5.183.714 7.775.169 1.876.319 3.755.488 5.632.232 2.568.481 5.133.71 7.701.218 2.444.414 4.892.631 7.337.234 2.616.502 5.23.707 7.851.04.517.216.75.693.881 5.697 1.56 11.39 3.133 17.088 4.686.293.08.646.067.943-.009 1.328-.339 2.646-.715 3.968-1.078 4.349-1.197 8.699-2.385 13.041-3.606.298-.084.719-.387.754-.635.175-1.225.236-2.466.342-3.7.165-1.928.327-3.855.499-5.782.23-2.566.472-5.133.703-7.701.171-1.901.328-3.803.499-5.705.231-2.567.472-5.134.703-7.701.169-1.877.324-3.756.494-5.633.23-2.542.454-5.085.714-7.625.073-.723-.152-.928-.889-.926zm.103 1.78c-.251 2.449-.466 4.903-.688 7.355-.164 1.811-.314 3.622-.478 5.433-.224 2.476-.455 4.951-.678 7.428-.165 1.834-.317 3.669-.482 5.503-.222 2.477-.455 4.952-.677 7.429-.167 1.858-.323 3.718-.481 5.576-.102 1.191-.161 2.388-.33 3.569-.034.239-.44.531-.728.612-4.188 1.179-8.384 2.324-12.578 3.478-1.275.352-2.547.715-3.828 1.041a1.87 1.87 0 0 1-.91.009c-5.496-1.498-10.987-3.016-16.481-4.52-.461-.126-.63-.352-.669-.851-.197-2.526-.456-5.048-.681-7.571-.21-2.358-.398-4.719-.609-7.077-.221-2.477-.461-4.951-.686-7.428-.164-1.81-.308-3.622-.471-5.432-.226-2.5-.463-5-.689-7.5-.16-1.786-.312-3.573-.466-5.36-.053-.62-.076-1.243-.157-1.859-.079-.597.178-.733.735-.722 1.519.032 3.039.011 4.559.011h16.137c6.827 0 13.653.01 20.479-.016.71-.001.927.197.857.892z"/><path d="M9.868 6.659h3.003v.668h-2.595v.695h2.384c.113 0 .211.04.293.12a.384.384 0 0 1 .124.285v1.225a.379.379 0 0 1-.124.285.41.41 0 0 1-.293.118H9.448v-.668h2.801V8.69H9.868a.416.416 0 0 1-.296-.118.38.38 0 0 1-.124-.285V7.062c0-.109.042-.204.124-.284a.41.41 0 0 1 .296-.119zm3.944 0h2.794c.113 0 .211.04.294.119.082.08.124.174.124.284v2.993h-.828V9.023h-1.973v1.032h-.828V7.062c0-.109.041-.204.123-.284a.406.406 0 0 1 .294-.119zm2.383 1.698v-1.03h-1.973v1.03h1.973zm1.566-1.698h3.003v.668h-2.595v.695h2.384c.113 0 .211.04.293.12a.384.384 0 0 1 .124.285v1.225a.379.379 0 0 1-.124.285.41.41 0 0 1-.293.118h-3.212v-.668h2.801V8.69h-2.381a.416.416 0 0 1-.296-.118.383.383 0 0 1-.124-.285V7.062c0-.109.042-.204.124-.284a.412.412 0 0 1 .296-.119zm3.946 0h3.003v.668h-2.595v.695h2.384a.41.41 0 0 1 .294.12.386.386 0 0 1 .123.285v1.225a.382.382 0 0 1-.123.285.412.412 0 0 1-.294.118h-3.212v-.668h2.801V8.69h-2.381a.416.416 0 0 1-.296-.118.383.383 0 0 1-.124-.285V7.062c0-.109.042-.204.124-.284a.412.412 0 0 1 .296-.119zm4.502 3.45l.964-3.321h.327l-.962 3.321h-.329zm3.159-3.45h3.003v.668h-2.595v.695h2.384c.114 0 .212.04.294.12a.387.387 0 0 1 .124.285v1.225a.383.383 0 0 1-.124.285.408.408 0 0 1-.294.118h-3.212v-.668h2.802V8.69h-2.382a.419.419 0 0 1-.296-.118.383.383 0 0 1-.124-.285V7.062c0-.109.042-.204.124-.284a.416.416 0 0 1 .296-.119zm3.945 0h3.21v.668h-2.799v2.06h2.799v.668h-3.21a.415.415 0 0 1-.295-.118.384.384 0 0 1-.122-.285v-2.59c0-.109.041-.204.122-.284a.41.41 0 0 1 .295-.119zm3.947 0h3.002v.668h-2.595v.695h2.384c.113 0 .212.04.294.12a.384.384 0 0 1 .124.285v1.225a.379.379 0 0 1-.124.285.41.41 0 0 1-.294.118H36.84v-.668h2.801V8.69H37.26a.42.42 0 0 1-.297-.118.382.382 0 0 1-.123-.285V7.062a.416.416 0 0 1 .42-.403zm3.946 0h3.003v.668h-2.595v.695h2.384c.113 0 .211.04.293.12a.384.384 0 0 1 .124.285v1.225a.379.379 0 0 1-.124.285.408.408 0 0 1-.293.118h-3.212v-.668h2.801V8.69h-2.381a.416.416 0 0 1-.296-.118.379.379 0 0 1-.124-.285V7.062c0-.109.041-.204.124-.284a.412.412 0 0 1 .296-.119z" fill="#FFF"/><path fill-rule="evenodd" clip-rule="evenodd" fill="#FFF" d="M27.403 19.287c.389.129.776.26 1.165.387.146.048.301.077.444.132 2.436.943 2.981 2.874 2.008 5.082-1.082 2.456-3.094 3.804-5.646 4.415-1.411.338-2.859.537-4.253.008-.547-.207-.993-.694-1.462-1.081-.108-.09-.125-.29-.14-.491 1.506 1.285 3.195 1.085 4.876.652 2.035-.525 3.778-1.539 4.923-3.359a4.57 4.57 0 0 0 .586-1.496c.237-1.173-.515-2.041-1.885-2.325-1.407-.291-2.791-.164-4.158.198-2.925.774-5.521 2.166-7.72 4.239-.784.739-1.353 1.633-1.455 2.762-.089.976.201 1.82.899 2.475.847.793 1.764 1.513 2.651 2.264.192.162.426.292.574.487.421.559.864.597 1.434.205.429-.296.933-.482 1.368-.77.478-.316.914-.695 1.373-1.04.493-.371.951-.817 1.497-1.084.966-.471 1.655.021 1.638 1.092-.002.17-.033.339-.057.57.129-.024.213-.044.298-.056.544-.076.769.164.638.691-.223.901-.464 1.797-.668 2.702-.068.301-.045.622-.064.934l.206.052c.292-.575.603-1.141.87-1.727.608-1.337 1.196-2.683 1.788-4.026.093-.212.173-.431.24-.652.228-.751.618-1.006 1.406-.895.388.056.592.185.413.655-.396 1.037-.371 2.067.422 3.229.038-.132.053-.276.117-.395.669-1.237 1.496-2.396 1.81-3.806.107-.487 1.413-.806 1.727-.428.095.114.047.399-.017.578-.367 1.047-.29 2.036.233 3.024.209.394.39.402.771.26 1.656-.622 3.301-.69 4.876.264.65.396 1.114.953 1.394 1.663.045.112.136.208.206.312v1.047c-.101.128-.216.249-.301.387-.321.521-.802.858-1.225.844 1.374-1.134 1.224-2.675-.414-3.511-1.51-.771-3.097-.72-4.667-.209-.018.093-.036.133-.03.168.021.113.039.229.08.337.315.828.102 1.546-.556 2.085a7.18 7.18 0 0 1-1.57.963c-.253.115-.751.111-.896-.052-.2-.226-.284-.675-.218-.986.18-.859.73-1.533 1.382-2.094.265-.227.29-.366.16-.665-.221-.512-.376-1.051-.564-1.576-.045-.124-.113-.24-.202-.424-.628 1.007-1.206 1.913-1.754 2.837-.068.114.024.322.039.486.05.549.226 1.122.119 1.64-.223 1.09-1.593 1.935-2.947 1.907-.238-.005-.56-.123-.681-.299-.083-.121.058-.475.194-.651.543-.703 1.133-1.372 1.685-2.069.12-.151.261-.408.209-.551-.277-.766-.612-1.511-.958-2.334-.099.142-.196.248-.256.372-.766 1.581-1.507 3.174-2.302 4.741-.202.398-.526.766-.873 1.055-.432.36-.872.21-1.036-.329-.105-.345-.095-.723-.137-1.086l-.049-.396c-.41.551-.691 1.116-.983 1.677-.216.415-.526.749-1.026.746-.499-.002-.797-.339-1.022-.753-.492-.902-.631-1.861-.466-2.866.079-.477.184-.949.305-1.562-.565.324-.99.586-1.433.816-.285.148-.318.326-.217.612.97 2.754-.848 5.771-3.522 6.378-.073.017-.126.117-.189.178h-1.521c-.234-.144-.492-.26-.697-.438-.896-.78-.983-2.158-.196-3.334.661-.987 1.62-1.65 2.619-2.257.586-.356 1.184-.692 1.869-1.091-.573-.412-1.054-.759-1.537-1.104-1.292-.921-2.659-1.761-3.602-3.079-.338-.474-.61-.994-.913-1.493v-1.163c.099-.191.216-.375.294-.574.638-1.615 1.768-2.849 3.121-3.882 2.586-1.974 5.439-3.39 8.677-3.966.11-.019.205-.122.308-.186.858.003 1.716.003 2.573.003zM19.06 35.201c-1.042.78-2.075 1.434-2.947 2.256-.439.414-.72 1.107-.837 1.719-.172.894.252 1.196 1.16 1.013 2.017-.411 3.379-2.826 2.624-4.988zm3.743.807c.049.322.078.649.157.964.032.126.166.298.273.313.113.017.267-.11.369-.21.094-.09.16-.22.207-.345.505-1.356 1.017-2.711 1.493-4.077.079-.225-.004-.505-.012-.76-.284.084-.582.138-.846.263-.165.079-.299.25-.41.405-.73 1.032-1.22 2.148-1.231 3.447zm12.136-1.815c-.605.608-1.077 1.229-1.153 2.119 1.048-.217 1.554-1.139 1.153-2.119zm-5.481 3.119c.872-.149 1.539-.928 1.447-1.67l-1.447 1.67z"/></svg>