<svg xmlns="http://www.w3.org/2000/svg" width="55" height="55"><path fill-rule="evenodd" clip-rule="evenodd" fill="#78D4B6" d="M27.552 2.016c7.338 0 14.676.011 22.014-.017.764-.003.997.21.921.958-.269 2.633-.5 5.27-.739 7.906-.176 1.946-.338 3.894-.513 5.84-.239 2.662-.489 5.323-.729 7.985-.178 1.971-.341 3.944-.519 5.916-.239 2.662-.489 5.323-.728 7.985-.179 1.997-.348 3.995-.518 5.994-.109 1.28-.174 2.566-.354 3.837-.036.257-.473.571-.782.658-4.501 1.266-9.013 2.498-13.521 3.738-1.37.377-2.737.768-4.114 1.118a1.987 1.987 0 0 1-.978.009c-5.909-1.609-11.811-3.241-17.717-4.857-.495-.136-.677-.378-.719-.914-.212-2.716-.491-5.426-.733-8.14-.226-2.534-.428-5.072-.654-7.606-.237-2.663-.496-5.323-.736-7.984-.176-1.946-.331-3.894-.507-5.84-.242-2.687-.497-5.374-.74-8.061-.174-1.921-.336-3.842-.502-5.763-.057-.666-.082-1.336-.169-1.997-.084-.643.191-.789.789-.777 1.633.034 3.267.012 4.9.012h17.348z"/><path opacity=".2" fill-rule="evenodd" clip-rule="evenodd" fill="#FFF" d="M45.155 12.383c.176-2.15.349-4.301.547-6.448.061-.654-.125-.84-.729-.838-5.811.024-11.621.015-17.432.015H27.5v7.271h17.655zm-17.737.868l.164 38.002a1.53 1.53 0 0 0 .373-.059c1.088-.312 2.169-.658 3.253-.992 3.565-1.101 7.133-2.194 10.692-3.317.244-.077.589-.354.617-.579.139-1.111.185-2.237.267-3.358.127-1.749.253-3.498.387-5.247.179-2.33.367-4.66.546-6.99.133-1.726.255-3.452.388-5.178.18-2.33.367-4.66.547-6.99.132-1.704.252-3.408.385-5.112l.02-.255-17.639.075z"/><path fill-rule="evenodd" clip-rule="evenodd" fill="#FFF" d="M48.781 2.923c-7.077.027-14.154.016-21.231.016H10.82c-1.576 0-3.152.022-4.727-.012-.577-.011-.843.13-.761.749.083.639.107 1.285.163 1.927.16 1.853.316 3.706.484 5.558.234 2.592.48 5.183.714 7.775.169 1.876.319 3.755.488 5.631.232 2.568.481 5.133.71 7.701.218 2.444.413 4.892.631 7.336.234 2.617.502 5.231.707 7.851.04.517.216.751.693.882 5.697 1.56 11.39 3.133 17.087 4.686.294.08.646.066.944-.009 1.328-.339 2.647-.716 3.967-1.079 4.35-1.196 8.7-2.385 13.041-3.605.299-.084.72-.388.755-.635.175-1.225.236-2.466.342-3.7.164-1.928.326-3.855.499-5.782.23-2.567.472-5.134.702-7.701.171-1.901.329-3.804.5-5.705.23-2.567.472-5.134.702-7.701.169-1.877.325-3.755.495-5.633.23-2.542.453-5.085.713-7.625.074-.722-.151-.928-.888-.925zm.104 1.78c-.251 2.45-.466 4.903-.688 7.355-.163 1.811-.314 3.623-.478 5.433-.223 2.476-.454 4.952-.678 7.428-.164 1.834-.316 3.669-.481 5.503-.223 2.477-.456 4.952-.678 7.429-.166 1.858-.322 3.717-.481 5.576-.102 1.191-.161 2.388-.329 3.569-.034.238-.44.531-.728.612-4.188 1.178-8.385 2.324-12.579 3.478-1.274.351-2.546.714-3.827 1.041a1.881 1.881 0 0 1-.91.009c-5.497-1.498-10.987-3.016-16.481-4.52-.461-.126-.63-.352-.669-.851-.197-2.526-.456-5.048-.681-7.572-.21-2.357-.398-4.718-.609-7.076-.221-2.478-.461-4.952-.686-7.428-.164-1.811-.308-3.622-.471-5.432-.226-2.5-.463-5-.689-7.5-.162-1.786-.313-3.573-.468-5.36-.053-.62-.076-1.243-.157-1.858-.078-.598.178-.734.735-.723 1.519.032 3.039.011 4.559.011h16.137c6.827 0 13.653.01 20.479-.016.71-.002.928.197.858.892z"/><path d="M14.691 6.477h4.122v.917h-3.562v.953h3.272c.156 0 .29.055.403.165a.53.53 0 0 1 .17.391v1.681a.523.523 0 0 1-.17.391.563.563 0 0 1-.403.162h-4.409v-.917h3.845v-.956H14.69a.566.566 0 0 1-.406-.162.523.523 0 0 1-.17-.391V7.03c0-.15.057-.28.17-.389a.564.564 0 0 1 .407-.164zm5.975 0v3.744h3.845v.917h-4.978V6.477h1.133zm4.854 0h3.835a.56.56 0 0 1 .403.164c.113.109.17.239.17.389v4.108h-1.137V9.721h-2.708v1.417h-1.137V7.03c0-.15.056-.28.168-.389a.56.56 0 0 1 .406-.164zm3.272 2.33V7.394h-2.708v1.413h2.708zm2.146-2.33h4.405v.917h-3.842v2.827h3.842v.917h-4.405a.562.562 0 0 1-.405-.162.524.524 0 0 1-.168-.391V7.03c0-.15.056-.28.168-.389a.555.555 0 0 1 .405-.164zm8.511 4.661l-1.861-1.895-.673.587v1.308h-1.137V6.477h1.137v2.12l2.44-2.12h1.404l.007.006-2.472 2.147 2.463 2.508h-1.308z" fill="#FFF"/><path fill-rule="evenodd" clip-rule="evenodd" fill="#FFF" d="M23.416 39.358c-.764.309-1.495.597-2.221.896-1.591.657-3.037-.1-3.387-1.778-.2-.957.459-2.074 1.448-2.462.719-.283 1.431-.585 2.155-.854.247-.092.251-.186.16-.409-.539-1.327-1.059-2.662-1.584-3.995-.17-.43-.315-.483-.742-.304-.68.286-1.36.575-2.05.838-.844.321-1.862.023-2.463-.693-.68-.812-.767-1.742-.3-2.597.307-.56.755-.892 1.344-1.112.717-.268 1.414-.591 2.206-.927l-.465-1.229c-.18-.478-.384-.948-.535-1.434-.381-1.219.674-2.699 1.953-2.763 1.277-.064 2.073.503 2.501 1.74.199.575.453 1.131.685 1.695.121.294.332.196.536.115 1.159-.462 2.317-.925 3.476-1.386.237-.094.477-.184.718-.269.235-.082.3-.2.19-.449-.293-.662-.526-1.352-.839-2.003-.538-1.118.151-2.427 1.135-2.908 1.281-.627 2.562.091 2.98.96.354.739.658 1.503.952 2.269.104.271.229.276.453.182.72-.303 1.446-.591 2.166-.895.984-.416 2.237.05 2.792 1.015.722 1.257.298 2.88-1.524 3.487-.671.224-1.315.523-2 .799.392.974.768 1.916 1.146 2.856.189.472.414.932.563 1.416.114.368.325.4.615.289.638-.246 1.284-.479 1.901-.77 1.505-.711 3.163.396 3.308 2.007.08.889-.287 1.734-1.169 2.167-.743.364-1.523.659-2.3.953-.301.113-.369.229-.236.53.302.686.577 1.384.846 2.083.477 1.242-.427 2.767-1.756 2.979-1.164.185-2.188-.425-2.6-1.52-.273-.728-.582-1.442-.89-2.198l-4.916 1.971c.352.896.744 1.746 1.019 2.631.335 1.076-.304 2.269-1.328 2.645-1.16.426-2.358-.009-2.87-1.085-.377-.793-.699-1.612-1.073-2.483zm5.451-12.724l-.489.197-4.002 1.614c-.179.072-.344.121-.232.395.601 1.467 1.185 2.941 1.789 4.449l4.832-1.975-1.898-4.68z"/></svg>