<svg xmlns="http://www.w3.org/2000/svg" width="55" height="55"><path fill-rule="evenodd" clip-rule="evenodd" fill="#205AA0" d="M27.551 2.016c7.338 0 14.676.011 22.014-.017.764-.002.997.211.921.958-.27 2.633-.5 5.27-.739 7.906-.176 1.946-.338 3.894-.513 5.84-.24 2.662-.489 5.322-.729 7.984-.178 1.972-.341 3.945-.519 5.916-.239 2.662-.49 5.323-.728 7.985-.179 1.997-.348 3.996-.518 5.994-.109 1.28-.174 2.567-.354 3.837-.037.257-.474.571-.782.658-4.502 1.266-9.013 2.498-13.521 3.738-1.37.377-2.737.768-4.114 1.119a2.011 2.011 0 0 1-.978.009c-5.909-1.61-11.811-3.242-17.717-4.858-.495-.136-.677-.378-.719-.914-.212-2.716-.49-5.426-.732-8.14-.226-2.534-.428-5.071-.654-7.606-.238-2.662-.497-5.322-.737-7.984-.176-1.946-.331-3.893-.506-5.839-.242-2.688-.498-5.374-.74-8.061-.173-1.92-.336-3.842-.502-5.763-.058-.666-.082-1.336-.169-1.997-.085-.643.191-.789.789-.777 1.633.035 3.267.012 4.9.012h17.347z"/><path opacity=".2" fill-rule="evenodd" clip-rule="evenodd" fill="#FFF" d="M45.155 12.383c.176-2.15.348-4.301.547-6.448.061-.654-.125-.84-.729-.837-5.811.024-11.621.014-17.432.014H27.5v7.271h17.655zm-17.737.869l.164 38.002c.128-.005.255-.024.372-.058 1.089-.313 2.17-.659 3.254-.993 3.565-1.101 7.133-2.194 10.692-3.317.244-.077.589-.354.617-.579.139-1.111.185-2.237.266-3.357.128-1.75.253-3.499.388-5.248.179-2.33.367-4.659.546-6.989.133-1.726.255-3.453.388-5.179.18-2.33.367-4.659.547-6.989.132-1.704.252-3.409.385-5.112l.02-.255-17.639.074z"/><path fill-rule="evenodd" clip-rule="evenodd" fill="#FFF" d="M48.781 2.923c-7.077.027-14.154.016-21.231.016H10.82c-1.576 0-3.152.022-4.727-.011-.577-.012-.843.129-.761.749.083.638.108 1.284.163 1.926.159 1.853.316 3.706.484 5.558.234 2.592.48 5.183.714 7.775.169 1.876.318 3.755.488 5.632.232 2.568.481 5.133.71 7.701.218 2.444.413 4.892.631 7.337.233 2.616.502 5.23.707 7.851.04.517.216.75.693.881 5.697 1.56 11.389 3.133 17.087 4.686.294.08.646.067.943-.009 1.328-.339 2.647-.715 3.968-1.078 4.35-1.197 8.699-2.385 13.041-3.606.299-.084.719-.387.755-.635.175-1.225.236-2.466.342-3.7.164-1.928.326-3.855.498-5.782.23-2.566.473-5.133.703-7.701.171-1.901.329-3.803.5-5.705.23-2.567.472-5.134.702-7.701.169-1.877.325-3.756.495-5.633.23-2.542.453-5.085.713-7.625.074-.723-.151-.928-.888-.926zm.104 1.78c-.251 2.449-.466 4.903-.688 7.355-.164 1.811-.314 3.622-.478 5.433-.223 2.476-.455 4.951-.678 7.428-.164 1.834-.316 3.669-.481 5.503-.223 2.477-.456 4.952-.678 7.429-.166 1.858-.323 3.718-.481 5.576-.102 1.191-.161 2.388-.329 3.569-.034.239-.44.531-.729.612-4.187 1.179-8.384 2.324-12.578 3.478-1.274.352-2.547.715-3.828 1.041a1.869 1.869 0 0 1-.91.009c-5.497-1.498-10.987-3.016-16.482-4.52-.46-.126-.63-.352-.669-.851-.197-2.526-.457-5.048-.681-7.571-.211-2.358-.398-4.719-.609-7.077-.222-2.477-.462-4.951-.686-7.428-.163-1.81-.308-3.622-.471-5.432-.225-2.5-.463-5-.688-7.5-.161-1.786-.313-3.573-.467-5.36-.054-.62-.077-1.243-.157-1.859-.078-.597.178-.733.735-.722 1.519.032 3.039.011 4.559.011h16.137c6.827 0 13.654.01 20.48-.016.709-.001.927.197.857.892z"/><path d="M14.286 6.642h1.204v3.518c0 .13-.06.242-.179.335a.68.68 0 0 1-.428.139h-4.061a.683.683 0 0 1-.431-.139.414.414 0 0 1-.18-.335V9.029h1.204v.819h2.87V6.642zm6.338 0a.67.67 0 0 1 .427.141c.12.093.18.204.18.333v2.733h.3v.785h-4.969a.68.68 0 0 1-.432-.139.414.414 0 0 1-.178-.335V7.115c0-.129.059-.24.178-.333a.675.675 0 0 1 .432-.141h4.062zm-.594.785h-2.874v2.421h2.874V7.427zm6.037-.785h1.201v3.518c0 .13-.06.242-.178.335s-.262.139-.429.139H22.6a.675.675 0 0 1-.429-.139.414.414 0 0 1-.178-.335V6.642h1.201v3.207h2.874V6.642zm5.738 2.387h-2.87v.819h4.074v.785H27.73V6.642h5.279v.786h-4.074v.816h2.87v.785zm6.334-2.387c.165 0 .308.047.429.141.121.093.182.204.182.333v1.832c0 .132-.061.244-.182.336s-.264.136-.429.136h-.105l.943 1.213h-1.405l-.944-1.213h-1.956v1.213h-1.201V6.642h4.668zm-.594 1.996v-1.21h-2.873v1.21h2.873zm1.893-1.996h1.353l1.276 1.298 1.294-1.298h1.353l-2.046 2.083v1.908h-1.204V8.702l-2.026-2.06z" fill="#FFF"/><g fill-rule="evenodd" clip-rule="evenodd" fill="#FFF"><path d="M17.436 21.97c-.397.531-.795 1.083-1.213 1.62-2.799 3.585-3.1 7.49-1.478 11.622 1.127 2.871 3.006 5.188 5.515 6.974 3.566 2.538 7.5 3.707 11.897 2.919 3.969-.711 6.47-3.297 8.432-6.622-.288.244-.536.47-.801.674-.28.215-.567.425-.868.609-3.201 1.955-6.658 2.25-10.202 1.314-4.904-1.296-8.556-4.225-10.829-8.766-1.186-2.368-1.597-4.891-1.182-7.509.151-.959.481-1.89.729-2.835zm7.248-2.196c-.381.525-.781 1.105-1.209 1.663-1.434 1.865-1.8 3.968-1.296 6.209.811 3.6 3.09 6.04 6.347 7.645 2.034 1.002 4.184 1.283 6.417.873 2.828-.521 4.523-2.435 5.88-4.75-2.449 1.962-5.25 2.158-7.619 1.666-2.556-.531-4.668-1.846-6.389-3.765-1.742-1.942-2.71-4.222-2.609-6.852.034-.911.315-1.813.478-2.689zm16.394 5.97c-2.391 1.445-4.744 1.317-6.985-.072-2.733-1.693-4.075-4.102-3.288-7.505-.312.423-.543.754-.792 1.073-1.07 1.376-1.203 2.904-.694 4.507.698 2.197 2.222 3.685 4.315 4.542 2.579 1.054 5.689.797 7.444-2.545z"/><path d="M17.436 21.97c-.249.945-.578 1.876-.729 2.836-.415 2.618-.004 5.141 1.182 7.509 2.273 4.541 5.925 7.47 10.829 8.766 3.544.936 7.001.641 10.202-1.314.301-.185.588-.395.868-.609.265-.204.513-.43.801-.674-1.962 3.325-4.463 5.911-8.432 6.622-4.397.788-8.331-.381-11.897-2.919-2.509-1.786-4.388-4.103-5.515-6.974-1.622-4.132-1.322-8.037 1.478-11.622.418-.538.816-1.09 1.213-1.621z"/><path d="M24.684 19.774c-.163.876-.444 1.778-.479 2.689-.101 2.63.867 4.91 2.609 6.852 1.721 1.919 3.833 3.233 6.389 3.765 2.369.492 5.17.296 7.619-1.666-1.356 2.315-3.052 4.229-5.88 4.75-2.233.41-4.383.129-6.417-.873-3.256-1.604-5.536-4.045-6.347-7.645-.504-2.241-.138-4.344 1.296-6.209.429-.557.829-1.137 1.21-1.663z"/><path d="M41.078 25.744c-1.755 3.342-4.865 3.599-7.444 2.544-2.094-.856-3.617-2.345-4.315-4.542-.509-1.604-.376-3.131.694-4.507.249-.319.48-.65.792-1.073-.787 3.404.555 5.812 3.288 7.505 2.241 1.39 4.595 1.517 6.985.073z"/></g></svg>