<svg xmlns="http://www.w3.org/2000/svg" width="55" height="55"><path fill-rule="evenodd" clip-rule="evenodd" fill="#668907" d="M27.551 2.016c7.337 0 14.675.011 22.013-.017.764-.003.998.21.922.958-.27 2.633-.501 5.27-.739 7.906-.177 1.946-.339 3.894-.514 5.84-.239 2.662-.489 5.323-.728 7.985-.178 1.971-.341 3.944-.519 5.916-.239 2.662-.49 5.323-.729 7.985-.179 1.997-.347 3.995-.518 5.994-.109 1.28-.173 2.566-.354 3.837-.037.257-.474.571-.783.658-4.501 1.266-9.012 2.498-13.521 3.738-1.37.377-2.737.768-4.114 1.118a1.987 1.987 0 0 1-.978.009c-5.908-1.609-11.811-3.241-17.717-4.857-.496-.136-.678-.378-.719-.914-.212-2.716-.491-5.426-.732-8.14-.226-2.534-.428-5.072-.655-7.606-.237-2.663-.496-5.323-.736-7.984-.176-1.946-.332-3.894-.506-5.84-.242-2.687-.498-5.374-.741-8.061-.171-1.921-.334-3.842-.499-5.763-.058-.666-.082-1.336-.169-1.997-.085-.643.191-.789.789-.777 1.633.034 3.267.012 4.901.012h17.346z"/><path opacity=".2" fill-rule="evenodd" clip-rule="evenodd" fill="#FFF" d="M45.155 12.383c.175-2.15.348-4.301.547-6.448.061-.654-.125-.84-.729-.838-5.811.024-11.622.015-17.432.015H27.5v7.271h17.655zm-17.737.868l.164 38.002c.127-.005.255-.024.372-.059 1.089-.312 2.17-.658 3.254-.992 3.565-1.101 7.132-2.194 10.691-3.317.245-.077.59-.354.617-.579.139-1.111.186-2.237.267-3.358.127-1.749.253-3.498.387-5.247.179-2.33.367-4.66.547-6.99.133-1.726.255-3.452.388-5.178.18-2.33.367-4.66.547-6.99.131-1.704.252-3.408.384-5.112l.02-.255-17.638.075z"/><path fill-rule="evenodd" clip-rule="evenodd" fill="#FFF" d="M48.781 2.923c-7.077.027-14.154.016-21.232.016h-16.73c-1.576 0-3.152.022-4.727-.012-.576-.011-.842.13-.76.749.083.639.107 1.285.163 1.927.159 1.853.316 3.706.484 5.558.234 2.592.48 5.183.714 7.775.169 1.876.319 3.755.488 5.631.232 2.568.481 5.133.71 7.701.218 2.444.414 4.892.631 7.336.234 2.617.502 5.231.707 7.851.04.517.216.751.693.882 5.697 1.56 11.39 3.133 17.088 4.686.293.08.646.066.943-.009 1.328-.339 2.646-.716 3.968-1.079 4.349-1.196 8.699-2.385 13.041-3.605.298-.084.719-.388.754-.635.175-1.225.236-2.466.342-3.7.165-1.928.327-3.855.499-5.782.23-2.567.472-5.134.703-7.701.171-1.901.328-3.804.499-5.705.231-2.567.472-5.134.703-7.701.169-1.877.324-3.755.494-5.633.23-2.542.454-5.085.714-7.625.073-.722-.152-.928-.889-.925zm.103 1.78c-.251 2.45-.466 4.903-.688 7.355-.164 1.811-.314 3.623-.478 5.433-.224 2.476-.455 4.952-.678 7.428-.165 1.834-.317 3.669-.482 5.503-.222 2.477-.455 4.952-.677 7.429-.167 1.858-.323 3.717-.481 5.576-.102 1.191-.161 2.388-.33 3.569-.034.238-.44.531-.728.612-4.188 1.178-8.384 2.324-12.578 3.478-1.275.351-2.547.714-3.828 1.041a1.881 1.881 0 0 1-.91.009c-5.496-1.498-10.987-3.016-16.481-4.52-.461-.126-.63-.352-.669-.851-.197-2.526-.456-5.048-.681-7.572-.21-2.357-.398-4.718-.609-7.076-.221-2.477-.461-4.951-.686-7.428-.164-1.811-.308-3.622-.471-5.432-.226-2.5-.463-5-.689-7.5-.16-1.786-.312-3.573-.466-5.36-.053-.62-.076-1.243-.157-1.858-.079-.598.178-.734.735-.723 1.519.032 3.039.011 4.559.011h16.137c6.827 0 13.653.01 20.479-.016.71-.002.927.197.857.892z"/><path d="M22.471 6.783h3.595c.146 0 .272.052.378.154a.49.49 0 0 1 .159.365v3.851h-1.065V9.825H23v1.328h-1.065V7.302c0-.141.052-.263.157-.365a.52.52 0 0 1 .379-.154zm3.068 2.185V7.643H23v1.325h2.539zm5.603-2.185c.147 0 .274.052.381.154a.492.492 0 0 1 .158.365v2.004a.491.491 0 0 1-.158.368.532.532 0 0 1-.381.151h-3.064v1.328h-1.065v-4.37h4.129zm-3.065.86v1.325h2.539V7.643h-2.539zm4.013 3.509v-4.37h1.062v4.37H32.09zM21.94 29.794l-2.38-.427a2.573 2.573 0 0 0-.406-1.219 2.618 2.618 0 0 0-3.61-.754 2.585 2.585 0 0 0-.76 3.591 2.617 2.617 0 0 0 3.612.752c.425-.275.738-.658.937-1.084l2.378.428a5.84 5.84 0 0 1 .229-1.287zm6.116-4.216l-.191-4.546c.228-.071.453-.162.664-.298a2.585 2.585 0 0 0 .76-3.59 2.62 2.62 0 0 0-3.614-.75 2.583 2.583 0 0 0-.758 3.589c.392.596.987.978 1.636 1.117l.192 4.531a5.755 5.755 0 0 1 1.311-.053zm8.548-1.64a2.58 2.58 0 0 0-1.109 2.748L32.6 28.184l.042.059c.23.351.417.721.567 1.1l2.893-1.497a2.617 2.617 0 0 0 3.354.435 2.584 2.584 0 0 0 .758-3.589 2.613 2.613 0 0 0-3.61-.754zM34.71 37.347l-2.343-2.246a5.814 5.814 0 0 1-.91.941l2.342 2.246a2.574 2.574 0 0 0 .079 2.686 2.614 2.614 0 0 0 3.61.749 2.584 2.584 0 0 0 .759-3.587 2.605 2.605 0 0 0-3.537-.789zm-11.249-1.649l-2.644 3.325a2.614 2.614 0 0 0-2.477.199 2.584 2.584 0 0 0-.758 3.589 2.617 2.617 0 0 0 3.611.756 2.586 2.586 0 0 0 .759-3.593c-.032-.049-.073-.09-.11-.136l2.652-3.334a5.783 5.783 0 0 1-1.033-.806zm1.745-7.94c2.067-1.342 4.84-.763 6.189 1.292a4.431 4.431 0 0 1-1.299 6.155 4.487 4.487 0 0 1-6.19-1.292 4.433 4.433 0 0 1 1.3-6.155z" fill="#FFF"/></svg>