<svg xmlns="http://www.w3.org/2000/svg" width="55" height="55"><path fill-rule="evenodd" clip-rule="evenodd" fill="#7892A0" d="M27.551 2.016c7.337 0 14.676.011 22.014-.017.763-.002.997.211.921.958-.27 2.633-.5 5.27-.739 7.906-.176 1.946-.338 3.894-.514 5.84-.239 2.662-.488 5.322-.728 7.984-.178 1.971-.341 3.945-.519 5.916-.239 2.662-.489 5.323-.728 7.985-.179 1.998-.348 3.996-.518 5.994-.109 1.28-.174 2.567-.354 3.837-.037.257-.474.571-.782.658-4.502 1.266-9.013 2.498-13.521 3.738-1.37.377-2.737.768-4.114 1.119a2.011 2.011 0 0 1-.978.009c-5.909-1.61-11.811-3.242-17.717-4.858-.495-.136-.677-.378-.719-.913-.212-2.716-.49-5.427-.732-8.141-.226-2.534-.428-5.071-.654-7.606-.238-2.662-.496-5.323-.737-7.984-.176-1.946-.331-3.893-.506-5.839-.242-2.688-.498-5.374-.74-8.061-.173-1.92-.336-3.842-.501-5.762-.059-.667-.083-1.336-.17-1.998-.084-.642.191-.789.789-.776 1.633.034 3.267.011 4.9.011h17.347z"/><path opacity=".2" fill-rule="evenodd" clip-rule="evenodd" fill="#FFF" d="M45.155 12.383c.176-2.15.348-4.3.547-6.448.061-.653-.125-.84-.729-.837-5.811.024-11.621.014-17.432.014H27.5v7.271h17.655zm-17.737.869l.164 38.002a1.57 1.57 0 0 0 .372-.058c1.089-.313 2.17-.659 3.254-.993 3.565-1.101 7.133-2.194 10.692-3.317.244-.077.589-.354.617-.578.138-1.112.185-2.238.266-3.358.128-1.75.253-3.499.387-5.248.18-2.33.367-4.659.547-6.989.133-1.727.255-3.453.388-5.179.18-2.33.367-4.659.547-6.989.131-1.704.252-3.409.384-5.112l.021-.255-17.639.074z"/><path fill-rule="evenodd" clip-rule="evenodd" fill="#FFF" d="M48.781 2.924c-7.077.027-14.154.016-21.231.016H10.819c-1.575 0-3.151.022-4.726-.012-.577-.012-.843.13-.761.749.083.638.107 1.284.163 1.926.159 1.853.316 3.706.483 5.558.234 2.592.481 5.183.714 7.775.169 1.876.318 3.755.488 5.632.232 2.567.481 5.133.71 7.701.218 2.444.413 4.893.631 7.337.233 2.617.502 5.231.707 7.851.04.517.216.75.693.881 5.697 1.56 11.389 3.133 17.087 4.686.294.08.646.067.943-.009 1.328-.339 2.646-.715 3.968-1.078 4.35-1.196 8.699-2.385 13.041-3.606.298-.084.719-.387.755-.635.174-1.225.236-2.466.342-3.7.164-1.928.326-3.855.499-5.781.229-2.567.472-5.134.702-7.702.171-1.901.328-3.804.499-5.705.231-2.567.472-5.134.703-7.701.169-1.877.325-3.756.495-5.633.23-2.542.453-5.085.713-7.625.075-.722-.15-.928-.887-.925zm.103 1.779c-.25 2.45-.465 4.903-.688 7.355-.164 1.811-.314 3.622-.478 5.433-.223 2.476-.455 4.951-.678 7.428-.165 1.834-.316 3.669-.481 5.503-.223 2.477-.456 4.952-.678 7.429-.166 1.858-.323 3.718-.481 5.576-.102 1.191-.161 2.389-.33 3.57-.033.238-.439.53-.728.611-4.188 1.179-8.384 2.324-12.578 3.479-1.275.351-2.547.714-3.828 1.04a1.869 1.869 0 0 1-.91.009c-5.497-1.498-10.987-3.016-16.482-4.52-.46-.126-.63-.352-.669-.85-.197-2.527-.457-5.049-.681-7.572-.21-2.358-.398-4.719-.609-7.077-.221-2.477-.462-4.951-.686-7.428-.164-1.81-.308-3.622-.471-5.432-.225-2.5-.463-5-.688-7.5-.16-1.786-.312-3.572-.466-5.36-.053-.62-.077-1.243-.157-1.859-.078-.597.178-.733.735-.721 1.519.032 3.039.011 4.559.011h16.137c6.827 0 13.654.011 20.48-.016.709-.002.927.196.856.891z"/><path d="M19.155 6.327h4.57v1.017h-3.949v1.057h3.628a.62.62 0 0 1 .447.184.587.587 0 0 1 .188.434v1.864a.582.582 0 0 1-.188.434.623.623 0 0 1-.447.18h-4.888V10.48h4.263V9.42h-3.625c-.175 0-.325-.06-.451-.18s-.188-.265-.188-.434V6.94c0-.167.063-.311.188-.432s.277-.181.452-.181zm10.255 0a.62.62 0 0 1 .447.182.578.578 0 0 1 .188.432v3.538h.313v1.017H25.16a.626.626 0 0 1-.452-.18.584.584 0 0 1-.187-.434V6.94c0-.167.063-.311.187-.432a.626.626 0 0 1 .452-.182h4.25zm-.621 1.017h-3.006v3.134h3.006V7.344zM32.1 6.327v4.151h4.264v1.017h-5.521V6.327H32.1z" fill="#FFF"/><g fill-rule="evenodd" clip-rule="evenodd" fill="#FFF"><path d="M26.579 17.996h2.303c.063.013.124.031.187.036 1.472.111 2.937.263 4.368.646 1.128.302 2.228.672 3.17 1.39.53.404.887.907.886 1.605-.002 1.604.003 3.208-.006 4.813a1.983 1.983 0 0 1-.112.618c-.187.544-.616.887-1.072 1.192-.774.518-1.642.834-2.53 1.084-1.674.472-3.392.688-5.126.74-2.25.067-4.483-.092-6.671-.669-1.123-.296-2.211-.674-3.144-1.395-.516-.398-.862-.891-.862-1.571l.001-4.813c0-.496.177-.918.521-1.277.44-.458.976-.772 1.547-1.029 1.663-.746 3.431-1.06 5.23-1.239l1.31-.131zm1.149.67c-.702.043-1.404.069-2.104.133-1.333.123-2.639.375-3.879.895-.524.219-1.023.489-1.42.906-.426.448-.611 1.068-.121 1.636.244.283.546.537.866.732.887.542 1.884.807 2.894 1.003 1.596.311 3.208.39 4.833.313 1.468-.07 2.908-.271 4.304-.737.741-.248 1.452-.562 2.02-1.126.432-.429.548-.981.269-1.486-.191-.346-.497-.594-.827-.804-.634-.401-1.33-.658-2.05-.855-1.567-.428-3.166-.584-4.785-.61zm1.154 25.881h-2.303c-.062-.013-.124-.029-.186-.035-.67-.064-1.343-.11-2.011-.195a17.284 17.284 0 0 1-3.194-.695c-.845-.277-1.66-.617-2.368-1.169-.555-.433-.866-.977-.857-1.706.019-1.548.005-3.095.007-4.643 0-.089.013-.177.02-.266.343.728.932 1.186 1.622 1.508.639.298 1.295.576 1.968.784 1.573.486 3.201.682 4.84.766 1.648.084 3.295.02 4.928-.218 1.419-.206 2.818-.513 4.126-1.13.815-.385 1.582-.833 1.988-1.764.014.134.028.216.028.297.001 1.583-.001 3.166.002 4.749.001.536-.188.985-.569 1.365-.417.416-.915.712-1.445.954-1.69.772-3.493 1.092-5.329 1.269-.422.041-.845.086-1.267.129z"/><path d="M37.472 28.587c.007.089.019.178.019.267.002 1.54-.014 3.081.008 4.621.011.783-.341 1.343-.943 1.791-.803.598-1.72.948-2.668 1.226-1.257.367-2.542.57-3.846.687a25.644 25.644 0 0 1-3.83.063c-1.681-.103-3.344-.327-4.954-.845-.935-.301-1.838-.671-2.591-1.327a1.945 1.945 0 0 1-.702-1.563c.013-1.555.004-3.109.005-4.665 0-.085.015-.171.04-.258.313.727.909 1.15 1.565 1.505 1.205.649 2.511 1.003 3.853 1.214.909.143 1.827.25 2.746.307.912.057 1.83.063 2.744.033a20.879 20.879 0 0 0 4.747-.688c.809-.218 1.598-.5 2.326-.92.608-.35 1.167-.757 1.481-1.448z"/></g></svg>