<svg xmlns="http://www.w3.org/2000/svg" width="55" height="55"><path fill-rule="evenodd" clip-rule="evenodd" fill="#897009" d="M27.551 2.016c7.337 0 14.676.011 22.014-.017.763-.003.997.21.921.958-.27 2.633-.5 5.27-.739 7.906-.176 1.946-.338 3.894-.514 5.84-.239 2.662-.488 5.323-.728 7.985-.178 1.971-.341 3.944-.519 5.916-.239 2.662-.489 5.323-.728 7.985-.179 1.997-.348 3.995-.518 5.994-.109 1.28-.174 2.566-.354 3.837-.037.257-.474.571-.782.658-4.502 1.266-9.013 2.498-13.521 3.738-1.37.377-2.737.768-4.114 1.118a1.987 1.987 0 0 1-.978.009c-5.909-1.609-11.811-3.241-17.717-4.857-.495-.136-.677-.378-.719-.914-.212-2.716-.49-5.426-.732-8.14-.226-2.534-.428-5.072-.654-7.606-.238-2.663-.496-5.323-.737-7.984-.176-1.946-.331-3.894-.506-5.84-.242-2.687-.498-5.374-.74-8.061-.174-1.921-.337-3.842-.502-5.763-.058-.666-.082-1.336-.169-1.997-.084-.643.191-.789.789-.777 1.633.034 3.267.012 4.9.012h17.347z"/><path opacity=".2" fill-rule="evenodd" clip-rule="evenodd" fill="#FFF" d="M45.155 12.383c.176-2.15.348-4.301.547-6.448.061-.654-.125-.84-.729-.838-5.811.024-11.621.015-17.432.015H27.5v7.271h17.655zm-17.737.868l.164 38.002c.127-.005.255-.024.372-.059 1.089-.312 2.17-.658 3.254-.992 3.565-1.101 7.133-2.194 10.692-3.317.244-.077.589-.354.617-.579.138-1.111.185-2.237.266-3.358.128-1.749.253-3.498.387-5.247.18-2.33.367-4.66.547-6.99.133-1.726.255-3.452.388-5.178.18-2.33.367-4.66.547-6.99.131-1.704.252-3.408.384-5.112l.021-.255-17.639.075z"/><path fill-rule="evenodd" clip-rule="evenodd" fill="#FFF" d="M48.781 2.923c-7.077.027-14.154.016-21.231.016H10.819c-1.575 0-3.151.022-4.726-.012-.577-.011-.843.13-.761.749.083.639.107 1.285.163 1.927.159 1.853.316 3.706.483 5.558.234 2.592.481 5.183.714 7.775.169 1.876.318 3.755.488 5.631.232 2.568.481 5.133.71 7.701.218 2.444.413 4.892.631 7.336.233 2.617.502 5.231.707 7.851.04.517.216.751.693.882 5.697 1.56 11.389 3.133 17.087 4.686.294.08.646.066.943-.009 1.328-.339 2.646-.716 3.968-1.079 4.35-1.196 8.699-2.385 13.041-3.605.298-.084.719-.388.755-.635.174-1.225.236-2.466.342-3.7.164-1.928.326-3.855.499-5.782.229-2.567.472-5.134.702-7.701.171-1.901.328-3.804.499-5.705.231-2.567.472-5.134.703-7.701.169-1.877.325-3.755.495-5.633.23-2.542.453-5.085.713-7.625.075-.722-.15-.928-.887-.925zm.103 1.78c-.25 2.45-.465 4.903-.688 7.355-.164 1.811-.314 3.623-.478 5.433-.223 2.476-.455 4.952-.678 7.428-.165 1.834-.316 3.669-.481 5.503-.223 2.477-.456 4.952-.678 7.429-.166 1.858-.323 3.717-.481 5.576-.102 1.191-.161 2.388-.33 3.569-.033.238-.439.531-.728.612-4.188 1.178-8.384 2.324-12.578 3.478-1.275.351-2.547.714-3.828 1.041a1.881 1.881 0 0 1-.91.009c-5.497-1.498-10.987-3.016-16.482-4.52-.46-.126-.63-.352-.669-.851-.197-2.526-.457-5.048-.681-7.572-.21-2.357-.398-4.718-.609-7.076-.221-2.478-.462-4.952-.686-7.428-.164-1.811-.308-3.622-.471-5.432-.225-2.5-.463-5-.688-7.5-.16-1.786-.312-3.573-.466-5.36-.053-.62-.077-1.243-.157-1.858-.078-.598.178-.734.735-.723 1.519.032 3.039.011 4.559.011h16.137c6.827 0 13.654.01 20.48-.016.709-.002.927.197.856.892z"/><path d="M16.114 8.517v2.56h-1.086V6.39l3.686 2.779v-2.56H19.8v4.684l-3.686-2.776zm8.329-1.908c.149 0 .278.052.386.157a.502.502 0 0 1 .163.373v3.407a.503.503 0 0 1-.163.375.537.537 0 0 1-.386.155h-3.674a.545.545 0 0 1-.389-.155.503.503 0 0 1-.163-.375V7.139c0-.144.054-.269.163-.373a.538.538 0 0 1 .389-.157h3.674zm-.537.879h-2.599v2.709h2.599V7.488zm2.056-.879h3.951v.879h-3.414v.914h3.137c.148 0 .277.053.386.159.108.105.163.23.163.375v1.611a.503.503 0 0 1-.163.375.537.537 0 0 1-.386.155H25.41v-.879h3.685v-.917h-3.133a.545.545 0 0 1-.39-.156.5.5 0 0 1-.162-.375V7.139c0-.144.054-.269.163-.373a.538.538 0 0 1 .389-.157zm8.866 0a.54.54 0 0 1 .387.157.5.5 0 0 1 .162.373v3.059h.271v.879h-4.494a.546.546 0 0 1-.391-.155.505.505 0 0 1-.161-.375V7.139c0-.144.054-.269.161-.373a.536.536 0 0 1 .391-.157h3.674zm-.537.879h-2.6v2.709h2.6V7.488zm2.861-.879v3.589h3.686v.879h-4.771V6.609h1.085z" fill="#FFF"/><g fill-rule="evenodd" clip-rule="evenodd" fill="#FFF"><path d="M26.266 16.303h2.303c.063.012.124.031.187.036 1.472.111 2.938.263 4.368.646 1.128.302 2.228.672 3.17 1.39.53.403.887.906.886 1.604-.002 1.604.003 3.208-.006 4.813a1.978 1.978 0 0 1-.112.618c-.186.544-.616.887-1.072 1.192-.774.517-1.642.833-2.53 1.083-1.674.472-3.392.689-5.126.741-2.25.067-4.483-.092-6.671-.669-1.123-.296-2.211-.674-3.144-1.394-.516-.398-.862-.892-.862-1.572v-4.813c0-.495.177-.918.522-1.277.439-.458.976-.773 1.547-1.029 1.663-.746 3.431-1.06 5.23-1.239l1.31-.13zm1.149.669c-.702.043-1.404.069-2.104.133-1.333.123-2.639.376-3.879.895-.524.22-1.023.489-1.42.907-.426.447-.611 1.067-.121 1.636.245.283.546.536.866.731.887.542 1.883.807 2.894 1.004 1.596.311 3.208.39 4.833.313 1.468-.07 2.908-.271 4.304-.736.741-.248 1.452-.562 2.021-1.127.431-.429.547-.981.268-1.486-.191-.345-.497-.594-.827-.803-.634-.401-1.33-.659-2.05-.856-1.566-.429-3.166-.584-4.785-.611zm1.154 25.882h-2.303c-.062-.013-.124-.03-.186-.036-.67-.064-1.343-.109-2.01-.194a17.284 17.284 0 0 1-3.194-.695c-.845-.278-1.66-.618-2.368-1.17-.555-.432-.866-.976-.857-1.706.019-1.547.006-3.095.007-4.642 0-.089.013-.178.02-.267.343.728.932 1.187 1.622 1.508.639.299 1.295.577 1.968.785 1.573.486 3.2.681 4.839.766 1.648.084 3.295.02 4.928-.218 1.419-.207 2.818-.513 4.126-1.13.815-.385 1.583-.834 1.988-1.764.014.134.028.216.028.297.001 1.583-.001 3.166.002 4.749.001.535-.188.984-.569 1.364-.417.417-.915.712-1.445.955-1.69.772-3.493 1.092-5.329 1.269-.422.041-.845.086-1.267.129z"/><path d="M37.159 26.893c.007.089.019.178.019.266.002 1.541-.014 3.082.008 4.622.011.783-.341 1.342-.943 1.791-.803.597-1.72.948-2.668 1.226-1.256.367-2.542.57-3.846.686a25.644 25.644 0 0 1-3.83.064c-1.681-.103-3.344-.328-4.954-.846-.935-.3-1.838-.67-2.591-1.326a1.946 1.946 0 0 1-.702-1.564c.013-1.555.004-3.109.005-4.664 0-.085.015-.171.04-.258.313.727.909 1.151 1.565 1.504 1.205.649 2.51 1.004 3.853 1.214.909.143 1.827.251 2.746.308.912.057 1.83.062 2.744.032a20.768 20.768 0 0 0 4.747-.688c.809-.218 1.598-.499 2.326-.919.608-.35 1.168-.756 1.481-1.448z"/></g></svg>