<svg xmlns="http://www.w3.org/2000/svg" width="55" height="55"><path fill-rule="evenodd" clip-rule="evenodd" fill="#0179CB" d="M27.551 2.016c7.338 0 14.676.011 22.014-.017.764-.003.997.21.921.958-.269 2.633-.5 5.27-.739 7.906-.176 1.946-.338 3.894-.513 5.84-.24 2.662-.489 5.323-.729 7.985-.178 1.971-.341 3.944-.518 5.916-.24 2.662-.49 5.323-.729 7.985-.179 1.997-.348 3.995-.518 5.994-.109 1.28-.174 2.566-.354 3.837-.037.257-.474.571-.782.658-4.501 1.266-9.012 2.498-13.521 3.738-1.37.377-2.737.768-4.114 1.118a1.987 1.987 0 0 1-.978.009c-5.908-1.609-11.811-3.241-17.717-4.857-.496-.136-.678-.378-.72-.914-.211-2.716-.49-5.426-.732-8.14-.226-2.534-.428-5.072-.655-7.606-.237-2.663-.496-5.323-.736-7.984-.176-1.946-.332-3.894-.506-5.84-.242-2.687-.498-5.374-.741-8.061-.172-1.921-.334-3.842-.5-5.763-.058-.666-.082-1.336-.169-1.997-.084-.643.192-.789.789-.777 1.633.034 3.267.012 4.901.012h17.346z"/><path opacity=".2" fill-rule="evenodd" clip-rule="evenodd" fill="#FFF" d="M45.155 12.383c.176-2.15.349-4.301.547-6.448.061-.654-.125-.84-.729-.838-5.811.024-11.621.015-17.432.015H27.5v7.271h17.655zm-17.737.868l.164 38.002c.127-.005.255-.024.372-.059 1.089-.312 2.17-.658 3.254-.992 3.565-1.101 7.133-2.194 10.692-3.317.245-.077.589-.354.617-.579.139-1.111.185-2.237.266-3.358.128-1.749.254-3.498.388-5.247.179-2.33.367-4.66.546-6.99.133-1.726.255-3.452.388-5.178.18-2.33.367-4.66.547-6.99.132-1.704.252-3.408.385-5.112l.02-.255-17.639.075z"/><path fill-rule="evenodd" clip-rule="evenodd" fill="#FFF" d="M48.781 2.923c-7.077.027-14.154.016-21.231.016H10.82c-1.576 0-3.152.022-4.726-.012-.578-.011-.844.13-.762.749.083.639.107 1.285.163 1.927.159 1.853.316 3.706.484 5.558.234 2.592.48 5.183.714 7.775.169 1.876.319 3.755.488 5.631.232 2.568.481 5.133.71 7.701.218 2.444.414 4.892.631 7.336.234 2.617.502 5.231.707 7.851.04.517.216.751.693.882 5.697 1.56 11.389 3.133 17.088 4.686.293.08.646.066.943-.009 1.328-.339 2.646-.716 3.968-1.079 4.35-1.196 8.699-2.385 13.041-3.605.298-.084.72-.388.755-.635.174-1.225.236-2.466.342-3.7.165-1.928.326-3.855.499-5.782.229-2.567.472-5.134.702-7.701.171-1.901.329-3.804.5-5.705.23-2.567.471-5.134.702-7.701.169-1.877.325-3.755.495-5.633.23-2.542.453-5.085.713-7.625.074-.722-.152-.928-.889-.925zm.104 1.78c-.251 2.45-.466 4.903-.688 7.355-.164 1.811-.314 3.623-.477 5.433-.224 2.476-.456 4.952-.679 7.428-.164 1.834-.316 3.669-.481 5.503-.223 2.477-.456 4.952-.678 7.429-.166 1.858-.323 3.717-.481 5.576-.102 1.191-.161 2.388-.33 3.569-.033.238-.439.531-.728.612-4.188 1.178-8.384 2.324-12.578 3.478-1.274.351-2.547.714-3.827 1.041a1.881 1.881 0 0 1-.91.009c-5.496-1.498-10.987-3.016-16.481-4.52-.461-.126-.63-.352-.669-.851-.197-2.526-.456-5.048-.681-7.572-.21-2.357-.398-4.718-.609-7.076-.221-2.478-.461-4.952-.685-7.428-.164-1.811-.309-3.622-.471-5.432-.226-2.5-.463-5-.688-7.5-.164-1.786-.316-3.573-.47-5.36-.053-.62-.076-1.243-.157-1.858-.078-.598.178-.734.735-.723 1.519.032 3.039.011 4.559.011h16.137c6.826 0 13.653.01 20.479-.016.71-.002.928.197.858.892z"/><path d="M10.199 7.05h.777l.836 1.64.838-1.64h.777l-1.615 3.171-1.613-3.171zm3.511 3.023V7.05h.735v3.023h-.735zm1.392-3.023h2.673v.595h-2.31v.619h2.122c.101 0 .188.036.262.107.073.072.11.156.11.253v1.09c0 .099-.037.184-.11.254s-.161.105-.262.105h-2.859v-.595h2.494v-.62h-2.12c-.103 0-.19-.035-.264-.105s-.11-.155-.11-.254v-1.09c0-.098.037-.182.11-.252a.361.361 0 0 1 .264-.107zm5.633 0h.735v2.664c0 .099-.036.184-.109.254s-.16.105-.262.105h-2.486a.363.363 0 0 1-.262-.105.339.339 0 0 1-.109-.254V7.05h.735v2.428h1.758V7.05zm1.389 0h2.488a.36.36 0 0 1 .261.106c.074.071.11.155.11.252v2.664h-.737v-.918H22.49v.918h-.737V7.409a.34.34 0 0 1 .109-.252.357.357 0 0 1 .262-.107zm2.122 1.512v-.917H22.49v.917h1.756zm1.755-1.512v2.428h2.494v.595h-3.229V7.05h.735zm4.157 0h2.857v.595h-2.492v1.833h2.492v.595h-2.857a.367.367 0 0 1-.263-.105.342.342 0 0 1-.108-.254V7.409c0-.098.036-.182.108-.252a.362.362 0 0 1 .263-.107zm5.999 0c.101 0 .188.035.262.106a.34.34 0 0 1 .11.252v2.305c0 .099-.037.184-.11.254s-.161.105-.262.105h-2.485c-.103 0-.19-.035-.264-.105s-.11-.155-.11-.254V7.409c0-.098.037-.182.11-.252a.365.365 0 0 1 .264-.106h2.485zm-.363.595h-1.759v1.833h1.759V7.645zm4.138-.489a.34.34 0 0 1 .11.252v2.305a.34.34 0 0 1-.11.254.371.371 0 0 1-.264.105h-2.856V7.05h2.856a.37.37 0 0 1 .264.106zm-2.386.489v1.833h1.76V7.645h-1.76zm5.272 1.213h-1.757v.62h2.494v.595h-3.23V7.05h3.23v.595h-2.494v.619h1.757v.594z" fill="#FFF"/><path fill-rule="evenodd" clip-rule="evenodd" fill="#FFF" d="M15.234 35.718V23.495c.166-.049.342-.077.496-.151.57-.271 1.14-.544 1.694-.845.293-.159.509-.153.781.063 1.698 1.346 3.421 2.662 5.109 4.02.429.345.675.318 1.061-.071 2.85-2.872 5.729-5.715 8.585-8.581.3-.301.553-.367.948-.198.994.426 2.004.819 3.015 1.208.888.341 1.785.659 2.679.986V39.18c-1.876.755-3.759 1.492-5.62 2.277-.449.188-.704.108-1.029-.218-2.87-2.879-5.76-5.738-8.632-8.615-.3-.3-.489-.343-.847-.059-1.698 1.347-3.436 2.645-5.131 3.994-.379.302-.663.294-1.063.09-.666-.339-1.362-.624-2.046-.931zm17.949-1.634v-8.958l-5.825 4.487 5.825 4.471zm-15.127-1.563l2.95-2.664-2.95-2.966v5.63z"/></svg>