<svg xmlns="http://www.w3.org/2000/svg" width="55" height="55"><path fill-rule="evenodd" clip-rule="evenodd" fill="#18E0EF" d="M27.551 2.016c7.337 0 14.676.011 22.014-.017.763-.003.997.21.921.958-.27 2.633-.5 5.27-.739 7.906-.176 1.946-.338 3.894-.514 5.84-.239 2.662-.488 5.323-.728 7.985-.178 1.971-.341 3.944-.519 5.916-.239 2.662-.489 5.323-.728 7.985-.179 1.997-.348 3.996-.518 5.994-.109 1.28-.174 2.567-.354 3.837-.037.257-.474.571-.782.658-4.502 1.267-9.013 2.498-13.521 3.738-1.37.377-2.737.768-4.114 1.119a2.011 2.011 0 0 1-.978.009c-5.909-1.61-11.811-3.242-17.717-4.858-.495-.136-.677-.378-.719-.913-.212-2.716-.49-5.427-.732-8.14-.226-2.535-.428-5.072-.654-7.607-.238-2.662-.496-5.323-.737-7.984-.176-1.946-.331-3.894-.506-5.839-.242-2.688-.498-5.374-.74-8.062-.174-1.921-.337-3.842-.502-5.763-.058-.666-.082-1.336-.169-1.998-.084-.642.191-.788.789-.776 1.633.035 3.267.012 4.9.012h17.347z"/><path opacity=".2" fill-rule="evenodd" clip-rule="evenodd" fill="#FFF" d="M45.155 12.382c.176-2.15.348-4.3.547-6.448.061-.653-.125-.84-.729-.838-5.811.024-11.621.015-17.432.015H27.5v7.271h17.655zm-17.737.869l.164 38.002a1.57 1.57 0 0 0 .372-.058c1.089-.313 2.17-.658 3.254-.993 3.565-1.101 7.133-2.194 10.692-3.317.244-.077.589-.354.617-.578.138-1.112.185-2.238.266-3.358.128-1.75.253-3.499.387-5.247.18-2.331.367-4.66.547-6.99.133-1.727.255-3.453.388-5.179.18-2.33.367-4.66.547-6.989.131-1.704.252-3.409.384-5.112l.021-.255-17.639.074z"/><path d="M17.123 6.565a.73.73 0 0 1 .462.151c.131.101.196.221.196.359v1.974a.44.44 0 0 1-.196.362.74.74 0 0 1-.462.148h-.114l1.017 1.308h-1.514L15.495 9.56h-2.109v1.308h-1.294V6.565h5.031zm-.64 2.151V7.412h-3.097v1.305h3.097zm6.433.422h-3.094v.883h4.392v.847h-5.689V6.565h5.689v.847h-4.392v.88h3.094v.846zm2.449-2.573h4.381c.178 0 .331.05.46.151.13.101.194.221.194.359v3.792h-1.298V9.56h-3.093v1.308h-1.298V7.076c0-.139.064-.258.192-.359s.282-.152.462-.152zm3.738 2.151V7.412H26.01v1.305h3.093zm2.45-2.151h5.031v.847h-4.388v2.609h4.388v.847h-5.031a.729.729 0 0 1-.463-.15.444.444 0 0 1-.191-.361V7.076c0-.139.063-.258.191-.359s.282-.152.463-.152zm11.215 0v.847h-2.194v3.456h-1.298V7.412h-2.193v-.847h5.685z" fill="#FFF"/><path fill-rule="evenodd" clip-rule="evenodd" fill="#FFF" d="M48.781 2.923c-7.077.027-14.154.016-21.231.016H10.819c-1.575 0-3.151.022-4.726-.012-.577-.011-.843.13-.761.749.083.639.107 1.285.163 1.927.159 1.853.316 3.706.483 5.558.234 2.592.481 5.183.714 7.775.169 1.876.318 3.755.488 5.632.232 2.567.481 5.133.71 7.701.218 2.444.413 4.892.631 7.337.233 2.616.502 5.23.707 7.851.04.517.216.75.693.881 5.697 1.56 11.389 3.133 17.087 4.686.294.08.646.067.943-.009 1.328-.338 2.646-.715 3.968-1.078 4.35-1.196 8.699-2.385 13.041-3.606.298-.084.719-.387.755-.635.174-1.225.236-2.466.342-3.7.164-1.928.326-3.854.499-5.781.229-2.567.472-5.134.702-7.702.171-1.901.328-3.804.499-5.705.231-2.567.472-5.134.703-7.701.169-1.877.325-3.755.495-5.632.23-2.542.453-5.086.713-7.625.075-.724-.15-.93-.887-.927zm.103 1.78c-.25 2.45-.465 4.903-.688 7.355-.164 1.811-.314 3.623-.478 5.433-.223 2.476-.455 4.952-.678 7.428-.165 1.834-.316 3.669-.481 5.503-.223 2.477-.456 4.952-.678 7.429-.166 1.858-.323 3.718-.481 5.576-.102 1.191-.161 2.388-.33 3.569-.033.239-.439.531-.728.612-4.188 1.179-8.384 2.324-12.578 3.479-1.275.351-2.547.714-3.828 1.04a1.869 1.869 0 0 1-.91.009c-5.497-1.498-10.987-3.016-16.482-4.52-.46-.126-.63-.352-.669-.85-.197-2.526-.457-5.049-.681-7.572-.21-2.358-.398-4.719-.609-7.077-.221-2.477-.462-4.951-.686-7.428-.164-1.81-.308-3.622-.471-5.432-.225-2.5-.463-5-.688-7.5-.16-1.786-.312-3.573-.466-5.36-.053-.62-.077-1.243-.157-1.858-.078-.598.178-.734.735-.723 1.519.032 3.039.011 4.559.011h16.137c6.827 0 13.654.01 20.48-.016.709-.001.927.197.856.892z"/><g fill-rule="evenodd" clip-rule="evenodd" fill="#FFF"><path d="M19.751 26.407c-.289-1.185-.496-2.346-.437-3.531a8.1 8.1 0 0 1 .246-1.692c.45-1.673 1.663-2.359 3.355-1.943 1.309.322 2.415 1.025 3.454 1.846.365.288.711.601 1.055.893.49-.406.963-.826 1.465-1.208.939-.715 1.947-1.31 3.119-1.576 1.528-.347 2.649.261 3.171 1.728.333.939.411 1.916.321 2.897-.079.865-.22 1.724-.338 2.621l.442.144c1.251.404 2.464.898 3.496 1.726.417.334.809.729 1.117 1.162.598.841.583 1.737.044 2.616-.381.621-.92 1.09-1.514 1.5-1.017.702-2.145 1.171-3.316 1.545l-.26.085c.08.415.17.825.235 1.24.212 1.338.272 2.673-.119 3.994-.002.008-.003.017-.006.024-.524 1.697-1.749 2.375-3.479 1.916-1.277-.339-2.351-1.047-3.357-1.866-.33-.268-.643-.555-.986-.852-.059.054-.125.112-.189.172-1.07.977-2.219 1.837-3.595 2.348-.662.245-1.341.401-2.057.296-.773-.114-1.337-.527-1.719-1.194-.419-.732-.555-1.539-.592-2.366-.053-1.152.108-2.283.367-3.403.017-.072.03-.145.05-.241-.242-.08-.477-.155-.709-.235-1.286-.441-2.518-.995-3.529-1.92a5.52 5.52 0 0 1-1.004-1.225c-.436-.73-.401-1.505.009-2.254.322-.589.795-1.042 1.328-1.438 1.112-.824 2.375-1.332 3.69-1.728l.242-.081zm7.646 8.589l.001.077c.733-.026 1.468-.046 2.2-.087.119-.007.285-.082.342-.178.751-1.271 1.488-2.55 2.218-3.834a.4.4 0 0 0 .002-.338 308.821 308.821 0 0 0-2.223-3.803.41.41 0 0 0-.291-.178c-1.484-.011-2.968-.01-4.453-.001a.368.368 0 0 0-.264.14 29.327 29.327 0 0 0-2.261 3.893.352.352 0 0 0 0 .272 30.172 30.172 0 0 0 2.269 3.89c.05.073.17.139.258.141.735.011 1.469.006 2.202.006zm-7.423-.81c.457-1.121.894-2.187 1.32-3.255.031-.077.005-.192-.027-.276-.382-.998-.771-1.994-1.159-2.99-.02-.051-.049-.099-.071-.145-1.155.224-2.914 1.047-3.777 1.789-.244.21-.465.454-.66.71-.375.491-.39 1.019-.026 1.521.208.287.444.563.71.797.727.64 1.583 1.07 2.48 1.421.408.158.828.293 1.21.428zm.865 1.398c-.011.032-.026.069-.036.108-.231.92-.37 1.853-.374 2.802-.003.648.051 1.293.294 1.905.307.774.704 1.027 1.536.977.165-.01.332-.038.492-.079 1.149-.29 2.112-.922 3.022-1.646.31-.246.6-.516.865-.744-.739-.936-1.452-1.843-2.174-2.743-.051-.064-.165-.1-.253-.11-.413-.052-.83-.078-1.242-.138-.707-.102-1.413-.22-2.13-.332zm13.236-.042c-.991.152-1.934.344-2.886.423-.54.045-.854.254-1.154.682-.538.768-1.151 1.481-1.755 2.245.307.266.623.559.96.827.836.668 1.718 1.266 2.766 1.562 1.232.349 1.896-.018 2.226-1.253.403-1.513.173-3.009-.157-4.486zm-7.479-12.765c-.952-.892-2.001-1.715-3.268-2.221a5.123 5.123 0 0 0-.984-.272c-.794-.142-1.278.13-1.585.875a3.57 3.57 0 0 0-.202.665c-.199 1.007-.133 2.015.029 3.02.069.43.168.855.245 1.242 1.175-.168 2.304-.328 3.432-.494a.31.31 0 0 0 .184-.099c.714-.896 1.423-1.797 2.149-2.716zm7.407 3.359c.298-1.231.467-2.458.352-3.71-.051-.54-.169-1.063-.437-1.544-.268-.48-.679-.698-1.223-.641a4.248 4.248 0 0 0-.807.156c-.913.282-1.704.791-2.449 1.371-.418.326-.813.682-1.183.994.728.93 1.427 1.828 2.134 2.719a.418.418 0 0 0 .249.122c.677.1 1.355.181 2.03.285.443.067.881.162 1.334.248zm.905 7.989c1.436-.468 2.852-1.016 3.971-2.114.192-.188.35-.422.488-.655.221-.371.23-.772-.016-1.13-.209-.305-.441-.609-.721-.849-1.104-.944-2.436-1.439-3.818-1.861l-.082.218c-.366.933-.722 1.87-1.104 2.795a.638.638 0 0 0 .009.556c.427.995.839 1.998 1.273 3.04zm-3.611.732l2.483-.424-.896-2.322-1.587 2.746zm-9.325-2.706l-.856 2.334 2.444.39-1.588-2.724zm7.049 4.02H25.86c.553.657 1.067 1.267 1.608 1.907l1.553-1.907zm2.278-9.375l1.574 2.702.851-2.281-2.425-.421zm-3.864-3.205l-1.578 1.875h3.139l-1.561-1.875zm-3.902 3.202l-2.405.417.847 2.277 1.558-2.694z"/><path d="M29.78 30.81a2.355 2.355 0 0 0-2.332-2.366 2.36 2.36 0 0 0-2.387 2.364c-.002 1.283 1.061 2.338 2.358 2.342a2.358 2.358 0 0 0 2.361-2.34z"/><path d="M29.78 30.81a2.358 2.358 0 0 1-2.36 2.34c-1.298-.004-2.36-1.059-2.358-2.342a2.36 2.36 0 0 1 2.387-2.364 2.354 2.354 0 0 1 2.331 2.366z"/></g></svg>