<svg xmlns="http://www.w3.org/2000/svg" width="55" height="55"><path fill-rule="evenodd" clip-rule="evenodd" fill="#FF761B" d="M27.552 2.016c7.338 0 14.676.011 22.014-.017.764-.003.997.21.921.957-.269 2.634-.5 5.27-.739 7.906-.176 1.946-.338 3.894-.513 5.84-.239 2.662-.489 5.323-.729 7.985-.178 1.972-.341 3.944-.519 5.916-.239 2.662-.489 5.323-.728 7.985-.179 1.997-.348 3.996-.518 5.994-.109 1.28-.174 2.567-.354 3.837-.036.257-.473.571-.782.658-4.501 1.266-9.013 2.498-13.521 3.738-1.37.377-2.737.768-4.114 1.119a2.011 2.011 0 0 1-.978.009c-5.909-1.61-11.811-3.242-17.717-4.858-.495-.136-.677-.378-.719-.914-.212-2.716-.491-5.426-.733-8.14-.226-2.534-.428-5.071-.654-7.606-.237-2.662-.496-5.322-.736-7.984-.176-1.946-.331-3.893-.507-5.839-.242-2.688-.497-5.374-.74-8.062-.174-1.92-.336-3.841-.502-5.762-.057-.666-.082-1.336-.169-1.998-.084-.642.191-.788.789-.776 1.633.035 3.267.012 4.9.012h17.348z"/><path opacity=".2" fill-rule="evenodd" clip-rule="evenodd" fill="#FFF" d="M45.155 12.382c.176-2.15.349-4.3.547-6.448.061-.653-.125-.84-.729-.837-5.811.024-11.621.014-17.432.014H27.5v7.271h17.655zm-17.737.869l.164 38.002c.128-.005.255-.024.373-.058 1.088-.313 2.169-.659 3.253-.993 3.565-1.101 7.133-2.194 10.692-3.317.244-.077.589-.354.617-.579.139-1.111.185-2.237.267-3.358.127-1.749.253-3.498.387-5.247.179-2.33.367-4.659.546-6.99.133-1.726.255-3.452.388-5.178.18-2.33.367-4.659.547-6.989.132-1.705.252-3.409.385-5.113l.02-.255-17.639.075z"/><path fill-rule="evenodd" clip-rule="evenodd" fill="#FFF" d="M48.781 2.923c-7.077.027-14.154.016-21.231.016H10.82c-1.576 0-3.152.022-4.727-.011-.577-.012-.843.129-.761.748.083.638.107 1.284.163 1.927.16 1.853.316 3.706.484 5.558.234 2.592.48 5.183.714 7.775.169 1.876.319 3.755.488 5.632.232 2.568.481 5.133.71 7.701.218 2.444.413 4.892.631 7.337.234 2.616.502 5.23.707 7.85.04.518.216.751.693.882 5.697 1.56 11.39 3.133 17.087 4.686.294.08.646.067.944-.009 1.328-.339 2.647-.715 3.967-1.078 4.35-1.197 8.7-2.385 13.041-3.606.299-.084.72-.387.755-.635.175-1.225.236-2.466.342-3.7.164-1.928.326-3.855.499-5.782.23-2.566.472-5.133.702-7.701.171-1.901.329-3.803.5-5.705.23-2.567.472-5.134.702-7.701.169-1.877.325-3.756.495-5.633.23-2.542.453-5.085.713-7.625.074-.723-.151-.929-.888-.926zm.104 1.78c-.251 2.449-.466 4.903-.688 7.355-.163 1.811-.314 3.622-.478 5.434-.223 2.476-.454 4.951-.678 7.428-.164 1.834-.316 3.669-.481 5.503-.223 2.477-.456 4.952-.678 7.429-.166 1.858-.322 3.718-.481 5.576-.102 1.191-.161 2.388-.329 3.569-.034.239-.44.531-.728.612-4.188 1.179-8.385 2.324-12.579 3.478-1.274.352-2.546.715-3.827 1.041a1.869 1.869 0 0 1-.91.009c-5.497-1.498-10.987-3.016-16.481-4.52-.461-.126-.63-.352-.669-.851-.197-2.526-.456-5.048-.681-7.571-.21-2.358-.398-4.719-.609-7.077-.221-2.477-.461-4.951-.686-7.428-.164-1.81-.308-3.622-.471-5.432-.226-2.5-.463-5-.689-7.5-.162-1.787-.313-3.574-.468-5.361-.053-.62-.076-1.243-.157-1.859-.078-.597.178-.733.735-.722 1.519.032 3.039.011 4.559.011h16.137c6.827 0 13.653.01 20.479-.015.71-.003.928.196.858.891z"/><path d="M9.198 10.172V7.209h.72v2.963h-.72zm1.718-2.963v2.38h2.444v.583h-3.165V7.209h.721zm3.441 0v2.38h2.444v.583h-3.165V7.209h.721zm5.166 0h.72V9.82c0 .097-.036.18-.107.249a.355.355 0 0 1-.257.103h-2.437a.355.355 0 0 1-.257-.103.33.33 0 0 1-.107-.249V7.209h.72v2.38h1.724v-2.38zm1.364 0h2.621v.583h-2.264v.606h2.08c.099 0 .184.035.256.105.072.07.108.153.108.248V9.82c0 .097-.036.18-.108.249a.356.356 0 0 1-.256.103h-2.802v-.583h2.444v-.608h-2.078a.358.358 0 0 1-.258-.103.332.332 0 0 1-.107-.249V7.561c0-.095.036-.178.107-.248s.157-.104.257-.104zm6.242 0v.583h-1.221v2.38h-.723v-2.38h-1.221v-.583h3.165zm3.078 0a.36.36 0 0 1 .257.104.33.33 0 0 1 .109.248V8.92a.329.329 0 0 1-.109.25.363.363 0 0 1-.257.103h-.063l.566.9h-.844l-.566-.9h-1.173v.9h-.721V7.209h2.801zm-.356 1.482v-.899h-1.724v.899h1.724zm1.5-1.482h2.438c.1 0 .185.035.257.104a.335.335 0 0 1 .107.248v2.611h-.723v-.9h-1.722v.9h-.723V7.561c0-.095.036-.178.107-.248s.158-.104.259-.104zm2.08 1.482v-.899h-1.722v.899h1.722zm4.164-1.482v.583h-1.221v2.38h-.723v-2.38H34.43v-.583h3.165zm3.08 0a.36.36 0 0 1 .257.104.335.335 0 0 1 .107.248v2.26c0 .097-.036.18-.107.249a.359.359 0 0 1-.257.103h-2.437a.36.36 0 0 1-.258-.103.331.331 0 0 1-.108-.249v-2.26c0-.095.036-.178.108-.248s.158-.104.258-.104h2.437zm-.357.583h-1.724v1.797h1.724V7.792zm3.798-.583c.1 0 .186.035.258.104a.328.328 0 0 1 .108.248V8.92a.328.328 0 0 1-.108.25.364.364 0 0 1-.258.103h-.063l.566.9h-.844l-.566-.9h-1.173v.9h-.721V7.209h2.801zm-.355 1.482v-.899h-1.724v.899h1.724z" fill="#FFF"/><g fill-rule="evenodd" clip-rule="evenodd" fill="#FFF"><path d="M16.578 18.85h21.845v21.36H16.578V18.85zm1.738 1.701V38.51h18.368V20.551H18.316z"/><path d="M29.315 34.447c-.376 0-.714.002-1.052 0-.776-.006-.609.098-.808-.612-.204-.726-.398-1.455-.6-2.197H23.96l-.361 1.401c-.103.399-.212.796-.304 1.198-.036.154-.102.216-.26.213-.367-.008-.734-.003-1.102.002-.188.002-.266-.054-.205-.263.229-.789.447-1.582.671-2.373.622-2.195 1.246-4.389 1.864-6.584.055-.196.08-.401.099-.604.014-.142.066-.194.208-.192.555.005 1.111-.005 1.666.009.078.002.201.097.223.173.488 1.656.964 3.315 1.445 4.973l1.411 4.856zm-2.814-4.328l-1.049-3.984-.097.014-.981 3.97h2.127zm4.178-3.061c.477 0 .945-.006 1.413.008.056.001.119.104.159.172.022.039.004.101.004.153 0 2.257-.003 4.514.006 6.771.001.225-.053.305-.283.292-.366-.019-.734-.01-1.102-.005-.154.002-.236-.043-.236-.218.006-2.352.008-4.703.012-7.055-.001-.025.01-.049.027-.118zm-.11-1.971c.004-.625.381-.983 1.074-.936.368.024.729.393.726.969-.002.467-.28.899-.902.881-.587-.017-.9-.322-.898-.914z"/></g></svg>