<svg class="svg-home" fill="#424242" viewBox="0 0 128 128" xmlns="http://www.w3.org/2000/svg"><g clip-rule="evenodd" fill-rule="evenodd"><path d="M0 66.938c15.565-15.712 31.146-31.409 46.687-47.145 5.593-5.663 11.092-11.42 16.793-17.3 8.144 8.071 15.825 15.627 23.444 23.247 12.122 12.121 24.206 24.278 36.292 36.435 1.17 1.177 2.543 2.304 3.25 3.736.469.948-.08 2.401-.176 3.628-1.205-.113-2.787.222-3.547-.419-2.791-2.354-5.34-4.999-7.92-7.593-16.197-16.28-32.376-32.577-48.572-48.858-.681-.683-1.47-1.258-2.648-2.256-9.865 9.946-19.55 19.735-29.265 29.495-9.274 9.316-18.62 18.562-27.843 27.927-2.296 2.332-4.279 3.054-6.495.103v-1z"/><path d="M110.08 125.8H74.49V91.692H53.225v33.992H18.103c-.119-1.342-.352-2.761-.354-4.182-.015-16.326.002-32.653.019-48.979.001-.998-.189-2.103.171-2.964.393-.938 1.279-2.242 2.034-2.301.792-.061 2.12 1.007 2.433 1.866.491 1.348.421 2.934.423 4.419.025 13.662.014 27.323.014 40.984v5.657h24.921V85.556c10.253 0 20.011-.082 29.76.163.74.019 2.009 2.339 2.035 3.61.175 8.326.075 16.658.065 24.988-.002 1.801 0 3.601 0 5.786h25.244v-17.981c0-9.996-.131-19.995.125-29.984.045-1.706 1.74-3.369 2.672-5.053.805 1.569 2.295 3.132 2.311 4.708.165 17.812.104 35.624.104 54.007zM104.68 19.081c-5.657 0-10.954.197-16.221-.116-1.645-.098-3.208-1.571-4.808-2.414 1.55-1.131 3.053-3.156 4.657-3.239 6.959-.361 13.948-.155 21.688-.155 0 8.127.08 16.034-.109 23.934-.021.88-1.566 1.725-2.404 2.585-.855-1.087-2.381-2.134-2.449-3.269-.295-4.812-.154-9.651-.184-14.48-.004-.661-.077-1.321-.17-2.846z"/></g></svg>