<svg class="svg-projects" fill="#424242" viewBox="0 0 128 128" xmlns="http://www.w3.org/2000/svg"><path d="M127.06 50.944c-8.816 8.826-17.566 17.72-26.492 26.434-2.475 2.417-3.467 4.563-2.701 8.263 2.291 11.053 4.02 22.226 5.814 33.376.234 1.451.078 3.713-.814 4.391-.924.701-3.193.381-4.482-.27-9.936-5.012-19.85-10.077-29.605-15.426-3.443-1.887-6.185-2.002-9.684-.03-9.542 5.376-19.279 10.409-29.028 15.404-1.436.735-3.981 1.291-4.883.551-1.016-.832-1.227-3.302-.967-4.928a1192.03 1192.03 0 0 1 5.536-31.918c.702-3.733.193-6.511-2.833-9.291-7.965-7.318-15.617-14.98-23.252-22.647-1.277-1.282-1.843-3.271-2.737-4.934 1.664-.812 3.253-2.077 5.002-2.359a1233.754 1233.754 0 0 1 33.03-4.889c3.178-.424 4.89-1.824 6.25-4.738 4.71-10.093 9.668-20.073 14.73-29.995.804-1.575 2.627-2.63 3.979-3.925 1.161 1.28 2.663 2.387 3.426 3.872 4.926 9.584 9.969 19.126 14.375 28.951C83.591 41 86.247 42.3 90.38 42.799c10.549 1.275 21.061 2.865 31.568 4.446 1.75.263 3.41 1.118 5.111 1.699l.001 2zm-30.166 64.815c-.266-2.747-.318-4.357-.59-5.931-1.42-8.182-2.754-16.384-4.408-24.519-.869-4.272-.256-7.461 3.252-10.574 6.34-5.627 12.205-11.795 18.189-17.814 1.146-1.152 1.934-2.66 3.254-4.521-10.68-1.563-20.346-3.186-30.068-4.307-4.242-.489-6.836-1.977-8.648-6.055-3.633-8.174-7.854-16.087-11.885-24.08-.553-1.094-1.416-2.03-2.562-3.64-1.122 2.113-1.92 3.525-2.636 4.978-3.97 8.051-7.722 16.22-12.013 24.095-1.087 1.996-3.687 3.944-5.904 4.402-6.982 1.442-14.119 2.124-21.184 3.185-3.479.522-6.93 1.232-10.795 1.93 6.445 6.67 11.753 13.415 18.3 18.596 6.995 5.534 7.791 11.461 5.714 19.452-2.008 7.727-2.686 15.799-4.182 25.187 7.286-3.799 13.709-6.288 19.139-10.167 9.716-6.939 18.504-7.228 28.26.055 5.31 3.961 11.877 6.239 18.767 9.728z" clip-rule="evenodd" fill-rule="evenodd"/></svg>