<svg xmlns="http://www.w3.org/2000/svg" xmlns:xlink="http://www.w3.org/1999/xlink" width="500" height="500"><image overflow="visible" width="548" height="548" xlink:href="4ED2D9EB.jpg" transform="translate(-7942 -7942)"/><g stroke="#424242" stroke-width="3" stroke-miterlimit="10"><path fill="none" d="M441.262 195.063c-112.297.179-224.592.159-336.888.026-6.284-.008-9.269 1.556-11.54 5.89-13.902 26.532-28.195 52.949-42.32 79.415-.944 1.767-1.575 3.628-2.516 5.83 15.043.499 28.835 1.166 42.638 1.312 5.691.064 8.296 1.413 7.902 5.7-.17 1.855-.143 3.721-.168 5.582-.347 24.586-1.366 49.183-.768 73.758.35 14.381 6.381 18.628 24.261 20.473 8.2.846 16.533 1.274 24.813 1.324 26.873.163 53.749.061 82.154.061l.001 8.088c0 24.41.214 48.822-.165 73.227-.086 5.474 2.006 7.026 9.347 6.977 39.37-.259 78.744-.272 118.115.008 7.67.056 9.857-1.528 9.821-7.271-.232-37.024.59-74.055-.133-111.074-.33-16.915 4.725-32.398 15.992-46.729 12.047-15.323 25.098-30.207 37.521-45.367 17.562-21.433 29.17-44.36 31.375-69.692.482-5.526-1.466-7.55-9.442-7.538zM107.097 162.434c21.62-.294 43.252-.106 64.88-.109 12.155-.001 12.182-.003 12.206-8.941.097-35.833 44.898-72.161 106.442-63.465 44.464 6.283 72.207 32.533 72.84 66.566.09 4.726 2.134 5.992 8.188 5.926 20.793-.225 41.591-.013 62.385-.108 17.034-.078 14.357 1.805 15.007-11.294.208-4.209-2.065-5.406-7.292-5.308-7.477.139-15.03.262-22.416-.427-2.546-.238-5.927-2.622-6.771-4.55-2.558-5.85-3.583-12.076-6.141-17.928-1.871-4.289-1.17-6.757 4.569-8.816 8.147-2.922 15.896-6.463 24.381-9.975-5.734-7.8-10.995-14.955-16.568-22.538-9.017 3.717-17.338 6.949-25.374 10.537-4.487 2.003-7.194 1.34-10.479-1.574a185.693 185.693 0 0 0-17.753-13.896c-3.563-2.46-4.02-4.337-1.433-7.355 5.175-6.041 9.905-12.293 15.196-18.932l-29.169-13.212c-5.495 6.798-10.529 12.715-15.112 18.82-2.352 3.128-4.95 3.738-9.437 2.549-8.061-2.134-16.217-4.281-24.573-5.51-5.439-.799-6.789-2.577-6.627-6.224.247-5.58.455-11.186-.062-16.743-.156-1.665-2.559-4.402-4.324-4.59-7.635-.814-15.422-.797-23.14-1.217-4.767-.258-6.357 1.338-6.273 4.745.131 5.582-.461 11.176-.155 16.747.231 4.178-2.268 5.852-7.396 6.625-8.11 1.221-16.311 2.399-24.106 4.389-5.476 1.398-8.082.325-10.51-3.192-4.271-6.183-8.955-12.208-13.723-18.645-8.944 3.659-16.833 7.049-24.929 10.137-4.456 1.699-4.267 3.699-2.109 6.489 3.736 4.829 7.069 9.835 10.899 14.621 2.537 3.167 2.443 5.325-1.722 7.897-6.376 3.939-12.422 8.266-17.907 12.89-4.003 3.375-7.242 3.398-11.988 1.053-7.546-3.733-15.473-7.039-23.814-10.782L115.11 98.891c8.801 4.034 16.417 7.775 24.362 11.072 4.721 1.959 6.182 4.007 3.905 7.9-2.308 3.945-3.906 8.15-5.402 12.323-3.793 10.577-3.701 10.596-18.791 10.571-20.621-.034-20.391-.033-20.483 15.243-.03 4.771 1.632 6.527 8.396 6.434z"/><path fill="#424242" d="M452.695 185.806c-119.255-.002-238.511-.001-357.767-.001h-7.81L28.24 296.576h56.122v34.091c0 10.761-.212 21.521.083 32.278.163 5.966.738 11.971 1.891 17.877 2.278 11.66 10.966 18.558 26.836 20.554 11.131 1.4 22.506 2.127 33.799 2.334 19.953.362 39.932.307 59.887-.004 7.219-.11 9.627 1.484 9.549 7.012-.35 24.616.03 49.241-.276 73.86-.071 5.737 2.684 7.519 10.186 7.488 47.424-.176 94.85-.212 142.273.03 8.188.04 10.193-2.077 10.157-7.899-.275-42.624-.142-85.246-.063-127.867.005-2.659.386-5.348 1.017-7.964 3.411-14.127 12.768-26.332 22.672-38.318 11.194-13.55 23.214-26.74 33.734-40.568 17.769-23.36 27.977-48.428 27.4-75.593-.172-8.066-.047-8.08-10.812-8.081zm-1.992 16.793c-2.205 25.332-13.813 48.259-31.375 69.692-12.423 15.16-25.474 30.044-37.521 45.367-11.268 14.33-16.322 29.813-15.992 46.729.723 37.02-.1 74.05.133 111.074.036 5.742-2.151 7.326-9.821 7.271-39.371-.28-78.745-.267-118.115-.008-7.341.05-9.434-1.503-9.347-6.977.378-24.404.165-48.816.165-73.227l-.001-8.088c-28.405 0-55.281.103-82.154-.061-8.28-.05-16.613-.479-24.813-1.324-17.88-1.845-23.912-6.092-24.261-20.473-.598-24.575.421-49.172.768-73.758.025-1.861-.002-3.727.168-5.582.395-4.287-2.21-5.636-7.902-5.7-13.803-.146-27.595-.813-42.638-1.312.941-2.202 1.572-4.063 2.516-5.83 14.125-26.466 28.418-52.883 42.32-79.415 2.271-4.334 5.256-5.898 11.54-5.89 112.296.133 224.591.153 336.888-.026 7.977-.01 9.925 2.014 9.442 7.538zM94.573 171.996c31.89-.263 63.783-.102 95.674-.141 2.597-.002 5.191-.363 7.749-.553-3.952-40.215 19.721-67.788 62.337-72.482 19.974-2.2 39.314-.022 56.319 9.003 29.578 15.694 38.505 37.559 32.549 63.107 1.751.489 2.258.753 2.768.753 34.382.075 68.766.08 103.148.232 5.539.024 6.441-2.427 6.49-5.572.125-8.274-.054-16.554.277-24.823.168-4.177-2.305-5.411-7.463-5.306-7.48.151-14.978-.147-22.459 0-4.924.099-8.829-.153-9.008-4.925-.165-4.357-6.879-9.164 2.965-12.579 8.95-3.106 17.337-7.117 26.71-11.036l-28.593-39.065c-7.572 3.023-14.355 5.707-21.108 8.434-12.358 4.989-12.517 5.109-21.872-2.963-1.54-1.329-2.088-4.533-1.027-6.085 4.01-5.877 9.137-11.329 13.218-17.183.957-1.375.366-4.756-1.046-5.432-15.098-7.229-30.505-14.099-46.687-21.459-5.762 7.076-11.204 13.501-16.259 20.093-2.232 2.911-4.608 4.754-9.091 2.772-4.791-2.118-13.854.128-13.31-7.544.44-6.19.029-12.412.249-18.615.113-3.218-.907-4.919-5.918-4.976-15.216-.171-30.433-.586-45.637-1.096-5.586-.188-8.214 1.188-8.049 5.596.235 6.201.376 12.436-.308 18.602-.205 1.847-2.833 4.367-5.173 5.083-4.447 1.36-9.491 1.643-14.457 2.399l-18.192-24.458-52.256 21.569c5.18 7.142 9.375 13.881 14.739 20.055 5.612 6.458-2.623 8.001-6.008 11.398-3.356 3.366-6.653 3.274-11.198 1.016-8.228-4.087-16.869-7.712-26.149-11.896-9.921 12.291-19.436 23.889-28.505 35.676-.725.942.996 3.837 2.642 4.721 5.381 2.891 10.989 5.707 17.002 7.74 8.719 2.95 10.632 6.659 7.042 13.521-2.251 4.303-4.371 5.982-10.394 5.706-7.46-.342-14.983.107-22.452-.18-5.717-.221-7.911 1.243-7.788 5.622.268 9.511.317 19.042-.203 28.545-.274 5.043 1.647 6.784 8.732 6.726zm24.612-31.238c15.09.024 14.998.006 18.791-10.571 1.497-4.173 3.094-8.378 5.402-12.323 2.277-3.894.816-5.941-3.905-7.9-7.946-3.297-15.562-7.039-24.362-11.072 6.127-7.557 11.68-14.403 17.677-21.797 8.342 3.744 16.268 7.049 23.814 10.782 4.746 2.345 7.984 2.322 11.988-1.053 5.484-4.624 11.531-8.95 17.907-12.89 4.165-2.573 4.259-4.73 1.722-7.897-3.831-4.786-7.164-9.792-10.899-14.621-2.158-2.791-2.346-4.79 2.109-6.489 8.096-3.088 15.985-6.479 24.929-10.137 4.768 6.437 9.452 12.461 13.723 18.645 2.428 3.517 5.035 4.59 10.51 3.192 7.796-1.99 15.997-3.168 24.106-4.389 5.128-.773 7.627-2.446 7.396-6.625-.306-5.571.286-11.165.155-16.747-.084-3.407 1.507-5.003 6.273-4.745 7.718.42 15.505.403 23.14 1.217 1.766.188 4.168 2.925 4.324 4.59.517 5.557.309 11.163.062 16.743-.162 3.647 1.188 5.425 6.627 6.224 8.356 1.229 16.513 3.376 24.573 5.51 4.486 1.188 7.085.579 9.437-2.549 4.583-6.105 9.617-12.022 15.112-18.82l29.169 13.212c-5.291 6.639-10.021 12.892-15.196 18.932-2.587 3.018-2.13 4.895 1.433 7.355a185.693 185.693 0 0 1 17.753 13.896c3.285 2.914 5.992 3.577 10.479 1.574 8.036-3.588 16.357-6.82 25.374-10.537 5.573 7.583 10.834 14.738 16.568 22.538-8.485 3.511-16.233 7.052-24.381 9.975-5.739 2.06-6.44 4.527-4.569 8.816 2.558 5.853 3.583 12.079 6.141 17.928.844 1.928 4.225 4.313 6.771 4.55 7.386.689 14.939.566 22.416.427 5.227-.099 7.5 1.098 7.292 5.308-.649 13.099 2.027 11.216-15.007 11.294-20.794.095-41.592-.117-62.385.108-6.055.066-8.099-1.2-8.188-5.926-.633-34.033-28.376-60.283-72.84-66.566-61.544-8.696-106.346 27.632-106.442 63.465-.024 8.938-.05 8.94-12.206 8.941-21.628.002-43.26-.186-64.88.109-6.765.093-8.426-1.664-8.396-6.433.092-15.277-.139-15.278 20.483-15.244z"/></g></svg>