<svg xmlns="http://www.w3.org/2000/svg" width="500" height="500"><g opacity=".9"><path fill="#424242" d="M250.004 487.238c-2.559 0-5.101-.365-7.352-1.056-46.358-14.229-93.429-29.011-138.95-43.306-12.36-3.882-24.721-7.764-37.083-11.64-12.646-3.965-12.887-4.041-12.888-19.917V174.973c-.001-44.747-.003-89.495.006-134.241.003-14.789 4.564-14.789 7.014-14.789 1.817 0 4.093.424 6.763 1.259 16.386 5.127 32.77 10.267 49.152 15.406 40.838 12.812 83.066 26.059 124.651 38.884 2.66.821 5.638 1.254 8.612 1.254 3.017 0 6.053-.445 8.782-1.286 45.033-13.898 90.762-28.261 134.985-42.15 12.431-3.905 24.862-7.809 37.294-11.708 3.459-1.085 6.286-1.636 8.402-1.636 2.9 0 6.872 0 6.874 16.688.004 123.218.002 246.44 0 369.662 0 14.472-.971 15.19-11.459 18.481-10.782 3.382-21.564 6.768-32.346 10.153-47.571 14.938-96.762 30.385-145.207 45.25-2.21.68-4.717 1.038-7.25 1.038zM68.943 412.124l173.244 54.267v-39.366L68.943 372.802v39.322zm188.985 14.852v39.188l6.469-1.987c2.473-.76 4.88-1.495 7.243-2.218 4.707-1.438 9.239-2.824 13.765-4.238l17.915-5.596c38.849-12.134 79.02-24.68 118.484-37.253 3.98-1.268 8.741-5.956 9.21-10.655.56-5.654.47-11.327.375-17.332a459.52 459.52 0 0 1-.077-7.419v-6.806l-173.384 54.316zm.167-325.331v305.488l172.657-54.072V47.537l-172.657 54.108zM69.077 353.023l171.781 53.761.937-5.675c.12-.726.23-1.294.322-1.765.195-1.007.364-1.876.365-2.91.006-22.267.009-44.53.012-66.794.008-71.344.017-145.117.164-217.673.018-8.998-4.855-11.724-9.626-13.205-19.126-5.943-38.565-12.049-57.364-17.954a29879.152 29879.152 0 0 0-36.655-11.497c-14.22-4.447-28.449-8.851-42.854-13.309-6.821-2.111-27.08-8.391-27.08-8.391v305.412z"/><path fill="#424242" d="M199.407 310.563c-.889 0-1.841-.165-2.829-.491-19.244-6.348-38.79-12.926-57.692-19.288-6.398-2.152-12.795-4.306-19.194-6.455a163.15 163.15 0 0 0-3.131-1.007c-2.679-.843-5.208-1.638-7.512-2.758-3.85-1.872-5.834-6.844-4.615-11.565 1.038-4.021 3.896-6.939 6.794-6.939.501 0 1.016.085 1.529.253 30.173 9.858 59.666 19.575 88.765 30.042 1.414.508 3.488 3.689 4.603 5.398.318.487.618.948.912 1.379-.192 4.278-1.341 7.661-3.29 9.627-1.187 1.196-2.647 1.804-4.34 1.804zM199.646 251.318c-1.462 0-3.13-.31-4.958-.919a23578.718 23578.718 0 0 1-83.643-28.06c-5.146-1.736-7.25-5.156-6.821-11.089.324-4.495 3.575-7.87 7.837-8.258l.311.088c1.08.304 2.423.682 3.743 1.125l15.183 5.099c21.945 7.369 44.638 14.989 66.939 22.545 4.081 1.382 10.612 4.906 8.513 12.982-1.513 5.815-4.778 6.487-7.104 6.487zM199.761 192.579a5.287 5.287 0 0 1-1.627-.271c-27.445-8.908-56.271-18.561-88.125-29.51-4.445-1.527-6.913-6.827-5.618-12.064 1.043-4.227 3.692-6.75 7.085-6.75.848 0 1.744.154 2.663.457l9.955 3.28c25.16 8.288 51.177 16.857 76.548 25.989 1.715.617 3.889 3.635 5.327 5.632.353.489.697.967 1.037 1.42-.199 4.349-1.464 7.973-3.56 10.101-1.121 1.138-2.361 1.716-3.685 1.716zM300.338 310.682c-3.381 0-5.96-2.393-7.076-6.565-.914-3.418-.312-6.955 1.61-9.46.977-1.273 2.206-2.172 3.655-2.67 22.575-7.772 45.589-15.458 67.846-22.89 6.773-2.262 13.546-4.523 20.318-6.791.049-.016.11-.028.173-.042.336-.071.658-.108.975-.149.139-.019.277-.036.415-.056.105.015.21.029.313.046 2.645.422 5.849 1.694 7.17 7.852.428 1.987.214 4.133-.602 6.043-.916 2.151-2.515 3.862-4.503 4.822l-.253.115a8.067 8.067 0 0 1-.606.249 436.9 436.9 0 0 1-4.545 1.578l-1.488.512c-7.575 2.614-15.321 5.162-22.813 7.627-4.436 1.46-8.871 2.919-13.302 4.4-5.288 1.769-10.572 3.555-15.856 5.34-9.37 3.166-19.06 6.44-28.601 9.556-.982.321-1.935.483-2.83.483zM300.8 251.753a7.316 7.316 0 0 1-3.201-.829c-2.559-1.328-4.266-4.021-4.565-7.203a18.3 18.3 0 0 1-.077-2.314c.149-4.452 2.089-7.289 5.927-8.67 7.909-2.847 16.051-5.503 23.925-8.072 4.056-1.323 8.112-2.646 12.16-4.001 5.98-2.002 11.956-4.021 17.931-6.041 10.663-3.604 21.689-7.33 32.549-10.886 1.066-.349 2.089-.526 3.04-.526 4.516 0 6.305 4.02 6.969 6.417.285 1.026.434 2.068.441 3.097.035 4.423-2.396 8.012-6.345 9.364-22.098 7.572-44.616 15.093-66.394 22.367-7 2.338-14 4.676-20.999 7.02-.339.113-.834.194-1.231.259a1.57 1.57 0 0 0-.13.018zM300.882 192.576c-3.629-.128-6.752-2.856-7.648-6.722a9.635 9.635 0 0 1-.232-1.358c-.518-5.748 1.429-9.331 5.946-10.959 8.173-2.943 16.584-5.694 24.719-8.354 4.043-1.322 8.086-2.644 12.121-3.995 5.855-1.958 11.709-3.933 17.562-5.907 10.543-3.557 21.444-7.234 32.18-10.752 1.006-.33 1.979-.497 2.892-.497 3.13 0 4.93 1.98 5.889 3.641a12.24 12.24 0 0 1 1.175 2.881c1.443 5.282-.857 10.606-5.239 12.117-22.685 7.826-45.814 15.557-68.184 23.033-6.651 2.223-13.303 4.446-19.952 6.675-.244.082-.72.138-1.034.175l-.195.022z"/></g></svg>