<svg xmlns="http://www.w3.org/2000/svg" width="55" height="55"><g fill="#dadada"><path d="M48.297 20.853c-2.988-.691-4.895-5.483-3.158-7.941 2.346-3.323 1.256-7.25-2.479-8.93-3.159-1.422-6.013-.775-8.69 1.234-2.441 1.833-5.771 1.07-7.449-1.439C26 3 24.843 2.345 23.896 2.211c-3.676-.52-8.441 2.254-9.695 5.763-.418 1.172-.448 3.116.251 3.889.821.91 2.753 1.486 3.978 1.209 1.958-.441 3.741-1.686 5.579-2.629 1.316-.676 2.6-1.415 4.063-2.215 1.611.745 3.662 1.041 4.015 1.975 1.204 3.204 3.55 4.462 6.56 5.13 1.574.35 4.338 5.414 3.434 6.668-.844 1.168-2.46 2.832-3.424 2.648-2.189-.418-5.285.681-6.357-2.67-.734-2.295-2.311-3.899-4.654-4.548-3.671-1.016-7.865 1.205-9.443 4.896-1.577 3.687-.37 8.106 2.742 10.041 3.269 2.03 7.218 1.253 9.891-2.433 1.865-2.574 3.947-.836 5.917-.854 1.498-.013 2.533.799 2.938 2.476.735 3.053 2.76 4.963 5.893 5.418 4.609.67 8.139-1.959 8.883-6.466.705-4.3-2.115-8.719-6.17-9.656z"/><path d="M35.01 38.605c-2.902-1-6.064-.012-8.049 2.518-1.89 2.408-6.296 1.977-7.625-.756-1.106-2.274-2.619-4.096-5.248-4.612-3.069-.604-4.764-4.608-3.655-7.56.91-2.42 1.425-5.117 1.437-7.694.006-1.235-1.361-3.224-2.466-3.519-1.266-.337-3.335.419-4.346 1.418-2.776 2.743-3.618 6.368-3.012 10.182.311 1.956 1.217 3.713 3.737 3.626.365-.013 1.003.149 1.067.365.689 2.301 2.603 4.206 1.666 7.038-1.271 3.845.435 8.117 3.713 10.367 2.792 1.914 5.218 1.353 7.036-1.446.492-.759 1.615-1.804 2.2-1.665 1.594.375 3.695-.51 4.653 1.943 1.486 3.808 4.721 5.574 8.05 4.818 3.297-.748 5.916-4.172 5.952-7.786.034-3.438-1.852-6.112-5.11-7.237z"/></g></svg>