<svg fill="#dadada" viewBox="0 0 128 128" xmlns="http://www.w3.org/2000/svg"><path d="M67.274 126.03h-6.776c-.388-.08-.773-.18-1.163-.232-2.667-.366-5.372-.554-7.996-1.113-13.679-2.917-25.137-9.682-34.287-20.254C9.226 95.392 4.4 84.926 2.662 73.073c-.273-1.864-.483-3.735-.722-5.603v-6.773c.079-.389.176-.774.23-1.165.379-2.705.582-5.447 1.149-8.112 2.913-13.687 9.726-25.12 20.308-34.25 9.021-7.785 19.456-12.58 31.27-14.31 1.862-.273 3.734-.483 5.602-.722h6.776c.388.079.772.181 1.166.229 2.232.284 4.492.422 6.697.849 14.256 2.757 26.181 9.626 35.661 20.616 7.811 9.051 12.616 19.526 14.321 31.387.264 1.822.476 3.651.713 5.478v6.773c-.079.39-.18.771-.234 1.162-.38 2.706-.583 5.446-1.149 8.111-2.898 13.6-9.645 24.979-20.129 34.09-9.057 7.875-19.553 12.722-31.448 14.472-1.863.276-3.733.484-5.599.725zM52.512 87.818c-2.9-.602-5.674-1.037-8.375-1.761-6.788-1.818-12.406-5.321-15.918-11.647-2.332-4.204-3.283-8.788-3.663-13.525-.584-7.277.596-14.052 5.512-19.811.293-.342.397-1.051.278-1.508-1.06-4.104-1.213-8.223-.054-12.299 1.148-4.04.474-4.052 5.133-3.163 4.413.841 8.268 3.073 12.073 5.362.468.282 1.129.467 1.657.391 2.864-.411 5.701-1.044 8.573-1.368 6.938-.785 13.838-.519 20.62 1.284.789.21 1.338.038 2.014-.318 2.88-1.517 5.723-3.142 8.726-4.364 1.935-.787 4.117-.995 6.21-1.338.387-.064 1.127.362 1.272.731 1.872 4.81 2.519 9.728.895 14.748-.219.68-.134 1.08.308 1.606 2.205 2.628 3.717 5.62 4.634 8.931 1.313 4.729 1.098 9.504.388 14.267-.922 6.175-3.222 11.709-8.031 15.942-3.92 3.449-8.623 5.257-13.646 6.331-1.907.408-3.844.687-5.805 1.031 3.264 4.399 4.039 6.792 4.039 12.366.002 3.872 0 7.742 0 11.614v5.695c19.934-5.483 41.445-26.827 38.475-57.255-2.678-27.419-26.191-48.902-54.121-48.72-28.751.19-52.295 22.345-53.954 51.244-1.625 28.294 18.28 48.969 38.594 54.34v-10.866c-2.67.143-5.287.512-7.876.369-6.025-.326-10.548-3.013-12.994-8.801-1.574-3.729-3.805-7.003-7.357-9.195-.607-.374-1.162-.884-1.626-1.429-.667-.783-.483-1.525.5-1.733 1.001-.211 2.094-.332 3.091-.168 3.775.631 6.488 2.835 8.485 6.028 4.208 6.729 10.712 8.043 17.539 5.292.33-.135.708-.566.76-.901.436-2.824 1.449-5.351 3.644-7.402z" clip-rule="evenodd" fill-rule="evenodd"/></svg>